%TF.GenerationSoftware,KiCad,Pcbnew,7.0.1*%
%TF.CreationDate,2023-04-17T09:27:04+12:00*%
%TF.ProjectId,MCT8329A-breakout,4d435438-3332-4394-912d-627265616b6f,1.0*%
%TF.SameCoordinates,Original*%
%TF.FileFunction,Copper,L2,Bot*%
%TF.FilePolarity,Positive*%
%FSLAX46Y46*%
G04 Gerber Fmt 4.6, Leading zero omitted, Abs format (unit mm)*
G04 Created by KiCad (PCBNEW 7.0.1) date 2023-04-17 09:27:04*
%MOMM*%
%LPD*%
G01*
G04 APERTURE LIST*
%TA.AperFunction,ComponentPad*%
%ADD10C,1.700000*%
%TD*%
%TA.AperFunction,ComponentPad*%
%ADD11O,1.700000X1.700000*%
%TD*%
%TA.AperFunction,SMDPad,CuDef*%
%ADD12C,2.000000*%
%TD*%
%TA.AperFunction,ViaPad*%
%ADD13C,0.500000*%
%TD*%
%TA.AperFunction,Conductor*%
%ADD14C,0.204000*%
%TD*%
G04 APERTURE END LIST*
%TA.AperFunction,EtchedComponent*%
%TO.C,NT1*%
G36*
X151921320Y-105232893D02*
G01*
X149092893Y-108061320D01*
X147678680Y-106647107D01*
X150507107Y-103818680D01*
X151921320Y-105232893D01*
G37*
%TD.AperFunction*%
%TA.AperFunction,EtchedComponent*%
G36*
X151211320Y-104522893D02*
G01*
X148382893Y-107351320D01*
X146968680Y-105937107D01*
X149797107Y-103108680D01*
X151211320Y-104522893D01*
G37*
%TD.AperFunction*%
%TD*%
D10*
%TO.P,J2,1,Pin_1*%
%TO.N,PGND*%
X152835000Y-108335000D03*
D11*
%TO.P,J2,2,Pin_2*%
%TO.N,PVDD*%
X152835000Y-105795000D03*
%TO.P,J2,3,Pin_3*%
%TO.N,/CPL*%
X152835000Y-103255000D03*
%TO.P,J2,4,Pin_4*%
%TO.N,/CPH*%
X152835000Y-100715000D03*
%TO.P,J2,5,Pin_5*%
%TO.N,/GVDD*%
X152835000Y-98175000D03*
%TO.P,J2,6,Pin_6*%
%TO.N,/BSTA*%
X152835000Y-95635000D03*
%TO.P,J2,7,Pin_7*%
%TO.N,/SHA*%
X152835000Y-93095000D03*
%TO.P,J2,8,Pin_8*%
%TO.N,/GHA*%
X152835000Y-90555000D03*
%TO.P,J2,9,Pin_9*%
%TO.N,/GLA*%
X152835000Y-88015000D03*
%TO.P,J2,10,Pin_10*%
%TO.N,/BSTB*%
X152835000Y-85475000D03*
%TO.P,J2,11,Pin_11*%
%TO.N,/SHB*%
X152835000Y-82935000D03*
%TO.P,J2,12,Pin_12*%
%TO.N,/GHB*%
X152835000Y-80395000D03*
%TO.P,J2,13,Pin_13*%
%TO.N,/GLB*%
X152835000Y-77855000D03*
%TO.P,J2,14,Pin_14*%
%TO.N,/BSTC*%
X152835000Y-75315000D03*
%TO.P,J2,15,Pin_15*%
%TO.N,/SHC*%
X152835000Y-72775000D03*
%TO.P,J2,16,Pin_16*%
%TO.N,/GHC*%
X152835000Y-70235000D03*
%TO.P,J2,17,Pin_17*%
%TO.N,/GLC*%
X152835000Y-67695000D03*
%TO.P,J2,18,Pin_18*%
%TO.N,/LSS*%
X152835000Y-65155000D03*
%TO.P,J2,19,Pin_19*%
%TO.N,/SP*%
X152835000Y-62615000D03*
%TO.P,J2,20,Pin_20*%
%TO.N,/SN*%
X152835000Y-60075000D03*
%TD*%
D12*
%TO.P,NT1,1,1*%
%TO.N,PGND*%
X148385786Y-107354214D03*
%TO.P,NT1,2,2*%
%TO.N,GND*%
X151214214Y-104525786D03*
%TD*%
D10*
%TO.P,J1,1,Pin_1*%
%TO.N,/DRVOFF*%
X132545000Y-60085000D03*
D11*
%TO.P,J1,2,Pin_2*%
%TO.N,AGND*%
X132545000Y-62625000D03*
%TO.P,J1,3,Pin_3*%
%TO.N,AVDD*%
X132545000Y-65165000D03*
%TO.P,J1,4,Pin_4*%
%TO.N,/SPEED{slash}WAKE*%
X132545000Y-67705000D03*
%TO.P,J1,5,Pin_5*%
%TO.N,/FG*%
X132545000Y-70245000D03*
%TO.P,J1,6,Pin_6*%
%TO.N,/SDA*%
X132545000Y-72785000D03*
%TO.P,J1,7,Pin_7*%
%TO.N,/SCL*%
X132545000Y-75325000D03*
%TO.P,J1,8,Pin_8*%
%TO.N,/DIR*%
X132545000Y-77865000D03*
%TO.P,J1,9,Pin_9*%
%TO.N,/EXT_CLK*%
X132545000Y-80405000D03*
%TO.P,J1,10,Pin_10*%
%TO.N,/DACOUT{slash}SOx{slash}SPEED_ANA*%
X132545000Y-82945000D03*
%TO.P,J1,11,Pin_11*%
%TO.N,/BRAKE*%
X132545000Y-85485000D03*
%TO.P,J1,12,Pin_12*%
%TO.N,/nFAULT*%
X132545000Y-88025000D03*
%TO.P,J1,13,Pin_13*%
%TO.N,DVDD*%
X132545000Y-90565000D03*
%TO.P,J1,14,Pin_14*%
%TO.N,DGND*%
X132545000Y-93105000D03*
%TD*%
D12*
%TO.P,NT1,1,1*%
%TO.N,PGND*%
X147675786Y-106644214D03*
%TO.P,NT1,2,2*%
%TO.N,GND*%
X150504214Y-103815786D03*
%TD*%
D13*
%TO.N,AVDD*%
X140575000Y-76200000D03*
X142845000Y-84492141D03*
X139045000Y-76610000D03*
X143845000Y-76580000D03*
X139472858Y-84640000D03*
%TO.N,GND*%
X145520000Y-79630000D03*
X144540000Y-80595000D03*
X149020000Y-85110000D03*
X146500000Y-81560000D03*
X147790000Y-71860000D03*
X144540000Y-79630000D03*
X149000000Y-78260000D03*
X144200000Y-73210000D03*
X147750000Y-83910000D03*
X137225000Y-83900000D03*
X145520000Y-80595000D03*
X149690000Y-79360000D03*
X149690000Y-81430000D03*
X147810000Y-91510000D03*
X142100000Y-77220000D03*
X148210000Y-89380000D03*
X143560000Y-79630000D03*
X145520000Y-81560000D03*
X146500000Y-79630000D03*
X149430000Y-83000000D03*
X145750000Y-72400000D03*
X138450000Y-76010000D03*
X137225000Y-77280000D03*
X148610000Y-87240000D03*
X139800000Y-85920000D03*
X135680000Y-81430000D03*
X136480000Y-69620000D03*
X146990000Y-67580000D03*
X139120000Y-74770000D03*
X148200000Y-73980000D03*
X147390000Y-69710000D03*
X144540000Y-81560000D03*
X146500000Y-80595000D03*
X143560000Y-80595000D03*
X139790000Y-87680000D03*
X143560000Y-81560000D03*
X138180000Y-85820000D03*
X148600000Y-76110000D03*
X147750000Y-78160000D03*
%TO.N,PGND*%
X141850000Y-83570000D03*
X142555498Y-73400000D03*
X143190000Y-86200000D03*
X141700000Y-86190000D03*
X141390000Y-88250000D03*
X142850000Y-88250000D03*
X144230000Y-83440000D03*
X144230000Y-84440000D03*
%TD*%
D14*
%TO.N,AVDD*%
X142845000Y-83585000D02*
X142130000Y-82870000D01*
X142130000Y-82870000D02*
X140580000Y-82870000D01*
X143465000Y-76200000D02*
X143845000Y-76580000D01*
X140575000Y-76200000D02*
X139455000Y-76200000D01*
X139472858Y-84640000D02*
X140575000Y-83537858D01*
X140575000Y-83537858D02*
X140575000Y-82875000D01*
X142845000Y-84492141D02*
X142845000Y-83585000D01*
X139455000Y-76200000D02*
X139045000Y-76610000D01*
X140575000Y-82875000D02*
X140575000Y-76200000D01*
X140575000Y-76200000D02*
X143465000Y-76200000D01*
%TO.N,PGND*%
X137448000Y-85188000D02*
X141062000Y-85188000D01*
X142555498Y-73400000D02*
X137450000Y-73400000D01*
X136677000Y-84417000D02*
X137448000Y-85188000D01*
X136677000Y-74173000D02*
X136677000Y-84417000D01*
X137450000Y-73400000D02*
X136677000Y-74173000D01*
%TD*%
%TA.AperFunction,Conductor*%
%TO.N,GND*%
G36*
X154596500Y-58277381D02*
G01*
X154642619Y-58323500D01*
X154659500Y-58386500D01*
X154659500Y-106952500D01*
X154642619Y-107015500D01*
X154596500Y-107061619D01*
X154533500Y-107078500D01*
X153044900Y-107078500D01*
X152983694Y-107062635D01*
X152937901Y-107019037D01*
X152919052Y-106958683D01*
X152931894Y-106896772D01*
X152973193Y-106848894D01*
X153032549Y-106827107D01*
X153040150Y-106826358D01*
X153040149Y-106826358D01*
X153237416Y-106766518D01*
X153419218Y-106669344D01*
X153578568Y-106538568D01*
X153709344Y-106379218D01*
X153806518Y-106197416D01*
X153866358Y-106000150D01*
X153886564Y-105795000D01*
X153866358Y-105589850D01*
X153806518Y-105392584D01*
X153709344Y-105210782D01*
X153709342Y-105210779D01*
X153578568Y-105051431D01*
X153419220Y-104920657D01*
X153237414Y-104823481D01*
X153040150Y-104763641D01*
X152835000Y-104743435D01*
X152629849Y-104763641D01*
X152432585Y-104823481D01*
X152250779Y-104920657D01*
X152091431Y-105051431D01*
X151960657Y-105210779D01*
X151863481Y-105392585D01*
X151803641Y-105589849D01*
X151783435Y-105794999D01*
X151803641Y-106000150D01*
X151863481Y-106197414D01*
X151960657Y-106379220D01*
X152091431Y-106538568D01*
X152250779Y-106669342D01*
X152250780Y-106669342D01*
X152250782Y-106669344D01*
X152432584Y-106766518D01*
X152531217Y-106796438D01*
X152629849Y-106826358D01*
X152637451Y-106827107D01*
X152696807Y-106848894D01*
X152738106Y-106896772D01*
X152750948Y-106958683D01*
X152732099Y-107019037D01*
X152686306Y-107062635D01*
X152625100Y-107078500D01*
X152125654Y-107078500D01*
X152077436Y-107068909D01*
X152036559Y-107041595D01*
X148249962Y-103254999D01*
X151783435Y-103254999D01*
X151803641Y-103460150D01*
X151863481Y-103657414D01*
X151960657Y-103839220D01*
X152091431Y-103998568D01*
X152250779Y-104129342D01*
X152250780Y-104129342D01*
X152250782Y-104129344D01*
X152432584Y-104226518D01*
X152531217Y-104256438D01*
X152629849Y-104286358D01*
X152834999Y-104306564D01*
X152834999Y-104306563D01*
X152835000Y-104306564D01*
X153040150Y-104286358D01*
X153237416Y-104226518D01*
X153419218Y-104129344D01*
X153578568Y-103998568D01*
X153709344Y-103839218D01*
X153806518Y-103657416D01*
X153866358Y-103460150D01*
X153886564Y-103255000D01*
X153866358Y-103049850D01*
X153806518Y-102852584D01*
X153709344Y-102670782D01*
X153709342Y-102670779D01*
X153578568Y-102511431D01*
X153419220Y-102380657D01*
X153237414Y-102283481D01*
X153040150Y-102223641D01*
X152835000Y-102203435D01*
X152629849Y-102223641D01*
X152432585Y-102283481D01*
X152250779Y-102380657D01*
X152091431Y-102511431D01*
X151960657Y-102670779D01*
X151863481Y-102852585D01*
X151803641Y-103049849D01*
X151783435Y-103254999D01*
X148249962Y-103254999D01*
X145709962Y-100714999D01*
X151783435Y-100714999D01*
X151803641Y-100920150D01*
X151863481Y-101117414D01*
X151960657Y-101299220D01*
X152091431Y-101458568D01*
X152250779Y-101589342D01*
X152250780Y-101589342D01*
X152250782Y-101589344D01*
X152432584Y-101686518D01*
X152531216Y-101716437D01*
X152629849Y-101746358D01*
X152834999Y-101766564D01*
X152834999Y-101766563D01*
X152835000Y-101766564D01*
X153040150Y-101746358D01*
X153237416Y-101686518D01*
X153419218Y-101589344D01*
X153578568Y-101458568D01*
X153709344Y-101299218D01*
X153806518Y-101117416D01*
X153866358Y-100920150D01*
X153886564Y-100715000D01*
X153870340Y-100550284D01*
X153866358Y-100509849D01*
X153806518Y-100312585D01*
X153806518Y-100312584D01*
X153709344Y-100130782D01*
X153709342Y-100130779D01*
X153578568Y-99971431D01*
X153419220Y-99840657D01*
X153312177Y-99783442D01*
X153237416Y-99743482D01*
X153237415Y-99743481D01*
X153237414Y-99743481D01*
X153040150Y-99683641D01*
X152835000Y-99663435D01*
X152629849Y-99683641D01*
X152432585Y-99743481D01*
X152250779Y-99840657D01*
X152091431Y-99971431D01*
X151960657Y-100130779D01*
X151863481Y-100312585D01*
X151803641Y-100509849D01*
X151783435Y-100714999D01*
X145709962Y-100714999D01*
X144778405Y-99783442D01*
X144751091Y-99742565D01*
X144741500Y-99694347D01*
X144741500Y-98175000D01*
X151783435Y-98175000D01*
X151803641Y-98380150D01*
X151863481Y-98577414D01*
X151960657Y-98759220D01*
X152091431Y-98918568D01*
X152250779Y-99049342D01*
X152250780Y-99049342D01*
X152250782Y-99049344D01*
X152432584Y-99146518D01*
X152531217Y-99176438D01*
X152629849Y-99206358D01*
X152834999Y-99226564D01*
X152834999Y-99226563D01*
X152835000Y-99226564D01*
X153040150Y-99206358D01*
X153237416Y-99146518D01*
X153419218Y-99049344D01*
X153578568Y-98918568D01*
X153709344Y-98759218D01*
X153806518Y-98577416D01*
X153866358Y-98380150D01*
X153886564Y-98175000D01*
X153866358Y-97969850D01*
X153806518Y-97772584D01*
X153709344Y-97590782D01*
X153709342Y-97590779D01*
X153578568Y-97431431D01*
X153419220Y-97300657D01*
X153237414Y-97203481D01*
X153040150Y-97143641D01*
X152835000Y-97123435D01*
X152629849Y-97143641D01*
X152432585Y-97203481D01*
X152250779Y-97300657D01*
X152091431Y-97431431D01*
X151960657Y-97590779D01*
X151863481Y-97772585D01*
X151803641Y-97969849D01*
X151783435Y-98175000D01*
X144741500Y-98175000D01*
X144741500Y-95635000D01*
X151783435Y-95635000D01*
X151803641Y-95840150D01*
X151863481Y-96037414D01*
X151960657Y-96219220D01*
X152091431Y-96378568D01*
X152250779Y-96509342D01*
X152250780Y-96509342D01*
X152250782Y-96509344D01*
X152432584Y-96606518D01*
X152531217Y-96636438D01*
X152629849Y-96666358D01*
X152835000Y-96686564D01*
X153040150Y-96666358D01*
X153237416Y-96606518D01*
X153419218Y-96509344D01*
X153578568Y-96378568D01*
X153709344Y-96219218D01*
X153806518Y-96037416D01*
X153866358Y-95840150D01*
X153886564Y-95635000D01*
X153866358Y-95429850D01*
X153806518Y-95232584D01*
X153709344Y-95050782D01*
X153709342Y-95050779D01*
X153578568Y-94891431D01*
X153419220Y-94760657D01*
X153237414Y-94663481D01*
X153040150Y-94603641D01*
X152834999Y-94583435D01*
X152629849Y-94603641D01*
X152432585Y-94663481D01*
X152250779Y-94760657D01*
X152091431Y-94891431D01*
X151960657Y-95050779D01*
X151863481Y-95232585D01*
X151803641Y-95429849D01*
X151783435Y-95635000D01*
X144741500Y-95635000D01*
X144741500Y-93095000D01*
X151783435Y-93095000D01*
X151803641Y-93300150D01*
X151863481Y-93497414D01*
X151960657Y-93679220D01*
X152091431Y-93838568D01*
X152250779Y-93969342D01*
X152250780Y-93969342D01*
X152250782Y-93969344D01*
X152432584Y-94066518D01*
X152465550Y-94076518D01*
X152629849Y-94126358D01*
X152835000Y-94146564D01*
X153040150Y-94126358D01*
X153237416Y-94066518D01*
X153419218Y-93969344D01*
X153578568Y-93838568D01*
X153709344Y-93679218D01*
X153806518Y-93497416D01*
X153866358Y-93300150D01*
X153886564Y-93095000D01*
X153866358Y-92889850D01*
X153806518Y-92692584D01*
X153709344Y-92510782D01*
X153709342Y-92510779D01*
X153578568Y-92351431D01*
X153419220Y-92220657D01*
X153237414Y-92123481D01*
X153040150Y-92063641D01*
X152834999Y-92043435D01*
X152629849Y-92063641D01*
X152432585Y-92123481D01*
X152250779Y-92220657D01*
X152091431Y-92351431D01*
X151960657Y-92510779D01*
X151863481Y-92692585D01*
X151803641Y-92889849D01*
X151783435Y-93095000D01*
X144741500Y-93095000D01*
X144741500Y-90555000D01*
X151783435Y-90555000D01*
X151803641Y-90760150D01*
X151863481Y-90957414D01*
X151960657Y-91139220D01*
X152091431Y-91298568D01*
X152250779Y-91429342D01*
X152250780Y-91429342D01*
X152250782Y-91429344D01*
X152432584Y-91526518D01*
X152465550Y-91536518D01*
X152629849Y-91586358D01*
X152835000Y-91606564D01*
X153040150Y-91586358D01*
X153237416Y-91526518D01*
X153419218Y-91429344D01*
X153578568Y-91298568D01*
X153709344Y-91139218D01*
X153806518Y-90957416D01*
X153866358Y-90760150D01*
X153886564Y-90555000D01*
X153866358Y-90349850D01*
X153806518Y-90152584D01*
X153709344Y-89970782D01*
X153709342Y-89970779D01*
X153578568Y-89811431D01*
X153419220Y-89680657D01*
X153237414Y-89583481D01*
X153040150Y-89523641D01*
X152835000Y-89503435D01*
X152629849Y-89523641D01*
X152432585Y-89583481D01*
X152250779Y-89680657D01*
X152091431Y-89811431D01*
X151960657Y-89970779D01*
X151863481Y-90152585D01*
X151803641Y-90349849D01*
X151783435Y-90555000D01*
X144741500Y-90555000D01*
X144741500Y-88015000D01*
X151783435Y-88015000D01*
X151803641Y-88220150D01*
X151863481Y-88417414D01*
X151960657Y-88599220D01*
X152091431Y-88758568D01*
X152250779Y-88889342D01*
X152250780Y-88889342D01*
X152250782Y-88889344D01*
X152432584Y-88986518D01*
X152465550Y-88996518D01*
X152629849Y-89046358D01*
X152835000Y-89066564D01*
X153040150Y-89046358D01*
X153237416Y-88986518D01*
X153419218Y-88889344D01*
X153578568Y-88758568D01*
X153709344Y-88599218D01*
X153806518Y-88417416D01*
X153866358Y-88220150D01*
X153886564Y-88015000D01*
X153866358Y-87809850D01*
X153806518Y-87612584D01*
X153709344Y-87430782D01*
X153709342Y-87430779D01*
X153578568Y-87271431D01*
X153419220Y-87140657D01*
X153237414Y-87043481D01*
X153040150Y-86983641D01*
X152834999Y-86963435D01*
X152629849Y-86983641D01*
X152432585Y-87043481D01*
X152250779Y-87140657D01*
X152091431Y-87271431D01*
X151960657Y-87430779D01*
X151863481Y-87612585D01*
X151803641Y-87809849D01*
X151783435Y-88015000D01*
X144741500Y-88015000D01*
X144741500Y-85475000D01*
X151783435Y-85475000D01*
X151803641Y-85680150D01*
X151863481Y-85877414D01*
X151960657Y-86059220D01*
X152091431Y-86218568D01*
X152250779Y-86349342D01*
X152250780Y-86349342D01*
X152250782Y-86349344D01*
X152432584Y-86446518D01*
X152465550Y-86456518D01*
X152629849Y-86506358D01*
X152835000Y-86526564D01*
X153040150Y-86506358D01*
X153237416Y-86446518D01*
X153419218Y-86349344D01*
X153578568Y-86218568D01*
X153709344Y-86059218D01*
X153806518Y-85877416D01*
X153866358Y-85680150D01*
X153886564Y-85475000D01*
X153866358Y-85269850D01*
X153806518Y-85072584D01*
X153709344Y-84890782D01*
X153678005Y-84852595D01*
X153578568Y-84731431D01*
X153419220Y-84600657D01*
X153237414Y-84503481D01*
X153040150Y-84443641D01*
X152835000Y-84423435D01*
X152629849Y-84443641D01*
X152432585Y-84503481D01*
X152250779Y-84600657D01*
X152091431Y-84731431D01*
X151960657Y-84890779D01*
X151863481Y-85072585D01*
X151803641Y-85269849D01*
X151783435Y-85475000D01*
X144741500Y-85475000D01*
X144741500Y-83256000D01*
X144734634Y-83203849D01*
X144734634Y-83203847D01*
X144717753Y-83140847D01*
X144697623Y-83092250D01*
X144697622Y-83092249D01*
X144697622Y-83092248D01*
X144665600Y-83050516D01*
X144619483Y-83004399D01*
X144577751Y-82972377D01*
X144529154Y-82952247D01*
X144466150Y-82935365D01*
X144463377Y-82935000D01*
X151783435Y-82935000D01*
X151803641Y-83140150D01*
X151863481Y-83337414D01*
X151960657Y-83519220D01*
X152091431Y-83678568D01*
X152250779Y-83809342D01*
X152250780Y-83809342D01*
X152250782Y-83809344D01*
X152432584Y-83906518D01*
X152465550Y-83916518D01*
X152629849Y-83966358D01*
X152834999Y-83986564D01*
X152834999Y-83986563D01*
X152835000Y-83986564D01*
X153040150Y-83966358D01*
X153237416Y-83906518D01*
X153419218Y-83809344D01*
X153578568Y-83678568D01*
X153709344Y-83519218D01*
X153806518Y-83337416D01*
X153866358Y-83140150D01*
X153886564Y-82935000D01*
X153866358Y-82729850D01*
X153806518Y-82532584D01*
X153709344Y-82350782D01*
X153709342Y-82350779D01*
X153578568Y-82191431D01*
X153419220Y-82060657D01*
X153237414Y-81963481D01*
X153040150Y-81903641D01*
X152835000Y-81883435D01*
X152629849Y-81903641D01*
X152432585Y-81963481D01*
X152250779Y-82060657D01*
X152091431Y-82191431D01*
X151960657Y-82350779D01*
X151863481Y-82532585D01*
X151803641Y-82729849D01*
X151783435Y-82935000D01*
X144463377Y-82935000D01*
X144414000Y-82928500D01*
X143116332Y-82928500D01*
X143088108Y-82931840D01*
X143069291Y-82934067D01*
X143012092Y-82947799D01*
X142967649Y-82964195D01*
X142928263Y-82990512D01*
X142878968Y-83032615D01*
X142823334Y-83060050D01*
X142761351Y-83057615D01*
X142708041Y-83025899D01*
X142390037Y-82707894D01*
X142380088Y-82694065D01*
X142338327Y-82655995D01*
X142334137Y-82651994D01*
X142321511Y-82639368D01*
X142321510Y-82639367D01*
X142320742Y-82638599D01*
X142309325Y-82629557D01*
X142289862Y-82611814D01*
X142289860Y-82611812D01*
X142283754Y-82609447D01*
X142258063Y-82595905D01*
X142252659Y-82592203D01*
X142252658Y-82592202D01*
X142252657Y-82592202D01*
X142227015Y-82586171D01*
X142210347Y-82581010D01*
X142185799Y-82571500D01*
X142179251Y-82571500D01*
X142150403Y-82568153D01*
X142144025Y-82566652D01*
X142117938Y-82570292D01*
X142100530Y-82571500D01*
X140999500Y-82571500D01*
X140936500Y-82554619D01*
X140890381Y-82508500D01*
X140873500Y-82445500D01*
X140873500Y-80395000D01*
X151783435Y-80395000D01*
X151803641Y-80600150D01*
X151863481Y-80797414D01*
X151960657Y-80979220D01*
X152091431Y-81138568D01*
X152250779Y-81269342D01*
X152250780Y-81269342D01*
X152250782Y-81269344D01*
X152432584Y-81366518D01*
X152465550Y-81376518D01*
X152629849Y-81426358D01*
X152835000Y-81446564D01*
X153040150Y-81426358D01*
X153237416Y-81366518D01*
X153419218Y-81269344D01*
X153578568Y-81138568D01*
X153709344Y-80979218D01*
X153806518Y-80797416D01*
X153866358Y-80600150D01*
X153886564Y-80395000D01*
X153866358Y-80189850D01*
X153806518Y-79992584D01*
X153709344Y-79810782D01*
X153709342Y-79810779D01*
X153578568Y-79651431D01*
X153419220Y-79520657D01*
X153237414Y-79423481D01*
X153040150Y-79363641D01*
X152835000Y-79343435D01*
X152629849Y-79363641D01*
X152432585Y-79423481D01*
X152250779Y-79520657D01*
X152091431Y-79651431D01*
X151960657Y-79810779D01*
X151863481Y-79992585D01*
X151803641Y-80189849D01*
X151783435Y-80395000D01*
X140873500Y-80395000D01*
X140873500Y-77854999D01*
X151783435Y-77854999D01*
X151803641Y-78060150D01*
X151863481Y-78257414D01*
X151960657Y-78439220D01*
X152091431Y-78598568D01*
X152250779Y-78729342D01*
X152250780Y-78729342D01*
X152250782Y-78729344D01*
X152432584Y-78826518D01*
X152465550Y-78836518D01*
X152629849Y-78886358D01*
X152835000Y-78906564D01*
X153040150Y-78886358D01*
X153237416Y-78826518D01*
X153419218Y-78729344D01*
X153578568Y-78598568D01*
X153709344Y-78439218D01*
X153806518Y-78257416D01*
X153866358Y-78060150D01*
X153886564Y-77855000D01*
X153866358Y-77649850D01*
X153806518Y-77452584D01*
X153709344Y-77270782D01*
X153709342Y-77270779D01*
X153578568Y-77111431D01*
X153419220Y-76980657D01*
X153237414Y-76883481D01*
X153040150Y-76823641D01*
X152835000Y-76803435D01*
X152629849Y-76823641D01*
X152432585Y-76883481D01*
X152250779Y-76980657D01*
X152091431Y-77111431D01*
X151960657Y-77270779D01*
X151863481Y-77452585D01*
X151803641Y-77649849D01*
X151783435Y-77854999D01*
X140873500Y-77854999D01*
X140873500Y-76624500D01*
X140890381Y-76561500D01*
X140936500Y-76515381D01*
X140999500Y-76498500D01*
X143273012Y-76498500D01*
X143330749Y-76512507D01*
X143375649Y-76551413D01*
X143397728Y-76606564D01*
X143412181Y-76707087D01*
X143465518Y-76823878D01*
X143549598Y-76920912D01*
X143657610Y-76990327D01*
X143780803Y-77026500D01*
X143909196Y-77026500D01*
X143909197Y-77026500D01*
X144032390Y-76990327D01*
X144140402Y-76920912D01*
X144224482Y-76823878D01*
X144277819Y-76707087D01*
X144296091Y-76580000D01*
X144277819Y-76452913D01*
X144224482Y-76336122D01*
X144140402Y-76239088D01*
X144140401Y-76239087D01*
X144032390Y-76169673D01*
X143978703Y-76153909D01*
X143909197Y-76133500D01*
X143909196Y-76133500D01*
X143872833Y-76133500D01*
X143824615Y-76123909D01*
X143783738Y-76096595D01*
X143725039Y-76037896D01*
X143715088Y-76024065D01*
X143673327Y-75985995D01*
X143669137Y-75981994D01*
X143656511Y-75969368D01*
X143656510Y-75969367D01*
X143655742Y-75968599D01*
X143644325Y-75959557D01*
X143624862Y-75941814D01*
X143624860Y-75941812D01*
X143618754Y-75939447D01*
X143593063Y-75925905D01*
X143587659Y-75922203D01*
X143587658Y-75922202D01*
X143587657Y-75922202D01*
X143562015Y-75916171D01*
X143545347Y-75911010D01*
X143535104Y-75907042D01*
X143520799Y-75901500D01*
X143514251Y-75901500D01*
X143485403Y-75898153D01*
X143479025Y-75896652D01*
X143452938Y-75900292D01*
X143435530Y-75901500D01*
X140964695Y-75901500D01*
X140912353Y-75890114D01*
X140873969Y-75861380D01*
X140762390Y-75789673D01*
X140762389Y-75789672D01*
X140639197Y-75753500D01*
X140510803Y-75753500D01*
X140449206Y-75771586D01*
X140387609Y-75789673D01*
X140276030Y-75861380D01*
X140237647Y-75890114D01*
X140185305Y-75901500D01*
X139524251Y-75901500D01*
X139507424Y-75898755D01*
X139455541Y-75901155D01*
X139450998Y-75901365D01*
X139445180Y-75901500D01*
X139426254Y-75901500D01*
X139411788Y-75903177D01*
X139385473Y-75904394D01*
X139379477Y-75907042D01*
X139351753Y-75915628D01*
X139345301Y-75916834D01*
X139322905Y-75930701D01*
X139307473Y-75938835D01*
X139283385Y-75949471D01*
X139278751Y-75954105D01*
X139255996Y-75972129D01*
X139250417Y-75975583D01*
X139234546Y-75996600D01*
X139223093Y-76009762D01*
X139106262Y-76126595D01*
X139065385Y-76153909D01*
X139017166Y-76163500D01*
X138980803Y-76163500D01*
X138919206Y-76181586D01*
X138857609Y-76199673D01*
X138749598Y-76269087D01*
X138665518Y-76366121D01*
X138612180Y-76482915D01*
X138593908Y-76609999D01*
X138612180Y-76737084D01*
X138612180Y-76737085D01*
X138612181Y-76737087D01*
X138665518Y-76853878D01*
X138749598Y-76950912D01*
X138857610Y-77020327D01*
X138980803Y-77056500D01*
X139109196Y-77056500D01*
X139109197Y-77056500D01*
X139232390Y-77020327D01*
X139340402Y-76950912D01*
X139424482Y-76853878D01*
X139477819Y-76737087D01*
X139494984Y-76617692D01*
X139507030Y-76579228D01*
X139530607Y-76546534D01*
X139541741Y-76535401D01*
X139582617Y-76508090D01*
X139630832Y-76498500D01*
X140150500Y-76498500D01*
X140213500Y-76515381D01*
X140259619Y-76561500D01*
X140276500Y-76624500D01*
X140276500Y-83362025D01*
X140266909Y-83410243D01*
X140239595Y-83451120D01*
X139534120Y-84156595D01*
X139493243Y-84183909D01*
X139445025Y-84193500D01*
X139408661Y-84193500D01*
X139347064Y-84211586D01*
X139285467Y-84229673D01*
X139177456Y-84299087D01*
X139093376Y-84396121D01*
X139040038Y-84512915D01*
X139021766Y-84639999D01*
X139036945Y-84745568D01*
X139033124Y-84798998D01*
X139007453Y-84846012D01*
X138964570Y-84878114D01*
X138912228Y-84889500D01*
X137623833Y-84889500D01*
X137575615Y-84879909D01*
X137534737Y-84852595D01*
X137012404Y-84330261D01*
X136985091Y-84289384D01*
X136975500Y-84241166D01*
X136975500Y-75314999D01*
X151783435Y-75314999D01*
X151803641Y-75520150D01*
X151863481Y-75717414D01*
X151960657Y-75899220D01*
X152091431Y-76058568D01*
X152250779Y-76189342D01*
X152250780Y-76189342D01*
X152250782Y-76189344D01*
X152432584Y-76286518D01*
X152465550Y-76296518D01*
X152629849Y-76346358D01*
X152834999Y-76366564D01*
X152834999Y-76366563D01*
X152835000Y-76366564D01*
X153040150Y-76346358D01*
X153237416Y-76286518D01*
X153419218Y-76189344D01*
X153578568Y-76058568D01*
X153709344Y-75899218D01*
X153806518Y-75717416D01*
X153866358Y-75520150D01*
X153886564Y-75315000D01*
X153866358Y-75109850D01*
X153806518Y-74912584D01*
X153709344Y-74730782D01*
X153709342Y-74730779D01*
X153578568Y-74571431D01*
X153419220Y-74440657D01*
X153237414Y-74343481D01*
X153040150Y-74283641D01*
X152835000Y-74263435D01*
X152629849Y-74283641D01*
X152432585Y-74343481D01*
X152250779Y-74440657D01*
X152091431Y-74571431D01*
X151960657Y-74730779D01*
X151863481Y-74912585D01*
X151803641Y-75109849D01*
X151783435Y-75314999D01*
X136975500Y-75314999D01*
X136975500Y-74348833D01*
X136985091Y-74300615D01*
X137012405Y-74259738D01*
X137536738Y-73735405D01*
X137577615Y-73708091D01*
X137625833Y-73698500D01*
X142165803Y-73698500D01*
X142218145Y-73709886D01*
X142256528Y-73738619D01*
X142260095Y-73740911D01*
X142260096Y-73740912D01*
X142368108Y-73810327D01*
X142491301Y-73846500D01*
X142619694Y-73846500D01*
X142619695Y-73846500D01*
X142742888Y-73810327D01*
X142850900Y-73740912D01*
X142934980Y-73643878D01*
X142988317Y-73527087D01*
X143006589Y-73400000D01*
X142988317Y-73272913D01*
X142934980Y-73156122D01*
X142850900Y-73059088D01*
X142850899Y-73059087D01*
X142742888Y-72989673D01*
X142710456Y-72980150D01*
X142619695Y-72953500D01*
X142491301Y-72953500D01*
X142429704Y-72971586D01*
X142368107Y-72989673D01*
X142256528Y-73061380D01*
X142218145Y-73090114D01*
X142165803Y-73101500D01*
X137519246Y-73101500D01*
X137502431Y-73098757D01*
X137491954Y-73099241D01*
X137448703Y-73101240D01*
X137445990Y-73101366D01*
X137440172Y-73101500D01*
X137421258Y-73101500D01*
X137406789Y-73103177D01*
X137380473Y-73104394D01*
X137374480Y-73107041D01*
X137346743Y-73115630D01*
X137343674Y-73116204D01*
X137340298Y-73116835D01*
X137317902Y-73130702D01*
X137302477Y-73138833D01*
X137278383Y-73149472D01*
X137273751Y-73154105D01*
X137250996Y-73172129D01*
X137245417Y-73175583D01*
X137229543Y-73196604D01*
X137218089Y-73209766D01*
X136514890Y-73912965D01*
X136501060Y-73922916D01*
X136462993Y-73964673D01*
X136458980Y-73968876D01*
X136445601Y-73982255D01*
X136436558Y-73993671D01*
X136418813Y-74013136D01*
X136416446Y-74019248D01*
X136402911Y-74044926D01*
X136399203Y-74050339D01*
X136393172Y-74075982D01*
X136388011Y-74092647D01*
X136378500Y-74117199D01*
X136378500Y-74123749D01*
X136375153Y-74152597D01*
X136373652Y-74158974D01*
X136377292Y-74185062D01*
X136378500Y-74202470D01*
X136378500Y-84347754D01*
X136375757Y-84364568D01*
X136376241Y-84375045D01*
X136376241Y-84375046D01*
X136377695Y-84406501D01*
X136378366Y-84421010D01*
X136378500Y-84426828D01*
X136378500Y-84445747D01*
X136380177Y-84460210D01*
X136381394Y-84486524D01*
X136384039Y-84492514D01*
X136392630Y-84520256D01*
X136393834Y-84526698D01*
X136407703Y-84549099D01*
X136415835Y-84564527D01*
X136426471Y-84588613D01*
X136426472Y-84588614D01*
X136426473Y-84588616D01*
X136431100Y-84593243D01*
X136449130Y-84616004D01*
X136452583Y-84621581D01*
X136473601Y-84637453D01*
X136486765Y-84648908D01*
X137187961Y-85350103D01*
X137197918Y-85363941D01*
X137239681Y-85402013D01*
X137243871Y-85406013D01*
X137256490Y-85418632D01*
X137257260Y-85419402D01*
X137268672Y-85428440D01*
X137288138Y-85446186D01*
X137294244Y-85448551D01*
X137319934Y-85462092D01*
X137325341Y-85465797D01*
X137350987Y-85471828D01*
X137367648Y-85476987D01*
X137392201Y-85486500D01*
X137398745Y-85486500D01*
X137427592Y-85489846D01*
X137433975Y-85491348D01*
X137460067Y-85487708D01*
X137477476Y-85486500D01*
X140002500Y-85486500D01*
X140065500Y-85503381D01*
X140111619Y-85549500D01*
X140128500Y-85612500D01*
X140128500Y-109653603D01*
X140114767Y-109710806D01*
X140076561Y-109755539D01*
X140022211Y-109778052D01*
X139963564Y-109773436D01*
X139913405Y-109742698D01*
X135381489Y-105210782D01*
X130757405Y-100586697D01*
X130730091Y-100545820D01*
X130720500Y-100497602D01*
X130720500Y-93104999D01*
X131493435Y-93104999D01*
X131513641Y-93310150D01*
X131573481Y-93507414D01*
X131670657Y-93689220D01*
X131801431Y-93848568D01*
X131960779Y-93979342D01*
X131960780Y-93979342D01*
X131960782Y-93979344D01*
X132142584Y-94076518D01*
X132241216Y-94106437D01*
X132339849Y-94136358D01*
X132545000Y-94156564D01*
X132750150Y-94136358D01*
X132947416Y-94076518D01*
X133129218Y-93979344D01*
X133288568Y-93848568D01*
X133419344Y-93689218D01*
X133516518Y-93507416D01*
X133576358Y-93310150D01*
X133596564Y-93105000D01*
X133576358Y-92899850D01*
X133573324Y-92889849D01*
X133516518Y-92702585D01*
X133516518Y-92702584D01*
X133419344Y-92520782D01*
X133419342Y-92520779D01*
X133288568Y-92361431D01*
X133129220Y-92230657D01*
X132947414Y-92133481D01*
X132750150Y-92073641D01*
X132545000Y-92053435D01*
X132339849Y-92073641D01*
X132142585Y-92133481D01*
X131960779Y-92230657D01*
X131801431Y-92361431D01*
X131670657Y-92520779D01*
X131573481Y-92702585D01*
X131513641Y-92899849D01*
X131493435Y-93104999D01*
X130720500Y-93104999D01*
X130720500Y-90564999D01*
X131493435Y-90564999D01*
X131513641Y-90770150D01*
X131573481Y-90967414D01*
X131670657Y-91149220D01*
X131801431Y-91308568D01*
X131960779Y-91439342D01*
X131960780Y-91439342D01*
X131960782Y-91439344D01*
X132142584Y-91536518D01*
X132241216Y-91566437D01*
X132339849Y-91596358D01*
X132545000Y-91616564D01*
X132750150Y-91596358D01*
X132947416Y-91536518D01*
X133129218Y-91439344D01*
X133288568Y-91308568D01*
X133419344Y-91149218D01*
X133516518Y-90967416D01*
X133576358Y-90770150D01*
X133596564Y-90565000D01*
X133576358Y-90359850D01*
X133573324Y-90349849D01*
X133516518Y-90162585D01*
X133516518Y-90162584D01*
X133419344Y-89980782D01*
X133419342Y-89980779D01*
X133288568Y-89821431D01*
X133129220Y-89690657D01*
X132947414Y-89593481D01*
X132750150Y-89533641D01*
X132545000Y-89513435D01*
X132339849Y-89533641D01*
X132142585Y-89593481D01*
X131960779Y-89690657D01*
X131801431Y-89821431D01*
X131670657Y-89980779D01*
X131573481Y-90162585D01*
X131513641Y-90359849D01*
X131493435Y-90564999D01*
X130720500Y-90564999D01*
X130720500Y-88024999D01*
X131493435Y-88024999D01*
X131513641Y-88230150D01*
X131573481Y-88427414D01*
X131670657Y-88609220D01*
X131801431Y-88768568D01*
X131960779Y-88899342D01*
X131960780Y-88899342D01*
X131960782Y-88899344D01*
X132142584Y-88996518D01*
X132241217Y-89026438D01*
X132339849Y-89056358D01*
X132544999Y-89076564D01*
X132544999Y-89076563D01*
X132545000Y-89076564D01*
X132750150Y-89056358D01*
X132947416Y-88996518D01*
X133129218Y-88899344D01*
X133288568Y-88768568D01*
X133419344Y-88609218D01*
X133516518Y-88427416D01*
X133576358Y-88230150D01*
X133596564Y-88025000D01*
X133576358Y-87819850D01*
X133573324Y-87809849D01*
X133516518Y-87622585D01*
X133516518Y-87622584D01*
X133419344Y-87440782D01*
X133419342Y-87440779D01*
X133288568Y-87281431D01*
X133129220Y-87150657D01*
X132947414Y-87053481D01*
X132750150Y-86993641D01*
X132545000Y-86973435D01*
X132339849Y-86993641D01*
X132142585Y-87053481D01*
X131960779Y-87150657D01*
X131801431Y-87281431D01*
X131670657Y-87440779D01*
X131573481Y-87622585D01*
X131513641Y-87819849D01*
X131493435Y-88024999D01*
X130720500Y-88024999D01*
X130720500Y-85485000D01*
X131493435Y-85485000D01*
X131513641Y-85690150D01*
X131573481Y-85887414D01*
X131670657Y-86069220D01*
X131801431Y-86228568D01*
X131960779Y-86359342D01*
X131960780Y-86359342D01*
X131960782Y-86359344D01*
X132142584Y-86456518D01*
X132241217Y-86486438D01*
X132339849Y-86516358D01*
X132545000Y-86536564D01*
X132750150Y-86516358D01*
X132947416Y-86456518D01*
X133129218Y-86359344D01*
X133288568Y-86228568D01*
X133419344Y-86069218D01*
X133516518Y-85887416D01*
X133576358Y-85690150D01*
X133596564Y-85485000D01*
X133588786Y-85406035D01*
X133576358Y-85279849D01*
X133516518Y-85082585D01*
X133516518Y-85082584D01*
X133419344Y-84900782D01*
X133419342Y-84900779D01*
X133288568Y-84741431D01*
X133129220Y-84610657D01*
X133014052Y-84549099D01*
X132947416Y-84513482D01*
X132947415Y-84513481D01*
X132947414Y-84513481D01*
X132750150Y-84453641D01*
X132545000Y-84433435D01*
X132339849Y-84453641D01*
X132142585Y-84513481D01*
X131960779Y-84610657D01*
X131801431Y-84741431D01*
X131670657Y-84900779D01*
X131573481Y-85082585D01*
X131513641Y-85279849D01*
X131493435Y-85485000D01*
X130720500Y-85485000D01*
X130720500Y-82945000D01*
X131493435Y-82945000D01*
X131513641Y-83150150D01*
X131573481Y-83347414D01*
X131670657Y-83529220D01*
X131801431Y-83688568D01*
X131960779Y-83819342D01*
X131960780Y-83819342D01*
X131960782Y-83819344D01*
X132142584Y-83916518D01*
X132241216Y-83946437D01*
X132339849Y-83976358D01*
X132545000Y-83996564D01*
X132750150Y-83976358D01*
X132947416Y-83916518D01*
X133129218Y-83819344D01*
X133288568Y-83688568D01*
X133419344Y-83529218D01*
X133516518Y-83347416D01*
X133576358Y-83150150D01*
X133596564Y-82945000D01*
X133576358Y-82739850D01*
X133573324Y-82729849D01*
X133528174Y-82581010D01*
X133516518Y-82542584D01*
X133419344Y-82360782D01*
X133419342Y-82360779D01*
X133288568Y-82201431D01*
X133129220Y-82070657D01*
X132947414Y-81973481D01*
X132750150Y-81913641D01*
X132545000Y-81893435D01*
X132339849Y-81913641D01*
X132142585Y-81973481D01*
X131960779Y-82070657D01*
X131801431Y-82201431D01*
X131670657Y-82360779D01*
X131573481Y-82542585D01*
X131513641Y-82739849D01*
X131493435Y-82945000D01*
X130720500Y-82945000D01*
X130720500Y-80405000D01*
X131493435Y-80405000D01*
X131513641Y-80610150D01*
X131573481Y-80807414D01*
X131670657Y-80989220D01*
X131801431Y-81148568D01*
X131960779Y-81279342D01*
X131960780Y-81279342D01*
X131960782Y-81279344D01*
X132142584Y-81376518D01*
X132241217Y-81406438D01*
X132339849Y-81436358D01*
X132545000Y-81456564D01*
X132750150Y-81436358D01*
X132947416Y-81376518D01*
X133129218Y-81279344D01*
X133288568Y-81148568D01*
X133419344Y-80989218D01*
X133516518Y-80807416D01*
X133576358Y-80610150D01*
X133596564Y-80405000D01*
X133576358Y-80199850D01*
X133573324Y-80189849D01*
X133516518Y-80002585D01*
X133516518Y-80002584D01*
X133419344Y-79820782D01*
X133419342Y-79820779D01*
X133288568Y-79661431D01*
X133129220Y-79530657D01*
X132947414Y-79433481D01*
X132750150Y-79373641D01*
X132545000Y-79353435D01*
X132339849Y-79373641D01*
X132142585Y-79433481D01*
X131960779Y-79530657D01*
X131801431Y-79661431D01*
X131670657Y-79820779D01*
X131573481Y-80002585D01*
X131513641Y-80199849D01*
X131493435Y-80405000D01*
X130720500Y-80405000D01*
X130720500Y-77865000D01*
X131493435Y-77865000D01*
X131513641Y-78070150D01*
X131573481Y-78267414D01*
X131670657Y-78449220D01*
X131801431Y-78608568D01*
X131960779Y-78739342D01*
X131960780Y-78739342D01*
X131960782Y-78739344D01*
X132142584Y-78836518D01*
X132241217Y-78866438D01*
X132339849Y-78896358D01*
X132545000Y-78916564D01*
X132750150Y-78896358D01*
X132947416Y-78836518D01*
X133129218Y-78739344D01*
X133288568Y-78608568D01*
X133419344Y-78449218D01*
X133516518Y-78267416D01*
X133576358Y-78070150D01*
X133596564Y-77865000D01*
X133576358Y-77659850D01*
X133573324Y-77649849D01*
X133516518Y-77462585D01*
X133516518Y-77462584D01*
X133419344Y-77280782D01*
X133419342Y-77280779D01*
X133288568Y-77121431D01*
X133129220Y-76990657D01*
X133038316Y-76942068D01*
X132947416Y-76893482D01*
X132947415Y-76893481D01*
X132947414Y-76893481D01*
X132750150Y-76833641D01*
X132545000Y-76813435D01*
X132339849Y-76833641D01*
X132142585Y-76893481D01*
X131960779Y-76990657D01*
X131801431Y-77121431D01*
X131670657Y-77280779D01*
X131573481Y-77462585D01*
X131513641Y-77659849D01*
X131493435Y-77865000D01*
X130720500Y-77865000D01*
X130720500Y-75324999D01*
X131493435Y-75324999D01*
X131513641Y-75530150D01*
X131573481Y-75727414D01*
X131670657Y-75909220D01*
X131801431Y-76068568D01*
X131960779Y-76199342D01*
X131960780Y-76199342D01*
X131960782Y-76199344D01*
X132142584Y-76296518D01*
X132241217Y-76326438D01*
X132339849Y-76356358D01*
X132545000Y-76376564D01*
X132750150Y-76356358D01*
X132947416Y-76296518D01*
X133129218Y-76199344D01*
X133288568Y-76068568D01*
X133419344Y-75909218D01*
X133516518Y-75727416D01*
X133576358Y-75530150D01*
X133596564Y-75325000D01*
X133576358Y-75119850D01*
X133573324Y-75109849D01*
X133516518Y-74922585D01*
X133516518Y-74922584D01*
X133419344Y-74740782D01*
X133419342Y-74740779D01*
X133288568Y-74581431D01*
X133129220Y-74450657D01*
X132947414Y-74353481D01*
X132750150Y-74293641D01*
X132544999Y-74273435D01*
X132339849Y-74293641D01*
X132142585Y-74353481D01*
X131960779Y-74450657D01*
X131801431Y-74581431D01*
X131670657Y-74740779D01*
X131573481Y-74922585D01*
X131513641Y-75119849D01*
X131493435Y-75324999D01*
X130720500Y-75324999D01*
X130720500Y-72784999D01*
X131493435Y-72784999D01*
X131513641Y-72990150D01*
X131573481Y-73187414D01*
X131670657Y-73369220D01*
X131801431Y-73528568D01*
X131960779Y-73659342D01*
X131960780Y-73659342D01*
X131960782Y-73659344D01*
X132142584Y-73756518D01*
X132241216Y-73786437D01*
X132339849Y-73816358D01*
X132545000Y-73836564D01*
X132750150Y-73816358D01*
X132947416Y-73756518D01*
X133129218Y-73659344D01*
X133288568Y-73528568D01*
X133419344Y-73369218D01*
X133516518Y-73187416D01*
X133576358Y-72990150D01*
X133596564Y-72785000D01*
X133595579Y-72774999D01*
X151783435Y-72774999D01*
X151803641Y-72980150D01*
X151863481Y-73177414D01*
X151960657Y-73359220D01*
X152091431Y-73518568D01*
X152250779Y-73649342D01*
X152250780Y-73649342D01*
X152250782Y-73649344D01*
X152432584Y-73746518D01*
X152465550Y-73756518D01*
X152629849Y-73806358D01*
X152835000Y-73826564D01*
X153040150Y-73806358D01*
X153237416Y-73746518D01*
X153419218Y-73649344D01*
X153578568Y-73518568D01*
X153709344Y-73359218D01*
X153806518Y-73177416D01*
X153866358Y-72980150D01*
X153886564Y-72775000D01*
X153866358Y-72569850D01*
X153806518Y-72372584D01*
X153709344Y-72190782D01*
X153709342Y-72190779D01*
X153578568Y-72031431D01*
X153419220Y-71900657D01*
X153237414Y-71803481D01*
X153040150Y-71743641D01*
X152835000Y-71723435D01*
X152629849Y-71743641D01*
X152432585Y-71803481D01*
X152250779Y-71900657D01*
X152091431Y-72031431D01*
X151960657Y-72190779D01*
X151863481Y-72372585D01*
X151803641Y-72569849D01*
X151783435Y-72774999D01*
X133595579Y-72774999D01*
X133576358Y-72579850D01*
X133573324Y-72569849D01*
X133516518Y-72382585D01*
X133516518Y-72382584D01*
X133419344Y-72200782D01*
X133419342Y-72200779D01*
X133288568Y-72041431D01*
X133129220Y-71910657D01*
X132947414Y-71813481D01*
X132750150Y-71753641D01*
X132545000Y-71733435D01*
X132339849Y-71753641D01*
X132142585Y-71813481D01*
X131960779Y-71910657D01*
X131801431Y-72041431D01*
X131670657Y-72200779D01*
X131573481Y-72382585D01*
X131513641Y-72579849D01*
X131493435Y-72784999D01*
X130720500Y-72784999D01*
X130720500Y-70245000D01*
X131493435Y-70245000D01*
X131513641Y-70450150D01*
X131573481Y-70647414D01*
X131670657Y-70829220D01*
X131801431Y-70988568D01*
X131960779Y-71119342D01*
X131960780Y-71119342D01*
X131960782Y-71119344D01*
X132142584Y-71216518D01*
X132241217Y-71246438D01*
X132339849Y-71276358D01*
X132544999Y-71296564D01*
X132544999Y-71296563D01*
X132545000Y-71296564D01*
X132750150Y-71276358D01*
X132947416Y-71216518D01*
X133129218Y-71119344D01*
X133288568Y-70988568D01*
X133419344Y-70829218D01*
X133516518Y-70647416D01*
X133576358Y-70450150D01*
X133596564Y-70245000D01*
X133595579Y-70235000D01*
X151783435Y-70235000D01*
X151803641Y-70440150D01*
X151863481Y-70637414D01*
X151960657Y-70819220D01*
X152091431Y-70978568D01*
X152250779Y-71109342D01*
X152250780Y-71109342D01*
X152250782Y-71109344D01*
X152432584Y-71206518D01*
X152465550Y-71216518D01*
X152629849Y-71266358D01*
X152835000Y-71286564D01*
X153040150Y-71266358D01*
X153237416Y-71206518D01*
X153419218Y-71109344D01*
X153578568Y-70978568D01*
X153709344Y-70819218D01*
X153806518Y-70637416D01*
X153866358Y-70440150D01*
X153886564Y-70235000D01*
X153866358Y-70029850D01*
X153806518Y-69832584D01*
X153709344Y-69650782D01*
X153709342Y-69650779D01*
X153578568Y-69491431D01*
X153419220Y-69360657D01*
X153237414Y-69263481D01*
X153040150Y-69203641D01*
X152835000Y-69183435D01*
X152629849Y-69203641D01*
X152432585Y-69263481D01*
X152250779Y-69360657D01*
X152091431Y-69491431D01*
X151960657Y-69650779D01*
X151863481Y-69832585D01*
X151803641Y-70029849D01*
X151783435Y-70235000D01*
X133595579Y-70235000D01*
X133576358Y-70039850D01*
X133573324Y-70029849D01*
X133516518Y-69842585D01*
X133516518Y-69842584D01*
X133419344Y-69660782D01*
X133419342Y-69660779D01*
X133288568Y-69501431D01*
X133129220Y-69370657D01*
X132947414Y-69273481D01*
X132750150Y-69213641D01*
X132545000Y-69193435D01*
X132339849Y-69213641D01*
X132142585Y-69273481D01*
X131960779Y-69370657D01*
X131801431Y-69501431D01*
X131670657Y-69660779D01*
X131573481Y-69842585D01*
X131513641Y-70039849D01*
X131493435Y-70245000D01*
X130720500Y-70245000D01*
X130720500Y-67705000D01*
X131493435Y-67705000D01*
X131513641Y-67910150D01*
X131573481Y-68107414D01*
X131670657Y-68289220D01*
X131801431Y-68448568D01*
X131960779Y-68579342D01*
X131960780Y-68579342D01*
X131960782Y-68579344D01*
X132142584Y-68676518D01*
X132241216Y-68706437D01*
X132339849Y-68736358D01*
X132545000Y-68756564D01*
X132750150Y-68736358D01*
X132947416Y-68676518D01*
X133129218Y-68579344D01*
X133288568Y-68448568D01*
X133419344Y-68289218D01*
X133516518Y-68107416D01*
X133576358Y-67910150D01*
X133596564Y-67705000D01*
X133595579Y-67695000D01*
X151783435Y-67695000D01*
X151803641Y-67900150D01*
X151863481Y-68097414D01*
X151960657Y-68279220D01*
X152091431Y-68438568D01*
X152250779Y-68569342D01*
X152250780Y-68569342D01*
X152250782Y-68569344D01*
X152432584Y-68666518D01*
X152465550Y-68676518D01*
X152629849Y-68726358D01*
X152835000Y-68746564D01*
X153040150Y-68726358D01*
X153237416Y-68666518D01*
X153419218Y-68569344D01*
X153578568Y-68438568D01*
X153709344Y-68279218D01*
X153806518Y-68097416D01*
X153866358Y-67900150D01*
X153886564Y-67695000D01*
X153866358Y-67489850D01*
X153806518Y-67292584D01*
X153709344Y-67110782D01*
X153709342Y-67110779D01*
X153578568Y-66951431D01*
X153419220Y-66820657D01*
X153237414Y-66723481D01*
X153040150Y-66663641D01*
X152835000Y-66643435D01*
X152629849Y-66663641D01*
X152432585Y-66723481D01*
X152250779Y-66820657D01*
X152091431Y-66951431D01*
X151960657Y-67110779D01*
X151863481Y-67292585D01*
X151803641Y-67489849D01*
X151783435Y-67695000D01*
X133595579Y-67695000D01*
X133576358Y-67499850D01*
X133573324Y-67489849D01*
X133516518Y-67302585D01*
X133516518Y-67302584D01*
X133419344Y-67120782D01*
X133419342Y-67120779D01*
X133288568Y-66961431D01*
X133129220Y-66830657D01*
X132947414Y-66733481D01*
X132750150Y-66673641D01*
X132545000Y-66653435D01*
X132339849Y-66673641D01*
X132142585Y-66733481D01*
X131960779Y-66830657D01*
X131801431Y-66961431D01*
X131670657Y-67120779D01*
X131573481Y-67302585D01*
X131513641Y-67499849D01*
X131493435Y-67705000D01*
X130720500Y-67705000D01*
X130720500Y-65165000D01*
X131493435Y-65165000D01*
X131513641Y-65370150D01*
X131573481Y-65567414D01*
X131670657Y-65749220D01*
X131801431Y-65908568D01*
X131960779Y-66039342D01*
X131960780Y-66039342D01*
X131960782Y-66039344D01*
X132142584Y-66136518D01*
X132241216Y-66166437D01*
X132339849Y-66196358D01*
X132545000Y-66216564D01*
X132750150Y-66196358D01*
X132947416Y-66136518D01*
X133129218Y-66039344D01*
X133288568Y-65908568D01*
X133419344Y-65749218D01*
X133516518Y-65567416D01*
X133576358Y-65370150D01*
X133596564Y-65165000D01*
X133595579Y-65155000D01*
X151783435Y-65155000D01*
X151803641Y-65360150D01*
X151863481Y-65557414D01*
X151960657Y-65739220D01*
X152091431Y-65898568D01*
X152250779Y-66029342D01*
X152250780Y-66029342D01*
X152250782Y-66029344D01*
X152432584Y-66126518D01*
X152465550Y-66136518D01*
X152629849Y-66186358D01*
X152835000Y-66206564D01*
X153040150Y-66186358D01*
X153237416Y-66126518D01*
X153419218Y-66029344D01*
X153578568Y-65898568D01*
X153709344Y-65739218D01*
X153806518Y-65557416D01*
X153866358Y-65360150D01*
X153886564Y-65155000D01*
X153866358Y-64949850D01*
X153806518Y-64752584D01*
X153709344Y-64570782D01*
X153709342Y-64570779D01*
X153578568Y-64411431D01*
X153419220Y-64280657D01*
X153237414Y-64183481D01*
X153040150Y-64123641D01*
X152835000Y-64103435D01*
X152629849Y-64123641D01*
X152432585Y-64183481D01*
X152250779Y-64280657D01*
X152091431Y-64411431D01*
X151960657Y-64570779D01*
X151863481Y-64752585D01*
X151803641Y-64949849D01*
X151783435Y-65155000D01*
X133595579Y-65155000D01*
X133576358Y-64959850D01*
X133573324Y-64949849D01*
X133516518Y-64762585D01*
X133516518Y-64762584D01*
X133419344Y-64580782D01*
X133419342Y-64580779D01*
X133288568Y-64421431D01*
X133129220Y-64290657D01*
X132947414Y-64193481D01*
X132750150Y-64133641D01*
X132545000Y-64113435D01*
X132339849Y-64133641D01*
X132142585Y-64193481D01*
X131960779Y-64290657D01*
X131801431Y-64421431D01*
X131670657Y-64580779D01*
X131573481Y-64762585D01*
X131513641Y-64959849D01*
X131493435Y-65165000D01*
X130720500Y-65165000D01*
X130720500Y-62625000D01*
X131493435Y-62625000D01*
X131513641Y-62830150D01*
X131573481Y-63027414D01*
X131670657Y-63209220D01*
X131801431Y-63368568D01*
X131960779Y-63499342D01*
X131960780Y-63499342D01*
X131960782Y-63499344D01*
X132142584Y-63596518D01*
X132241217Y-63626438D01*
X132339849Y-63656358D01*
X132545000Y-63676564D01*
X132750150Y-63656358D01*
X132947416Y-63596518D01*
X133129218Y-63499344D01*
X133288568Y-63368568D01*
X133419344Y-63209218D01*
X133516518Y-63027416D01*
X133576358Y-62830150D01*
X133596564Y-62625000D01*
X133595579Y-62615000D01*
X151783435Y-62615000D01*
X151803641Y-62820150D01*
X151863481Y-63017414D01*
X151960657Y-63199220D01*
X152091431Y-63358568D01*
X152250779Y-63489342D01*
X152250780Y-63489342D01*
X152250782Y-63489344D01*
X152432584Y-63586518D01*
X152465550Y-63596518D01*
X152629849Y-63646358D01*
X152835000Y-63666564D01*
X153040150Y-63646358D01*
X153237416Y-63586518D01*
X153419218Y-63489344D01*
X153578568Y-63358568D01*
X153709344Y-63199218D01*
X153806518Y-63017416D01*
X153866358Y-62820150D01*
X153886564Y-62615000D01*
X153866358Y-62409850D01*
X153806518Y-62212584D01*
X153709344Y-62030782D01*
X153709342Y-62030779D01*
X153578568Y-61871431D01*
X153419220Y-61740657D01*
X153237414Y-61643481D01*
X153040150Y-61583641D01*
X152835000Y-61563435D01*
X152629849Y-61583641D01*
X152432585Y-61643481D01*
X152250779Y-61740657D01*
X152091431Y-61871431D01*
X151960657Y-62030779D01*
X151863481Y-62212585D01*
X151803641Y-62409849D01*
X151783435Y-62615000D01*
X133595579Y-62615000D01*
X133576358Y-62419850D01*
X133573324Y-62409849D01*
X133516518Y-62222585D01*
X133516518Y-62222584D01*
X133419344Y-62040782D01*
X133419342Y-62040779D01*
X133288568Y-61881431D01*
X133129220Y-61750657D01*
X132947414Y-61653481D01*
X132750150Y-61593641D01*
X132545000Y-61573435D01*
X132339849Y-61593641D01*
X132142585Y-61653481D01*
X131960779Y-61750657D01*
X131801431Y-61881431D01*
X131670657Y-62040779D01*
X131573481Y-62222585D01*
X131513641Y-62419849D01*
X131493435Y-62625000D01*
X130720500Y-62625000D01*
X130720500Y-60085000D01*
X131493435Y-60085000D01*
X131513641Y-60290150D01*
X131573481Y-60487414D01*
X131670657Y-60669220D01*
X131801431Y-60828568D01*
X131960779Y-60959342D01*
X131960780Y-60959342D01*
X131960782Y-60959344D01*
X132142584Y-61056518D01*
X132241216Y-61086437D01*
X132339849Y-61116358D01*
X132545000Y-61136564D01*
X132750150Y-61116358D01*
X132947416Y-61056518D01*
X133129218Y-60959344D01*
X133288568Y-60828568D01*
X133419344Y-60669218D01*
X133516518Y-60487416D01*
X133576358Y-60290150D01*
X133596564Y-60085000D01*
X133595579Y-60074999D01*
X151783435Y-60074999D01*
X151803641Y-60280150D01*
X151863481Y-60477414D01*
X151960657Y-60659220D01*
X152091431Y-60818568D01*
X152250779Y-60949342D01*
X152250780Y-60949342D01*
X152250782Y-60949344D01*
X152432584Y-61046518D01*
X152465550Y-61056518D01*
X152629849Y-61106358D01*
X152835000Y-61126564D01*
X153040150Y-61106358D01*
X153237416Y-61046518D01*
X153419218Y-60949344D01*
X153578568Y-60818568D01*
X153709344Y-60659218D01*
X153806518Y-60477416D01*
X153866358Y-60280150D01*
X153886564Y-60075000D01*
X153866358Y-59869850D01*
X153806518Y-59672584D01*
X153709344Y-59490782D01*
X153709342Y-59490779D01*
X153578568Y-59331431D01*
X153419220Y-59200657D01*
X153237414Y-59103481D01*
X153040150Y-59043641D01*
X152835000Y-59023435D01*
X152629849Y-59043641D01*
X152432585Y-59103481D01*
X152250779Y-59200657D01*
X152091431Y-59331431D01*
X151960657Y-59490779D01*
X151863481Y-59672585D01*
X151803641Y-59869849D01*
X151783435Y-60074999D01*
X133595579Y-60074999D01*
X133576358Y-59879850D01*
X133573324Y-59869849D01*
X133516518Y-59682585D01*
X133516518Y-59682584D01*
X133419344Y-59500782D01*
X133419342Y-59500779D01*
X133288568Y-59341431D01*
X133129220Y-59210657D01*
X132947414Y-59113481D01*
X132750150Y-59053641D01*
X132545000Y-59033435D01*
X132339849Y-59053641D01*
X132142585Y-59113481D01*
X131960779Y-59210657D01*
X131801431Y-59341431D01*
X131670657Y-59500779D01*
X131573481Y-59682585D01*
X131513641Y-59879849D01*
X131493435Y-60085000D01*
X130720500Y-60085000D01*
X130720500Y-58386500D01*
X130737381Y-58323500D01*
X130783500Y-58277381D01*
X130846500Y-58260500D01*
X154533500Y-58260500D01*
X154596500Y-58277381D01*
G37*
%TD.AperFunction*%
%TD*%
%TA.AperFunction,Conductor*%
%TO.N,PGND*%
G36*
X144477000Y-83146881D02*
G01*
X144523119Y-83193000D01*
X144540000Y-83256000D01*
X144540000Y-99830001D01*
X151989998Y-107279999D01*
X151990000Y-107280000D01*
X154533500Y-107280000D01*
X154596500Y-107296881D01*
X154642619Y-107343000D01*
X154659500Y-107406000D01*
X154659500Y-110033500D01*
X154642619Y-110096500D01*
X154596500Y-110142619D01*
X154533500Y-110159500D01*
X140456000Y-110159500D01*
X140393000Y-110142619D01*
X140346881Y-110096500D01*
X140330000Y-110033500D01*
X140330000Y-84257190D01*
X140339591Y-84208972D01*
X140366901Y-84168099D01*
X140737104Y-83797895D01*
X140750937Y-83787944D01*
X140789000Y-83746189D01*
X140792985Y-83742014D01*
X140805632Y-83729369D01*
X140805636Y-83729362D01*
X140806404Y-83728595D01*
X140815454Y-83717170D01*
X140833186Y-83697720D01*
X140835551Y-83691613D01*
X140849090Y-83665927D01*
X140852797Y-83660517D01*
X140858826Y-83634877D01*
X140863986Y-83618211D01*
X140873500Y-83593657D01*
X140873500Y-83587109D01*
X140876847Y-83558261D01*
X140878347Y-83551883D01*
X140874708Y-83525796D01*
X140873500Y-83508388D01*
X140873500Y-83294500D01*
X140890381Y-83231500D01*
X140936500Y-83185381D01*
X140999500Y-83168500D01*
X141954166Y-83168500D01*
X142002384Y-83178091D01*
X142043261Y-83205404D01*
X142509595Y-83671737D01*
X142536909Y-83712615D01*
X142546500Y-83760833D01*
X142546500Y-84107809D01*
X142538556Y-84151841D01*
X142515725Y-84190321D01*
X142465518Y-84248262D01*
X142412180Y-84365056D01*
X142393908Y-84492140D01*
X142412180Y-84619225D01*
X142412180Y-84619226D01*
X142412181Y-84619228D01*
X142465518Y-84736019D01*
X142549598Y-84833053D01*
X142657610Y-84902468D01*
X142780803Y-84938641D01*
X142909196Y-84938641D01*
X142909197Y-84938641D01*
X143032390Y-84902468D01*
X143140402Y-84833053D01*
X143224482Y-84736019D01*
X143277819Y-84619228D01*
X143296091Y-84492141D01*
X143277819Y-84365054D01*
X143224482Y-84248263D01*
X143174274Y-84190319D01*
X143151444Y-84151841D01*
X143143500Y-84107809D01*
X143143500Y-83654251D01*
X143146244Y-83637424D01*
X143145732Y-83626362D01*
X143143634Y-83580998D01*
X143143500Y-83575180D01*
X143143500Y-83556246D01*
X143141821Y-83541780D01*
X143141082Y-83525796D01*
X143140605Y-83515475D01*
X143140604Y-83515472D01*
X143137960Y-83509483D01*
X143129369Y-83481742D01*
X143128165Y-83475301D01*
X143114297Y-83452903D01*
X143106160Y-83437467D01*
X143095893Y-83414215D01*
X143095527Y-83413385D01*
X143090898Y-83408756D01*
X143072865Y-83385989D01*
X143069415Y-83380417D01*
X143048390Y-83364540D01*
X143035226Y-83353084D01*
X143027237Y-83345095D01*
X142996499Y-83294936D01*
X142991883Y-83236289D01*
X143014396Y-83181939D01*
X143059129Y-83143733D01*
X143116332Y-83130000D01*
X144414000Y-83130000D01*
X144477000Y-83146881D01*
G37*
%TD.AperFunction*%
%TD*%
M02*
