%TF.GenerationSoftware,KiCad,Pcbnew,7.0.1*%
%TF.CreationDate,2023-04-17T09:27:04+12:00*%
%TF.ProjectId,MCT8329A-breakout,4d435438-3332-4394-912d-627265616b6f,1.0*%
%TF.SameCoordinates,Original*%
%TF.FileFunction,Paste,Top*%
%TF.FilePolarity,Positive*%
%FSLAX46Y46*%
G04 Gerber Fmt 4.6, Leading zero omitted, Abs format (unit mm)*
G04 Created by KiCad (PCBNEW 7.0.1) date 2023-04-17 09:27:04*
%MOMM*%
%LPD*%
G01*
G04 APERTURE LIST*
G04 Aperture macros list*
%AMRoundRect*
0 Rectangle with rounded corners*
0 $1 Rounding radius*
0 $2 $3 $4 $5 $6 $7 $8 $9 X,Y pos of 4 corners*
0 Add a 4 corners polygon primitive as box body*
4,1,4,$2,$3,$4,$5,$6,$7,$8,$9,$2,$3,0*
0 Add four circle primitives for the rounded corners*
1,1,$1+$1,$2,$3*
1,1,$1+$1,$4,$5*
1,1,$1+$1,$6,$7*
1,1,$1+$1,$8,$9*
0 Add four rect primitives between the rounded corners*
20,1,$1+$1,$2,$3,$4,$5,0*
20,1,$1+$1,$4,$5,$6,$7,0*
20,1,$1+$1,$6,$7,$8,$9,0*
20,1,$1+$1,$8,$9,$2,$3,0*%
G04 Aperture macros list end*
%ADD10C,0.100000*%
%ADD11RoundRect,0.250000X0.337500X0.475000X-0.337500X0.475000X-0.337500X-0.475000X0.337500X-0.475000X0*%
%ADD12RoundRect,0.237500X0.237500X-0.300000X0.237500X0.300000X-0.237500X0.300000X-0.237500X-0.300000X0*%
%ADD13RoundRect,0.237500X0.300000X0.237500X-0.300000X0.237500X-0.300000X-0.237500X0.300000X-0.237500X0*%
%ADD14R,0.204000X0.807999*%
%ADD15R,0.807999X0.204000*%
%ADD16RoundRect,0.237500X-0.300000X-0.237500X0.300000X-0.237500X0.300000X0.237500X-0.300000X0.237500X0*%
%ADD17RoundRect,0.237500X0.237500X-0.250000X0.237500X0.250000X-0.237500X0.250000X-0.237500X-0.250000X0*%
%ADD18RoundRect,0.237500X-0.237500X0.300000X-0.237500X-0.300000X0.237500X-0.300000X0.237500X0.300000X0*%
%ADD19RoundRect,0.237500X-0.237500X0.250000X-0.237500X-0.250000X0.237500X-0.250000X0.237500X0.250000X0*%
G04 APERTURE END LIST*
%TO.C,U1*%
D10*
X146835000Y-80495000D02*
X145765000Y-80495000D01*
X145765000Y-79298000D01*
X146835000Y-79298000D01*
X146835000Y-80495000D01*
G36*
X146835000Y-80495000D02*
G01*
X145765000Y-80495000D01*
X145765000Y-79298000D01*
X146835000Y-79298000D01*
X146835000Y-80495000D01*
G37*
X145565000Y-81892000D02*
X144495000Y-81892000D01*
X144495000Y-80695000D01*
X145565000Y-80695000D01*
X145565000Y-81892000D01*
G36*
X145565000Y-81892000D02*
G01*
X144495000Y-81892000D01*
X144495000Y-80695000D01*
X145565000Y-80695000D01*
X145565000Y-81892000D01*
G37*
X145565000Y-80495000D02*
X144495000Y-80495000D01*
X144495000Y-79298000D01*
X145565000Y-79298000D01*
X145565000Y-80495000D01*
G36*
X145565000Y-80495000D02*
G01*
X144495000Y-80495000D01*
X144495000Y-79298000D01*
X145565000Y-79298000D01*
X145565000Y-80495000D01*
G37*
X144295000Y-80495000D02*
X143225000Y-80495000D01*
X143225000Y-79298000D01*
X144295000Y-79298000D01*
X144295000Y-80495000D01*
G36*
X144295000Y-80495000D02*
G01*
X143225000Y-80495000D01*
X143225000Y-79298000D01*
X144295000Y-79298000D01*
X144295000Y-80495000D01*
G37*
X146835000Y-81892000D02*
X145765000Y-81892000D01*
X145765000Y-80695000D01*
X146835000Y-80695000D01*
X146835000Y-81892000D01*
G36*
X146835000Y-81892000D02*
G01*
X145765000Y-81892000D01*
X145765000Y-80695000D01*
X146835000Y-80695000D01*
X146835000Y-81892000D01*
G37*
X144295000Y-81892000D02*
X143225000Y-81892000D01*
X143225000Y-80695000D01*
X144295000Y-80695000D01*
X144295000Y-81892000D01*
G36*
X144295000Y-81892000D02*
G01*
X143225000Y-81892000D01*
X143225000Y-80695000D01*
X144295000Y-80695000D01*
X144295000Y-81892000D01*
G37*
%TD*%
D11*
%TO.C,C5*%
X144344501Y-87215000D03*
X142269501Y-87215000D03*
%TD*%
D12*
%TO.C,C6*%
X146003000Y-87202500D03*
X146003000Y-85477500D03*
%TD*%
D13*
%TO.C,C2*%
X144280498Y-74225300D03*
X142555498Y-74225300D03*
%TD*%
%TO.C,C4*%
X144394501Y-85415000D03*
X142669501Y-85415000D03*
%TD*%
D14*
%TO.C,U1*%
X143230001Y-82535700D03*
X143630000Y-82535700D03*
X144029999Y-82535700D03*
X144430001Y-82535700D03*
X144830000Y-82535700D03*
X145230000Y-82535700D03*
X145629999Y-82535700D03*
X146030001Y-82535700D03*
X146430000Y-82535700D03*
X146829999Y-82535700D03*
D15*
X147478700Y-81995000D03*
X147478700Y-81595001D03*
X147478700Y-81194999D03*
X147478700Y-80795000D03*
X147478700Y-80395000D03*
X147478700Y-79995001D03*
X147478700Y-79594999D03*
X147478700Y-79195000D03*
D14*
X146829999Y-78654300D03*
X146430000Y-78654300D03*
X146030001Y-78654300D03*
X145629999Y-78654300D03*
X145230000Y-78654300D03*
X144830000Y-78654300D03*
X144430001Y-78654300D03*
X144029999Y-78654300D03*
X143630000Y-78654300D03*
X143230001Y-78654300D03*
D15*
X142581300Y-79195000D03*
X142581300Y-79594999D03*
X142581300Y-79995001D03*
X142581300Y-80395000D03*
X142581300Y-80795000D03*
X142581300Y-81194999D03*
X142581300Y-81595001D03*
X142581300Y-81995000D03*
%TD*%
D16*
%TO.C,C3*%
X143409499Y-75775300D03*
X145134499Y-75775300D03*
%TD*%
D17*
%TO.C,R6*%
X140065000Y-75409500D03*
X140065000Y-73584500D03*
%TD*%
D18*
%TO.C,C1*%
X141093000Y-82430500D03*
X141093000Y-84155500D03*
%TD*%
D17*
%TO.C,R3*%
X139545000Y-79209499D03*
X139545000Y-77384499D03*
%TD*%
%TO.C,R4*%
X139545000Y-83805501D03*
X139545000Y-81980501D03*
%TD*%
%TO.C,R5*%
X141093000Y-78809500D03*
X141093000Y-76984500D03*
%TD*%
D19*
%TO.C,R2*%
X137995000Y-77784501D03*
X137995000Y-79609501D03*
%TD*%
%TO.C,R1*%
X137995000Y-81580499D03*
X137995000Y-83405499D03*
%TD*%
M02*
