%TF.GenerationSoftware,KiCad,Pcbnew,7.0.1*%
%TF.CreationDate,2023-04-17T09:27:04+12:00*%
%TF.ProjectId,MCT8329A-breakout,4d435438-3332-4394-912d-627265616b6f,1.0*%
%TF.SameCoordinates,Original*%
%TF.FileFunction,Copper,L1,Top*%
%TF.FilePolarity,Positive*%
%FSLAX46Y46*%
G04 Gerber Fmt 4.6, Leading zero omitted, Abs format (unit mm)*
G04 Created by KiCad (PCBNEW 7.0.1) date 2023-04-17 09:27:04*
%MOMM*%
%LPD*%
G01*
G04 APERTURE LIST*
G04 Aperture macros list*
%AMRoundRect*
0 Rectangle with rounded corners*
0 $1 Rounding radius*
0 $2 $3 $4 $5 $6 $7 $8 $9 X,Y pos of 4 corners*
0 Add a 4 corners polygon primitive as box body*
4,1,4,$2,$3,$4,$5,$6,$7,$8,$9,$2,$3,0*
0 Add four circle primitives for the rounded corners*
1,1,$1+$1,$2,$3*
1,1,$1+$1,$4,$5*
1,1,$1+$1,$6,$7*
1,1,$1+$1,$8,$9*
0 Add four rect primitives between the rounded corners*
20,1,$1+$1,$2,$3,$4,$5,0*
20,1,$1+$1,$4,$5,$6,$7,0*
20,1,$1+$1,$6,$7,$8,$9,0*
20,1,$1+$1,$8,$9,$2,$3,0*%
G04 Aperture macros list end*
%TA.AperFunction,SMDPad,CuDef*%
%ADD10RoundRect,0.250000X0.337500X0.475000X-0.337500X0.475000X-0.337500X-0.475000X0.337500X-0.475000X0*%
%TD*%
%TA.AperFunction,SMDPad,CuDef*%
%ADD11RoundRect,0.237500X0.237500X-0.300000X0.237500X0.300000X-0.237500X0.300000X-0.237500X-0.300000X0*%
%TD*%
%TA.AperFunction,SMDPad,CuDef*%
%ADD12RoundRect,0.237500X0.300000X0.237500X-0.300000X0.237500X-0.300000X-0.237500X0.300000X-0.237500X0*%
%TD*%
%TA.AperFunction,SMDPad,CuDef*%
%ADD13R,0.204000X0.807999*%
%TD*%
%TA.AperFunction,SMDPad,CuDef*%
%ADD14R,0.807999X0.204000*%
%TD*%
%TA.AperFunction,SMDPad,CuDef*%
%ADD15R,3.810000X2.794000*%
%TD*%
%TA.AperFunction,SMDPad,CuDef*%
%ADD16RoundRect,0.237500X-0.300000X-0.237500X0.300000X-0.237500X0.300000X0.237500X-0.300000X0.237500X0*%
%TD*%
%TA.AperFunction,SMDPad,CuDef*%
%ADD17RoundRect,0.237500X0.237500X-0.250000X0.237500X0.250000X-0.237500X0.250000X-0.237500X-0.250000X0*%
%TD*%
%TA.AperFunction,SMDPad,CuDef*%
%ADD18RoundRect,0.237500X-0.237500X0.300000X-0.237500X-0.300000X0.237500X-0.300000X0.237500X0.300000X0*%
%TD*%
%TA.AperFunction,SMDPad,CuDef*%
%ADD19RoundRect,0.237500X-0.237500X0.250000X-0.237500X-0.250000X0.237500X-0.250000X0.237500X0.250000X0*%
%TD*%
%TA.AperFunction,ComponentPad*%
%ADD20C,1.700000*%
%TD*%
%TA.AperFunction,ComponentPad*%
%ADD21O,1.700000X1.700000*%
%TD*%
%TA.AperFunction,ViaPad*%
%ADD22C,0.500000*%
%TD*%
%TA.AperFunction,Conductor*%
%ADD23C,0.204000*%
%TD*%
G04 APERTURE END LIST*
D10*
%TO.P,C5,1*%
%TO.N,PVDD*%
X144344501Y-87215000D03*
%TO.P,C5,2*%
%TO.N,PGND*%
X142269501Y-87215000D03*
%TD*%
D11*
%TO.P,C6,1*%
%TO.N,/CPL*%
X146003000Y-87202500D03*
%TO.P,C6,2*%
%TO.N,/CPH*%
X146003000Y-85477500D03*
%TD*%
D12*
%TO.P,C2,1*%
%TO.N,AVDD*%
X144280498Y-74225300D03*
%TO.P,C2,2*%
%TO.N,PGND*%
X142555498Y-74225300D03*
%TD*%
%TO.P,C4,1*%
%TO.N,PVDD*%
X144394501Y-85415000D03*
%TO.P,C4,2*%
%TO.N,PGND*%
X142669501Y-85415000D03*
%TD*%
D13*
%TO.P,U1,1,DGND*%
%TO.N,DGND*%
X143230001Y-82535700D03*
%TO.P,U1,2,VREG*%
%TO.N,AVDD*%
X143630000Y-82535700D03*
%TO.P,U1,3,GCTRL*%
%TO.N,unconnected-(U1-Pad3)*%
X144029999Y-82535700D03*
%TO.P,U1,4,PGND*%
%TO.N,PGND*%
X144430001Y-82535700D03*
%TO.P,U1,5,PVDD*%
%TO.N,PVDD*%
X144830000Y-82535700D03*
%TO.P,U1,6,CPL*%
%TO.N,/CPL*%
X145230000Y-82535700D03*
%TO.P,U1,7,CPH*%
%TO.N,/CPH*%
X145629999Y-82535700D03*
%TO.P,U1,8,GVDD*%
%TO.N,/GVDD*%
X146030001Y-82535700D03*
%TO.P,U1,9,BSTA*%
%TO.N,/BSTA*%
X146430000Y-82535700D03*
%TO.P,U1,10,SHA*%
%TO.N,/SHA*%
X146829999Y-82535700D03*
D14*
%TO.P,U1,11,GHA*%
%TO.N,/GHA*%
X147478700Y-81995000D03*
%TO.P,U1,12,GLA*%
%TO.N,/GLA*%
X147478700Y-81595001D03*
%TO.P,U1,13,BSTB*%
%TO.N,/BSTB*%
X147478700Y-81194999D03*
%TO.P,U1,14,SHB*%
%TO.N,/SHB*%
X147478700Y-80795000D03*
%TO.P,U1,15,GHB*%
%TO.N,/GHB*%
X147478700Y-80395000D03*
%TO.P,U1,16,GLB*%
%TO.N,/GLB*%
X147478700Y-79995001D03*
%TO.P,U1,17,BSTC*%
%TO.N,/BSTC*%
X147478700Y-79594999D03*
%TO.P,U1,18,SHC*%
%TO.N,/SHC*%
X147478700Y-79195000D03*
D13*
%TO.P,U1,19,GHC*%
%TO.N,/GHC*%
X146829999Y-78654300D03*
%TO.P,U1,20,GLC*%
%TO.N,/GLC*%
X146430000Y-78654300D03*
%TO.P,U1,21,LSS*%
%TO.N,/LSS*%
X146030001Y-78654300D03*
%TO.P,U1,22,SP*%
%TO.N,/SP*%
X145629999Y-78654300D03*
%TO.P,U1,23,SN*%
%TO.N,/SN*%
X145230000Y-78654300D03*
%TO.P,U1,24,DRVOFF*%
%TO.N,/DRVOFF*%
X144830000Y-78654300D03*
%TO.P,U1,25,AGND*%
%TO.N,AGND*%
X144430001Y-78654300D03*
%TO.P,U1,26,AVDD*%
%TO.N,AVDD*%
X144029999Y-78654300D03*
%TO.P,U1,27,SPEED/WAKE*%
%TO.N,/SPEED{slash}WAKE*%
X143630000Y-78654300D03*
%TO.P,U1,28,FG*%
%TO.N,/FG*%
X143230001Y-78654300D03*
D14*
%TO.P,U1,29,SDA*%
%TO.N,/SDA*%
X142581300Y-79195000D03*
%TO.P,U1,30,SCL*%
%TO.N,/SCL*%
X142581300Y-79594999D03*
%TO.P,U1,31,DIR*%
%TO.N,/DIR*%
X142581300Y-79995001D03*
%TO.P,U1,32,EXT_CLK*%
%TO.N,/EXT_CLK*%
X142581300Y-80395000D03*
%TO.P,U1,33,DACOUT/SOx/SPEED_ANA*%
%TO.N,/DACOUT{slash}SOx{slash}SPEED_ANA*%
X142581300Y-80795000D03*
%TO.P,U1,34,BRAKE*%
%TO.N,/BRAKE*%
X142581300Y-81194999D03*
%TO.P,U1,35,nFAULT*%
%TO.N,/nFAULT*%
X142581300Y-81595001D03*
%TO.P,U1,36,DVDD*%
%TO.N,DVDD*%
X142581300Y-81995000D03*
D15*
%TO.P,U1,37*%
%TO.N,GND*%
X145030000Y-80595000D03*
%TD*%
D16*
%TO.P,C3,1*%
%TO.N,AVDD*%
X143409499Y-75775300D03*
%TO.P,C3,2*%
%TO.N,AGND*%
X145134499Y-75775300D03*
%TD*%
D17*
%TO.P,R6,1*%
%TO.N,AVDD*%
X140065000Y-75409500D03*
%TO.P,R6,2*%
%TO.N,/FG*%
X140065000Y-73584500D03*
%TD*%
D18*
%TO.P,C1,1*%
%TO.N,DVDD*%
X141093000Y-82430500D03*
%TO.P,C1,2*%
%TO.N,PGND*%
X141093000Y-84155500D03*
%TD*%
D17*
%TO.P,R3,1*%
%TO.N,/SCL*%
X139545000Y-79209499D03*
%TO.P,R3,2*%
%TO.N,AVDD*%
X139545000Y-77384499D03*
%TD*%
%TO.P,R4,1*%
%TO.N,AVDD*%
X139545000Y-83805501D03*
%TO.P,R4,2*%
%TO.N,/nFAULT*%
X139545000Y-81980501D03*
%TD*%
%TO.P,R5,1*%
%TO.N,/SDA*%
X141093000Y-78809500D03*
%TO.P,R5,2*%
%TO.N,AVDD*%
X141093000Y-76984500D03*
%TD*%
D19*
%TO.P,R2,1*%
%TO.N,GND*%
X137995000Y-77784501D03*
%TO.P,R2,2*%
%TO.N,/DIR*%
X137995000Y-79609501D03*
%TD*%
%TO.P,R1,1*%
%TO.N,/BRAKE*%
X137995000Y-81580499D03*
%TO.P,R1,2*%
%TO.N,GND*%
X137995000Y-83405499D03*
%TD*%
D20*
%TO.P,J2,1,Pin_1*%
%TO.N,PGND*%
X152835000Y-108335000D03*
D21*
%TO.P,J2,2,Pin_2*%
%TO.N,PVDD*%
X152835000Y-105795000D03*
%TO.P,J2,3,Pin_3*%
%TO.N,/CPL*%
X152835000Y-103255000D03*
%TO.P,J2,4,Pin_4*%
%TO.N,/CPH*%
X152835000Y-100715000D03*
%TO.P,J2,5,Pin_5*%
%TO.N,/GVDD*%
X152835000Y-98175000D03*
%TO.P,J2,6,Pin_6*%
%TO.N,/BSTA*%
X152835000Y-95635000D03*
%TO.P,J2,7,Pin_7*%
%TO.N,/SHA*%
X152835000Y-93095000D03*
%TO.P,J2,8,Pin_8*%
%TO.N,/GHA*%
X152835000Y-90555000D03*
%TO.P,J2,9,Pin_9*%
%TO.N,/GLA*%
X152835000Y-88015000D03*
%TO.P,J2,10,Pin_10*%
%TO.N,/BSTB*%
X152835000Y-85475000D03*
%TO.P,J2,11,Pin_11*%
%TO.N,/SHB*%
X152835000Y-82935000D03*
%TO.P,J2,12,Pin_12*%
%TO.N,/GHB*%
X152835000Y-80395000D03*
%TO.P,J2,13,Pin_13*%
%TO.N,/GLB*%
X152835000Y-77855000D03*
%TO.P,J2,14,Pin_14*%
%TO.N,/BSTC*%
X152835000Y-75315000D03*
%TO.P,J2,15,Pin_15*%
%TO.N,/SHC*%
X152835000Y-72775000D03*
%TO.P,J2,16,Pin_16*%
%TO.N,/GHC*%
X152835000Y-70235000D03*
%TO.P,J2,17,Pin_17*%
%TO.N,/GLC*%
X152835000Y-67695000D03*
%TO.P,J2,18,Pin_18*%
%TO.N,/LSS*%
X152835000Y-65155000D03*
%TO.P,J2,19,Pin_19*%
%TO.N,/SP*%
X152835000Y-62615000D03*
%TO.P,J2,20,Pin_20*%
%TO.N,/SN*%
X152835000Y-60075000D03*
%TD*%
D20*
%TO.P,J1,1,Pin_1*%
%TO.N,/DRVOFF*%
X132545000Y-60085000D03*
D21*
%TO.P,J1,2,Pin_2*%
%TO.N,AGND*%
X132545000Y-62625000D03*
%TO.P,J1,3,Pin_3*%
%TO.N,AVDD*%
X132545000Y-65165000D03*
%TO.P,J1,4,Pin_4*%
%TO.N,/SPEED{slash}WAKE*%
X132545000Y-67705000D03*
%TO.P,J1,5,Pin_5*%
%TO.N,/FG*%
X132545000Y-70245000D03*
%TO.P,J1,6,Pin_6*%
%TO.N,/SDA*%
X132545000Y-72785000D03*
%TO.P,J1,7,Pin_7*%
%TO.N,/SCL*%
X132545000Y-75325000D03*
%TO.P,J1,8,Pin_8*%
%TO.N,/DIR*%
X132545000Y-77865000D03*
%TO.P,J1,9,Pin_9*%
%TO.N,/EXT_CLK*%
X132545000Y-80405000D03*
%TO.P,J1,10,Pin_10*%
%TO.N,/DACOUT{slash}SOx{slash}SPEED_ANA*%
X132545000Y-82945000D03*
%TO.P,J1,11,Pin_11*%
%TO.N,/BRAKE*%
X132545000Y-85485000D03*
%TO.P,J1,12,Pin_12*%
%TO.N,/nFAULT*%
X132545000Y-88025000D03*
%TO.P,J1,13,Pin_13*%
%TO.N,DVDD*%
X132545000Y-90565000D03*
%TO.P,J1,14,Pin_14*%
%TO.N,DGND*%
X132545000Y-93105000D03*
%TD*%
D22*
%TO.N,AVDD*%
X140575000Y-76200000D03*
X142845000Y-84492141D03*
X139045000Y-76610000D03*
X143845000Y-76580000D03*
X139472858Y-84640000D03*
%TO.N,GND*%
X145520000Y-79630000D03*
X144540000Y-80595000D03*
X149020000Y-85110000D03*
X146500000Y-81560000D03*
X147790000Y-71860000D03*
X144540000Y-79630000D03*
X149000000Y-78260000D03*
X144200000Y-73210000D03*
X147750000Y-83910000D03*
X137225000Y-83900000D03*
X145520000Y-80595000D03*
X149690000Y-79360000D03*
X149690000Y-81430000D03*
X147810000Y-91510000D03*
X142100000Y-77220000D03*
X148210000Y-89380000D03*
X143560000Y-79630000D03*
X145520000Y-81560000D03*
X146500000Y-79630000D03*
X149430000Y-83000000D03*
X145750000Y-72400000D03*
X138450000Y-76010000D03*
X137225000Y-77280000D03*
X148610000Y-87240000D03*
X139800000Y-85920000D03*
X135680000Y-81430000D03*
X136480000Y-69620000D03*
X146990000Y-67580000D03*
X139120000Y-74770000D03*
X148200000Y-73980000D03*
X147390000Y-69710000D03*
X144540000Y-81560000D03*
X146500000Y-80595000D03*
X143560000Y-80595000D03*
X139790000Y-87680000D03*
X143560000Y-81560000D03*
X138180000Y-85820000D03*
X148600000Y-76110000D03*
X147750000Y-78160000D03*
%TO.N,PGND*%
X141850000Y-83570000D03*
X142555498Y-73400000D03*
X143190000Y-86200000D03*
X141700000Y-86190000D03*
X141390000Y-88250000D03*
X142850000Y-88250000D03*
X144230000Y-83440000D03*
X144230000Y-84440000D03*
%TD*%
D23*
%TO.N,DVDD*%
X140318000Y-83205500D02*
X141093000Y-82430500D01*
X142581300Y-81995000D02*
X141251801Y-81995000D01*
X134332848Y-90555000D02*
X140318000Y-84569848D01*
X140318000Y-84569848D02*
X140318000Y-83205500D01*
X132545000Y-90555000D02*
X134332848Y-90555000D01*
%TO.N,DGND*%
X143230001Y-82535700D02*
X143230001Y-83332150D01*
X143230001Y-83332150D02*
X133467151Y-93095000D01*
X133467151Y-93095000D02*
X132545000Y-93095000D01*
%TO.N,AVDD*%
X139472858Y-84640000D02*
X139472858Y-83877643D01*
X143845000Y-76580000D02*
X143845000Y-74210000D01*
X140575000Y-76466500D02*
X141093000Y-76984500D01*
X143845000Y-76939926D02*
X144029999Y-77124925D01*
X135210198Y-65155000D02*
X144280498Y-74225300D01*
X144029999Y-78654300D02*
X144029999Y-77124999D01*
X140575000Y-76200000D02*
X140575000Y-76466500D01*
X143845000Y-76580000D02*
X143845000Y-76939926D01*
X140575000Y-76200000D02*
X140575000Y-75919500D01*
X143630000Y-83707141D02*
X143630000Y-82535700D01*
X142845000Y-84492141D02*
X143630000Y-83707141D01*
X140575000Y-75919500D02*
X140065000Y-75409500D01*
X132545000Y-65155000D02*
X135210198Y-65155000D01*
X139045000Y-76610000D02*
X139045000Y-76884499D01*
X139045000Y-76884499D02*
X139545000Y-77384499D01*
%TO.N,AGND*%
X144430001Y-77204999D02*
X144695000Y-76940000D01*
X145134499Y-73230185D02*
X134519314Y-62615000D01*
X145134499Y-75775300D02*
X145134499Y-73230185D01*
X144430001Y-78654300D02*
X144430001Y-77204999D01*
X134519314Y-62615000D02*
X132545000Y-62615000D01*
X144698999Y-76936001D02*
X144698999Y-75730000D01*
%TO.N,PVDD*%
X144829999Y-85415000D02*
X144829999Y-97789999D01*
X144829999Y-97789999D02*
X152835000Y-105795000D01*
X144830000Y-82535700D02*
X144830000Y-85365000D01*
%TO.N,/CPL*%
X146000000Y-86767000D02*
X145570000Y-86767000D01*
X146375999Y-96790000D02*
X146375999Y-87575999D01*
X146375999Y-87575999D02*
X146010000Y-87210000D01*
X145230000Y-82535700D02*
X145230000Y-86429500D01*
X145230000Y-86429500D02*
X146003000Y-87202500D01*
X152840999Y-103255000D02*
X146375999Y-96790000D01*
%TO.N,/CPH*%
X145630000Y-85450000D02*
X145975500Y-85450000D01*
X146776000Y-94656000D02*
X152835000Y-100715000D01*
X145629999Y-82535700D02*
X145629999Y-85450000D01*
X146776000Y-86250500D02*
X146776000Y-94656000D01*
X145975500Y-85450000D02*
X146003000Y-85477500D01*
X146003000Y-85477500D02*
X146776000Y-86250500D01*
%TO.N,/DRVOFF*%
X145969999Y-73499999D02*
X132545000Y-60075000D01*
X145969999Y-76236571D02*
X145969999Y-73499999D01*
X144830001Y-77376569D02*
X145969999Y-76236571D01*
X144830000Y-78654300D02*
X144830001Y-77376569D01*
%TO.N,/SPEED{slash}WAKE*%
X135420311Y-67695000D02*
X132545000Y-67695000D01*
X141238000Y-73512689D02*
X135420311Y-67695000D01*
X143630000Y-77290612D02*
X141238000Y-74898612D01*
X143630000Y-78654300D02*
X143630000Y-77290612D01*
X141238000Y-74898612D02*
X141238000Y-73512689D01*
%TO.N,/FG*%
X140838000Y-75064297D02*
X143230001Y-77456299D01*
X132545000Y-70235000D02*
X136715500Y-70235000D01*
X136715500Y-70235000D02*
X140065000Y-73584500D01*
X140065000Y-73584500D02*
X140838000Y-74357500D01*
X143230001Y-77456299D02*
X143230001Y-78654300D01*
X140838000Y-74357500D02*
X140838000Y-75064297D01*
%TO.N,/SDA*%
X142581300Y-79195000D02*
X141090000Y-79195000D01*
X140320000Y-76909311D02*
X136185689Y-72775000D01*
X136185689Y-72775000D02*
X132545000Y-72775000D01*
X140320000Y-78036500D02*
X140320000Y-76909311D01*
X141093000Y-78809500D02*
X140320000Y-78036500D01*
%TO.N,/SCL*%
X138772000Y-77316690D02*
X136770310Y-75315000D01*
X142581300Y-79594999D02*
X139599999Y-79594999D01*
X138772000Y-77316690D02*
X138772000Y-78436499D01*
X136770310Y-75315000D02*
X132545000Y-75315000D01*
X138772000Y-78436499D02*
X139545000Y-79209499D01*
%TO.N,/DIR*%
X134685000Y-79995000D02*
X142581300Y-79995001D01*
X132545000Y-77855000D02*
X134685000Y-79995000D01*
%TO.N,/EXT_CLK*%
X142581300Y-80395000D02*
X132545000Y-80395000D01*
%TO.N,/DACOUT{slash}SOx{slash}SPEED_ANA*%
X134685000Y-80795000D02*
X132545000Y-82935000D01*
X142581300Y-80795000D02*
X134685000Y-80795000D01*
%TO.N,/BRAKE*%
X136825000Y-81195000D02*
X142581300Y-81194999D01*
X132545000Y-85475000D02*
X136825000Y-81195000D01*
%TO.N,/nFAULT*%
X139469999Y-81595001D02*
X142581300Y-81595001D01*
X138768000Y-82757501D02*
X139545000Y-81980501D01*
X134630310Y-88015000D02*
X138768000Y-83877310D01*
X138768000Y-83877310D02*
X138768000Y-82757501D01*
X132545000Y-88015000D02*
X134630310Y-88015000D01*
%TO.N,/GVDD*%
X146030001Y-82535700D02*
X146030001Y-84209690D01*
X147176000Y-92516000D02*
X152835000Y-98175000D01*
X146030001Y-84209690D02*
X147176000Y-85355689D01*
X147176000Y-85355689D02*
X147176000Y-92516000D01*
%TO.N,/BSTA*%
X146429999Y-84044002D02*
X147576000Y-85190004D01*
X147576000Y-85190004D02*
X147576000Y-90376000D01*
X147576000Y-90376000D02*
X152835000Y-95635000D01*
X146430000Y-82535700D02*
X146429999Y-84044002D01*
%TO.N,/SHA*%
X147976000Y-85024319D02*
X147976000Y-88236000D01*
X146829999Y-83878316D02*
X147976000Y-85024319D01*
X147976000Y-88236000D02*
X152835000Y-93095000D01*
X146829999Y-82535700D02*
X146829999Y-83878316D01*
%TO.N,/GHA*%
X152835000Y-90555000D02*
X148376000Y-86096000D01*
X148376000Y-86096000D02*
X148376000Y-82441000D01*
X148376000Y-82441000D02*
X147930000Y-81995000D01*
X147930000Y-81995000D02*
X147478700Y-81995000D01*
%TO.N,/GLA*%
X148776000Y-83956000D02*
X152835000Y-88015000D01*
X147478700Y-81595001D02*
X148095687Y-81595001D01*
X148776000Y-82275314D02*
X148776000Y-83956000D01*
X148095687Y-81595001D02*
X148776000Y-82275314D01*
%TO.N,/BSTB*%
X147478700Y-81194999D02*
X148554999Y-81194999D01*
X148554999Y-81194999D02*
X152835000Y-85475000D01*
%TO.N,/SHB*%
X150695000Y-80795000D02*
X152835000Y-82935000D01*
X147478700Y-80795000D02*
X150695000Y-80795000D01*
%TO.N,/GHB*%
X147478700Y-80395000D02*
X152835000Y-80395000D01*
%TO.N,/GLB*%
X150695000Y-79995000D02*
X152835000Y-77855000D01*
X147478700Y-79995001D02*
X150695000Y-79995000D01*
%TO.N,/BSTC*%
X148555000Y-79595000D02*
X152835000Y-75315000D01*
X147478700Y-79594999D02*
X148555000Y-79595000D01*
%TO.N,/SHC*%
X147478700Y-79195000D02*
X147930000Y-79195000D01*
X148369999Y-77240001D02*
X152835000Y-72775000D01*
X148369999Y-78755001D02*
X148369999Y-77240001D01*
X147930000Y-79195000D02*
X148369999Y-78755001D01*
%TO.N,/GHC*%
X147969999Y-77065000D02*
X147969999Y-75100001D01*
X146829999Y-78654300D02*
X146829999Y-78205001D01*
X146829999Y-78205001D02*
X147969999Y-77065000D01*
X147969999Y-75100001D02*
X152835000Y-70235000D01*
%TO.N,/GLC*%
X146430000Y-78654300D02*
X146430000Y-78039314D01*
X146430000Y-78039314D02*
X147569999Y-76899315D01*
X147569999Y-76899315D02*
X147569999Y-72960001D01*
X147569999Y-72960001D02*
X152835000Y-67695000D01*
%TO.N,/LSS*%
X147169999Y-70820001D02*
X152835000Y-65155000D01*
X146030001Y-78654300D02*
X146030000Y-77873628D01*
X147169999Y-76733626D02*
X147169999Y-70820001D01*
X146030000Y-77873628D02*
X147169999Y-76733626D01*
%TO.N,/SP*%
X146769999Y-68680001D02*
X152835000Y-62615000D01*
X145629999Y-78654300D02*
X145630000Y-77707942D01*
X145630000Y-77707942D02*
X146769999Y-76567941D01*
X146769999Y-76567941D02*
X146769999Y-68680001D01*
%TO.N,/SN*%
X145230001Y-77542255D02*
X146369999Y-76402256D01*
X146369999Y-66540001D02*
X152835000Y-60075000D01*
X146369999Y-76402256D02*
X146369999Y-66540001D01*
X145230000Y-78654300D02*
X145230001Y-77542255D01*
%TO.N,PGND*%
X142555498Y-73400000D02*
X142555498Y-74225300D01*
X144430001Y-82535700D02*
X144430001Y-83794999D01*
%TD*%
%TA.AperFunction,Conductor*%
%TO.N,GND*%
G36*
X154596500Y-58277381D02*
G01*
X154642619Y-58323500D01*
X154659500Y-58386500D01*
X154659500Y-96994000D01*
X154642619Y-97057000D01*
X154596500Y-97103119D01*
X154533500Y-97120000D01*
X152254333Y-97120000D01*
X152206115Y-97110409D01*
X152165238Y-97083095D01*
X147511405Y-92429262D01*
X147484091Y-92388385D01*
X147474500Y-92340167D01*
X147474500Y-91000833D01*
X147488233Y-90943630D01*
X147526439Y-90898897D01*
X147580789Y-90876384D01*
X147639436Y-90881000D01*
X147689595Y-90911738D01*
X151848593Y-95070736D01*
X151877421Y-95115445D01*
X151885229Y-95168067D01*
X151870623Y-95219221D01*
X151863482Y-95232581D01*
X151803641Y-95429849D01*
X151783435Y-95635000D01*
X151803641Y-95840150D01*
X151863481Y-96037414D01*
X151960657Y-96219220D01*
X152091431Y-96378568D01*
X152250779Y-96509342D01*
X152250780Y-96509342D01*
X152250782Y-96509344D01*
X152432584Y-96606518D01*
X152531217Y-96636438D01*
X152629849Y-96666358D01*
X152835000Y-96686564D01*
X153040150Y-96666358D01*
X153237416Y-96606518D01*
X153419218Y-96509344D01*
X153578568Y-96378568D01*
X153709344Y-96219218D01*
X153806518Y-96037416D01*
X153866358Y-95840150D01*
X153886564Y-95635000D01*
X153866358Y-95429850D01*
X153806518Y-95232584D01*
X153709344Y-95050782D01*
X153709342Y-95050779D01*
X153578568Y-94891431D01*
X153419220Y-94760657D01*
X153237414Y-94663481D01*
X153040150Y-94603641D01*
X152834999Y-94583435D01*
X152629849Y-94603641D01*
X152432581Y-94663482D01*
X152419221Y-94670623D01*
X152368067Y-94685229D01*
X152315445Y-94677421D01*
X152270736Y-94648593D01*
X147911405Y-90289262D01*
X147884091Y-90248385D01*
X147874500Y-90200167D01*
X147874500Y-88860833D01*
X147888233Y-88803630D01*
X147926439Y-88758897D01*
X147980789Y-88736384D01*
X148039436Y-88741000D01*
X148089595Y-88771738D01*
X151848594Y-92530736D01*
X151877423Y-92575447D01*
X151885229Y-92628070D01*
X151870622Y-92679225D01*
X151863481Y-92692584D01*
X151803641Y-92889849D01*
X151783435Y-93095000D01*
X151803641Y-93300150D01*
X151863481Y-93497414D01*
X151960657Y-93679220D01*
X152091431Y-93838568D01*
X152250779Y-93969342D01*
X152250780Y-93969342D01*
X152250782Y-93969344D01*
X152432584Y-94066518D01*
X152465550Y-94076518D01*
X152629849Y-94126358D01*
X152835000Y-94146564D01*
X153040150Y-94126358D01*
X153237416Y-94066518D01*
X153419218Y-93969344D01*
X153578568Y-93838568D01*
X153709344Y-93679218D01*
X153806518Y-93497416D01*
X153866358Y-93300150D01*
X153886564Y-93095000D01*
X153866358Y-92889850D01*
X153806518Y-92692584D01*
X153709344Y-92510782D01*
X153642442Y-92429262D01*
X153578568Y-92351431D01*
X153419220Y-92220657D01*
X153237414Y-92123481D01*
X153040150Y-92063641D01*
X152834999Y-92043435D01*
X152629849Y-92063641D01*
X152432584Y-92123481D01*
X152419225Y-92130622D01*
X152368070Y-92145229D01*
X152315447Y-92137423D01*
X152270736Y-92108594D01*
X150301363Y-90139221D01*
X148311405Y-88149262D01*
X148284091Y-88108385D01*
X148274500Y-88060167D01*
X148274500Y-86720833D01*
X148288233Y-86663630D01*
X148326439Y-86618897D01*
X148380789Y-86596384D01*
X148439436Y-86601000D01*
X148489595Y-86631738D01*
X151848593Y-89990736D01*
X151877421Y-90035445D01*
X151885229Y-90088067D01*
X151870623Y-90139221D01*
X151863482Y-90152581D01*
X151803641Y-90349849D01*
X151783435Y-90555000D01*
X151803641Y-90760150D01*
X151859300Y-90943630D01*
X151863482Y-90957416D01*
X151868826Y-90967414D01*
X151960657Y-91139220D01*
X152091431Y-91298568D01*
X152250779Y-91429342D01*
X152250780Y-91429342D01*
X152250782Y-91429344D01*
X152432584Y-91526518D01*
X152465550Y-91536518D01*
X152629849Y-91586358D01*
X152835000Y-91606564D01*
X153040150Y-91586358D01*
X153237416Y-91526518D01*
X153419218Y-91429344D01*
X153578568Y-91298568D01*
X153709344Y-91139218D01*
X153806518Y-90957416D01*
X153866358Y-90760150D01*
X153886564Y-90555000D01*
X153866358Y-90349850D01*
X153806518Y-90152584D01*
X153709344Y-89970782D01*
X153709342Y-89970779D01*
X153578568Y-89811431D01*
X153419220Y-89680657D01*
X153237414Y-89583481D01*
X153040150Y-89523641D01*
X152835000Y-89503435D01*
X152629849Y-89523641D01*
X152432581Y-89583482D01*
X152419221Y-89590623D01*
X152368067Y-89605229D01*
X152315445Y-89597421D01*
X152270736Y-89568593D01*
X148711405Y-86009262D01*
X148684091Y-85968385D01*
X148674500Y-85920167D01*
X148674500Y-84580833D01*
X148688233Y-84523630D01*
X148726439Y-84478897D01*
X148780789Y-84456384D01*
X148839436Y-84461000D01*
X148889595Y-84491738D01*
X151848593Y-87450736D01*
X151877421Y-87495445D01*
X151885229Y-87548067D01*
X151870623Y-87599221D01*
X151863482Y-87612581D01*
X151803641Y-87809849D01*
X151783435Y-88015000D01*
X151803641Y-88220150D01*
X151863481Y-88417414D01*
X151863482Y-88417416D01*
X151868826Y-88427414D01*
X151960657Y-88599220D01*
X152091431Y-88758568D01*
X152250779Y-88889342D01*
X152250780Y-88889342D01*
X152250782Y-88889344D01*
X152432584Y-88986518D01*
X152465550Y-88996518D01*
X152629849Y-89046358D01*
X152835000Y-89066564D01*
X153040150Y-89046358D01*
X153237416Y-88986518D01*
X153419218Y-88889344D01*
X153578568Y-88758568D01*
X153709344Y-88599218D01*
X153806518Y-88417416D01*
X153866358Y-88220150D01*
X153886564Y-88015000D01*
X153866358Y-87809850D01*
X153806518Y-87612584D01*
X153709344Y-87430782D01*
X153709342Y-87430779D01*
X153578568Y-87271431D01*
X153419220Y-87140657D01*
X153328316Y-87092068D01*
X153237416Y-87043482D01*
X153237415Y-87043481D01*
X153237414Y-87043481D01*
X153040150Y-86983641D01*
X152834999Y-86963435D01*
X152629849Y-86983641D01*
X152432584Y-87043481D01*
X152419225Y-87050622D01*
X152368070Y-87065229D01*
X152315447Y-87057423D01*
X152270736Y-87028594D01*
X149111405Y-83869262D01*
X149084091Y-83828385D01*
X149074500Y-83780167D01*
X149074500Y-82440833D01*
X149088233Y-82383630D01*
X149126439Y-82338897D01*
X149180789Y-82316384D01*
X149239436Y-82321000D01*
X149289595Y-82351738D01*
X151848593Y-84910736D01*
X151877421Y-84955445D01*
X151885229Y-85008067D01*
X151870623Y-85059221D01*
X151863482Y-85072581D01*
X151803641Y-85269849D01*
X151783435Y-85475000D01*
X151803641Y-85680150D01*
X151863481Y-85877414D01*
X151960657Y-86059220D01*
X152091431Y-86218568D01*
X152250779Y-86349342D01*
X152250780Y-86349342D01*
X152250782Y-86349344D01*
X152432584Y-86446518D01*
X152465550Y-86456518D01*
X152629849Y-86506358D01*
X152835000Y-86526564D01*
X153040150Y-86506358D01*
X153237416Y-86446518D01*
X153419218Y-86349344D01*
X153578568Y-86218568D01*
X153709344Y-86059218D01*
X153806518Y-85877416D01*
X153866358Y-85680150D01*
X153886564Y-85475000D01*
X153866358Y-85269850D01*
X153806518Y-85072584D01*
X153709344Y-84890782D01*
X153703678Y-84883878D01*
X153578568Y-84731431D01*
X153419220Y-84600657D01*
X153237414Y-84503481D01*
X153040150Y-84443641D01*
X152835000Y-84423435D01*
X152629849Y-84443641D01*
X152432581Y-84503482D01*
X152419221Y-84510623D01*
X152368067Y-84525229D01*
X152315445Y-84517421D01*
X152270736Y-84488593D01*
X149090738Y-81308595D01*
X149060000Y-81258436D01*
X149055384Y-81199789D01*
X149077897Y-81145439D01*
X149122630Y-81107233D01*
X149179833Y-81093500D01*
X150519167Y-81093500D01*
X150567385Y-81103091D01*
X150608262Y-81130405D01*
X151848593Y-82370736D01*
X151877421Y-82415445D01*
X151885229Y-82468067D01*
X151870623Y-82519221D01*
X151863482Y-82532581D01*
X151803641Y-82729849D01*
X151783435Y-82935000D01*
X151803641Y-83140150D01*
X151863481Y-83337414D01*
X151960657Y-83519220D01*
X152091431Y-83678568D01*
X152250779Y-83809342D01*
X152250780Y-83809342D01*
X152250782Y-83809344D01*
X152432584Y-83906518D01*
X152465550Y-83916518D01*
X152629849Y-83966358D01*
X152834999Y-83986564D01*
X152834999Y-83986563D01*
X152835000Y-83986564D01*
X153040150Y-83966358D01*
X153237416Y-83906518D01*
X153419218Y-83809344D01*
X153578568Y-83678568D01*
X153709344Y-83519218D01*
X153806518Y-83337416D01*
X153866358Y-83140150D01*
X153886564Y-82935000D01*
X153871984Y-82786971D01*
X153866358Y-82729849D01*
X153820347Y-82578172D01*
X153806518Y-82532584D01*
X153709344Y-82350782D01*
X153705784Y-82346444D01*
X153578568Y-82191431D01*
X153419220Y-82060657D01*
X153237414Y-81963481D01*
X153040150Y-81903641D01*
X152835000Y-81883435D01*
X152629849Y-81903641D01*
X152432581Y-81963482D01*
X152419221Y-81970623D01*
X152368067Y-81985229D01*
X152315445Y-81977421D01*
X152270736Y-81948593D01*
X151230738Y-80908595D01*
X151200000Y-80858436D01*
X151195384Y-80799789D01*
X151217897Y-80745439D01*
X151262630Y-80707233D01*
X151319833Y-80693500D01*
X151738512Y-80693500D01*
X151790514Y-80704731D01*
X151833244Y-80736423D01*
X151859085Y-80782923D01*
X151863481Y-80797414D01*
X151863482Y-80797416D01*
X151960657Y-80979220D01*
X152091431Y-81138568D01*
X152250779Y-81269342D01*
X152250780Y-81269342D01*
X152250782Y-81269344D01*
X152432584Y-81366518D01*
X152465550Y-81376518D01*
X152629849Y-81426358D01*
X152835000Y-81446564D01*
X153040150Y-81426358D01*
X153237416Y-81366518D01*
X153419218Y-81269344D01*
X153578568Y-81138568D01*
X153709344Y-80979218D01*
X153806518Y-80797416D01*
X153866358Y-80600150D01*
X153886564Y-80395000D01*
X153866358Y-80189850D01*
X153861450Y-80173672D01*
X153810913Y-80007074D01*
X153806518Y-79992584D01*
X153709344Y-79810782D01*
X153678887Y-79773670D01*
X153578568Y-79651431D01*
X153419220Y-79520657D01*
X153237414Y-79423481D01*
X153040150Y-79363641D01*
X152835000Y-79343435D01*
X152629849Y-79363641D01*
X152432585Y-79423481D01*
X152250779Y-79520657D01*
X152091431Y-79651431D01*
X151960657Y-79810779D01*
X151863482Y-79992583D01*
X151861924Y-79997717D01*
X151859085Y-80007076D01*
X151833244Y-80053577D01*
X151790514Y-80085269D01*
X151738512Y-80096500D01*
X151319833Y-80096500D01*
X151262630Y-80082767D01*
X151217897Y-80044561D01*
X151195384Y-79990211D01*
X151200000Y-79931564D01*
X151230735Y-79881407D01*
X152270740Y-78841401D01*
X152315448Y-78812576D01*
X152368073Y-78804770D01*
X152419228Y-78819379D01*
X152432584Y-78826518D01*
X152629849Y-78886358D01*
X152835000Y-78906564D01*
X153040150Y-78886358D01*
X153237416Y-78826518D01*
X153419218Y-78729344D01*
X153578568Y-78598568D01*
X153709344Y-78439218D01*
X153806518Y-78257416D01*
X153866358Y-78060150D01*
X153886564Y-77855000D01*
X153866358Y-77649850D01*
X153860983Y-77632132D01*
X153818633Y-77492523D01*
X153806518Y-77452584D01*
X153709344Y-77270782D01*
X153709342Y-77270779D01*
X153578568Y-77111431D01*
X153419220Y-76980657D01*
X153237414Y-76883481D01*
X153040150Y-76823641D01*
X152835000Y-76803435D01*
X152629849Y-76823641D01*
X152432585Y-76883481D01*
X152250779Y-76980657D01*
X152091431Y-77111431D01*
X151960657Y-77270779D01*
X151863481Y-77452585D01*
X151803641Y-77649849D01*
X151783435Y-77854999D01*
X151803641Y-78060150D01*
X151863481Y-78257415D01*
X151870621Y-78270773D01*
X151885228Y-78321928D01*
X151877422Y-78374551D01*
X151848593Y-78419262D01*
X150608261Y-79659595D01*
X150567384Y-79686909D01*
X150519166Y-79696500D01*
X149179832Y-79696500D01*
X149122629Y-79682767D01*
X149077896Y-79644561D01*
X149055383Y-79590211D01*
X149059999Y-79531564D01*
X149090737Y-79481405D01*
X150663257Y-77908885D01*
X152270738Y-76301403D01*
X152315448Y-76272576D01*
X152368073Y-76264770D01*
X152419227Y-76279378D01*
X152432537Y-76286493D01*
X152432584Y-76286518D01*
X152629849Y-76346358D01*
X152834999Y-76366564D01*
X152834999Y-76366563D01*
X152835000Y-76366564D01*
X153040150Y-76346358D01*
X153237416Y-76286518D01*
X153419218Y-76189344D01*
X153578568Y-76058568D01*
X153709344Y-75899218D01*
X153806518Y-75717416D01*
X153866358Y-75520150D01*
X153886564Y-75315000D01*
X153869235Y-75139065D01*
X153866358Y-75109849D01*
X153819207Y-74954415D01*
X153806518Y-74912584D01*
X153709344Y-74730782D01*
X153709342Y-74730779D01*
X153578568Y-74571431D01*
X153419220Y-74440657D01*
X153237414Y-74343481D01*
X153040150Y-74283641D01*
X152835000Y-74263435D01*
X152629849Y-74283641D01*
X152432585Y-74343481D01*
X152250779Y-74440657D01*
X152091431Y-74571431D01*
X151960657Y-74730779D01*
X151863481Y-74912585D01*
X151803641Y-75109849D01*
X151783435Y-75314999D01*
X151803641Y-75520150D01*
X151863481Y-75717415D01*
X151870621Y-75730773D01*
X151885228Y-75781928D01*
X151877422Y-75834551D01*
X151848593Y-75879262D01*
X148887222Y-78840633D01*
X148826974Y-78874191D01*
X148758083Y-78871006D01*
X148701189Y-78832031D01*
X148673335Y-78768942D01*
X148669707Y-78742928D01*
X148668499Y-78725524D01*
X148668499Y-77415834D01*
X148678090Y-77367616D01*
X148705404Y-77326739D01*
X149585343Y-76446800D01*
X152270738Y-73761403D01*
X152315448Y-73732576D01*
X152368073Y-73724770D01*
X152419228Y-73739379D01*
X152432584Y-73746518D01*
X152629849Y-73806358D01*
X152835000Y-73826564D01*
X153040150Y-73806358D01*
X153237416Y-73746518D01*
X153419218Y-73649344D01*
X153578568Y-73518568D01*
X153709344Y-73359218D01*
X153806518Y-73177416D01*
X153866358Y-72980150D01*
X153886564Y-72775000D01*
X153877739Y-72685405D01*
X153866358Y-72569849D01*
X153810914Y-72387077D01*
X153806518Y-72372584D01*
X153709344Y-72190782D01*
X153709342Y-72190779D01*
X153578568Y-72031431D01*
X153419220Y-71900657D01*
X153237414Y-71803481D01*
X153040150Y-71743641D01*
X152835000Y-71723435D01*
X152629849Y-71743641D01*
X152432585Y-71803481D01*
X152250779Y-71900657D01*
X152091431Y-72031431D01*
X151960657Y-72190779D01*
X151863481Y-72372585D01*
X151803641Y-72569849D01*
X151783435Y-72774999D01*
X151803641Y-72980150D01*
X151863481Y-73177415D01*
X151870621Y-73190773D01*
X151885228Y-73241928D01*
X151877422Y-73294551D01*
X151848593Y-73339262D01*
X148483594Y-76704263D01*
X148433435Y-76735001D01*
X148374788Y-76739617D01*
X148320438Y-76717104D01*
X148282232Y-76672371D01*
X148268499Y-76615168D01*
X148268499Y-75275834D01*
X148278090Y-75227616D01*
X148305404Y-75186739D01*
X149269603Y-74222540D01*
X152270738Y-71221403D01*
X152315448Y-71192576D01*
X152368073Y-71184770D01*
X152419228Y-71199379D01*
X152432584Y-71206518D01*
X152629849Y-71266358D01*
X152835000Y-71286564D01*
X153040150Y-71266358D01*
X153237416Y-71206518D01*
X153419218Y-71109344D01*
X153578568Y-70978568D01*
X153709344Y-70819218D01*
X153806518Y-70637416D01*
X153866358Y-70440150D01*
X153886564Y-70235000D01*
X153870598Y-70072896D01*
X153866358Y-70029849D01*
X153810914Y-69847077D01*
X153806518Y-69832584D01*
X153709344Y-69650782D01*
X153709342Y-69650779D01*
X153578568Y-69491431D01*
X153419220Y-69360657D01*
X153237414Y-69263481D01*
X153040150Y-69203641D01*
X152835000Y-69183435D01*
X152629849Y-69203641D01*
X152432585Y-69263481D01*
X152250779Y-69360657D01*
X152091431Y-69491431D01*
X151960657Y-69650779D01*
X151863481Y-69832585D01*
X151803641Y-70029849D01*
X151783435Y-70235000D01*
X151803641Y-70440150D01*
X151863481Y-70637415D01*
X151870621Y-70650773D01*
X151885228Y-70701928D01*
X151877422Y-70754551D01*
X151848593Y-70799262D01*
X148083594Y-74564263D01*
X148033435Y-74595001D01*
X147974788Y-74599617D01*
X147920438Y-74577104D01*
X147882232Y-74532371D01*
X147868499Y-74475168D01*
X147868499Y-73135834D01*
X147878090Y-73087616D01*
X147905404Y-73046739D01*
X148920712Y-72031431D01*
X152270738Y-68681403D01*
X152315448Y-68652576D01*
X152368073Y-68644770D01*
X152419228Y-68659379D01*
X152432584Y-68666518D01*
X152629849Y-68726358D01*
X152835000Y-68746564D01*
X153040150Y-68726358D01*
X153237416Y-68666518D01*
X153419218Y-68569344D01*
X153578568Y-68438568D01*
X153709344Y-68279218D01*
X153806518Y-68097416D01*
X153866358Y-67900150D01*
X153886564Y-67695000D01*
X153870598Y-67532896D01*
X153866358Y-67489849D01*
X153810914Y-67307077D01*
X153806518Y-67292584D01*
X153709344Y-67110782D01*
X153709342Y-67110779D01*
X153578568Y-66951431D01*
X153419220Y-66820657D01*
X153237414Y-66723481D01*
X153040150Y-66663641D01*
X152835000Y-66643435D01*
X152629849Y-66663641D01*
X152432585Y-66723481D01*
X152250779Y-66820657D01*
X152091431Y-66951431D01*
X151960657Y-67110779D01*
X151863481Y-67292585D01*
X151803641Y-67489849D01*
X151783435Y-67695000D01*
X151803641Y-67900150D01*
X151863481Y-68097416D01*
X151870622Y-68110776D01*
X151885228Y-68161930D01*
X151877422Y-68214553D01*
X151848593Y-68259263D01*
X147683594Y-72424263D01*
X147633435Y-72455001D01*
X147574788Y-72459617D01*
X147520438Y-72437104D01*
X147482232Y-72392371D01*
X147468499Y-72335168D01*
X147468499Y-70995834D01*
X147478090Y-70947616D01*
X147505404Y-70906739D01*
X148579559Y-69832584D01*
X152270738Y-66141403D01*
X152315448Y-66112576D01*
X152368073Y-66104770D01*
X152419228Y-66119379D01*
X152432584Y-66126518D01*
X152629849Y-66186358D01*
X152835000Y-66206564D01*
X153040150Y-66186358D01*
X153237416Y-66126518D01*
X153419218Y-66029344D01*
X153578568Y-65898568D01*
X153709344Y-65739218D01*
X153806518Y-65557416D01*
X153866358Y-65360150D01*
X153886564Y-65155000D01*
X153870598Y-64992896D01*
X153866358Y-64949849D01*
X153810914Y-64767077D01*
X153806518Y-64752584D01*
X153709344Y-64570782D01*
X153709342Y-64570779D01*
X153578568Y-64411431D01*
X153419220Y-64280657D01*
X153237414Y-64183481D01*
X153040150Y-64123641D01*
X152835000Y-64103435D01*
X152629849Y-64123641D01*
X152432585Y-64183481D01*
X152250779Y-64280657D01*
X152091431Y-64411431D01*
X151960657Y-64570779D01*
X151863481Y-64752585D01*
X151803641Y-64949849D01*
X151783435Y-65155000D01*
X151803641Y-65360150D01*
X151863481Y-65557415D01*
X151870621Y-65570773D01*
X151885228Y-65621928D01*
X151877422Y-65674551D01*
X151848593Y-65719262D01*
X147283594Y-70284263D01*
X147233435Y-70315001D01*
X147174788Y-70319617D01*
X147120438Y-70297104D01*
X147082232Y-70252371D01*
X147068499Y-70195168D01*
X147068499Y-68855834D01*
X147078090Y-68807616D01*
X147105404Y-68766739D01*
X147961993Y-67910150D01*
X152270737Y-63601403D01*
X152315446Y-63572576D01*
X152368070Y-63564770D01*
X152419222Y-63579376D01*
X152432584Y-63586518D01*
X152432586Y-63586518D01*
X152432587Y-63586519D01*
X152629849Y-63646358D01*
X152835000Y-63666564D01*
X153040150Y-63646358D01*
X153237416Y-63586518D01*
X153419218Y-63489344D01*
X153578568Y-63358568D01*
X153709344Y-63199218D01*
X153806518Y-63017416D01*
X153866358Y-62820150D01*
X153886564Y-62615000D01*
X153866358Y-62409850D01*
X153806518Y-62212584D01*
X153709344Y-62030782D01*
X153709342Y-62030779D01*
X153578568Y-61871431D01*
X153419220Y-61740657D01*
X153237414Y-61643481D01*
X153040150Y-61583641D01*
X152835000Y-61563435D01*
X152629849Y-61583641D01*
X152432585Y-61643481D01*
X152250779Y-61740657D01*
X152091431Y-61871431D01*
X151960657Y-62030779D01*
X151863481Y-62212585D01*
X151803641Y-62409849D01*
X151783435Y-62615000D01*
X151803641Y-62820150D01*
X151863481Y-63017416D01*
X151870622Y-63030776D01*
X151885228Y-63081930D01*
X151877422Y-63134553D01*
X151848593Y-63179263D01*
X146883594Y-68144263D01*
X146833435Y-68175001D01*
X146774788Y-68179617D01*
X146720438Y-68157104D01*
X146682232Y-68112371D01*
X146668499Y-68055168D01*
X146668499Y-66715834D01*
X146678090Y-66667616D01*
X146705404Y-66626739D01*
X147971993Y-65360150D01*
X152270738Y-61061403D01*
X152315448Y-61032576D01*
X152368073Y-61024770D01*
X152419228Y-61039379D01*
X152432584Y-61046518D01*
X152629849Y-61106358D01*
X152835000Y-61126564D01*
X153040150Y-61106358D01*
X153237416Y-61046518D01*
X153419218Y-60949344D01*
X153578568Y-60818568D01*
X153709344Y-60659218D01*
X153806518Y-60477416D01*
X153866358Y-60280150D01*
X153886564Y-60075000D01*
X153866358Y-59869850D01*
X153806518Y-59672584D01*
X153709344Y-59490782D01*
X153709342Y-59490779D01*
X153578568Y-59331431D01*
X153419220Y-59200657D01*
X153237414Y-59103481D01*
X153040150Y-59043641D01*
X152835000Y-59023435D01*
X152629849Y-59043641D01*
X152432585Y-59103481D01*
X152250779Y-59200657D01*
X152091431Y-59331431D01*
X151960657Y-59490779D01*
X151863481Y-59672585D01*
X151803641Y-59869849D01*
X151783435Y-60074999D01*
X151803641Y-60280150D01*
X151863481Y-60477415D01*
X151870621Y-60490773D01*
X151885228Y-60541928D01*
X151877422Y-60594551D01*
X151848593Y-60639262D01*
X146207889Y-66279966D01*
X146194059Y-66289917D01*
X146155992Y-66331674D01*
X146151979Y-66335877D01*
X146138600Y-66349256D01*
X146129557Y-66360672D01*
X146111812Y-66380137D01*
X146109445Y-66386249D01*
X146095910Y-66411927D01*
X146092202Y-66417340D01*
X146086171Y-66442983D01*
X146081010Y-66459648D01*
X146071499Y-66484200D01*
X146071499Y-66490750D01*
X146068152Y-66519598D01*
X146066651Y-66525975D01*
X146070291Y-66552063D01*
X146071499Y-66569471D01*
X146071499Y-72875167D01*
X146057766Y-72932370D01*
X146019560Y-72977103D01*
X145965210Y-72999616D01*
X145906563Y-72995000D01*
X145856404Y-72964262D01*
X139722799Y-66830657D01*
X133534889Y-60642746D01*
X133506059Y-60598033D01*
X133498254Y-60545407D01*
X133512863Y-60494253D01*
X133516518Y-60487416D01*
X133576358Y-60290150D01*
X133596564Y-60085000D01*
X133576358Y-59879850D01*
X133573324Y-59869849D01*
X133516518Y-59682585D01*
X133516518Y-59682584D01*
X133419344Y-59500782D01*
X133419342Y-59500779D01*
X133288568Y-59341431D01*
X133129220Y-59210657D01*
X132947414Y-59113481D01*
X132750150Y-59053641D01*
X132545000Y-59033435D01*
X132339849Y-59053641D01*
X132142585Y-59113481D01*
X131960779Y-59210657D01*
X131801431Y-59341431D01*
X131670657Y-59500779D01*
X131573481Y-59682585D01*
X131513641Y-59879849D01*
X131493435Y-60085000D01*
X131513641Y-60290150D01*
X131573481Y-60487414D01*
X131670657Y-60669220D01*
X131801431Y-60828568D01*
X131960779Y-60959342D01*
X131960780Y-60959342D01*
X131960782Y-60959344D01*
X132142584Y-61056518D01*
X132241216Y-61086437D01*
X132339849Y-61116358D01*
X132545000Y-61136564D01*
X132750150Y-61116358D01*
X132947416Y-61056518D01*
X132967292Y-61045893D01*
X133018441Y-61031287D01*
X133071067Y-61039092D01*
X133115779Y-61067922D01*
X134149262Y-62101405D01*
X134180000Y-62151564D01*
X134184616Y-62210211D01*
X134162103Y-62264561D01*
X134117370Y-62302767D01*
X134060167Y-62316500D01*
X133638455Y-62316500D01*
X133586454Y-62305269D01*
X133543724Y-62273578D01*
X133517881Y-62227077D01*
X133516518Y-62222584D01*
X133419342Y-62040779D01*
X133288568Y-61881431D01*
X133129220Y-61750657D01*
X132947414Y-61653481D01*
X132750150Y-61593641D01*
X132545000Y-61573435D01*
X132339849Y-61593641D01*
X132142585Y-61653481D01*
X131960779Y-61750657D01*
X131801431Y-61881431D01*
X131670657Y-62040779D01*
X131573481Y-62222585D01*
X131513641Y-62419849D01*
X131493435Y-62625000D01*
X131513641Y-62830150D01*
X131573481Y-63027414D01*
X131670657Y-63209220D01*
X131801431Y-63368568D01*
X131960779Y-63499342D01*
X131960780Y-63499342D01*
X131960782Y-63499344D01*
X132142584Y-63596518D01*
X132241217Y-63626438D01*
X132339849Y-63656358D01*
X132545000Y-63676564D01*
X132750150Y-63656358D01*
X132947416Y-63596518D01*
X133129218Y-63499344D01*
X133288568Y-63368568D01*
X133419344Y-63209218D01*
X133516518Y-63027416D01*
X133523948Y-63002924D01*
X133549790Y-62956422D01*
X133592521Y-62924731D01*
X133644522Y-62913500D01*
X134343481Y-62913500D01*
X134391699Y-62923091D01*
X134432576Y-62950405D01*
X144799094Y-73316922D01*
X144826408Y-73357799D01*
X144835999Y-73406017D01*
X144835999Y-73439821D01*
X144821943Y-73497653D01*
X144782911Y-73542582D01*
X144727612Y-73564584D01*
X144668383Y-73558750D01*
X144662096Y-73556550D01*
X144652320Y-73555633D01*
X144632770Y-73553800D01*
X144632768Y-73553800D01*
X144083331Y-73553800D01*
X144035113Y-73544209D01*
X143994236Y-73516895D01*
X135470237Y-64992896D01*
X135460286Y-64979065D01*
X135418525Y-64940995D01*
X135414335Y-64936994D01*
X135401709Y-64924368D01*
X135401708Y-64924367D01*
X135400940Y-64923599D01*
X135389523Y-64914557D01*
X135370060Y-64896814D01*
X135370058Y-64896812D01*
X135363952Y-64894447D01*
X135338261Y-64880905D01*
X135332857Y-64877203D01*
X135332856Y-64877202D01*
X135332855Y-64877202D01*
X135307213Y-64871171D01*
X135290545Y-64866010D01*
X135265997Y-64856500D01*
X135259449Y-64856500D01*
X135230601Y-64853153D01*
X135224223Y-64851652D01*
X135198136Y-64855292D01*
X135180728Y-64856500D01*
X133638455Y-64856500D01*
X133586454Y-64845269D01*
X133543724Y-64813578D01*
X133517881Y-64767077D01*
X133516518Y-64762584D01*
X133419342Y-64580779D01*
X133288568Y-64421431D01*
X133129220Y-64290657D01*
X132947414Y-64193481D01*
X132750150Y-64133641D01*
X132545000Y-64113435D01*
X132339849Y-64133641D01*
X132142585Y-64193481D01*
X131960779Y-64290657D01*
X131801431Y-64421431D01*
X131670657Y-64580779D01*
X131573481Y-64762585D01*
X131513641Y-64959849D01*
X131493435Y-65165000D01*
X131513641Y-65370150D01*
X131573481Y-65567414D01*
X131670657Y-65749220D01*
X131801431Y-65908568D01*
X131960779Y-66039342D01*
X131960780Y-66039342D01*
X131960782Y-66039344D01*
X132142584Y-66136518D01*
X132241216Y-66166437D01*
X132339849Y-66196358D01*
X132545000Y-66216564D01*
X132750150Y-66196358D01*
X132947416Y-66136518D01*
X133129218Y-66039344D01*
X133288568Y-65908568D01*
X133419344Y-65749218D01*
X133516518Y-65567416D01*
X133523948Y-65542924D01*
X133549790Y-65496422D01*
X133592521Y-65464731D01*
X133644522Y-65453500D01*
X135034365Y-65453500D01*
X135082583Y-65463091D01*
X135123460Y-65490405D01*
X142414772Y-72781717D01*
X142447187Y-72837476D01*
X142447764Y-72901969D01*
X142416352Y-72958299D01*
X142382610Y-72978730D01*
X142383348Y-72979879D01*
X142260096Y-73059087D01*
X142176016Y-73156121D01*
X142122678Y-73272915D01*
X142104406Y-73399998D01*
X142114470Y-73469998D01*
X142105996Y-73536542D01*
X142064574Y-73589307D01*
X141945148Y-73677448D01*
X141867456Y-73782717D01*
X141824248Y-73906200D01*
X141821498Y-73935530D01*
X141821498Y-74515070D01*
X141824248Y-74544399D01*
X141867456Y-74667882D01*
X141867457Y-74667884D01*
X141867458Y-74667885D01*
X141945147Y-74773151D01*
X142050413Y-74850840D01*
X142050414Y-74850840D01*
X142050415Y-74850841D01*
X142073364Y-74858871D01*
X142173901Y-74894050D01*
X142203226Y-74896800D01*
X142203228Y-74896800D01*
X142885749Y-74896800D01*
X142952785Y-74916113D01*
X142967109Y-74932141D01*
X142980737Y-74899241D01*
X143037632Y-74858871D01*
X143041842Y-74857397D01*
X143060583Y-74850840D01*
X143165849Y-74773151D01*
X143243538Y-74667885D01*
X143286748Y-74544397D01*
X143289498Y-74515072D01*
X143289498Y-73960633D01*
X143303231Y-73903430D01*
X143341437Y-73858697D01*
X143395787Y-73836184D01*
X143454434Y-73840800D01*
X143504593Y-73871538D01*
X143509593Y-73876538D01*
X143536907Y-73917415D01*
X143546498Y-73965633D01*
X143546498Y-74521037D01*
X143546500Y-74521079D01*
X143546500Y-74977800D01*
X143529619Y-75040800D01*
X143483500Y-75086919D01*
X143420500Y-75103800D01*
X143079248Y-75103800D01*
X143012212Y-75084487D01*
X142997887Y-75068458D01*
X142984260Y-75101359D01*
X142927365Y-75141729D01*
X142904415Y-75149759D01*
X142799148Y-75227449D01*
X142721457Y-75332717D01*
X142678249Y-75456200D01*
X142675499Y-75485530D01*
X142675499Y-75609779D01*
X142661766Y-75666982D01*
X142623560Y-75711715D01*
X142569210Y-75734228D01*
X142510563Y-75729612D01*
X142460406Y-75698875D01*
X141573402Y-74811871D01*
X141546091Y-74770997D01*
X141536500Y-74722779D01*
X141536500Y-73581940D01*
X141539244Y-73565113D01*
X141538277Y-73544209D01*
X141536634Y-73508687D01*
X141536500Y-73502869D01*
X141536500Y-73483935D01*
X141534821Y-73469469D01*
X141533605Y-73443164D01*
X141532129Y-73439821D01*
X141530960Y-73437172D01*
X141522369Y-73409431D01*
X141521165Y-73402990D01*
X141514365Y-73392008D01*
X141507297Y-73380592D01*
X141499160Y-73365156D01*
X141496538Y-73359218D01*
X141488527Y-73341074D01*
X141483898Y-73336445D01*
X141465865Y-73313678D01*
X141462415Y-73308106D01*
X141441390Y-73292229D01*
X141428226Y-73280773D01*
X135680350Y-67532896D01*
X135670399Y-67519065D01*
X135628638Y-67480995D01*
X135624448Y-67476994D01*
X135611822Y-67464368D01*
X135611821Y-67464367D01*
X135611053Y-67463599D01*
X135599636Y-67454557D01*
X135580173Y-67436814D01*
X135580171Y-67436812D01*
X135574065Y-67434447D01*
X135548374Y-67420905D01*
X135542970Y-67417203D01*
X135542969Y-67417202D01*
X135542968Y-67417202D01*
X135517326Y-67411171D01*
X135500658Y-67406010D01*
X135476110Y-67396500D01*
X135469562Y-67396500D01*
X135440714Y-67393153D01*
X135434336Y-67391652D01*
X135408249Y-67395292D01*
X135390841Y-67396500D01*
X133638455Y-67396500D01*
X133586454Y-67385269D01*
X133543724Y-67353578D01*
X133517881Y-67307077D01*
X133516518Y-67302584D01*
X133419342Y-67120779D01*
X133288568Y-66961431D01*
X133129220Y-66830657D01*
X132947414Y-66733481D01*
X132750150Y-66673641D01*
X132545000Y-66653435D01*
X132339849Y-66673641D01*
X132142585Y-66733481D01*
X131960779Y-66830657D01*
X131801431Y-66961431D01*
X131670657Y-67120779D01*
X131573481Y-67302585D01*
X131513641Y-67499849D01*
X131493435Y-67705000D01*
X131513641Y-67910150D01*
X131573481Y-68107413D01*
X131573482Y-68107416D01*
X131612074Y-68179617D01*
X131670657Y-68289220D01*
X131801431Y-68448568D01*
X131960779Y-68579342D01*
X131960780Y-68579342D01*
X131960782Y-68579344D01*
X132142584Y-68676518D01*
X132241216Y-68706437D01*
X132339849Y-68736358D01*
X132545000Y-68756564D01*
X132750150Y-68736358D01*
X132947416Y-68676518D01*
X133129218Y-68579344D01*
X133288568Y-68448568D01*
X133419344Y-68289218D01*
X133516518Y-68107416D01*
X133523948Y-68082924D01*
X133549790Y-68036422D01*
X133592521Y-68004731D01*
X133644522Y-67993500D01*
X135244478Y-67993500D01*
X135292696Y-68003091D01*
X135333573Y-68030405D01*
X137743318Y-70440150D01*
X139988574Y-72685405D01*
X140019312Y-72735564D01*
X140023928Y-72794211D01*
X140001415Y-72848561D01*
X139956682Y-72886767D01*
X139899479Y-72900500D01*
X139855333Y-72900500D01*
X139807115Y-72890909D01*
X139766238Y-72863595D01*
X136975539Y-70072896D01*
X136965588Y-70059065D01*
X136923827Y-70020995D01*
X136919637Y-70016994D01*
X136907011Y-70004368D01*
X136907010Y-70004367D01*
X136906242Y-70003599D01*
X136894825Y-69994557D01*
X136875362Y-69976814D01*
X136875360Y-69976812D01*
X136869254Y-69974447D01*
X136843563Y-69960905D01*
X136838159Y-69957203D01*
X136838158Y-69957202D01*
X136838157Y-69957202D01*
X136812515Y-69951171D01*
X136795847Y-69946010D01*
X136771299Y-69936500D01*
X136764751Y-69936500D01*
X136735903Y-69933153D01*
X136729525Y-69931652D01*
X136703438Y-69935292D01*
X136686030Y-69936500D01*
X133638455Y-69936500D01*
X133586454Y-69925269D01*
X133543724Y-69893578D01*
X133517881Y-69847077D01*
X133516518Y-69842584D01*
X133419342Y-69660779D01*
X133288568Y-69501431D01*
X133129220Y-69370657D01*
X132947414Y-69273481D01*
X132750150Y-69213641D01*
X132545000Y-69193435D01*
X132339849Y-69213641D01*
X132142585Y-69273481D01*
X131960779Y-69370657D01*
X131801431Y-69501431D01*
X131670657Y-69660779D01*
X131573481Y-69842585D01*
X131513641Y-70039849D01*
X131493435Y-70245000D01*
X131513641Y-70450150D01*
X131573481Y-70647414D01*
X131670657Y-70829220D01*
X131801431Y-70988568D01*
X131960779Y-71119342D01*
X131960780Y-71119342D01*
X131960782Y-71119344D01*
X132142584Y-71216518D01*
X132241217Y-71246438D01*
X132339849Y-71276358D01*
X132544999Y-71296564D01*
X132544999Y-71296563D01*
X132545000Y-71296564D01*
X132750150Y-71276358D01*
X132947416Y-71216518D01*
X133129218Y-71119344D01*
X133288568Y-70988568D01*
X133419344Y-70829218D01*
X133516518Y-70647416D01*
X133523948Y-70622924D01*
X133549790Y-70576422D01*
X133592521Y-70544731D01*
X133644522Y-70533500D01*
X136539667Y-70533500D01*
X136587885Y-70543091D01*
X136628762Y-70570405D01*
X139356595Y-73298238D01*
X139383909Y-73339115D01*
X139393500Y-73387333D01*
X139393500Y-73886770D01*
X139396250Y-73916099D01*
X139439458Y-74039582D01*
X139439459Y-74039584D01*
X139439460Y-74039585D01*
X139517149Y-74144851D01*
X139622415Y-74222540D01*
X139622416Y-74222540D01*
X139622417Y-74222541D01*
X139739287Y-74263435D01*
X139745903Y-74265750D01*
X139775228Y-74268500D01*
X140274667Y-74268500D01*
X140322885Y-74278091D01*
X140363762Y-74305405D01*
X140502595Y-74444238D01*
X140529909Y-74485115D01*
X140539500Y-74533333D01*
X140539500Y-74605047D01*
X140525444Y-74662878D01*
X140486414Y-74707807D01*
X140431116Y-74729810D01*
X140399700Y-74726716D01*
X140399422Y-74729687D01*
X140381391Y-74727996D01*
X140354772Y-74725500D01*
X139775228Y-74725500D01*
X139763498Y-74726599D01*
X139745900Y-74728250D01*
X139622417Y-74771458D01*
X139517149Y-74849149D01*
X139439458Y-74954417D01*
X139396250Y-75077900D01*
X139394600Y-75095497D01*
X139393822Y-75103800D01*
X139393500Y-75107230D01*
X139393500Y-75256479D01*
X139379767Y-75313682D01*
X139341561Y-75358415D01*
X139287211Y-75380928D01*
X139228564Y-75376312D01*
X139178405Y-75345574D01*
X137872416Y-74039585D01*
X136445728Y-72612896D01*
X136435777Y-72599065D01*
X136394016Y-72560995D01*
X136389826Y-72556994D01*
X136377200Y-72544368D01*
X136377199Y-72544367D01*
X136376431Y-72543599D01*
X136365014Y-72534557D01*
X136345551Y-72516814D01*
X136345549Y-72516812D01*
X136339443Y-72514447D01*
X136313752Y-72500905D01*
X136308348Y-72497203D01*
X136308347Y-72497202D01*
X136308346Y-72497202D01*
X136282704Y-72491171D01*
X136266036Y-72486010D01*
X136241488Y-72476500D01*
X136234940Y-72476500D01*
X136206092Y-72473153D01*
X136199714Y-72471652D01*
X136173627Y-72475292D01*
X136156219Y-72476500D01*
X133638455Y-72476500D01*
X133586454Y-72465269D01*
X133543724Y-72433578D01*
X133517881Y-72387077D01*
X133516518Y-72382584D01*
X133419342Y-72200779D01*
X133288568Y-72041431D01*
X133129220Y-71910657D01*
X132947414Y-71813481D01*
X132750150Y-71753641D01*
X132545000Y-71733435D01*
X132339849Y-71753641D01*
X132142585Y-71813481D01*
X131960779Y-71910657D01*
X131801431Y-72041431D01*
X131670657Y-72200779D01*
X131573481Y-72382585D01*
X131513641Y-72579849D01*
X131493435Y-72784999D01*
X131513641Y-72990150D01*
X131573481Y-73187414D01*
X131670657Y-73369220D01*
X131801431Y-73528568D01*
X131960779Y-73659342D01*
X131960780Y-73659342D01*
X131960782Y-73659344D01*
X132142584Y-73756518D01*
X132228944Y-73782715D01*
X132339849Y-73816358D01*
X132545000Y-73836564D01*
X132750150Y-73816358D01*
X132947416Y-73756518D01*
X133129218Y-73659344D01*
X133288568Y-73528568D01*
X133419344Y-73369218D01*
X133516518Y-73187416D01*
X133523948Y-73162924D01*
X133549790Y-73116422D01*
X133592521Y-73084731D01*
X133644522Y-73073500D01*
X136009856Y-73073500D01*
X136058074Y-73083091D01*
X136098951Y-73110405D01*
X138963015Y-75974469D01*
X138995430Y-76030229D01*
X138996006Y-76094724D01*
X138964592Y-76151054D01*
X138909419Y-76184460D01*
X138857610Y-76199672D01*
X138749598Y-76269087D01*
X138665518Y-76366121D01*
X138608622Y-76490707D01*
X138571305Y-76537869D01*
X138516380Y-76562363D01*
X138456357Y-76558608D01*
X138404913Y-76527460D01*
X137030349Y-75152896D01*
X137020398Y-75139065D01*
X136978637Y-75100995D01*
X136974447Y-75096994D01*
X136961821Y-75084368D01*
X136961820Y-75084367D01*
X136961052Y-75083599D01*
X136949635Y-75074557D01*
X136930172Y-75056814D01*
X136930170Y-75056812D01*
X136924064Y-75054447D01*
X136898373Y-75040905D01*
X136898220Y-75040800D01*
X136892969Y-75037203D01*
X136892968Y-75037202D01*
X136892967Y-75037202D01*
X136867325Y-75031171D01*
X136850657Y-75026010D01*
X136826109Y-75016500D01*
X136819561Y-75016500D01*
X136790713Y-75013153D01*
X136784335Y-75011652D01*
X136758248Y-75015292D01*
X136740840Y-75016500D01*
X133638455Y-75016500D01*
X133586454Y-75005269D01*
X133543724Y-74973578D01*
X133517881Y-74927077D01*
X133516518Y-74922584D01*
X133478171Y-74850841D01*
X133419344Y-74740782D01*
X133419342Y-74740779D01*
X133288568Y-74581431D01*
X133129220Y-74450657D01*
X132947414Y-74353481D01*
X132750150Y-74293641D01*
X132544999Y-74273435D01*
X132339849Y-74293641D01*
X132142585Y-74353481D01*
X131960779Y-74450657D01*
X131801431Y-74581431D01*
X131670657Y-74740779D01*
X131573481Y-74922585D01*
X131513641Y-75119849D01*
X131493435Y-75324999D01*
X131513641Y-75530150D01*
X131573481Y-75727414D01*
X131670657Y-75909220D01*
X131801431Y-76068568D01*
X131960779Y-76199342D01*
X131960780Y-76199342D01*
X131960782Y-76199344D01*
X132142584Y-76296518D01*
X132241217Y-76326438D01*
X132339849Y-76356358D01*
X132545000Y-76376564D01*
X132750150Y-76356358D01*
X132947416Y-76296518D01*
X133129218Y-76199344D01*
X133288568Y-76068568D01*
X133419344Y-75909218D01*
X133516518Y-75727416D01*
X133523948Y-75702924D01*
X133549790Y-75656422D01*
X133592521Y-75624731D01*
X133644522Y-75613500D01*
X136594477Y-75613500D01*
X136642695Y-75623091D01*
X136683572Y-75650405D01*
X138436595Y-77403428D01*
X138463909Y-77444305D01*
X138473500Y-77492523D01*
X138473500Y-78367253D01*
X138470757Y-78384067D01*
X138473366Y-78440509D01*
X138473500Y-78446327D01*
X138473500Y-78465246D01*
X138475177Y-78479709D01*
X138476394Y-78506023D01*
X138479039Y-78512013D01*
X138487630Y-78539755D01*
X138488834Y-78546197D01*
X138502703Y-78568598D01*
X138510835Y-78584026D01*
X138521471Y-78608112D01*
X138521472Y-78608113D01*
X138521473Y-78608115D01*
X138526100Y-78612742D01*
X138544130Y-78635503D01*
X138547583Y-78641080D01*
X138568605Y-78656955D01*
X138581769Y-78668411D01*
X138836595Y-78923237D01*
X138863909Y-78964114D01*
X138873500Y-79012332D01*
X138873500Y-79135751D01*
X138854187Y-79202787D01*
X138802170Y-79249273D01*
X138733393Y-79260959D01*
X138668941Y-79234262D01*
X138628571Y-79177367D01*
X138626080Y-79170251D01*
X138620540Y-79154416D01*
X138542851Y-79049150D01*
X138437585Y-78971461D01*
X138437584Y-78971460D01*
X138437582Y-78971459D01*
X138314099Y-78928251D01*
X138299434Y-78926876D01*
X138284772Y-78925501D01*
X137705228Y-78925501D01*
X137693498Y-78926600D01*
X137675900Y-78928251D01*
X137552417Y-78971459D01*
X137447149Y-79049150D01*
X137369458Y-79154418D01*
X137326250Y-79277901D01*
X137323500Y-79307231D01*
X137323500Y-79570500D01*
X137306619Y-79633500D01*
X137260500Y-79679619D01*
X137197500Y-79696500D01*
X134860833Y-79696500D01*
X134812615Y-79686909D01*
X134771738Y-79659595D01*
X133534889Y-78422746D01*
X133506059Y-78378033D01*
X133498254Y-78325407D01*
X133512863Y-78274253D01*
X133516518Y-78267416D01*
X133576358Y-78070150D01*
X133596564Y-77865000D01*
X133576785Y-77664190D01*
X133576358Y-77659849D01*
X133516518Y-77462585D01*
X133516518Y-77462584D01*
X133419344Y-77280782D01*
X133419342Y-77280779D01*
X133288568Y-77121431D01*
X133129220Y-76990657D01*
X132947414Y-76893481D01*
X132750150Y-76833641D01*
X132545000Y-76813435D01*
X132339849Y-76833641D01*
X132142585Y-76893481D01*
X131960779Y-76990657D01*
X131801431Y-77121431D01*
X131670657Y-77280779D01*
X131573481Y-77462585D01*
X131513641Y-77659849D01*
X131493435Y-77865000D01*
X131513641Y-78070150D01*
X131573481Y-78267414D01*
X131670657Y-78449220D01*
X131801431Y-78608568D01*
X131960779Y-78739342D01*
X131960780Y-78739342D01*
X131960782Y-78739344D01*
X132142584Y-78836518D01*
X132204309Y-78855242D01*
X132339849Y-78896358D01*
X132545000Y-78916564D01*
X132750150Y-78896358D01*
X132947416Y-78836518D01*
X132967292Y-78825893D01*
X133018441Y-78811287D01*
X133071067Y-78819092D01*
X133115779Y-78847922D01*
X134149262Y-79881405D01*
X134180000Y-79931564D01*
X134184616Y-79990211D01*
X134162103Y-80044561D01*
X134117370Y-80082767D01*
X134060167Y-80096500D01*
X133638455Y-80096500D01*
X133586454Y-80085269D01*
X133543724Y-80053578D01*
X133517881Y-80007077D01*
X133516518Y-80002584D01*
X133451747Y-79881405D01*
X133419344Y-79820782D01*
X133419342Y-79820779D01*
X133288568Y-79661431D01*
X133129220Y-79530657D01*
X132947414Y-79433481D01*
X132750150Y-79373641D01*
X132545000Y-79353435D01*
X132339849Y-79373641D01*
X132142585Y-79433481D01*
X131960779Y-79530657D01*
X131801431Y-79661431D01*
X131670657Y-79820779D01*
X131573481Y-80002585D01*
X131513641Y-80199849D01*
X131493435Y-80405000D01*
X131513641Y-80610150D01*
X131573481Y-80807414D01*
X131670657Y-80989220D01*
X131801431Y-81148568D01*
X131960779Y-81279342D01*
X131960780Y-81279342D01*
X131960782Y-81279344D01*
X132142584Y-81376518D01*
X132203511Y-81395000D01*
X132339849Y-81436358D01*
X132545000Y-81456564D01*
X132750150Y-81436358D01*
X132947416Y-81376518D01*
X133129218Y-81279344D01*
X133288568Y-81148568D01*
X133419344Y-80989218D01*
X133516518Y-80807416D01*
X133523948Y-80782924D01*
X133549790Y-80736422D01*
X133592521Y-80704731D01*
X133644522Y-80693500D01*
X134060167Y-80693500D01*
X134117370Y-80707233D01*
X134162103Y-80745439D01*
X134184616Y-80799789D01*
X134180000Y-80858436D01*
X134149263Y-80908592D01*
X133341503Y-81716353D01*
X133102745Y-81955111D01*
X133058034Y-81983939D01*
X133005410Y-81991745D01*
X132954256Y-81977138D01*
X132947416Y-81973482D01*
X132947415Y-81973481D01*
X132947412Y-81973480D01*
X132750150Y-81913641D01*
X132545000Y-81893435D01*
X132339849Y-81913641D01*
X132142585Y-81973481D01*
X131960779Y-82070657D01*
X131801431Y-82201431D01*
X131670657Y-82360779D01*
X131573481Y-82542585D01*
X131513641Y-82739849D01*
X131493435Y-82945000D01*
X131513641Y-83150150D01*
X131573481Y-83347414D01*
X131670657Y-83529220D01*
X131801431Y-83688568D01*
X131960779Y-83819342D01*
X131960780Y-83819342D01*
X131960782Y-83819344D01*
X132142584Y-83916518D01*
X132241216Y-83946437D01*
X132339849Y-83976358D01*
X132545000Y-83996564D01*
X132750150Y-83976358D01*
X132947416Y-83916518D01*
X133129218Y-83819344D01*
X133288568Y-83688568D01*
X133419344Y-83529218D01*
X133516518Y-83347416D01*
X133576358Y-83150150D01*
X133596564Y-82945000D01*
X133596036Y-82939644D01*
X133576358Y-82739849D01*
X133533218Y-82597637D01*
X133516518Y-82542584D01*
X133505894Y-82522709D01*
X133491287Y-82471555D01*
X133499093Y-82418930D01*
X133527918Y-82374223D01*
X134771740Y-81130402D01*
X134812615Y-81103091D01*
X134860833Y-81093500D01*
X136200167Y-81093500D01*
X136257370Y-81107233D01*
X136302103Y-81145439D01*
X136324616Y-81199789D01*
X136320000Y-81258436D01*
X136289262Y-81308595D01*
X133102745Y-84495110D01*
X133058034Y-84523939D01*
X133005410Y-84531745D01*
X132954256Y-84517138D01*
X132947416Y-84513482D01*
X132947415Y-84513481D01*
X132947412Y-84513480D01*
X132750150Y-84453641D01*
X132545000Y-84433435D01*
X132339849Y-84453641D01*
X132142585Y-84513481D01*
X131960779Y-84610657D01*
X131801431Y-84741431D01*
X131670657Y-84900779D01*
X131573481Y-85082585D01*
X131513641Y-85279849D01*
X131493435Y-85485000D01*
X131513641Y-85690150D01*
X131573481Y-85887414D01*
X131670657Y-86069220D01*
X131801431Y-86228568D01*
X131960779Y-86359342D01*
X131960780Y-86359342D01*
X131960782Y-86359344D01*
X132142584Y-86456518D01*
X132241217Y-86486438D01*
X132339849Y-86516358D01*
X132545000Y-86536564D01*
X132750150Y-86516358D01*
X132947416Y-86456518D01*
X133129218Y-86359344D01*
X133288568Y-86228568D01*
X133419344Y-86069218D01*
X133516518Y-85887416D01*
X133576358Y-85690150D01*
X133596564Y-85485000D01*
X133576358Y-85279850D01*
X133573324Y-85269849D01*
X133516518Y-85082585D01*
X133516518Y-85082584D01*
X133505894Y-85062709D01*
X133491287Y-85011555D01*
X133499093Y-84958930D01*
X133527920Y-84914221D01*
X136911740Y-81530401D01*
X136952614Y-81503090D01*
X137000832Y-81493499D01*
X137058435Y-81493499D01*
X137197501Y-81493500D01*
X137260500Y-81510381D01*
X137306619Y-81556500D01*
X137323500Y-81619500D01*
X137323500Y-81882771D01*
X137323794Y-81885901D01*
X137326250Y-81912098D01*
X137369458Y-82035581D01*
X137369459Y-82035582D01*
X137369460Y-82035584D01*
X137447149Y-82140850D01*
X137552415Y-82218539D01*
X137552416Y-82218539D01*
X137552417Y-82218540D01*
X137616119Y-82240830D01*
X137675903Y-82261749D01*
X137705228Y-82264499D01*
X138284770Y-82264499D01*
X138284772Y-82264499D01*
X138314097Y-82261749D01*
X138437585Y-82218539D01*
X138542851Y-82140850D01*
X138620540Y-82035584D01*
X138628570Y-82012633D01*
X138668941Y-81955738D01*
X138733393Y-81929041D01*
X138802170Y-81940727D01*
X138854187Y-81987213D01*
X138873500Y-82054249D01*
X138873500Y-82177667D01*
X138863909Y-82225885D01*
X138836595Y-82266763D01*
X138605888Y-82497468D01*
X138592060Y-82507418D01*
X138553993Y-82549174D01*
X138549980Y-82553377D01*
X138536601Y-82566756D01*
X138527558Y-82578172D01*
X138509813Y-82597637D01*
X138507446Y-82603749D01*
X138493911Y-82629427D01*
X138490203Y-82634840D01*
X138484172Y-82660483D01*
X138479011Y-82677148D01*
X138469500Y-82701700D01*
X138469500Y-82708250D01*
X138466153Y-82737098D01*
X138464652Y-82743475D01*
X138468292Y-82769563D01*
X138469500Y-82786971D01*
X138469500Y-83701477D01*
X138459909Y-83749695D01*
X138432595Y-83790572D01*
X134543572Y-87679595D01*
X134502695Y-87706909D01*
X134454477Y-87716500D01*
X133638455Y-87716500D01*
X133586454Y-87705269D01*
X133543724Y-87673578D01*
X133517881Y-87627077D01*
X133516518Y-87622584D01*
X133459983Y-87516814D01*
X133419344Y-87440782D01*
X133419342Y-87440779D01*
X133288568Y-87281431D01*
X133129220Y-87150657D01*
X132947414Y-87053481D01*
X132750150Y-86993641D01*
X132545000Y-86973435D01*
X132339849Y-86993641D01*
X132142585Y-87053481D01*
X131960779Y-87150657D01*
X131801431Y-87281431D01*
X131670657Y-87440779D01*
X131573481Y-87622585D01*
X131513641Y-87819849D01*
X131493435Y-88024999D01*
X131513641Y-88230150D01*
X131573481Y-88427414D01*
X131670657Y-88609220D01*
X131801431Y-88768568D01*
X131960779Y-88899342D01*
X131960780Y-88899342D01*
X131960782Y-88899344D01*
X132142584Y-88996518D01*
X132241217Y-89026438D01*
X132339849Y-89056358D01*
X132544999Y-89076564D01*
X132544999Y-89076563D01*
X132545000Y-89076564D01*
X132750150Y-89056358D01*
X132947416Y-88996518D01*
X133129218Y-88899344D01*
X133288568Y-88768568D01*
X133419344Y-88609218D01*
X133516518Y-88427416D01*
X133523948Y-88402924D01*
X133549790Y-88356422D01*
X133592521Y-88324731D01*
X133644522Y-88313500D01*
X134561064Y-88313500D01*
X134577878Y-88316242D01*
X134588352Y-88315757D01*
X134588356Y-88315759D01*
X134634319Y-88313634D01*
X134640138Y-88313500D01*
X134659064Y-88313500D01*
X134673525Y-88311821D01*
X134699836Y-88310605D01*
X134705819Y-88307962D01*
X134733569Y-88299368D01*
X134740009Y-88298165D01*
X134762417Y-88284290D01*
X134777831Y-88276166D01*
X134801926Y-88265527D01*
X134806555Y-88260897D01*
X134829315Y-88242868D01*
X134834892Y-88239416D01*
X134850770Y-88218388D01*
X134862214Y-88205237D01*
X138768119Y-84299332D01*
X138813380Y-84270299D01*
X138866628Y-84262781D01*
X138918161Y-84278151D01*
X138958590Y-84313606D01*
X138997149Y-84365852D01*
X138997190Y-84365882D01*
X139034097Y-84409015D01*
X139048326Y-84463970D01*
X139042021Y-84494896D01*
X139042617Y-84494982D01*
X139021766Y-84639999D01*
X139040038Y-84767084D01*
X139093376Y-84883878D01*
X139177456Y-84980912D01*
X139233017Y-85016619D01*
X139272093Y-85056399D01*
X139290174Y-85109148D01*
X139283719Y-85164535D01*
X139253991Y-85211712D01*
X134246110Y-90219595D01*
X134205233Y-90246909D01*
X134157015Y-90256500D01*
X133638455Y-90256500D01*
X133586454Y-90245269D01*
X133543724Y-90213578D01*
X133517881Y-90167077D01*
X133516518Y-90162584D01*
X133459983Y-90056814D01*
X133419344Y-89980782D01*
X133419342Y-89980779D01*
X133288568Y-89821431D01*
X133129220Y-89690657D01*
X132947414Y-89593481D01*
X132750150Y-89533641D01*
X132545000Y-89513435D01*
X132339849Y-89533641D01*
X132142585Y-89593481D01*
X131960779Y-89690657D01*
X131801431Y-89821431D01*
X131670657Y-89980779D01*
X131573481Y-90162585D01*
X131513641Y-90359849D01*
X131493435Y-90564999D01*
X131513641Y-90770150D01*
X131573481Y-90967414D01*
X131670657Y-91149220D01*
X131801431Y-91308568D01*
X131960779Y-91439342D01*
X131960780Y-91439342D01*
X131960782Y-91439344D01*
X132142584Y-91536518D01*
X132241216Y-91566437D01*
X132339849Y-91596358D01*
X132545000Y-91616564D01*
X132750150Y-91596358D01*
X132947416Y-91536518D01*
X133129218Y-91439344D01*
X133288568Y-91308568D01*
X133419344Y-91149218D01*
X133516518Y-90967416D01*
X133521519Y-90950927D01*
X133523948Y-90942924D01*
X133549790Y-90896422D01*
X133592521Y-90864731D01*
X133644522Y-90853500D01*
X134263602Y-90853500D01*
X134280416Y-90856242D01*
X134290890Y-90855757D01*
X134290894Y-90855759D01*
X134336857Y-90853634D01*
X134342676Y-90853500D01*
X134361602Y-90853500D01*
X134376063Y-90851821D01*
X134402374Y-90850605D01*
X134408357Y-90847962D01*
X134436107Y-90839368D01*
X134442547Y-90838165D01*
X134464955Y-90824290D01*
X134480369Y-90816166D01*
X134504464Y-90805527D01*
X134509093Y-90800897D01*
X134531853Y-90782868D01*
X134537430Y-90779416D01*
X134553308Y-90758388D01*
X134564752Y-90745237D01*
X139913404Y-85396586D01*
X139963564Y-85365848D01*
X140022211Y-85361232D01*
X140076561Y-85383745D01*
X140114767Y-85428478D01*
X140128500Y-85485681D01*
X140128500Y-85505816D01*
X140134067Y-85552859D01*
X140147799Y-85610058D01*
X140164195Y-85654501D01*
X140190512Y-85693888D01*
X140232614Y-85743181D01*
X140260050Y-85798815D01*
X140257615Y-85860798D01*
X140225899Y-85914108D01*
X133607742Y-92532264D01*
X133547258Y-92565878D01*
X133478145Y-92562482D01*
X133421247Y-92523102D01*
X133419345Y-92520785D01*
X133419344Y-92520782D01*
X133288568Y-92361432D01*
X133288567Y-92361431D01*
X133288565Y-92361428D01*
X133129220Y-92230657D01*
X132947414Y-92133481D01*
X132750150Y-92073641D01*
X132545000Y-92053435D01*
X132339849Y-92073641D01*
X132142585Y-92133481D01*
X131960779Y-92230657D01*
X131801431Y-92361431D01*
X131670657Y-92520779D01*
X131573481Y-92702585D01*
X131513641Y-92899849D01*
X131493435Y-93104999D01*
X131513641Y-93310150D01*
X131573481Y-93507414D01*
X131670657Y-93689220D01*
X131801431Y-93848568D01*
X131960779Y-93979342D01*
X131960780Y-93979342D01*
X131960782Y-93979344D01*
X132142584Y-94076518D01*
X132241216Y-94106437D01*
X132339849Y-94136358D01*
X132545000Y-94156564D01*
X132750150Y-94136358D01*
X132947416Y-94076518D01*
X133129218Y-93979344D01*
X133288568Y-93848568D01*
X133419344Y-93689218D01*
X133516518Y-93507416D01*
X133537035Y-93439778D01*
X133557719Y-93399558D01*
X133591275Y-93369232D01*
X133599251Y-93364294D01*
X133614672Y-93356165D01*
X133638767Y-93345527D01*
X133643396Y-93340897D01*
X133666156Y-93322868D01*
X133671733Y-93319416D01*
X133687611Y-93298388D01*
X133699055Y-93285237D01*
X139913404Y-87070889D01*
X139963564Y-87040151D01*
X140022211Y-87035535D01*
X140076561Y-87058048D01*
X140114767Y-87102781D01*
X140128500Y-87159984D01*
X140128500Y-109653603D01*
X140114767Y-109710806D01*
X140076561Y-109755539D01*
X140022211Y-109778052D01*
X139963564Y-109773436D01*
X139913405Y-109742698D01*
X130757405Y-100586697D01*
X130730091Y-100545820D01*
X130720500Y-100497602D01*
X130720500Y-58386500D01*
X130737381Y-58323500D01*
X130783500Y-58277381D01*
X130846500Y-58260500D01*
X154533500Y-58260500D01*
X154596500Y-58277381D01*
G37*
%TD.AperFunction*%
%TA.AperFunction,Conductor*%
G36*
X147408234Y-82293500D02*
G01*
X147422901Y-82293500D01*
X147754167Y-82293500D01*
X147802385Y-82303091D01*
X147843262Y-82330405D01*
X148040595Y-82527738D01*
X148067909Y-82568615D01*
X148077500Y-82616833D01*
X148077500Y-84399485D01*
X148063767Y-84456688D01*
X148025561Y-84501421D01*
X147971211Y-84523934D01*
X147912564Y-84519318D01*
X147862404Y-84488580D01*
X147837794Y-84463970D01*
X147165403Y-83791577D01*
X147138090Y-83750700D01*
X147128499Y-83702482D01*
X147128499Y-82487593D01*
X147128498Y-82487587D01*
X147128498Y-82419499D01*
X147145379Y-82356499D01*
X147191498Y-82310380D01*
X147254498Y-82293499D01*
X147408226Y-82293499D01*
X147408234Y-82293500D01*
G37*
%TD.AperFunction*%
%TA.AperFunction,Conductor*%
G36*
X144308646Y-79254800D02*
G01*
X144551355Y-79254799D01*
X144551357Y-79254799D01*
X144605422Y-79244046D01*
X144654582Y-79244046D01*
X144708645Y-79254800D01*
X144951354Y-79254799D01*
X145005423Y-79244045D01*
X145054577Y-79244045D01*
X145108645Y-79254800D01*
X145351354Y-79254799D01*
X145351356Y-79254799D01*
X145405421Y-79244046D01*
X145454581Y-79244046D01*
X145508644Y-79254800D01*
X145751353Y-79254799D01*
X145805422Y-79244045D01*
X145854578Y-79244045D01*
X145908646Y-79254800D01*
X146151355Y-79254799D01*
X146151357Y-79254799D01*
X146205422Y-79244046D01*
X146254582Y-79244046D01*
X146308645Y-79254800D01*
X146551354Y-79254799D01*
X146551356Y-79254799D01*
X146605421Y-79244046D01*
X146654581Y-79244046D01*
X146708644Y-79254800D01*
X146762550Y-79254799D01*
X146818278Y-79267793D01*
X146862513Y-79304096D01*
X146886130Y-79356221D01*
X146888954Y-79370420D01*
X146888953Y-79419577D01*
X146878200Y-79473640D01*
X146878200Y-79716350D01*
X146888955Y-79770421D01*
X146888954Y-79819581D01*
X146878200Y-79873645D01*
X146878200Y-80116353D01*
X146888954Y-80170421D01*
X146888953Y-80219578D01*
X146878200Y-80273641D01*
X146878200Y-80516354D01*
X146888954Y-80570418D01*
X146888954Y-80619579D01*
X146878200Y-80673644D01*
X146878200Y-80916352D01*
X146888954Y-80970420D01*
X146888953Y-81019577D01*
X146878200Y-81073640D01*
X146878200Y-81316350D01*
X146888955Y-81370421D01*
X146888954Y-81419581D01*
X146878200Y-81473645D01*
X146878200Y-81716353D01*
X146888954Y-81770421D01*
X146888954Y-81819574D01*
X146886130Y-81833775D01*
X146862516Y-81885900D01*
X146818281Y-81922204D01*
X146762552Y-81935200D01*
X146708643Y-81935200D01*
X146654578Y-81945954D01*
X146605418Y-81945954D01*
X146551354Y-81935200D01*
X146308643Y-81935200D01*
X146254579Y-81945954D01*
X146205419Y-81945954D01*
X146151355Y-81935200D01*
X145908648Y-81935200D01*
X145854577Y-81945955D01*
X145805418Y-81945954D01*
X145751354Y-81935200D01*
X145508642Y-81935200D01*
X145454578Y-81945954D01*
X145405418Y-81945954D01*
X145351354Y-81935200D01*
X145108643Y-81935200D01*
X145054580Y-81945954D01*
X145005420Y-81945954D01*
X144951355Y-81935200D01*
X144708643Y-81935200D01*
X144654579Y-81945954D01*
X144605419Y-81945954D01*
X144551355Y-81935200D01*
X144308648Y-81935200D01*
X144254577Y-81945955D01*
X144205418Y-81945954D01*
X144151354Y-81935200D01*
X143908642Y-81935200D01*
X143854578Y-81945954D01*
X143805418Y-81945954D01*
X143751354Y-81935200D01*
X143508643Y-81935200D01*
X143454579Y-81945954D01*
X143405419Y-81945954D01*
X143351356Y-81935200D01*
X143351355Y-81935200D01*
X143297449Y-81935200D01*
X143241719Y-81922205D01*
X143197485Y-81885901D01*
X143173869Y-81833777D01*
X143171045Y-81819577D01*
X143171046Y-81770418D01*
X143181800Y-81716356D01*
X143181799Y-81473647D01*
X143171045Y-81419578D01*
X143171045Y-81370421D01*
X143181800Y-81316354D01*
X143181799Y-81073645D01*
X143181799Y-81073644D01*
X143181799Y-81073642D01*
X143171046Y-81019578D01*
X143171046Y-80970417D01*
X143181800Y-80916355D01*
X143181799Y-80673646D01*
X143171045Y-80619577D01*
X143171045Y-80570423D01*
X143181800Y-80516355D01*
X143181799Y-80273646D01*
X143181799Y-80273645D01*
X143181799Y-80273643D01*
X143171046Y-80219579D01*
X143171046Y-80170418D01*
X143181800Y-80116356D01*
X143181799Y-79873647D01*
X143171045Y-79819578D01*
X143171045Y-79770421D01*
X143181800Y-79716354D01*
X143181799Y-79473645D01*
X143181799Y-79473644D01*
X143181799Y-79473642D01*
X143171046Y-79419578D01*
X143171047Y-79370414D01*
X143173872Y-79356214D01*
X143197489Y-79304093D01*
X143241723Y-79267792D01*
X143297450Y-79254799D01*
X143351357Y-79254799D01*
X143405422Y-79244046D01*
X143454582Y-79244046D01*
X143508645Y-79254800D01*
X143751354Y-79254799D01*
X143751356Y-79254799D01*
X143805421Y-79244046D01*
X143854581Y-79244046D01*
X143908644Y-79254800D01*
X144151353Y-79254799D01*
X144205422Y-79244045D01*
X144254578Y-79244045D01*
X144308646Y-79254800D01*
G37*
%TD.AperFunction*%
%TA.AperFunction,Conductor*%
G36*
X148019560Y-77587898D02*
G01*
X148057766Y-77632631D01*
X148071499Y-77689834D01*
X148071499Y-78579168D01*
X148061908Y-78627386D01*
X148034594Y-78668263D01*
X147843262Y-78859595D01*
X147802385Y-78886909D01*
X147754167Y-78896500D01*
X147451037Y-78896500D01*
X147451034Y-78896500D01*
X147254499Y-78896500D01*
X147191499Y-78879619D01*
X147145380Y-78833500D01*
X147128499Y-78770500D01*
X147128499Y-78380835D01*
X147138090Y-78332617D01*
X147165403Y-78291740D01*
X147507381Y-77949762D01*
X147856403Y-77600738D01*
X147906563Y-77570001D01*
X147965210Y-77565385D01*
X148019560Y-77587898D01*
G37*
%TD.AperFunction*%
%TA.AperFunction,Conductor*%
G36*
X141929436Y-76597297D02*
G01*
X141979593Y-76628033D01*
X142894598Y-77543039D01*
X142921910Y-77583914D01*
X142931501Y-77632132D01*
X142931501Y-78770500D01*
X142914620Y-78833500D01*
X142868501Y-78879619D01*
X142805501Y-78896500D01*
X142637100Y-78896500D01*
X142637099Y-78896500D01*
X141890500Y-78896500D01*
X141827500Y-78879619D01*
X141781381Y-78833500D01*
X141764500Y-78770500D01*
X141764500Y-78507230D01*
X141764387Y-78506023D01*
X141761750Y-78477903D01*
X141756942Y-78464162D01*
X141718541Y-78354417D01*
X141715105Y-78349761D01*
X141640851Y-78249149D01*
X141535585Y-78171460D01*
X141535584Y-78171459D01*
X141535582Y-78171458D01*
X141412099Y-78128250D01*
X141397434Y-78126874D01*
X141382772Y-78125500D01*
X141382770Y-78125500D01*
X140883333Y-78125500D01*
X140835115Y-78115909D01*
X140794238Y-78088595D01*
X140655405Y-77949762D01*
X140628091Y-77908885D01*
X140618500Y-77860667D01*
X140618500Y-77788953D01*
X140632556Y-77731122D01*
X140671586Y-77686193D01*
X140726884Y-77664190D01*
X140758299Y-77667283D01*
X140758578Y-77664313D01*
X140773903Y-77665750D01*
X140803228Y-77668500D01*
X141382770Y-77668500D01*
X141382772Y-77668500D01*
X141412097Y-77665750D01*
X141535585Y-77622540D01*
X141640851Y-77544851D01*
X141718540Y-77439585D01*
X141761750Y-77316097D01*
X141764500Y-77286772D01*
X141764500Y-76717130D01*
X141778233Y-76659927D01*
X141816439Y-76615194D01*
X141870789Y-76592681D01*
X141929436Y-76597297D01*
G37*
%TD.AperFunction*%
%TD*%
%TA.AperFunction,Conductor*%
%TO.N,PGND*%
G36*
X144468500Y-83146881D02*
G01*
X144514619Y-83193000D01*
X144531500Y-83256000D01*
X144531500Y-84617500D01*
X144514619Y-84680500D01*
X144468500Y-84726619D01*
X144405500Y-84743500D01*
X144042229Y-84743500D01*
X144030498Y-84744600D01*
X144012901Y-84746250D01*
X143889418Y-84789458D01*
X143784150Y-84867149D01*
X143706459Y-84972417D01*
X143663251Y-85095900D01*
X143660501Y-85125230D01*
X143660501Y-85704770D01*
X143663251Y-85734099D01*
X143706459Y-85857582D01*
X143706460Y-85857584D01*
X143706461Y-85857585D01*
X143784150Y-85962851D01*
X143889416Y-86040540D01*
X143931858Y-86055390D01*
X143983243Y-86089310D01*
X144012422Y-86143531D01*
X144012422Y-86205105D01*
X143983244Y-86259327D01*
X143931857Y-86293248D01*
X143796007Y-86340784D01*
X143687711Y-86420710D01*
X143607784Y-86529007D01*
X143563330Y-86656049D01*
X143560501Y-86686223D01*
X143560501Y-87743777D01*
X143563330Y-87773948D01*
X143607784Y-87900992D01*
X143687711Y-88009289D01*
X143796008Y-88089216D01*
X143923050Y-88133670D01*
X143923051Y-88133670D01*
X143923054Y-88133671D01*
X143953222Y-88136500D01*
X144405499Y-88136499D01*
X144468499Y-88153380D01*
X144514618Y-88199499D01*
X144531499Y-88262499D01*
X144531499Y-97720753D01*
X144528756Y-97737567D01*
X144531365Y-97794009D01*
X144531499Y-97799827D01*
X144531499Y-97818746D01*
X144533176Y-97833209D01*
X144535146Y-97875792D01*
X144540000Y-97898801D01*
X144540000Y-99830001D01*
X151989998Y-107279999D01*
X151990000Y-107280000D01*
X152110795Y-107280000D01*
X152159013Y-107289591D01*
X152160000Y-107290000D01*
X154533500Y-107290000D01*
X154596500Y-107306881D01*
X154642619Y-107353000D01*
X154659500Y-107416000D01*
X154659500Y-110033500D01*
X154642619Y-110096500D01*
X154596500Y-110142619D01*
X154533500Y-110159500D01*
X140456000Y-110159500D01*
X140393000Y-110142619D01*
X140346881Y-110096500D01*
X140330000Y-110033500D01*
X140330000Y-86706483D01*
X140339591Y-86658265D01*
X140366905Y-86617388D01*
X141304143Y-85680150D01*
X142269090Y-84715202D01*
X142320536Y-84684055D01*
X142380561Y-84680302D01*
X142435488Y-84704801D01*
X142451103Y-84724539D01*
X142453655Y-84722328D01*
X142465517Y-84736018D01*
X142465518Y-84736019D01*
X142549598Y-84833053D01*
X142657610Y-84902468D01*
X142780803Y-84938641D01*
X142909196Y-84938641D01*
X142909197Y-84938641D01*
X143032390Y-84902468D01*
X143140402Y-84833053D01*
X143224482Y-84736019D01*
X143277819Y-84619228D01*
X143294984Y-84499835D01*
X143307028Y-84461372D01*
X143330602Y-84428680D01*
X143792100Y-83967181D01*
X143805937Y-83957227D01*
X143844011Y-83915460D01*
X143847994Y-83911287D01*
X143860632Y-83898651D01*
X143860636Y-83898644D01*
X143861406Y-83897875D01*
X143870452Y-83886455D01*
X143888186Y-83867003D01*
X143890548Y-83860905D01*
X143904092Y-83835206D01*
X143907797Y-83829800D01*
X143913830Y-83804146D01*
X143918985Y-83787496D01*
X143928500Y-83762940D01*
X143928500Y-83756396D01*
X143931847Y-83727547D01*
X143933348Y-83721166D01*
X143929708Y-83695073D01*
X143928500Y-83677665D01*
X143928500Y-83262199D01*
X143945381Y-83199199D01*
X143991500Y-83153080D01*
X144054498Y-83136199D01*
X144151353Y-83136199D01*
X144170350Y-83132420D01*
X144194927Y-83130000D01*
X144405500Y-83130000D01*
X144468500Y-83146881D01*
G37*
%TD.AperFunction*%
%TA.AperFunction,Conductor*%
G36*
X142763022Y-83143733D02*
G01*
X142807755Y-83181939D01*
X142830268Y-83236289D01*
X142825652Y-83294936D01*
X142794914Y-83345095D01*
X140545095Y-85594914D01*
X140494936Y-85625652D01*
X140436289Y-85630268D01*
X140381939Y-85607755D01*
X140343733Y-85563022D01*
X140330000Y-85505819D01*
X140330000Y-85032180D01*
X140339591Y-84983962D01*
X140366901Y-84943088D01*
X140480104Y-84829885D01*
X140493937Y-84819934D01*
X140501003Y-84812183D01*
X140532008Y-84778169D01*
X140535985Y-84774004D01*
X140548632Y-84761359D01*
X140548636Y-84761352D01*
X140549404Y-84760585D01*
X140558454Y-84749160D01*
X140570434Y-84736019D01*
X140576186Y-84729710D01*
X140578551Y-84723603D01*
X140592090Y-84697917D01*
X140595797Y-84692507D01*
X140601826Y-84666867D01*
X140606986Y-84650201D01*
X140616500Y-84625647D01*
X140616500Y-84619099D01*
X140619847Y-84590251D01*
X140621347Y-84583873D01*
X140617708Y-84557786D01*
X140616500Y-84540378D01*
X140616500Y-83381334D01*
X140626091Y-83333116D01*
X140653404Y-83292239D01*
X140744237Y-83201405D01*
X140785115Y-83174091D01*
X140833333Y-83164500D01*
X141382770Y-83164500D01*
X141382772Y-83164500D01*
X141412097Y-83161750D01*
X141446531Y-83149701D01*
X141482627Y-83137071D01*
X141524242Y-83130000D01*
X142705819Y-83130000D01*
X142763022Y-83143733D01*
G37*
%TD.AperFunction*%
%TD*%
M02*
