%TF.GenerationSoftware,KiCad,Pcbnew,7.0.1*%
%TF.CreationDate,2023-04-17T09:27:04+12:00*%
%TF.ProjectId,MCT8329A-breakout,4d435438-3332-4394-912d-627265616b6f,1.0*%
%TF.SameCoordinates,Original*%
%TF.FileFunction,Legend,Top*%
%TF.FilePolarity,Positive*%
%FSLAX46Y46*%
G04 Gerber Fmt 4.6, Leading zero omitted, Abs format (unit mm)*
G04 Created by KiCad (PCBNEW 7.0.1) date 2023-04-17 09:27:04*
%MOMM*%
%LPD*%
G01*
G04 APERTURE LIST*
%ADD10C,0.075000*%
%ADD11C,0.037500*%
%ADD12C,0.120000*%
G04 APERTURE END LIST*
D10*
X150648571Y-90310119D02*
X150600952Y-90286309D01*
X150600952Y-90286309D02*
X150529523Y-90286309D01*
X150529523Y-90286309D02*
X150458095Y-90310119D01*
X150458095Y-90310119D02*
X150410476Y-90357738D01*
X150410476Y-90357738D02*
X150386666Y-90405357D01*
X150386666Y-90405357D02*
X150362857Y-90500595D01*
X150362857Y-90500595D02*
X150362857Y-90572023D01*
X150362857Y-90572023D02*
X150386666Y-90667261D01*
X150386666Y-90667261D02*
X150410476Y-90714880D01*
X150410476Y-90714880D02*
X150458095Y-90762500D01*
X150458095Y-90762500D02*
X150529523Y-90786309D01*
X150529523Y-90786309D02*
X150577142Y-90786309D01*
X150577142Y-90786309D02*
X150648571Y-90762500D01*
X150648571Y-90762500D02*
X150672380Y-90738690D01*
X150672380Y-90738690D02*
X150672380Y-90572023D01*
X150672380Y-90572023D02*
X150577142Y-90572023D01*
X150886666Y-90786309D02*
X150886666Y-90286309D01*
X150886666Y-90524404D02*
X151172380Y-90524404D01*
X151172380Y-90786309D02*
X151172380Y-90286309D01*
X151386667Y-90643452D02*
X151624762Y-90643452D01*
X151339048Y-90786309D02*
X151505714Y-90286309D01*
X151505714Y-90286309D02*
X151672381Y-90786309D01*
X133945714Y-70204404D02*
X133779047Y-70204404D01*
X133779047Y-70466309D02*
X133779047Y-69966309D01*
X133779047Y-69966309D02*
X134017142Y-69966309D01*
X134469523Y-69990119D02*
X134421904Y-69966309D01*
X134421904Y-69966309D02*
X134350475Y-69966309D01*
X134350475Y-69966309D02*
X134279047Y-69990119D01*
X134279047Y-69990119D02*
X134231428Y-70037738D01*
X134231428Y-70037738D02*
X134207618Y-70085357D01*
X134207618Y-70085357D02*
X134183809Y-70180595D01*
X134183809Y-70180595D02*
X134183809Y-70252023D01*
X134183809Y-70252023D02*
X134207618Y-70347261D01*
X134207618Y-70347261D02*
X134231428Y-70394880D01*
X134231428Y-70394880D02*
X134279047Y-70442500D01*
X134279047Y-70442500D02*
X134350475Y-70466309D01*
X134350475Y-70466309D02*
X134398094Y-70466309D01*
X134398094Y-70466309D02*
X134469523Y-70442500D01*
X134469523Y-70442500D02*
X134493332Y-70418690D01*
X134493332Y-70418690D02*
X134493332Y-70252023D01*
X134493332Y-70252023D02*
X134398094Y-70252023D01*
X150148572Y-85444404D02*
X150220000Y-85468214D01*
X150220000Y-85468214D02*
X150243810Y-85492023D01*
X150243810Y-85492023D02*
X150267619Y-85539642D01*
X150267619Y-85539642D02*
X150267619Y-85611071D01*
X150267619Y-85611071D02*
X150243810Y-85658690D01*
X150243810Y-85658690D02*
X150220000Y-85682500D01*
X150220000Y-85682500D02*
X150172381Y-85706309D01*
X150172381Y-85706309D02*
X149981905Y-85706309D01*
X149981905Y-85706309D02*
X149981905Y-85206309D01*
X149981905Y-85206309D02*
X150148572Y-85206309D01*
X150148572Y-85206309D02*
X150196191Y-85230119D01*
X150196191Y-85230119D02*
X150220000Y-85253928D01*
X150220000Y-85253928D02*
X150243810Y-85301547D01*
X150243810Y-85301547D02*
X150243810Y-85349166D01*
X150243810Y-85349166D02*
X150220000Y-85396785D01*
X150220000Y-85396785D02*
X150196191Y-85420595D01*
X150196191Y-85420595D02*
X150148572Y-85444404D01*
X150148572Y-85444404D02*
X149981905Y-85444404D01*
X150458096Y-85682500D02*
X150529524Y-85706309D01*
X150529524Y-85706309D02*
X150648572Y-85706309D01*
X150648572Y-85706309D02*
X150696191Y-85682500D01*
X150696191Y-85682500D02*
X150720000Y-85658690D01*
X150720000Y-85658690D02*
X150743810Y-85611071D01*
X150743810Y-85611071D02*
X150743810Y-85563452D01*
X150743810Y-85563452D02*
X150720000Y-85515833D01*
X150720000Y-85515833D02*
X150696191Y-85492023D01*
X150696191Y-85492023D02*
X150648572Y-85468214D01*
X150648572Y-85468214D02*
X150553334Y-85444404D01*
X150553334Y-85444404D02*
X150505715Y-85420595D01*
X150505715Y-85420595D02*
X150481905Y-85396785D01*
X150481905Y-85396785D02*
X150458096Y-85349166D01*
X150458096Y-85349166D02*
X150458096Y-85301547D01*
X150458096Y-85301547D02*
X150481905Y-85253928D01*
X150481905Y-85253928D02*
X150505715Y-85230119D01*
X150505715Y-85230119D02*
X150553334Y-85206309D01*
X150553334Y-85206309D02*
X150672381Y-85206309D01*
X150672381Y-85206309D02*
X150743810Y-85230119D01*
X150886667Y-85206309D02*
X151172381Y-85206309D01*
X151029524Y-85706309D02*
X151029524Y-85206309D01*
X151505714Y-85444404D02*
X151577142Y-85468214D01*
X151577142Y-85468214D02*
X151600952Y-85492023D01*
X151600952Y-85492023D02*
X151624761Y-85539642D01*
X151624761Y-85539642D02*
X151624761Y-85611071D01*
X151624761Y-85611071D02*
X151600952Y-85658690D01*
X151600952Y-85658690D02*
X151577142Y-85682500D01*
X151577142Y-85682500D02*
X151529523Y-85706309D01*
X151529523Y-85706309D02*
X151339047Y-85706309D01*
X151339047Y-85706309D02*
X151339047Y-85206309D01*
X151339047Y-85206309D02*
X151505714Y-85206309D01*
X151505714Y-85206309D02*
X151553333Y-85230119D01*
X151553333Y-85230119D02*
X151577142Y-85253928D01*
X151577142Y-85253928D02*
X151600952Y-85301547D01*
X151600952Y-85301547D02*
X151600952Y-85349166D01*
X151600952Y-85349166D02*
X151577142Y-85396785D01*
X151577142Y-85396785D02*
X151553333Y-85420595D01*
X151553333Y-85420595D02*
X151505714Y-85444404D01*
X151505714Y-85444404D02*
X151339047Y-85444404D01*
X150315238Y-83142500D02*
X150386666Y-83166309D01*
X150386666Y-83166309D02*
X150505714Y-83166309D01*
X150505714Y-83166309D02*
X150553333Y-83142500D01*
X150553333Y-83142500D02*
X150577142Y-83118690D01*
X150577142Y-83118690D02*
X150600952Y-83071071D01*
X150600952Y-83071071D02*
X150600952Y-83023452D01*
X150600952Y-83023452D02*
X150577142Y-82975833D01*
X150577142Y-82975833D02*
X150553333Y-82952023D01*
X150553333Y-82952023D02*
X150505714Y-82928214D01*
X150505714Y-82928214D02*
X150410476Y-82904404D01*
X150410476Y-82904404D02*
X150362857Y-82880595D01*
X150362857Y-82880595D02*
X150339047Y-82856785D01*
X150339047Y-82856785D02*
X150315238Y-82809166D01*
X150315238Y-82809166D02*
X150315238Y-82761547D01*
X150315238Y-82761547D02*
X150339047Y-82713928D01*
X150339047Y-82713928D02*
X150362857Y-82690119D01*
X150362857Y-82690119D02*
X150410476Y-82666309D01*
X150410476Y-82666309D02*
X150529523Y-82666309D01*
X150529523Y-82666309D02*
X150600952Y-82690119D01*
X150815237Y-83166309D02*
X150815237Y-82666309D01*
X150815237Y-82904404D02*
X151100951Y-82904404D01*
X151100951Y-83166309D02*
X151100951Y-82666309D01*
X151505714Y-82904404D02*
X151577142Y-82928214D01*
X151577142Y-82928214D02*
X151600952Y-82952023D01*
X151600952Y-82952023D02*
X151624761Y-82999642D01*
X151624761Y-82999642D02*
X151624761Y-83071071D01*
X151624761Y-83071071D02*
X151600952Y-83118690D01*
X151600952Y-83118690D02*
X151577142Y-83142500D01*
X151577142Y-83142500D02*
X151529523Y-83166309D01*
X151529523Y-83166309D02*
X151339047Y-83166309D01*
X151339047Y-83166309D02*
X151339047Y-82666309D01*
X151339047Y-82666309D02*
X151505714Y-82666309D01*
X151505714Y-82666309D02*
X151553333Y-82690119D01*
X151553333Y-82690119D02*
X151577142Y-82713928D01*
X151577142Y-82713928D02*
X151600952Y-82761547D01*
X151600952Y-82761547D02*
X151600952Y-82809166D01*
X151600952Y-82809166D02*
X151577142Y-82856785D01*
X151577142Y-82856785D02*
X151553333Y-82880595D01*
X151553333Y-82880595D02*
X151505714Y-82904404D01*
X151505714Y-82904404D02*
X151339047Y-82904404D01*
X141975715Y-59037976D02*
X142094763Y-59371309D01*
X142094763Y-59371309D02*
X142213810Y-59037976D01*
X142666191Y-59371309D02*
X142380477Y-59371309D01*
X142523334Y-59371309D02*
X142523334Y-58871309D01*
X142523334Y-58871309D02*
X142475715Y-58942738D01*
X142475715Y-58942738D02*
X142428096Y-58990357D01*
X142428096Y-58990357D02*
X142380477Y-59014166D01*
X142880476Y-59323690D02*
X142904286Y-59347500D01*
X142904286Y-59347500D02*
X142880476Y-59371309D01*
X142880476Y-59371309D02*
X142856667Y-59347500D01*
X142856667Y-59347500D02*
X142880476Y-59323690D01*
X142880476Y-59323690D02*
X142880476Y-59371309D01*
X143213809Y-58871309D02*
X143261428Y-58871309D01*
X143261428Y-58871309D02*
X143309047Y-58895119D01*
X143309047Y-58895119D02*
X143332857Y-58918928D01*
X143332857Y-58918928D02*
X143356666Y-58966547D01*
X143356666Y-58966547D02*
X143380476Y-59061785D01*
X143380476Y-59061785D02*
X143380476Y-59180833D01*
X143380476Y-59180833D02*
X143356666Y-59276071D01*
X143356666Y-59276071D02*
X143332857Y-59323690D01*
X143332857Y-59323690D02*
X143309047Y-59347500D01*
X143309047Y-59347500D02*
X143261428Y-59371309D01*
X143261428Y-59371309D02*
X143213809Y-59371309D01*
X143213809Y-59371309D02*
X143166190Y-59347500D01*
X143166190Y-59347500D02*
X143142381Y-59323690D01*
X143142381Y-59323690D02*
X143118571Y-59276071D01*
X143118571Y-59276071D02*
X143094762Y-59180833D01*
X143094762Y-59180833D02*
X143094762Y-59061785D01*
X143094762Y-59061785D02*
X143118571Y-58966547D01*
X143118571Y-58966547D02*
X143142381Y-58918928D01*
X143142381Y-58918928D02*
X143166190Y-58895119D01*
X143166190Y-58895119D02*
X143213809Y-58871309D01*
X133755238Y-67902500D02*
X133826666Y-67926309D01*
X133826666Y-67926309D02*
X133945714Y-67926309D01*
X133945714Y-67926309D02*
X133993333Y-67902500D01*
X133993333Y-67902500D02*
X134017142Y-67878690D01*
X134017142Y-67878690D02*
X134040952Y-67831071D01*
X134040952Y-67831071D02*
X134040952Y-67783452D01*
X134040952Y-67783452D02*
X134017142Y-67735833D01*
X134017142Y-67735833D02*
X133993333Y-67712023D01*
X133993333Y-67712023D02*
X133945714Y-67688214D01*
X133945714Y-67688214D02*
X133850476Y-67664404D01*
X133850476Y-67664404D02*
X133802857Y-67640595D01*
X133802857Y-67640595D02*
X133779047Y-67616785D01*
X133779047Y-67616785D02*
X133755238Y-67569166D01*
X133755238Y-67569166D02*
X133755238Y-67521547D01*
X133755238Y-67521547D02*
X133779047Y-67473928D01*
X133779047Y-67473928D02*
X133802857Y-67450119D01*
X133802857Y-67450119D02*
X133850476Y-67426309D01*
X133850476Y-67426309D02*
X133969523Y-67426309D01*
X133969523Y-67426309D02*
X134040952Y-67450119D01*
X134255237Y-67926309D02*
X134255237Y-67426309D01*
X134255237Y-67426309D02*
X134445713Y-67426309D01*
X134445713Y-67426309D02*
X134493332Y-67450119D01*
X134493332Y-67450119D02*
X134517142Y-67473928D01*
X134517142Y-67473928D02*
X134540951Y-67521547D01*
X134540951Y-67521547D02*
X134540951Y-67592976D01*
X134540951Y-67592976D02*
X134517142Y-67640595D01*
X134517142Y-67640595D02*
X134493332Y-67664404D01*
X134493332Y-67664404D02*
X134445713Y-67688214D01*
X134445713Y-67688214D02*
X134255237Y-67688214D01*
X134755237Y-67664404D02*
X134921904Y-67664404D01*
X134993332Y-67926309D02*
X134755237Y-67926309D01*
X134755237Y-67926309D02*
X134755237Y-67426309D01*
X134755237Y-67426309D02*
X134993332Y-67426309D01*
X135207618Y-67664404D02*
X135374285Y-67664404D01*
X135445713Y-67926309D02*
X135207618Y-67926309D01*
X135207618Y-67926309D02*
X135207618Y-67426309D01*
X135207618Y-67426309D02*
X135445713Y-67426309D01*
X135659999Y-67926309D02*
X135659999Y-67426309D01*
X135659999Y-67426309D02*
X135779047Y-67426309D01*
X135779047Y-67426309D02*
X135850475Y-67450119D01*
X135850475Y-67450119D02*
X135898094Y-67497738D01*
X135898094Y-67497738D02*
X135921904Y-67545357D01*
X135921904Y-67545357D02*
X135945713Y-67640595D01*
X135945713Y-67640595D02*
X135945713Y-67712023D01*
X135945713Y-67712023D02*
X135921904Y-67807261D01*
X135921904Y-67807261D02*
X135898094Y-67854880D01*
X135898094Y-67854880D02*
X135850475Y-67902500D01*
X135850475Y-67902500D02*
X135779047Y-67926309D01*
X135779047Y-67926309D02*
X135659999Y-67926309D01*
X136517142Y-67402500D02*
X136088571Y-68045357D01*
X136636190Y-67426309D02*
X136755238Y-67926309D01*
X136755238Y-67926309D02*
X136850476Y-67569166D01*
X136850476Y-67569166D02*
X136945714Y-67926309D01*
X136945714Y-67926309D02*
X137064762Y-67426309D01*
X137231429Y-67783452D02*
X137469524Y-67783452D01*
X137183810Y-67926309D02*
X137350476Y-67426309D01*
X137350476Y-67426309D02*
X137517143Y-67926309D01*
X137683809Y-67926309D02*
X137683809Y-67426309D01*
X137969523Y-67926309D02*
X137755238Y-67640595D01*
X137969523Y-67426309D02*
X137683809Y-67712023D01*
X138183809Y-67664404D02*
X138350476Y-67664404D01*
X138421904Y-67926309D02*
X138183809Y-67926309D01*
X138183809Y-67926309D02*
X138183809Y-67426309D01*
X138183809Y-67426309D02*
X138421904Y-67426309D01*
X150839048Y-62822500D02*
X150910476Y-62846309D01*
X150910476Y-62846309D02*
X151029524Y-62846309D01*
X151029524Y-62846309D02*
X151077143Y-62822500D01*
X151077143Y-62822500D02*
X151100952Y-62798690D01*
X151100952Y-62798690D02*
X151124762Y-62751071D01*
X151124762Y-62751071D02*
X151124762Y-62703452D01*
X151124762Y-62703452D02*
X151100952Y-62655833D01*
X151100952Y-62655833D02*
X151077143Y-62632023D01*
X151077143Y-62632023D02*
X151029524Y-62608214D01*
X151029524Y-62608214D02*
X150934286Y-62584404D01*
X150934286Y-62584404D02*
X150886667Y-62560595D01*
X150886667Y-62560595D02*
X150862857Y-62536785D01*
X150862857Y-62536785D02*
X150839048Y-62489166D01*
X150839048Y-62489166D02*
X150839048Y-62441547D01*
X150839048Y-62441547D02*
X150862857Y-62393928D01*
X150862857Y-62393928D02*
X150886667Y-62370119D01*
X150886667Y-62370119D02*
X150934286Y-62346309D01*
X150934286Y-62346309D02*
X151053333Y-62346309D01*
X151053333Y-62346309D02*
X151124762Y-62370119D01*
X151339047Y-62846309D02*
X151339047Y-62346309D01*
X151339047Y-62346309D02*
X151529523Y-62346309D01*
X151529523Y-62346309D02*
X151577142Y-62370119D01*
X151577142Y-62370119D02*
X151600952Y-62393928D01*
X151600952Y-62393928D02*
X151624761Y-62441547D01*
X151624761Y-62441547D02*
X151624761Y-62512976D01*
X151624761Y-62512976D02*
X151600952Y-62560595D01*
X151600952Y-62560595D02*
X151577142Y-62584404D01*
X151577142Y-62584404D02*
X151529523Y-62608214D01*
X151529523Y-62608214D02*
X151339047Y-62608214D01*
X150767619Y-87770119D02*
X150720000Y-87746309D01*
X150720000Y-87746309D02*
X150648571Y-87746309D01*
X150648571Y-87746309D02*
X150577143Y-87770119D01*
X150577143Y-87770119D02*
X150529524Y-87817738D01*
X150529524Y-87817738D02*
X150505714Y-87865357D01*
X150505714Y-87865357D02*
X150481905Y-87960595D01*
X150481905Y-87960595D02*
X150481905Y-88032023D01*
X150481905Y-88032023D02*
X150505714Y-88127261D01*
X150505714Y-88127261D02*
X150529524Y-88174880D01*
X150529524Y-88174880D02*
X150577143Y-88222500D01*
X150577143Y-88222500D02*
X150648571Y-88246309D01*
X150648571Y-88246309D02*
X150696190Y-88246309D01*
X150696190Y-88246309D02*
X150767619Y-88222500D01*
X150767619Y-88222500D02*
X150791428Y-88198690D01*
X150791428Y-88198690D02*
X150791428Y-88032023D01*
X150791428Y-88032023D02*
X150696190Y-88032023D01*
X151243809Y-88246309D02*
X151005714Y-88246309D01*
X151005714Y-88246309D02*
X151005714Y-87746309D01*
X151386667Y-88103452D02*
X151624762Y-88103452D01*
X151339048Y-88246309D02*
X151505714Y-87746309D01*
X151505714Y-87746309D02*
X151672381Y-88246309D01*
X150172381Y-97930119D02*
X150124762Y-97906309D01*
X150124762Y-97906309D02*
X150053333Y-97906309D01*
X150053333Y-97906309D02*
X149981905Y-97930119D01*
X149981905Y-97930119D02*
X149934286Y-97977738D01*
X149934286Y-97977738D02*
X149910476Y-98025357D01*
X149910476Y-98025357D02*
X149886667Y-98120595D01*
X149886667Y-98120595D02*
X149886667Y-98192023D01*
X149886667Y-98192023D02*
X149910476Y-98287261D01*
X149910476Y-98287261D02*
X149934286Y-98334880D01*
X149934286Y-98334880D02*
X149981905Y-98382500D01*
X149981905Y-98382500D02*
X150053333Y-98406309D01*
X150053333Y-98406309D02*
X150100952Y-98406309D01*
X150100952Y-98406309D02*
X150172381Y-98382500D01*
X150172381Y-98382500D02*
X150196190Y-98358690D01*
X150196190Y-98358690D02*
X150196190Y-98192023D01*
X150196190Y-98192023D02*
X150100952Y-98192023D01*
X150339048Y-97906309D02*
X150505714Y-98406309D01*
X150505714Y-98406309D02*
X150672381Y-97906309D01*
X150839047Y-98406309D02*
X150839047Y-97906309D01*
X150839047Y-97906309D02*
X150958095Y-97906309D01*
X150958095Y-97906309D02*
X151029523Y-97930119D01*
X151029523Y-97930119D02*
X151077142Y-97977738D01*
X151077142Y-97977738D02*
X151100952Y-98025357D01*
X151100952Y-98025357D02*
X151124761Y-98120595D01*
X151124761Y-98120595D02*
X151124761Y-98192023D01*
X151124761Y-98192023D02*
X151100952Y-98287261D01*
X151100952Y-98287261D02*
X151077142Y-98334880D01*
X151077142Y-98334880D02*
X151029523Y-98382500D01*
X151029523Y-98382500D02*
X150958095Y-98406309D01*
X150958095Y-98406309D02*
X150839047Y-98406309D01*
X151339047Y-98406309D02*
X151339047Y-97906309D01*
X151339047Y-97906309D02*
X151458095Y-97906309D01*
X151458095Y-97906309D02*
X151529523Y-97930119D01*
X151529523Y-97930119D02*
X151577142Y-97977738D01*
X151577142Y-97977738D02*
X151600952Y-98025357D01*
X151600952Y-98025357D02*
X151624761Y-98120595D01*
X151624761Y-98120595D02*
X151624761Y-98192023D01*
X151624761Y-98192023D02*
X151600952Y-98287261D01*
X151600952Y-98287261D02*
X151577142Y-98334880D01*
X151577142Y-98334880D02*
X151529523Y-98382500D01*
X151529523Y-98382500D02*
X151458095Y-98406309D01*
X151458095Y-98406309D02*
X151339047Y-98406309D01*
X150696190Y-67450119D02*
X150648571Y-67426309D01*
X150648571Y-67426309D02*
X150577142Y-67426309D01*
X150577142Y-67426309D02*
X150505714Y-67450119D01*
X150505714Y-67450119D02*
X150458095Y-67497738D01*
X150458095Y-67497738D02*
X150434285Y-67545357D01*
X150434285Y-67545357D02*
X150410476Y-67640595D01*
X150410476Y-67640595D02*
X150410476Y-67712023D01*
X150410476Y-67712023D02*
X150434285Y-67807261D01*
X150434285Y-67807261D02*
X150458095Y-67854880D01*
X150458095Y-67854880D02*
X150505714Y-67902500D01*
X150505714Y-67902500D02*
X150577142Y-67926309D01*
X150577142Y-67926309D02*
X150624761Y-67926309D01*
X150624761Y-67926309D02*
X150696190Y-67902500D01*
X150696190Y-67902500D02*
X150719999Y-67878690D01*
X150719999Y-67878690D02*
X150719999Y-67712023D01*
X150719999Y-67712023D02*
X150624761Y-67712023D01*
X151172380Y-67926309D02*
X150934285Y-67926309D01*
X150934285Y-67926309D02*
X150934285Y-67426309D01*
X151624761Y-67878690D02*
X151600952Y-67902500D01*
X151600952Y-67902500D02*
X151529523Y-67926309D01*
X151529523Y-67926309D02*
X151481904Y-67926309D01*
X151481904Y-67926309D02*
X151410476Y-67902500D01*
X151410476Y-67902500D02*
X151362857Y-67854880D01*
X151362857Y-67854880D02*
X151339047Y-67807261D01*
X151339047Y-67807261D02*
X151315238Y-67712023D01*
X151315238Y-67712023D02*
X151315238Y-67640595D01*
X151315238Y-67640595D02*
X151339047Y-67545357D01*
X151339047Y-67545357D02*
X151362857Y-67497738D01*
X151362857Y-67497738D02*
X151410476Y-67450119D01*
X151410476Y-67450119D02*
X151481904Y-67426309D01*
X151481904Y-67426309D02*
X151529523Y-67426309D01*
X151529523Y-67426309D02*
X151600952Y-67450119D01*
X151600952Y-67450119D02*
X151624761Y-67473928D01*
X150386667Y-93302500D02*
X150458095Y-93326309D01*
X150458095Y-93326309D02*
X150577143Y-93326309D01*
X150577143Y-93326309D02*
X150624762Y-93302500D01*
X150624762Y-93302500D02*
X150648571Y-93278690D01*
X150648571Y-93278690D02*
X150672381Y-93231071D01*
X150672381Y-93231071D02*
X150672381Y-93183452D01*
X150672381Y-93183452D02*
X150648571Y-93135833D01*
X150648571Y-93135833D02*
X150624762Y-93112023D01*
X150624762Y-93112023D02*
X150577143Y-93088214D01*
X150577143Y-93088214D02*
X150481905Y-93064404D01*
X150481905Y-93064404D02*
X150434286Y-93040595D01*
X150434286Y-93040595D02*
X150410476Y-93016785D01*
X150410476Y-93016785D02*
X150386667Y-92969166D01*
X150386667Y-92969166D02*
X150386667Y-92921547D01*
X150386667Y-92921547D02*
X150410476Y-92873928D01*
X150410476Y-92873928D02*
X150434286Y-92850119D01*
X150434286Y-92850119D02*
X150481905Y-92826309D01*
X150481905Y-92826309D02*
X150600952Y-92826309D01*
X150600952Y-92826309D02*
X150672381Y-92850119D01*
X150886666Y-93326309D02*
X150886666Y-92826309D01*
X150886666Y-93064404D02*
X151172380Y-93064404D01*
X151172380Y-93326309D02*
X151172380Y-92826309D01*
X151386667Y-93183452D02*
X151624762Y-93183452D01*
X151339048Y-93326309D02*
X151505714Y-92826309D01*
X151505714Y-92826309D02*
X151672381Y-93326309D01*
X150577142Y-80150119D02*
X150529523Y-80126309D01*
X150529523Y-80126309D02*
X150458094Y-80126309D01*
X150458094Y-80126309D02*
X150386666Y-80150119D01*
X150386666Y-80150119D02*
X150339047Y-80197738D01*
X150339047Y-80197738D02*
X150315237Y-80245357D01*
X150315237Y-80245357D02*
X150291428Y-80340595D01*
X150291428Y-80340595D02*
X150291428Y-80412023D01*
X150291428Y-80412023D02*
X150315237Y-80507261D01*
X150315237Y-80507261D02*
X150339047Y-80554880D01*
X150339047Y-80554880D02*
X150386666Y-80602500D01*
X150386666Y-80602500D02*
X150458094Y-80626309D01*
X150458094Y-80626309D02*
X150505713Y-80626309D01*
X150505713Y-80626309D02*
X150577142Y-80602500D01*
X150577142Y-80602500D02*
X150600951Y-80578690D01*
X150600951Y-80578690D02*
X150600951Y-80412023D01*
X150600951Y-80412023D02*
X150505713Y-80412023D01*
X150815237Y-80626309D02*
X150815237Y-80126309D01*
X150815237Y-80364404D02*
X151100951Y-80364404D01*
X151100951Y-80626309D02*
X151100951Y-80126309D01*
X151505714Y-80364404D02*
X151577142Y-80388214D01*
X151577142Y-80388214D02*
X151600952Y-80412023D01*
X151600952Y-80412023D02*
X151624761Y-80459642D01*
X151624761Y-80459642D02*
X151624761Y-80531071D01*
X151624761Y-80531071D02*
X151600952Y-80578690D01*
X151600952Y-80578690D02*
X151577142Y-80602500D01*
X151577142Y-80602500D02*
X151529523Y-80626309D01*
X151529523Y-80626309D02*
X151339047Y-80626309D01*
X151339047Y-80626309D02*
X151339047Y-80126309D01*
X151339047Y-80126309D02*
X151505714Y-80126309D01*
X151505714Y-80126309D02*
X151553333Y-80150119D01*
X151553333Y-80150119D02*
X151577142Y-80173928D01*
X151577142Y-80173928D02*
X151600952Y-80221547D01*
X151600952Y-80221547D02*
X151600952Y-80269166D01*
X151600952Y-80269166D02*
X151577142Y-80316785D01*
X151577142Y-80316785D02*
X151553333Y-80340595D01*
X151553333Y-80340595D02*
X151505714Y-80364404D01*
X151505714Y-80364404D02*
X151339047Y-80364404D01*
X150720000Y-65386309D02*
X150481905Y-65386309D01*
X150481905Y-65386309D02*
X150481905Y-64886309D01*
X150862858Y-65362500D02*
X150934286Y-65386309D01*
X150934286Y-65386309D02*
X151053334Y-65386309D01*
X151053334Y-65386309D02*
X151100953Y-65362500D01*
X151100953Y-65362500D02*
X151124762Y-65338690D01*
X151124762Y-65338690D02*
X151148572Y-65291071D01*
X151148572Y-65291071D02*
X151148572Y-65243452D01*
X151148572Y-65243452D02*
X151124762Y-65195833D01*
X151124762Y-65195833D02*
X151100953Y-65172023D01*
X151100953Y-65172023D02*
X151053334Y-65148214D01*
X151053334Y-65148214D02*
X150958096Y-65124404D01*
X150958096Y-65124404D02*
X150910477Y-65100595D01*
X150910477Y-65100595D02*
X150886667Y-65076785D01*
X150886667Y-65076785D02*
X150862858Y-65029166D01*
X150862858Y-65029166D02*
X150862858Y-64981547D01*
X150862858Y-64981547D02*
X150886667Y-64933928D01*
X150886667Y-64933928D02*
X150910477Y-64910119D01*
X150910477Y-64910119D02*
X150958096Y-64886309D01*
X150958096Y-64886309D02*
X151077143Y-64886309D01*
X151077143Y-64886309D02*
X151148572Y-64910119D01*
X151339048Y-65362500D02*
X151410476Y-65386309D01*
X151410476Y-65386309D02*
X151529524Y-65386309D01*
X151529524Y-65386309D02*
X151577143Y-65362500D01*
X151577143Y-65362500D02*
X151600952Y-65338690D01*
X151600952Y-65338690D02*
X151624762Y-65291071D01*
X151624762Y-65291071D02*
X151624762Y-65243452D01*
X151624762Y-65243452D02*
X151600952Y-65195833D01*
X151600952Y-65195833D02*
X151577143Y-65172023D01*
X151577143Y-65172023D02*
X151529524Y-65148214D01*
X151529524Y-65148214D02*
X151434286Y-65124404D01*
X151434286Y-65124404D02*
X151386667Y-65100595D01*
X151386667Y-65100595D02*
X151362857Y-65076785D01*
X151362857Y-65076785D02*
X151339048Y-65029166D01*
X151339048Y-65029166D02*
X151339048Y-64981547D01*
X151339048Y-64981547D02*
X151362857Y-64933928D01*
X151362857Y-64933928D02*
X151386667Y-64910119D01*
X151386667Y-64910119D02*
X151434286Y-64886309D01*
X151434286Y-64886309D02*
X151553333Y-64886309D01*
X151553333Y-64886309D02*
X151624762Y-64910119D01*
X133755238Y-75522500D02*
X133826666Y-75546309D01*
X133826666Y-75546309D02*
X133945714Y-75546309D01*
X133945714Y-75546309D02*
X133993333Y-75522500D01*
X133993333Y-75522500D02*
X134017142Y-75498690D01*
X134017142Y-75498690D02*
X134040952Y-75451071D01*
X134040952Y-75451071D02*
X134040952Y-75403452D01*
X134040952Y-75403452D02*
X134017142Y-75355833D01*
X134017142Y-75355833D02*
X133993333Y-75332023D01*
X133993333Y-75332023D02*
X133945714Y-75308214D01*
X133945714Y-75308214D02*
X133850476Y-75284404D01*
X133850476Y-75284404D02*
X133802857Y-75260595D01*
X133802857Y-75260595D02*
X133779047Y-75236785D01*
X133779047Y-75236785D02*
X133755238Y-75189166D01*
X133755238Y-75189166D02*
X133755238Y-75141547D01*
X133755238Y-75141547D02*
X133779047Y-75093928D01*
X133779047Y-75093928D02*
X133802857Y-75070119D01*
X133802857Y-75070119D02*
X133850476Y-75046309D01*
X133850476Y-75046309D02*
X133969523Y-75046309D01*
X133969523Y-75046309D02*
X134040952Y-75070119D01*
X134540951Y-75498690D02*
X134517142Y-75522500D01*
X134517142Y-75522500D02*
X134445713Y-75546309D01*
X134445713Y-75546309D02*
X134398094Y-75546309D01*
X134398094Y-75546309D02*
X134326666Y-75522500D01*
X134326666Y-75522500D02*
X134279047Y-75474880D01*
X134279047Y-75474880D02*
X134255237Y-75427261D01*
X134255237Y-75427261D02*
X134231428Y-75332023D01*
X134231428Y-75332023D02*
X134231428Y-75260595D01*
X134231428Y-75260595D02*
X134255237Y-75165357D01*
X134255237Y-75165357D02*
X134279047Y-75117738D01*
X134279047Y-75117738D02*
X134326666Y-75070119D01*
X134326666Y-75070119D02*
X134398094Y-75046309D01*
X134398094Y-75046309D02*
X134445713Y-75046309D01*
X134445713Y-75046309D02*
X134517142Y-75070119D01*
X134517142Y-75070119D02*
X134540951Y-75093928D01*
X134993332Y-75546309D02*
X134755237Y-75546309D01*
X134755237Y-75546309D02*
X134755237Y-75046309D01*
X150815238Y-60282500D02*
X150886666Y-60306309D01*
X150886666Y-60306309D02*
X151005714Y-60306309D01*
X151005714Y-60306309D02*
X151053333Y-60282500D01*
X151053333Y-60282500D02*
X151077142Y-60258690D01*
X151077142Y-60258690D02*
X151100952Y-60211071D01*
X151100952Y-60211071D02*
X151100952Y-60163452D01*
X151100952Y-60163452D02*
X151077142Y-60115833D01*
X151077142Y-60115833D02*
X151053333Y-60092023D01*
X151053333Y-60092023D02*
X151005714Y-60068214D01*
X151005714Y-60068214D02*
X150910476Y-60044404D01*
X150910476Y-60044404D02*
X150862857Y-60020595D01*
X150862857Y-60020595D02*
X150839047Y-59996785D01*
X150839047Y-59996785D02*
X150815238Y-59949166D01*
X150815238Y-59949166D02*
X150815238Y-59901547D01*
X150815238Y-59901547D02*
X150839047Y-59853928D01*
X150839047Y-59853928D02*
X150862857Y-59830119D01*
X150862857Y-59830119D02*
X150910476Y-59806309D01*
X150910476Y-59806309D02*
X151029523Y-59806309D01*
X151029523Y-59806309D02*
X151100952Y-59830119D01*
X151315237Y-60306309D02*
X151315237Y-59806309D01*
X151315237Y-59806309D02*
X151600951Y-60306309D01*
X151600951Y-60306309D02*
X151600951Y-59806309D01*
X133755238Y-72982500D02*
X133826666Y-73006309D01*
X133826666Y-73006309D02*
X133945714Y-73006309D01*
X133945714Y-73006309D02*
X133993333Y-72982500D01*
X133993333Y-72982500D02*
X134017142Y-72958690D01*
X134017142Y-72958690D02*
X134040952Y-72911071D01*
X134040952Y-72911071D02*
X134040952Y-72863452D01*
X134040952Y-72863452D02*
X134017142Y-72815833D01*
X134017142Y-72815833D02*
X133993333Y-72792023D01*
X133993333Y-72792023D02*
X133945714Y-72768214D01*
X133945714Y-72768214D02*
X133850476Y-72744404D01*
X133850476Y-72744404D02*
X133802857Y-72720595D01*
X133802857Y-72720595D02*
X133779047Y-72696785D01*
X133779047Y-72696785D02*
X133755238Y-72649166D01*
X133755238Y-72649166D02*
X133755238Y-72601547D01*
X133755238Y-72601547D02*
X133779047Y-72553928D01*
X133779047Y-72553928D02*
X133802857Y-72530119D01*
X133802857Y-72530119D02*
X133850476Y-72506309D01*
X133850476Y-72506309D02*
X133969523Y-72506309D01*
X133969523Y-72506309D02*
X134040952Y-72530119D01*
X134255237Y-73006309D02*
X134255237Y-72506309D01*
X134255237Y-72506309D02*
X134374285Y-72506309D01*
X134374285Y-72506309D02*
X134445713Y-72530119D01*
X134445713Y-72530119D02*
X134493332Y-72577738D01*
X134493332Y-72577738D02*
X134517142Y-72625357D01*
X134517142Y-72625357D02*
X134540951Y-72720595D01*
X134540951Y-72720595D02*
X134540951Y-72792023D01*
X134540951Y-72792023D02*
X134517142Y-72887261D01*
X134517142Y-72887261D02*
X134493332Y-72934880D01*
X134493332Y-72934880D02*
X134445713Y-72982500D01*
X134445713Y-72982500D02*
X134374285Y-73006309D01*
X134374285Y-73006309D02*
X134255237Y-73006309D01*
X134731428Y-72863452D02*
X134969523Y-72863452D01*
X134683809Y-73006309D02*
X134850475Y-72506309D01*
X134850475Y-72506309D02*
X135017142Y-73006309D01*
X133779047Y-78086309D02*
X133779047Y-77586309D01*
X133779047Y-77586309D02*
X133898095Y-77586309D01*
X133898095Y-77586309D02*
X133969523Y-77610119D01*
X133969523Y-77610119D02*
X134017142Y-77657738D01*
X134017142Y-77657738D02*
X134040952Y-77705357D01*
X134040952Y-77705357D02*
X134064761Y-77800595D01*
X134064761Y-77800595D02*
X134064761Y-77872023D01*
X134064761Y-77872023D02*
X134040952Y-77967261D01*
X134040952Y-77967261D02*
X134017142Y-78014880D01*
X134017142Y-78014880D02*
X133969523Y-78062500D01*
X133969523Y-78062500D02*
X133898095Y-78086309D01*
X133898095Y-78086309D02*
X133779047Y-78086309D01*
X134279047Y-78086309D02*
X134279047Y-77586309D01*
X134802856Y-78086309D02*
X134636190Y-77848214D01*
X134517142Y-78086309D02*
X134517142Y-77586309D01*
X134517142Y-77586309D02*
X134707618Y-77586309D01*
X134707618Y-77586309D02*
X134755237Y-77610119D01*
X134755237Y-77610119D02*
X134779047Y-77633928D01*
X134779047Y-77633928D02*
X134802856Y-77681547D01*
X134802856Y-77681547D02*
X134802856Y-77752976D01*
X134802856Y-77752976D02*
X134779047Y-77800595D01*
X134779047Y-77800595D02*
X134755237Y-77824404D01*
X134755237Y-77824404D02*
X134707618Y-77848214D01*
X134707618Y-77848214D02*
X134517142Y-77848214D01*
X150220001Y-95604404D02*
X150291429Y-95628214D01*
X150291429Y-95628214D02*
X150315239Y-95652023D01*
X150315239Y-95652023D02*
X150339048Y-95699642D01*
X150339048Y-95699642D02*
X150339048Y-95771071D01*
X150339048Y-95771071D02*
X150315239Y-95818690D01*
X150315239Y-95818690D02*
X150291429Y-95842500D01*
X150291429Y-95842500D02*
X150243810Y-95866309D01*
X150243810Y-95866309D02*
X150053334Y-95866309D01*
X150053334Y-95866309D02*
X150053334Y-95366309D01*
X150053334Y-95366309D02*
X150220001Y-95366309D01*
X150220001Y-95366309D02*
X150267620Y-95390119D01*
X150267620Y-95390119D02*
X150291429Y-95413928D01*
X150291429Y-95413928D02*
X150315239Y-95461547D01*
X150315239Y-95461547D02*
X150315239Y-95509166D01*
X150315239Y-95509166D02*
X150291429Y-95556785D01*
X150291429Y-95556785D02*
X150267620Y-95580595D01*
X150267620Y-95580595D02*
X150220001Y-95604404D01*
X150220001Y-95604404D02*
X150053334Y-95604404D01*
X150529525Y-95842500D02*
X150600953Y-95866309D01*
X150600953Y-95866309D02*
X150720001Y-95866309D01*
X150720001Y-95866309D02*
X150767620Y-95842500D01*
X150767620Y-95842500D02*
X150791429Y-95818690D01*
X150791429Y-95818690D02*
X150815239Y-95771071D01*
X150815239Y-95771071D02*
X150815239Y-95723452D01*
X150815239Y-95723452D02*
X150791429Y-95675833D01*
X150791429Y-95675833D02*
X150767620Y-95652023D01*
X150767620Y-95652023D02*
X150720001Y-95628214D01*
X150720001Y-95628214D02*
X150624763Y-95604404D01*
X150624763Y-95604404D02*
X150577144Y-95580595D01*
X150577144Y-95580595D02*
X150553334Y-95556785D01*
X150553334Y-95556785D02*
X150529525Y-95509166D01*
X150529525Y-95509166D02*
X150529525Y-95461547D01*
X150529525Y-95461547D02*
X150553334Y-95413928D01*
X150553334Y-95413928D02*
X150577144Y-95390119D01*
X150577144Y-95390119D02*
X150624763Y-95366309D01*
X150624763Y-95366309D02*
X150743810Y-95366309D01*
X150743810Y-95366309D02*
X150815239Y-95390119D01*
X150958096Y-95366309D02*
X151243810Y-95366309D01*
X151100953Y-95866309D02*
X151100953Y-95366309D01*
X151386667Y-95723452D02*
X151624762Y-95723452D01*
X151339048Y-95866309D02*
X151505714Y-95366309D01*
X151505714Y-95366309D02*
X151672381Y-95866309D01*
X150696190Y-77610119D02*
X150648571Y-77586309D01*
X150648571Y-77586309D02*
X150577142Y-77586309D01*
X150577142Y-77586309D02*
X150505714Y-77610119D01*
X150505714Y-77610119D02*
X150458095Y-77657738D01*
X150458095Y-77657738D02*
X150434285Y-77705357D01*
X150434285Y-77705357D02*
X150410476Y-77800595D01*
X150410476Y-77800595D02*
X150410476Y-77872023D01*
X150410476Y-77872023D02*
X150434285Y-77967261D01*
X150434285Y-77967261D02*
X150458095Y-78014880D01*
X150458095Y-78014880D02*
X150505714Y-78062500D01*
X150505714Y-78062500D02*
X150577142Y-78086309D01*
X150577142Y-78086309D02*
X150624761Y-78086309D01*
X150624761Y-78086309D02*
X150696190Y-78062500D01*
X150696190Y-78062500D02*
X150719999Y-78038690D01*
X150719999Y-78038690D02*
X150719999Y-77872023D01*
X150719999Y-77872023D02*
X150624761Y-77872023D01*
X151172380Y-78086309D02*
X150934285Y-78086309D01*
X150934285Y-78086309D02*
X150934285Y-77586309D01*
X151505714Y-77824404D02*
X151577142Y-77848214D01*
X151577142Y-77848214D02*
X151600952Y-77872023D01*
X151600952Y-77872023D02*
X151624761Y-77919642D01*
X151624761Y-77919642D02*
X151624761Y-77991071D01*
X151624761Y-77991071D02*
X151600952Y-78038690D01*
X151600952Y-78038690D02*
X151577142Y-78062500D01*
X151577142Y-78062500D02*
X151529523Y-78086309D01*
X151529523Y-78086309D02*
X151339047Y-78086309D01*
X151339047Y-78086309D02*
X151339047Y-77586309D01*
X151339047Y-77586309D02*
X151505714Y-77586309D01*
X151505714Y-77586309D02*
X151553333Y-77610119D01*
X151553333Y-77610119D02*
X151577142Y-77633928D01*
X151577142Y-77633928D02*
X151600952Y-77681547D01*
X151600952Y-77681547D02*
X151600952Y-77729166D01*
X151600952Y-77729166D02*
X151577142Y-77776785D01*
X151577142Y-77776785D02*
X151553333Y-77800595D01*
X151553333Y-77800595D02*
X151505714Y-77824404D01*
X151505714Y-77824404D02*
X151339047Y-77824404D01*
X133779047Y-60306309D02*
X133779047Y-59806309D01*
X133779047Y-59806309D02*
X133898095Y-59806309D01*
X133898095Y-59806309D02*
X133969523Y-59830119D01*
X133969523Y-59830119D02*
X134017142Y-59877738D01*
X134017142Y-59877738D02*
X134040952Y-59925357D01*
X134040952Y-59925357D02*
X134064761Y-60020595D01*
X134064761Y-60020595D02*
X134064761Y-60092023D01*
X134064761Y-60092023D02*
X134040952Y-60187261D01*
X134040952Y-60187261D02*
X134017142Y-60234880D01*
X134017142Y-60234880D02*
X133969523Y-60282500D01*
X133969523Y-60282500D02*
X133898095Y-60306309D01*
X133898095Y-60306309D02*
X133779047Y-60306309D01*
X134564761Y-60306309D02*
X134398095Y-60068214D01*
X134279047Y-60306309D02*
X134279047Y-59806309D01*
X134279047Y-59806309D02*
X134469523Y-59806309D01*
X134469523Y-59806309D02*
X134517142Y-59830119D01*
X134517142Y-59830119D02*
X134540952Y-59853928D01*
X134540952Y-59853928D02*
X134564761Y-59901547D01*
X134564761Y-59901547D02*
X134564761Y-59972976D01*
X134564761Y-59972976D02*
X134540952Y-60020595D01*
X134540952Y-60020595D02*
X134517142Y-60044404D01*
X134517142Y-60044404D02*
X134469523Y-60068214D01*
X134469523Y-60068214D02*
X134279047Y-60068214D01*
X134707619Y-59806309D02*
X134874285Y-60306309D01*
X134874285Y-60306309D02*
X135040952Y-59806309D01*
X135302856Y-59806309D02*
X135398094Y-59806309D01*
X135398094Y-59806309D02*
X135445713Y-59830119D01*
X135445713Y-59830119D02*
X135493332Y-59877738D01*
X135493332Y-59877738D02*
X135517142Y-59972976D01*
X135517142Y-59972976D02*
X135517142Y-60139642D01*
X135517142Y-60139642D02*
X135493332Y-60234880D01*
X135493332Y-60234880D02*
X135445713Y-60282500D01*
X135445713Y-60282500D02*
X135398094Y-60306309D01*
X135398094Y-60306309D02*
X135302856Y-60306309D01*
X135302856Y-60306309D02*
X135255237Y-60282500D01*
X135255237Y-60282500D02*
X135207618Y-60234880D01*
X135207618Y-60234880D02*
X135183809Y-60139642D01*
X135183809Y-60139642D02*
X135183809Y-59972976D01*
X135183809Y-59972976D02*
X135207618Y-59877738D01*
X135207618Y-59877738D02*
X135255237Y-59830119D01*
X135255237Y-59830119D02*
X135302856Y-59806309D01*
X135898095Y-60044404D02*
X135731428Y-60044404D01*
X135731428Y-60306309D02*
X135731428Y-59806309D01*
X135731428Y-59806309D02*
X135969523Y-59806309D01*
X136326666Y-60044404D02*
X136159999Y-60044404D01*
X136159999Y-60306309D02*
X136159999Y-59806309D01*
X136159999Y-59806309D02*
X136398094Y-59806309D01*
X150315238Y-72982500D02*
X150386666Y-73006309D01*
X150386666Y-73006309D02*
X150505714Y-73006309D01*
X150505714Y-73006309D02*
X150553333Y-72982500D01*
X150553333Y-72982500D02*
X150577142Y-72958690D01*
X150577142Y-72958690D02*
X150600952Y-72911071D01*
X150600952Y-72911071D02*
X150600952Y-72863452D01*
X150600952Y-72863452D02*
X150577142Y-72815833D01*
X150577142Y-72815833D02*
X150553333Y-72792023D01*
X150553333Y-72792023D02*
X150505714Y-72768214D01*
X150505714Y-72768214D02*
X150410476Y-72744404D01*
X150410476Y-72744404D02*
X150362857Y-72720595D01*
X150362857Y-72720595D02*
X150339047Y-72696785D01*
X150339047Y-72696785D02*
X150315238Y-72649166D01*
X150315238Y-72649166D02*
X150315238Y-72601547D01*
X150315238Y-72601547D02*
X150339047Y-72553928D01*
X150339047Y-72553928D02*
X150362857Y-72530119D01*
X150362857Y-72530119D02*
X150410476Y-72506309D01*
X150410476Y-72506309D02*
X150529523Y-72506309D01*
X150529523Y-72506309D02*
X150600952Y-72530119D01*
X150815237Y-73006309D02*
X150815237Y-72506309D01*
X150815237Y-72744404D02*
X151100951Y-72744404D01*
X151100951Y-73006309D02*
X151100951Y-72506309D01*
X151624761Y-72958690D02*
X151600952Y-72982500D01*
X151600952Y-72982500D02*
X151529523Y-73006309D01*
X151529523Y-73006309D02*
X151481904Y-73006309D01*
X151481904Y-73006309D02*
X151410476Y-72982500D01*
X151410476Y-72982500D02*
X151362857Y-72934880D01*
X151362857Y-72934880D02*
X151339047Y-72887261D01*
X151339047Y-72887261D02*
X151315238Y-72792023D01*
X151315238Y-72792023D02*
X151315238Y-72720595D01*
X151315238Y-72720595D02*
X151339047Y-72625357D01*
X151339047Y-72625357D02*
X151362857Y-72577738D01*
X151362857Y-72577738D02*
X151410476Y-72530119D01*
X151410476Y-72530119D02*
X151481904Y-72506309D01*
X151481904Y-72506309D02*
X151529523Y-72506309D01*
X151529523Y-72506309D02*
X151600952Y-72530119D01*
X151600952Y-72530119D02*
X151624761Y-72553928D01*
X133779047Y-93326309D02*
X133779047Y-92826309D01*
X133779047Y-92826309D02*
X133898095Y-92826309D01*
X133898095Y-92826309D02*
X133969523Y-92850119D01*
X133969523Y-92850119D02*
X134017142Y-92897738D01*
X134017142Y-92897738D02*
X134040952Y-92945357D01*
X134040952Y-92945357D02*
X134064761Y-93040595D01*
X134064761Y-93040595D02*
X134064761Y-93112023D01*
X134064761Y-93112023D02*
X134040952Y-93207261D01*
X134040952Y-93207261D02*
X134017142Y-93254880D01*
X134017142Y-93254880D02*
X133969523Y-93302500D01*
X133969523Y-93302500D02*
X133898095Y-93326309D01*
X133898095Y-93326309D02*
X133779047Y-93326309D01*
X134540952Y-92850119D02*
X134493333Y-92826309D01*
X134493333Y-92826309D02*
X134421904Y-92826309D01*
X134421904Y-92826309D02*
X134350476Y-92850119D01*
X134350476Y-92850119D02*
X134302857Y-92897738D01*
X134302857Y-92897738D02*
X134279047Y-92945357D01*
X134279047Y-92945357D02*
X134255238Y-93040595D01*
X134255238Y-93040595D02*
X134255238Y-93112023D01*
X134255238Y-93112023D02*
X134279047Y-93207261D01*
X134279047Y-93207261D02*
X134302857Y-93254880D01*
X134302857Y-93254880D02*
X134350476Y-93302500D01*
X134350476Y-93302500D02*
X134421904Y-93326309D01*
X134421904Y-93326309D02*
X134469523Y-93326309D01*
X134469523Y-93326309D02*
X134540952Y-93302500D01*
X134540952Y-93302500D02*
X134564761Y-93278690D01*
X134564761Y-93278690D02*
X134564761Y-93112023D01*
X134564761Y-93112023D02*
X134469523Y-93112023D01*
X134779047Y-93326309D02*
X134779047Y-92826309D01*
X134779047Y-92826309D02*
X135064761Y-93326309D01*
X135064761Y-93326309D02*
X135064761Y-92826309D01*
X135302857Y-93326309D02*
X135302857Y-92826309D01*
X135302857Y-92826309D02*
X135421905Y-92826309D01*
X135421905Y-92826309D02*
X135493333Y-92850119D01*
X135493333Y-92850119D02*
X135540952Y-92897738D01*
X135540952Y-92897738D02*
X135564762Y-92945357D01*
X135564762Y-92945357D02*
X135588571Y-93040595D01*
X135588571Y-93040595D02*
X135588571Y-93112023D01*
X135588571Y-93112023D02*
X135564762Y-93207261D01*
X135564762Y-93207261D02*
X135540952Y-93254880D01*
X135540952Y-93254880D02*
X135493333Y-93302500D01*
X135493333Y-93302500D02*
X135421905Y-93326309D01*
X135421905Y-93326309D02*
X135302857Y-93326309D01*
X149815237Y-108566309D02*
X149815237Y-108066309D01*
X149815237Y-108066309D02*
X150005713Y-108066309D01*
X150005713Y-108066309D02*
X150053332Y-108090119D01*
X150053332Y-108090119D02*
X150077142Y-108113928D01*
X150077142Y-108113928D02*
X150100951Y-108161547D01*
X150100951Y-108161547D02*
X150100951Y-108232976D01*
X150100951Y-108232976D02*
X150077142Y-108280595D01*
X150077142Y-108280595D02*
X150053332Y-108304404D01*
X150053332Y-108304404D02*
X150005713Y-108328214D01*
X150005713Y-108328214D02*
X149815237Y-108328214D01*
X150577142Y-108090119D02*
X150529523Y-108066309D01*
X150529523Y-108066309D02*
X150458094Y-108066309D01*
X150458094Y-108066309D02*
X150386666Y-108090119D01*
X150386666Y-108090119D02*
X150339047Y-108137738D01*
X150339047Y-108137738D02*
X150315237Y-108185357D01*
X150315237Y-108185357D02*
X150291428Y-108280595D01*
X150291428Y-108280595D02*
X150291428Y-108352023D01*
X150291428Y-108352023D02*
X150315237Y-108447261D01*
X150315237Y-108447261D02*
X150339047Y-108494880D01*
X150339047Y-108494880D02*
X150386666Y-108542500D01*
X150386666Y-108542500D02*
X150458094Y-108566309D01*
X150458094Y-108566309D02*
X150505713Y-108566309D01*
X150505713Y-108566309D02*
X150577142Y-108542500D01*
X150577142Y-108542500D02*
X150600951Y-108518690D01*
X150600951Y-108518690D02*
X150600951Y-108352023D01*
X150600951Y-108352023D02*
X150505713Y-108352023D01*
X150815237Y-108566309D02*
X150815237Y-108066309D01*
X150815237Y-108066309D02*
X151100951Y-108566309D01*
X151100951Y-108566309D02*
X151100951Y-108066309D01*
X151339047Y-108566309D02*
X151339047Y-108066309D01*
X151339047Y-108066309D02*
X151458095Y-108066309D01*
X151458095Y-108066309D02*
X151529523Y-108090119D01*
X151529523Y-108090119D02*
X151577142Y-108137738D01*
X151577142Y-108137738D02*
X151600952Y-108185357D01*
X151600952Y-108185357D02*
X151624761Y-108280595D01*
X151624761Y-108280595D02*
X151624761Y-108352023D01*
X151624761Y-108352023D02*
X151600952Y-108447261D01*
X151600952Y-108447261D02*
X151577142Y-108494880D01*
X151577142Y-108494880D02*
X151529523Y-108542500D01*
X151529523Y-108542500D02*
X151458095Y-108566309D01*
X151458095Y-108566309D02*
X151339047Y-108566309D01*
X133779047Y-90786309D02*
X133779047Y-90286309D01*
X133779047Y-90286309D02*
X133898095Y-90286309D01*
X133898095Y-90286309D02*
X133969523Y-90310119D01*
X133969523Y-90310119D02*
X134017142Y-90357738D01*
X134017142Y-90357738D02*
X134040952Y-90405357D01*
X134040952Y-90405357D02*
X134064761Y-90500595D01*
X134064761Y-90500595D02*
X134064761Y-90572023D01*
X134064761Y-90572023D02*
X134040952Y-90667261D01*
X134040952Y-90667261D02*
X134017142Y-90714880D01*
X134017142Y-90714880D02*
X133969523Y-90762500D01*
X133969523Y-90762500D02*
X133898095Y-90786309D01*
X133898095Y-90786309D02*
X133779047Y-90786309D01*
X134207619Y-90286309D02*
X134374285Y-90786309D01*
X134374285Y-90786309D02*
X134540952Y-90286309D01*
X134707618Y-90786309D02*
X134707618Y-90286309D01*
X134707618Y-90286309D02*
X134826666Y-90286309D01*
X134826666Y-90286309D02*
X134898094Y-90310119D01*
X134898094Y-90310119D02*
X134945713Y-90357738D01*
X134945713Y-90357738D02*
X134969523Y-90405357D01*
X134969523Y-90405357D02*
X134993332Y-90500595D01*
X134993332Y-90500595D02*
X134993332Y-90572023D01*
X134993332Y-90572023D02*
X134969523Y-90667261D01*
X134969523Y-90667261D02*
X134945713Y-90714880D01*
X134945713Y-90714880D02*
X134898094Y-90762500D01*
X134898094Y-90762500D02*
X134826666Y-90786309D01*
X134826666Y-90786309D02*
X134707618Y-90786309D01*
X135207618Y-90786309D02*
X135207618Y-90286309D01*
X135207618Y-90286309D02*
X135326666Y-90286309D01*
X135326666Y-90286309D02*
X135398094Y-90310119D01*
X135398094Y-90310119D02*
X135445713Y-90357738D01*
X135445713Y-90357738D02*
X135469523Y-90405357D01*
X135469523Y-90405357D02*
X135493332Y-90500595D01*
X135493332Y-90500595D02*
X135493332Y-90572023D01*
X135493332Y-90572023D02*
X135469523Y-90667261D01*
X135469523Y-90667261D02*
X135445713Y-90714880D01*
X135445713Y-90714880D02*
X135398094Y-90762500D01*
X135398094Y-90762500D02*
X135326666Y-90786309D01*
X135326666Y-90786309D02*
X135207618Y-90786309D01*
X133755238Y-65243452D02*
X133993333Y-65243452D01*
X133707619Y-65386309D02*
X133874285Y-64886309D01*
X133874285Y-64886309D02*
X134040952Y-65386309D01*
X134136190Y-64886309D02*
X134302856Y-65386309D01*
X134302856Y-65386309D02*
X134469523Y-64886309D01*
X134636189Y-65386309D02*
X134636189Y-64886309D01*
X134636189Y-64886309D02*
X134755237Y-64886309D01*
X134755237Y-64886309D02*
X134826665Y-64910119D01*
X134826665Y-64910119D02*
X134874284Y-64957738D01*
X134874284Y-64957738D02*
X134898094Y-65005357D01*
X134898094Y-65005357D02*
X134921903Y-65100595D01*
X134921903Y-65100595D02*
X134921903Y-65172023D01*
X134921903Y-65172023D02*
X134898094Y-65267261D01*
X134898094Y-65267261D02*
X134874284Y-65314880D01*
X134874284Y-65314880D02*
X134826665Y-65362500D01*
X134826665Y-65362500D02*
X134755237Y-65386309D01*
X134755237Y-65386309D02*
X134636189Y-65386309D01*
X135136189Y-65386309D02*
X135136189Y-64886309D01*
X135136189Y-64886309D02*
X135255237Y-64886309D01*
X135255237Y-64886309D02*
X135326665Y-64910119D01*
X135326665Y-64910119D02*
X135374284Y-64957738D01*
X135374284Y-64957738D02*
X135398094Y-65005357D01*
X135398094Y-65005357D02*
X135421903Y-65100595D01*
X135421903Y-65100595D02*
X135421903Y-65172023D01*
X135421903Y-65172023D02*
X135398094Y-65267261D01*
X135398094Y-65267261D02*
X135374284Y-65314880D01*
X135374284Y-65314880D02*
X135326665Y-65362500D01*
X135326665Y-65362500D02*
X135255237Y-65386309D01*
X135255237Y-65386309D02*
X135136189Y-65386309D01*
X149910476Y-106026309D02*
X149910476Y-105526309D01*
X149910476Y-105526309D02*
X150100952Y-105526309D01*
X150100952Y-105526309D02*
X150148571Y-105550119D01*
X150148571Y-105550119D02*
X150172381Y-105573928D01*
X150172381Y-105573928D02*
X150196190Y-105621547D01*
X150196190Y-105621547D02*
X150196190Y-105692976D01*
X150196190Y-105692976D02*
X150172381Y-105740595D01*
X150172381Y-105740595D02*
X150148571Y-105764404D01*
X150148571Y-105764404D02*
X150100952Y-105788214D01*
X150100952Y-105788214D02*
X149910476Y-105788214D01*
X150339048Y-105526309D02*
X150505714Y-106026309D01*
X150505714Y-106026309D02*
X150672381Y-105526309D01*
X150839047Y-106026309D02*
X150839047Y-105526309D01*
X150839047Y-105526309D02*
X150958095Y-105526309D01*
X150958095Y-105526309D02*
X151029523Y-105550119D01*
X151029523Y-105550119D02*
X151077142Y-105597738D01*
X151077142Y-105597738D02*
X151100952Y-105645357D01*
X151100952Y-105645357D02*
X151124761Y-105740595D01*
X151124761Y-105740595D02*
X151124761Y-105812023D01*
X151124761Y-105812023D02*
X151100952Y-105907261D01*
X151100952Y-105907261D02*
X151077142Y-105954880D01*
X151077142Y-105954880D02*
X151029523Y-106002500D01*
X151029523Y-106002500D02*
X150958095Y-106026309D01*
X150958095Y-106026309D02*
X150839047Y-106026309D01*
X151339047Y-106026309D02*
X151339047Y-105526309D01*
X151339047Y-105526309D02*
X151458095Y-105526309D01*
X151458095Y-105526309D02*
X151529523Y-105550119D01*
X151529523Y-105550119D02*
X151577142Y-105597738D01*
X151577142Y-105597738D02*
X151600952Y-105645357D01*
X151600952Y-105645357D02*
X151624761Y-105740595D01*
X151624761Y-105740595D02*
X151624761Y-105812023D01*
X151624761Y-105812023D02*
X151600952Y-105907261D01*
X151600952Y-105907261D02*
X151577142Y-105954880D01*
X151577142Y-105954880D02*
X151529523Y-106002500D01*
X151529523Y-106002500D02*
X151458095Y-106026309D01*
X151458095Y-106026309D02*
X151339047Y-106026309D01*
X150148572Y-75284404D02*
X150220000Y-75308214D01*
X150220000Y-75308214D02*
X150243810Y-75332023D01*
X150243810Y-75332023D02*
X150267619Y-75379642D01*
X150267619Y-75379642D02*
X150267619Y-75451071D01*
X150267619Y-75451071D02*
X150243810Y-75498690D01*
X150243810Y-75498690D02*
X150220000Y-75522500D01*
X150220000Y-75522500D02*
X150172381Y-75546309D01*
X150172381Y-75546309D02*
X149981905Y-75546309D01*
X149981905Y-75546309D02*
X149981905Y-75046309D01*
X149981905Y-75046309D02*
X150148572Y-75046309D01*
X150148572Y-75046309D02*
X150196191Y-75070119D01*
X150196191Y-75070119D02*
X150220000Y-75093928D01*
X150220000Y-75093928D02*
X150243810Y-75141547D01*
X150243810Y-75141547D02*
X150243810Y-75189166D01*
X150243810Y-75189166D02*
X150220000Y-75236785D01*
X150220000Y-75236785D02*
X150196191Y-75260595D01*
X150196191Y-75260595D02*
X150148572Y-75284404D01*
X150148572Y-75284404D02*
X149981905Y-75284404D01*
X150458096Y-75522500D02*
X150529524Y-75546309D01*
X150529524Y-75546309D02*
X150648572Y-75546309D01*
X150648572Y-75546309D02*
X150696191Y-75522500D01*
X150696191Y-75522500D02*
X150720000Y-75498690D01*
X150720000Y-75498690D02*
X150743810Y-75451071D01*
X150743810Y-75451071D02*
X150743810Y-75403452D01*
X150743810Y-75403452D02*
X150720000Y-75355833D01*
X150720000Y-75355833D02*
X150696191Y-75332023D01*
X150696191Y-75332023D02*
X150648572Y-75308214D01*
X150648572Y-75308214D02*
X150553334Y-75284404D01*
X150553334Y-75284404D02*
X150505715Y-75260595D01*
X150505715Y-75260595D02*
X150481905Y-75236785D01*
X150481905Y-75236785D02*
X150458096Y-75189166D01*
X150458096Y-75189166D02*
X150458096Y-75141547D01*
X150458096Y-75141547D02*
X150481905Y-75093928D01*
X150481905Y-75093928D02*
X150505715Y-75070119D01*
X150505715Y-75070119D02*
X150553334Y-75046309D01*
X150553334Y-75046309D02*
X150672381Y-75046309D01*
X150672381Y-75046309D02*
X150743810Y-75070119D01*
X150886667Y-75046309D02*
X151172381Y-75046309D01*
X151029524Y-75546309D02*
X151029524Y-75046309D01*
X151624761Y-75498690D02*
X151600952Y-75522500D01*
X151600952Y-75522500D02*
X151529523Y-75546309D01*
X151529523Y-75546309D02*
X151481904Y-75546309D01*
X151481904Y-75546309D02*
X151410476Y-75522500D01*
X151410476Y-75522500D02*
X151362857Y-75474880D01*
X151362857Y-75474880D02*
X151339047Y-75427261D01*
X151339047Y-75427261D02*
X151315238Y-75332023D01*
X151315238Y-75332023D02*
X151315238Y-75260595D01*
X151315238Y-75260595D02*
X151339047Y-75165357D01*
X151339047Y-75165357D02*
X151362857Y-75117738D01*
X151362857Y-75117738D02*
X151410476Y-75070119D01*
X151410476Y-75070119D02*
X151481904Y-75046309D01*
X151481904Y-75046309D02*
X151529523Y-75046309D01*
X151529523Y-75046309D02*
X151600952Y-75070119D01*
X151600952Y-75070119D02*
X151624761Y-75093928D01*
X133779047Y-87912976D02*
X133779047Y-88246309D01*
X133779047Y-87960595D02*
X133802857Y-87936785D01*
X133802857Y-87936785D02*
X133850476Y-87912976D01*
X133850476Y-87912976D02*
X133921904Y-87912976D01*
X133921904Y-87912976D02*
X133969523Y-87936785D01*
X133969523Y-87936785D02*
X133993333Y-87984404D01*
X133993333Y-87984404D02*
X133993333Y-88246309D01*
X134398095Y-87984404D02*
X134231428Y-87984404D01*
X134231428Y-88246309D02*
X134231428Y-87746309D01*
X134231428Y-87746309D02*
X134469523Y-87746309D01*
X134636190Y-88103452D02*
X134874285Y-88103452D01*
X134588571Y-88246309D02*
X134755237Y-87746309D01*
X134755237Y-87746309D02*
X134921904Y-88246309D01*
X135088570Y-87746309D02*
X135088570Y-88151071D01*
X135088570Y-88151071D02*
X135112380Y-88198690D01*
X135112380Y-88198690D02*
X135136189Y-88222500D01*
X135136189Y-88222500D02*
X135183808Y-88246309D01*
X135183808Y-88246309D02*
X135279046Y-88246309D01*
X135279046Y-88246309D02*
X135326665Y-88222500D01*
X135326665Y-88222500D02*
X135350475Y-88198690D01*
X135350475Y-88198690D02*
X135374284Y-88151071D01*
X135374284Y-88151071D02*
X135374284Y-87746309D01*
X135850475Y-88246309D02*
X135612380Y-88246309D01*
X135612380Y-88246309D02*
X135612380Y-87746309D01*
X135945714Y-87746309D02*
X136231428Y-87746309D01*
X136088571Y-88246309D02*
X136088571Y-87746309D01*
X150600951Y-100898690D02*
X150577142Y-100922500D01*
X150577142Y-100922500D02*
X150505713Y-100946309D01*
X150505713Y-100946309D02*
X150458094Y-100946309D01*
X150458094Y-100946309D02*
X150386666Y-100922500D01*
X150386666Y-100922500D02*
X150339047Y-100874880D01*
X150339047Y-100874880D02*
X150315237Y-100827261D01*
X150315237Y-100827261D02*
X150291428Y-100732023D01*
X150291428Y-100732023D02*
X150291428Y-100660595D01*
X150291428Y-100660595D02*
X150315237Y-100565357D01*
X150315237Y-100565357D02*
X150339047Y-100517738D01*
X150339047Y-100517738D02*
X150386666Y-100470119D01*
X150386666Y-100470119D02*
X150458094Y-100446309D01*
X150458094Y-100446309D02*
X150505713Y-100446309D01*
X150505713Y-100446309D02*
X150577142Y-100470119D01*
X150577142Y-100470119D02*
X150600951Y-100493928D01*
X150815237Y-100946309D02*
X150815237Y-100446309D01*
X150815237Y-100446309D02*
X151005713Y-100446309D01*
X151005713Y-100446309D02*
X151053332Y-100470119D01*
X151053332Y-100470119D02*
X151077142Y-100493928D01*
X151077142Y-100493928D02*
X151100951Y-100541547D01*
X151100951Y-100541547D02*
X151100951Y-100612976D01*
X151100951Y-100612976D02*
X151077142Y-100660595D01*
X151077142Y-100660595D02*
X151053332Y-100684404D01*
X151053332Y-100684404D02*
X151005713Y-100708214D01*
X151005713Y-100708214D02*
X150815237Y-100708214D01*
X151315237Y-100946309D02*
X151315237Y-100446309D01*
X151315237Y-100684404D02*
X151600951Y-100684404D01*
X151600951Y-100946309D02*
X151600951Y-100446309D01*
X133755238Y-62703452D02*
X133993333Y-62703452D01*
X133707619Y-62846309D02*
X133874285Y-62346309D01*
X133874285Y-62346309D02*
X134040952Y-62846309D01*
X134469523Y-62370119D02*
X134421904Y-62346309D01*
X134421904Y-62346309D02*
X134350475Y-62346309D01*
X134350475Y-62346309D02*
X134279047Y-62370119D01*
X134279047Y-62370119D02*
X134231428Y-62417738D01*
X134231428Y-62417738D02*
X134207618Y-62465357D01*
X134207618Y-62465357D02*
X134183809Y-62560595D01*
X134183809Y-62560595D02*
X134183809Y-62632023D01*
X134183809Y-62632023D02*
X134207618Y-62727261D01*
X134207618Y-62727261D02*
X134231428Y-62774880D01*
X134231428Y-62774880D02*
X134279047Y-62822500D01*
X134279047Y-62822500D02*
X134350475Y-62846309D01*
X134350475Y-62846309D02*
X134398094Y-62846309D01*
X134398094Y-62846309D02*
X134469523Y-62822500D01*
X134469523Y-62822500D02*
X134493332Y-62798690D01*
X134493332Y-62798690D02*
X134493332Y-62632023D01*
X134493332Y-62632023D02*
X134398094Y-62632023D01*
X134707618Y-62846309D02*
X134707618Y-62346309D01*
X134707618Y-62346309D02*
X134993332Y-62846309D01*
X134993332Y-62846309D02*
X134993332Y-62346309D01*
X135231428Y-62846309D02*
X135231428Y-62346309D01*
X135231428Y-62346309D02*
X135350476Y-62346309D01*
X135350476Y-62346309D02*
X135421904Y-62370119D01*
X135421904Y-62370119D02*
X135469523Y-62417738D01*
X135469523Y-62417738D02*
X135493333Y-62465357D01*
X135493333Y-62465357D02*
X135517142Y-62560595D01*
X135517142Y-62560595D02*
X135517142Y-62632023D01*
X135517142Y-62632023D02*
X135493333Y-62727261D01*
X135493333Y-62727261D02*
X135469523Y-62774880D01*
X135469523Y-62774880D02*
X135421904Y-62822500D01*
X135421904Y-62822500D02*
X135350476Y-62846309D01*
X135350476Y-62846309D02*
X135231428Y-62846309D01*
X133945714Y-85444404D02*
X134017142Y-85468214D01*
X134017142Y-85468214D02*
X134040952Y-85492023D01*
X134040952Y-85492023D02*
X134064761Y-85539642D01*
X134064761Y-85539642D02*
X134064761Y-85611071D01*
X134064761Y-85611071D02*
X134040952Y-85658690D01*
X134040952Y-85658690D02*
X134017142Y-85682500D01*
X134017142Y-85682500D02*
X133969523Y-85706309D01*
X133969523Y-85706309D02*
X133779047Y-85706309D01*
X133779047Y-85706309D02*
X133779047Y-85206309D01*
X133779047Y-85206309D02*
X133945714Y-85206309D01*
X133945714Y-85206309D02*
X133993333Y-85230119D01*
X133993333Y-85230119D02*
X134017142Y-85253928D01*
X134017142Y-85253928D02*
X134040952Y-85301547D01*
X134040952Y-85301547D02*
X134040952Y-85349166D01*
X134040952Y-85349166D02*
X134017142Y-85396785D01*
X134017142Y-85396785D02*
X133993333Y-85420595D01*
X133993333Y-85420595D02*
X133945714Y-85444404D01*
X133945714Y-85444404D02*
X133779047Y-85444404D01*
X134564761Y-85706309D02*
X134398095Y-85468214D01*
X134279047Y-85706309D02*
X134279047Y-85206309D01*
X134279047Y-85206309D02*
X134469523Y-85206309D01*
X134469523Y-85206309D02*
X134517142Y-85230119D01*
X134517142Y-85230119D02*
X134540952Y-85253928D01*
X134540952Y-85253928D02*
X134564761Y-85301547D01*
X134564761Y-85301547D02*
X134564761Y-85372976D01*
X134564761Y-85372976D02*
X134540952Y-85420595D01*
X134540952Y-85420595D02*
X134517142Y-85444404D01*
X134517142Y-85444404D02*
X134469523Y-85468214D01*
X134469523Y-85468214D02*
X134279047Y-85468214D01*
X134755238Y-85563452D02*
X134993333Y-85563452D01*
X134707619Y-85706309D02*
X134874285Y-85206309D01*
X134874285Y-85206309D02*
X135040952Y-85706309D01*
X135207618Y-85706309D02*
X135207618Y-85206309D01*
X135493332Y-85706309D02*
X135279047Y-85420595D01*
X135493332Y-85206309D02*
X135207618Y-85492023D01*
X135707618Y-85444404D02*
X135874285Y-85444404D01*
X135945713Y-85706309D02*
X135707618Y-85706309D01*
X135707618Y-85706309D02*
X135707618Y-85206309D01*
X135707618Y-85206309D02*
X135945713Y-85206309D01*
X150719999Y-103438690D02*
X150696190Y-103462500D01*
X150696190Y-103462500D02*
X150624761Y-103486309D01*
X150624761Y-103486309D02*
X150577142Y-103486309D01*
X150577142Y-103486309D02*
X150505714Y-103462500D01*
X150505714Y-103462500D02*
X150458095Y-103414880D01*
X150458095Y-103414880D02*
X150434285Y-103367261D01*
X150434285Y-103367261D02*
X150410476Y-103272023D01*
X150410476Y-103272023D02*
X150410476Y-103200595D01*
X150410476Y-103200595D02*
X150434285Y-103105357D01*
X150434285Y-103105357D02*
X150458095Y-103057738D01*
X150458095Y-103057738D02*
X150505714Y-103010119D01*
X150505714Y-103010119D02*
X150577142Y-102986309D01*
X150577142Y-102986309D02*
X150624761Y-102986309D01*
X150624761Y-102986309D02*
X150696190Y-103010119D01*
X150696190Y-103010119D02*
X150719999Y-103033928D01*
X150934285Y-103486309D02*
X150934285Y-102986309D01*
X150934285Y-102986309D02*
X151124761Y-102986309D01*
X151124761Y-102986309D02*
X151172380Y-103010119D01*
X151172380Y-103010119D02*
X151196190Y-103033928D01*
X151196190Y-103033928D02*
X151219999Y-103081547D01*
X151219999Y-103081547D02*
X151219999Y-103152976D01*
X151219999Y-103152976D02*
X151196190Y-103200595D01*
X151196190Y-103200595D02*
X151172380Y-103224404D01*
X151172380Y-103224404D02*
X151124761Y-103248214D01*
X151124761Y-103248214D02*
X150934285Y-103248214D01*
X151672380Y-103486309D02*
X151434285Y-103486309D01*
X151434285Y-103486309D02*
X151434285Y-102986309D01*
D11*
X140803096Y-60105654D02*
X140803096Y-59855654D01*
X140803096Y-59855654D02*
X140886430Y-60034226D01*
X140886430Y-60034226D02*
X140969763Y-59855654D01*
X140969763Y-59855654D02*
X140969763Y-60105654D01*
X141195953Y-60105654D02*
X141195953Y-59974702D01*
X141195953Y-59974702D02*
X141184048Y-59950892D01*
X141184048Y-59950892D02*
X141160239Y-59938988D01*
X141160239Y-59938988D02*
X141112620Y-59938988D01*
X141112620Y-59938988D02*
X141088810Y-59950892D01*
X141195953Y-60093750D02*
X141172144Y-60105654D01*
X141172144Y-60105654D02*
X141112620Y-60105654D01*
X141112620Y-60105654D02*
X141088810Y-60093750D01*
X141088810Y-60093750D02*
X141076906Y-60069940D01*
X141076906Y-60069940D02*
X141076906Y-60046130D01*
X141076906Y-60046130D02*
X141088810Y-60022321D01*
X141088810Y-60022321D02*
X141112620Y-60010416D01*
X141112620Y-60010416D02*
X141172144Y-60010416D01*
X141172144Y-60010416D02*
X141195953Y-59998511D01*
X141422143Y-60105654D02*
X141422143Y-59855654D01*
X141422143Y-60093750D02*
X141398334Y-60105654D01*
X141398334Y-60105654D02*
X141350715Y-60105654D01*
X141350715Y-60105654D02*
X141326905Y-60093750D01*
X141326905Y-60093750D02*
X141315000Y-60081845D01*
X141315000Y-60081845D02*
X141303096Y-60058035D01*
X141303096Y-60058035D02*
X141303096Y-59986607D01*
X141303096Y-59986607D02*
X141315000Y-59962797D01*
X141315000Y-59962797D02*
X141326905Y-59950892D01*
X141326905Y-59950892D02*
X141350715Y-59938988D01*
X141350715Y-59938988D02*
X141398334Y-59938988D01*
X141398334Y-59938988D02*
X141422143Y-59950892D01*
X141636428Y-60093750D02*
X141612619Y-60105654D01*
X141612619Y-60105654D02*
X141565000Y-60105654D01*
X141565000Y-60105654D02*
X141541190Y-60093750D01*
X141541190Y-60093750D02*
X141529286Y-60069940D01*
X141529286Y-60069940D02*
X141529286Y-59974702D01*
X141529286Y-59974702D02*
X141541190Y-59950892D01*
X141541190Y-59950892D02*
X141565000Y-59938988D01*
X141565000Y-59938988D02*
X141612619Y-59938988D01*
X141612619Y-59938988D02*
X141636428Y-59950892D01*
X141636428Y-59950892D02*
X141648333Y-59974702D01*
X141648333Y-59974702D02*
X141648333Y-59998511D01*
X141648333Y-59998511D02*
X141529286Y-60022321D01*
X141945952Y-60105654D02*
X141945952Y-59855654D01*
X141945952Y-59950892D02*
X141969762Y-59938988D01*
X141969762Y-59938988D02*
X142017381Y-59938988D01*
X142017381Y-59938988D02*
X142041190Y-59950892D01*
X142041190Y-59950892D02*
X142053095Y-59962797D01*
X142053095Y-59962797D02*
X142065000Y-59986607D01*
X142065000Y-59986607D02*
X142065000Y-60058035D01*
X142065000Y-60058035D02*
X142053095Y-60081845D01*
X142053095Y-60081845D02*
X142041190Y-60093750D01*
X142041190Y-60093750D02*
X142017381Y-60105654D01*
X142017381Y-60105654D02*
X141969762Y-60105654D01*
X141969762Y-60105654D02*
X141945952Y-60093750D01*
X142148333Y-59938988D02*
X142207857Y-60105654D01*
X142267380Y-59938988D02*
X142207857Y-60105654D01*
X142207857Y-60105654D02*
X142184047Y-60165178D01*
X142184047Y-60165178D02*
X142172142Y-60177083D01*
X142172142Y-60177083D02*
X142148333Y-60188988D01*
X142636428Y-59974702D02*
X142672142Y-59986607D01*
X142672142Y-59986607D02*
X142684047Y-59998511D01*
X142684047Y-59998511D02*
X142695951Y-60022321D01*
X142695951Y-60022321D02*
X142695951Y-60058035D01*
X142695951Y-60058035D02*
X142684047Y-60081845D01*
X142684047Y-60081845D02*
X142672142Y-60093750D01*
X142672142Y-60093750D02*
X142648332Y-60105654D01*
X142648332Y-60105654D02*
X142553094Y-60105654D01*
X142553094Y-60105654D02*
X142553094Y-59855654D01*
X142553094Y-59855654D02*
X142636428Y-59855654D01*
X142636428Y-59855654D02*
X142660237Y-59867559D01*
X142660237Y-59867559D02*
X142672142Y-59879464D01*
X142672142Y-59879464D02*
X142684047Y-59903273D01*
X142684047Y-59903273D02*
X142684047Y-59927083D01*
X142684047Y-59927083D02*
X142672142Y-59950892D01*
X142672142Y-59950892D02*
X142660237Y-59962797D01*
X142660237Y-59962797D02*
X142636428Y-59974702D01*
X142636428Y-59974702D02*
X142553094Y-59974702D01*
X142803094Y-60105654D02*
X142803094Y-59938988D01*
X142803094Y-59855654D02*
X142791190Y-59867559D01*
X142791190Y-59867559D02*
X142803094Y-59879464D01*
X142803094Y-59879464D02*
X142814999Y-59867559D01*
X142814999Y-59867559D02*
X142803094Y-59855654D01*
X142803094Y-59855654D02*
X142803094Y-59879464D01*
X142910238Y-60093750D02*
X142934047Y-60105654D01*
X142934047Y-60105654D02*
X142981666Y-60105654D01*
X142981666Y-60105654D02*
X143005476Y-60093750D01*
X143005476Y-60093750D02*
X143017380Y-60069940D01*
X143017380Y-60069940D02*
X143017380Y-60058035D01*
X143017380Y-60058035D02*
X143005476Y-60034226D01*
X143005476Y-60034226D02*
X142981666Y-60022321D01*
X142981666Y-60022321D02*
X142945952Y-60022321D01*
X142945952Y-60022321D02*
X142922142Y-60010416D01*
X142922142Y-60010416D02*
X142910238Y-59986607D01*
X142910238Y-59986607D02*
X142910238Y-59974702D01*
X142910238Y-59974702D02*
X142922142Y-59950892D01*
X142922142Y-59950892D02*
X142945952Y-59938988D01*
X142945952Y-59938988D02*
X142981666Y-59938988D01*
X142981666Y-59938988D02*
X143005476Y-59950892D01*
X143231666Y-60093750D02*
X143207857Y-60105654D01*
X143207857Y-60105654D02*
X143160238Y-60105654D01*
X143160238Y-60105654D02*
X143136428Y-60093750D01*
X143136428Y-60093750D02*
X143124523Y-60081845D01*
X143124523Y-60081845D02*
X143112619Y-60058035D01*
X143112619Y-60058035D02*
X143112619Y-59986607D01*
X143112619Y-59986607D02*
X143124523Y-59962797D01*
X143124523Y-59962797D02*
X143136428Y-59950892D01*
X143136428Y-59950892D02*
X143160238Y-59938988D01*
X143160238Y-59938988D02*
X143207857Y-59938988D01*
X143207857Y-59938988D02*
X143231666Y-59950892D01*
X143445952Y-59938988D02*
X143445952Y-60105654D01*
X143338809Y-59938988D02*
X143338809Y-60069940D01*
X143338809Y-60069940D02*
X143350714Y-60093750D01*
X143350714Y-60093750D02*
X143374524Y-60105654D01*
X143374524Y-60105654D02*
X143410238Y-60105654D01*
X143410238Y-60105654D02*
X143434047Y-60093750D01*
X143434047Y-60093750D02*
X143445952Y-60081845D01*
X143564999Y-60105654D02*
X143564999Y-59938988D01*
X143564999Y-59855654D02*
X143553095Y-59867559D01*
X143553095Y-59867559D02*
X143564999Y-59879464D01*
X143564999Y-59879464D02*
X143576904Y-59867559D01*
X143576904Y-59867559D02*
X143564999Y-59855654D01*
X143564999Y-59855654D02*
X143564999Y-59879464D01*
X143648333Y-59938988D02*
X143743571Y-59938988D01*
X143684047Y-59855654D02*
X143684047Y-60069940D01*
X143684047Y-60069940D02*
X143695952Y-60093750D01*
X143695952Y-60093750D02*
X143719762Y-60105654D01*
X143719762Y-60105654D02*
X143743571Y-60105654D01*
X143815000Y-60093750D02*
X143838809Y-60105654D01*
X143838809Y-60105654D02*
X143886428Y-60105654D01*
X143886428Y-60105654D02*
X143910238Y-60093750D01*
X143910238Y-60093750D02*
X143922142Y-60069940D01*
X143922142Y-60069940D02*
X143922142Y-60058035D01*
X143922142Y-60058035D02*
X143910238Y-60034226D01*
X143910238Y-60034226D02*
X143886428Y-60022321D01*
X143886428Y-60022321D02*
X143850714Y-60022321D01*
X143850714Y-60022321D02*
X143826904Y-60010416D01*
X143826904Y-60010416D02*
X143815000Y-59986607D01*
X143815000Y-59986607D02*
X143815000Y-59974702D01*
X143815000Y-59974702D02*
X143826904Y-59950892D01*
X143826904Y-59950892D02*
X143850714Y-59938988D01*
X143850714Y-59938988D02*
X143886428Y-59938988D01*
X143886428Y-59938988D02*
X143910238Y-59950892D01*
X144017381Y-59879464D02*
X144029285Y-59867559D01*
X144029285Y-59867559D02*
X144053095Y-59855654D01*
X144053095Y-59855654D02*
X144112619Y-59855654D01*
X144112619Y-59855654D02*
X144136428Y-59867559D01*
X144136428Y-59867559D02*
X144148333Y-59879464D01*
X144148333Y-59879464D02*
X144160238Y-59903273D01*
X144160238Y-59903273D02*
X144160238Y-59927083D01*
X144160238Y-59927083D02*
X144148333Y-59962797D01*
X144148333Y-59962797D02*
X144005476Y-60105654D01*
X144005476Y-60105654D02*
X144160238Y-60105654D01*
X144374523Y-59938988D02*
X144374523Y-60105654D01*
X144314999Y-59843750D02*
X144255476Y-60022321D01*
X144255476Y-60022321D02*
X144410237Y-60022321D01*
X144445952Y-60129464D02*
X144636428Y-60129464D01*
D10*
X150577142Y-69990119D02*
X150529523Y-69966309D01*
X150529523Y-69966309D02*
X150458094Y-69966309D01*
X150458094Y-69966309D02*
X150386666Y-69990119D01*
X150386666Y-69990119D02*
X150339047Y-70037738D01*
X150339047Y-70037738D02*
X150315237Y-70085357D01*
X150315237Y-70085357D02*
X150291428Y-70180595D01*
X150291428Y-70180595D02*
X150291428Y-70252023D01*
X150291428Y-70252023D02*
X150315237Y-70347261D01*
X150315237Y-70347261D02*
X150339047Y-70394880D01*
X150339047Y-70394880D02*
X150386666Y-70442500D01*
X150386666Y-70442500D02*
X150458094Y-70466309D01*
X150458094Y-70466309D02*
X150505713Y-70466309D01*
X150505713Y-70466309D02*
X150577142Y-70442500D01*
X150577142Y-70442500D02*
X150600951Y-70418690D01*
X150600951Y-70418690D02*
X150600951Y-70252023D01*
X150600951Y-70252023D02*
X150505713Y-70252023D01*
X150815237Y-70466309D02*
X150815237Y-69966309D01*
X150815237Y-70204404D02*
X151100951Y-70204404D01*
X151100951Y-70466309D02*
X151100951Y-69966309D01*
X151624761Y-70418690D02*
X151600952Y-70442500D01*
X151600952Y-70442500D02*
X151529523Y-70466309D01*
X151529523Y-70466309D02*
X151481904Y-70466309D01*
X151481904Y-70466309D02*
X151410476Y-70442500D01*
X151410476Y-70442500D02*
X151362857Y-70394880D01*
X151362857Y-70394880D02*
X151339047Y-70347261D01*
X151339047Y-70347261D02*
X151315238Y-70252023D01*
X151315238Y-70252023D02*
X151315238Y-70180595D01*
X151315238Y-70180595D02*
X151339047Y-70085357D01*
X151339047Y-70085357D02*
X151362857Y-70037738D01*
X151362857Y-70037738D02*
X151410476Y-69990119D01*
X151410476Y-69990119D02*
X151481904Y-69966309D01*
X151481904Y-69966309D02*
X151529523Y-69966309D01*
X151529523Y-69966309D02*
X151600952Y-69990119D01*
X151600952Y-69990119D02*
X151624761Y-70013928D01*
X133779047Y-82356309D02*
X133779047Y-81856309D01*
X133779047Y-81856309D02*
X133898095Y-81856309D01*
X133898095Y-81856309D02*
X133969523Y-81880119D01*
X133969523Y-81880119D02*
X134017142Y-81927738D01*
X134017142Y-81927738D02*
X134040952Y-81975357D01*
X134040952Y-81975357D02*
X134064761Y-82070595D01*
X134064761Y-82070595D02*
X134064761Y-82142023D01*
X134064761Y-82142023D02*
X134040952Y-82237261D01*
X134040952Y-82237261D02*
X134017142Y-82284880D01*
X134017142Y-82284880D02*
X133969523Y-82332500D01*
X133969523Y-82332500D02*
X133898095Y-82356309D01*
X133898095Y-82356309D02*
X133779047Y-82356309D01*
X134255238Y-82213452D02*
X134493333Y-82213452D01*
X134207619Y-82356309D02*
X134374285Y-81856309D01*
X134374285Y-81856309D02*
X134540952Y-82356309D01*
X134993332Y-82308690D02*
X134969523Y-82332500D01*
X134969523Y-82332500D02*
X134898094Y-82356309D01*
X134898094Y-82356309D02*
X134850475Y-82356309D01*
X134850475Y-82356309D02*
X134779047Y-82332500D01*
X134779047Y-82332500D02*
X134731428Y-82284880D01*
X134731428Y-82284880D02*
X134707618Y-82237261D01*
X134707618Y-82237261D02*
X134683809Y-82142023D01*
X134683809Y-82142023D02*
X134683809Y-82070595D01*
X134683809Y-82070595D02*
X134707618Y-81975357D01*
X134707618Y-81975357D02*
X134731428Y-81927738D01*
X134731428Y-81927738D02*
X134779047Y-81880119D01*
X134779047Y-81880119D02*
X134850475Y-81856309D01*
X134850475Y-81856309D02*
X134898094Y-81856309D01*
X134898094Y-81856309D02*
X134969523Y-81880119D01*
X134969523Y-81880119D02*
X134993332Y-81903928D01*
X135302856Y-81856309D02*
X135398094Y-81856309D01*
X135398094Y-81856309D02*
X135445713Y-81880119D01*
X135445713Y-81880119D02*
X135493332Y-81927738D01*
X135493332Y-81927738D02*
X135517142Y-82022976D01*
X135517142Y-82022976D02*
X135517142Y-82189642D01*
X135517142Y-82189642D02*
X135493332Y-82284880D01*
X135493332Y-82284880D02*
X135445713Y-82332500D01*
X135445713Y-82332500D02*
X135398094Y-82356309D01*
X135398094Y-82356309D02*
X135302856Y-82356309D01*
X135302856Y-82356309D02*
X135255237Y-82332500D01*
X135255237Y-82332500D02*
X135207618Y-82284880D01*
X135207618Y-82284880D02*
X135183809Y-82189642D01*
X135183809Y-82189642D02*
X135183809Y-82022976D01*
X135183809Y-82022976D02*
X135207618Y-81927738D01*
X135207618Y-81927738D02*
X135255237Y-81880119D01*
X135255237Y-81880119D02*
X135302856Y-81856309D01*
X135731428Y-81856309D02*
X135731428Y-82261071D01*
X135731428Y-82261071D02*
X135755238Y-82308690D01*
X135755238Y-82308690D02*
X135779047Y-82332500D01*
X135779047Y-82332500D02*
X135826666Y-82356309D01*
X135826666Y-82356309D02*
X135921904Y-82356309D01*
X135921904Y-82356309D02*
X135969523Y-82332500D01*
X135969523Y-82332500D02*
X135993333Y-82308690D01*
X135993333Y-82308690D02*
X136017142Y-82261071D01*
X136017142Y-82261071D02*
X136017142Y-81856309D01*
X136183810Y-81856309D02*
X136469524Y-81856309D01*
X136326667Y-82356309D02*
X136326667Y-81856309D01*
X133755238Y-83142500D02*
X133826666Y-83166309D01*
X133826666Y-83166309D02*
X133945714Y-83166309D01*
X133945714Y-83166309D02*
X133993333Y-83142500D01*
X133993333Y-83142500D02*
X134017142Y-83118690D01*
X134017142Y-83118690D02*
X134040952Y-83071071D01*
X134040952Y-83071071D02*
X134040952Y-83023452D01*
X134040952Y-83023452D02*
X134017142Y-82975833D01*
X134017142Y-82975833D02*
X133993333Y-82952023D01*
X133993333Y-82952023D02*
X133945714Y-82928214D01*
X133945714Y-82928214D02*
X133850476Y-82904404D01*
X133850476Y-82904404D02*
X133802857Y-82880595D01*
X133802857Y-82880595D02*
X133779047Y-82856785D01*
X133779047Y-82856785D02*
X133755238Y-82809166D01*
X133755238Y-82809166D02*
X133755238Y-82761547D01*
X133755238Y-82761547D02*
X133779047Y-82713928D01*
X133779047Y-82713928D02*
X133802857Y-82690119D01*
X133802857Y-82690119D02*
X133850476Y-82666309D01*
X133850476Y-82666309D02*
X133969523Y-82666309D01*
X133969523Y-82666309D02*
X134040952Y-82690119D01*
X134350475Y-82666309D02*
X134445713Y-82666309D01*
X134445713Y-82666309D02*
X134493332Y-82690119D01*
X134493332Y-82690119D02*
X134540951Y-82737738D01*
X134540951Y-82737738D02*
X134564761Y-82832976D01*
X134564761Y-82832976D02*
X134564761Y-82999642D01*
X134564761Y-82999642D02*
X134540951Y-83094880D01*
X134540951Y-83094880D02*
X134493332Y-83142500D01*
X134493332Y-83142500D02*
X134445713Y-83166309D01*
X134445713Y-83166309D02*
X134350475Y-83166309D01*
X134350475Y-83166309D02*
X134302856Y-83142500D01*
X134302856Y-83142500D02*
X134255237Y-83094880D01*
X134255237Y-83094880D02*
X134231428Y-82999642D01*
X134231428Y-82999642D02*
X134231428Y-82832976D01*
X134231428Y-82832976D02*
X134255237Y-82737738D01*
X134255237Y-82737738D02*
X134302856Y-82690119D01*
X134302856Y-82690119D02*
X134350475Y-82666309D01*
X134731428Y-83166309D02*
X134993333Y-82832976D01*
X134731428Y-82832976D02*
X134993333Y-83166309D01*
X133755238Y-83952500D02*
X133826666Y-83976309D01*
X133826666Y-83976309D02*
X133945714Y-83976309D01*
X133945714Y-83976309D02*
X133993333Y-83952500D01*
X133993333Y-83952500D02*
X134017142Y-83928690D01*
X134017142Y-83928690D02*
X134040952Y-83881071D01*
X134040952Y-83881071D02*
X134040952Y-83833452D01*
X134040952Y-83833452D02*
X134017142Y-83785833D01*
X134017142Y-83785833D02*
X133993333Y-83762023D01*
X133993333Y-83762023D02*
X133945714Y-83738214D01*
X133945714Y-83738214D02*
X133850476Y-83714404D01*
X133850476Y-83714404D02*
X133802857Y-83690595D01*
X133802857Y-83690595D02*
X133779047Y-83666785D01*
X133779047Y-83666785D02*
X133755238Y-83619166D01*
X133755238Y-83619166D02*
X133755238Y-83571547D01*
X133755238Y-83571547D02*
X133779047Y-83523928D01*
X133779047Y-83523928D02*
X133802857Y-83500119D01*
X133802857Y-83500119D02*
X133850476Y-83476309D01*
X133850476Y-83476309D02*
X133969523Y-83476309D01*
X133969523Y-83476309D02*
X134040952Y-83500119D01*
X134255237Y-83976309D02*
X134255237Y-83476309D01*
X134255237Y-83476309D02*
X134445713Y-83476309D01*
X134445713Y-83476309D02*
X134493332Y-83500119D01*
X134493332Y-83500119D02*
X134517142Y-83523928D01*
X134517142Y-83523928D02*
X134540951Y-83571547D01*
X134540951Y-83571547D02*
X134540951Y-83642976D01*
X134540951Y-83642976D02*
X134517142Y-83690595D01*
X134517142Y-83690595D02*
X134493332Y-83714404D01*
X134493332Y-83714404D02*
X134445713Y-83738214D01*
X134445713Y-83738214D02*
X134255237Y-83738214D01*
X134755237Y-83714404D02*
X134921904Y-83714404D01*
X134993332Y-83976309D02*
X134755237Y-83976309D01*
X134755237Y-83976309D02*
X134755237Y-83476309D01*
X134755237Y-83476309D02*
X134993332Y-83476309D01*
X135207618Y-83714404D02*
X135374285Y-83714404D01*
X135445713Y-83976309D02*
X135207618Y-83976309D01*
X135207618Y-83976309D02*
X135207618Y-83476309D01*
X135207618Y-83476309D02*
X135445713Y-83476309D01*
X135659999Y-83976309D02*
X135659999Y-83476309D01*
X135659999Y-83476309D02*
X135779047Y-83476309D01*
X135779047Y-83476309D02*
X135850475Y-83500119D01*
X135850475Y-83500119D02*
X135898094Y-83547738D01*
X135898094Y-83547738D02*
X135921904Y-83595357D01*
X135921904Y-83595357D02*
X135945713Y-83690595D01*
X135945713Y-83690595D02*
X135945713Y-83762023D01*
X135945713Y-83762023D02*
X135921904Y-83857261D01*
X135921904Y-83857261D02*
X135898094Y-83904880D01*
X135898094Y-83904880D02*
X135850475Y-83952500D01*
X135850475Y-83952500D02*
X135779047Y-83976309D01*
X135779047Y-83976309D02*
X135659999Y-83976309D01*
X136040952Y-84023928D02*
X136421904Y-84023928D01*
X136517142Y-83833452D02*
X136755237Y-83833452D01*
X136469523Y-83976309D02*
X136636189Y-83476309D01*
X136636189Y-83476309D02*
X136802856Y-83976309D01*
X136969522Y-83976309D02*
X136969522Y-83476309D01*
X136969522Y-83476309D02*
X137255236Y-83976309D01*
X137255236Y-83976309D02*
X137255236Y-83476309D01*
X137469523Y-83833452D02*
X137707618Y-83833452D01*
X137421904Y-83976309D02*
X137588570Y-83476309D01*
X137588570Y-83476309D02*
X137755237Y-83976309D01*
X133779047Y-80364404D02*
X133945714Y-80364404D01*
X134017142Y-80626309D02*
X133779047Y-80626309D01*
X133779047Y-80626309D02*
X133779047Y-80126309D01*
X133779047Y-80126309D02*
X134017142Y-80126309D01*
X134183809Y-80126309D02*
X134517142Y-80626309D01*
X134517142Y-80126309D02*
X134183809Y-80626309D01*
X134636190Y-80126309D02*
X134921904Y-80126309D01*
X134779047Y-80626309D02*
X134779047Y-80126309D01*
X134969523Y-80673928D02*
X135350475Y-80673928D01*
X135755236Y-80578690D02*
X135731427Y-80602500D01*
X135731427Y-80602500D02*
X135659998Y-80626309D01*
X135659998Y-80626309D02*
X135612379Y-80626309D01*
X135612379Y-80626309D02*
X135540951Y-80602500D01*
X135540951Y-80602500D02*
X135493332Y-80554880D01*
X135493332Y-80554880D02*
X135469522Y-80507261D01*
X135469522Y-80507261D02*
X135445713Y-80412023D01*
X135445713Y-80412023D02*
X135445713Y-80340595D01*
X135445713Y-80340595D02*
X135469522Y-80245357D01*
X135469522Y-80245357D02*
X135493332Y-80197738D01*
X135493332Y-80197738D02*
X135540951Y-80150119D01*
X135540951Y-80150119D02*
X135612379Y-80126309D01*
X135612379Y-80126309D02*
X135659998Y-80126309D01*
X135659998Y-80126309D02*
X135731427Y-80150119D01*
X135731427Y-80150119D02*
X135755236Y-80173928D01*
X136207617Y-80626309D02*
X135969522Y-80626309D01*
X135969522Y-80626309D02*
X135969522Y-80126309D01*
X136374284Y-80626309D02*
X136374284Y-80126309D01*
X136659998Y-80626309D02*
X136445713Y-80340595D01*
X136659998Y-80126309D02*
X136374284Y-80412023D01*
D12*
%TO.C,C5*%
X143568253Y-87950000D02*
X143045749Y-87950000D01*
X143568253Y-86480000D02*
X143045749Y-86480000D01*
%TO.C,C6*%
X145493000Y-86486267D02*
X145493000Y-86193733D01*
X146513000Y-86486267D02*
X146513000Y-86193733D01*
%TO.C,C2*%
X143564265Y-74735300D02*
X143271731Y-74735300D01*
X143564265Y-73715300D02*
X143271731Y-73715300D01*
%TO.C,C4*%
X143678268Y-85925000D02*
X143385734Y-85925000D01*
X143678268Y-84905000D02*
X143385734Y-84905000D01*
%TO.C,U1*%
X147709700Y-82766700D02*
X147709700Y-82429740D01*
X142795261Y-78423300D02*
X142350300Y-78423300D01*
X142350300Y-78423300D02*
X142350300Y-78760260D01*
X147264739Y-82766700D02*
X147709700Y-82766700D01*
X147709700Y-78760260D02*
X147709700Y-78423300D01*
X147709700Y-78423300D02*
X147264739Y-78423300D01*
X142350300Y-82429740D02*
X142350300Y-82766700D01*
%TO.C,C3*%
X144125732Y-76285300D02*
X144418266Y-76285300D01*
X144125732Y-75265300D02*
X144418266Y-75265300D01*
%TO.C,R6*%
X140587500Y-74751724D02*
X140587500Y-74242276D01*
X139542500Y-74751724D02*
X139542500Y-74242276D01*
%TO.C,C1*%
X140583000Y-83146733D02*
X140583000Y-83439267D01*
X141603000Y-83146733D02*
X141603000Y-83439267D01*
%TO.C,R3*%
X140067500Y-78551723D02*
X140067500Y-78042275D01*
X139022500Y-78551723D02*
X139022500Y-78042275D01*
%TO.C,R4*%
X139022500Y-83147725D02*
X139022500Y-82638277D01*
X140067500Y-83147725D02*
X140067500Y-82638277D01*
%TO.C,R5*%
X141615500Y-78151724D02*
X141615500Y-77642276D01*
X140570500Y-78151724D02*
X140570500Y-77642276D01*
%TO.C,R2*%
X137472500Y-78442277D02*
X137472500Y-78951725D01*
X138517500Y-78442277D02*
X138517500Y-78951725D01*
%TO.C,R1*%
X137472500Y-82238275D02*
X137472500Y-82747723D01*
X138517500Y-82238275D02*
X138517500Y-82747723D01*
%TD*%
M02*
