%TF.GenerationSoftware,KiCad,Pcbnew,7.0.1*%
%TF.CreationDate,2023-04-17T09:12:49+12:00*%
%TF.ProjectId,ICM-20948-breakout,49434d2d-3230-4393-9438-2d627265616b,rev?*%
%TF.SameCoordinates,Original*%
%TF.FileFunction,Copper,L1,Top*%
%TF.FilePolarity,Positive*%
%FSLAX46Y46*%
G04 Gerber Fmt 4.6, Leading zero omitted, Abs format (unit mm)*
G04 Created by KiCad (PCBNEW 7.0.1) date 2023-04-17 09:12:49*
%MOMM*%
%LPD*%
G01*
G04 APERTURE LIST*
G04 Aperture macros list*
%AMRoundRect*
0 Rectangle with rounded corners*
0 $1 Rounding radius*
0 $2 $3 $4 $5 $6 $7 $8 $9 X,Y pos of 4 corners*
0 Add a 4 corners polygon primitive as box body*
4,1,4,$2,$3,$4,$5,$6,$7,$8,$9,$2,$3,0*
0 Add four circle primitives for the rounded corners*
1,1,$1+$1,$2,$3*
1,1,$1+$1,$4,$5*
1,1,$1+$1,$6,$7*
1,1,$1+$1,$8,$9*
0 Add four rect primitives between the rounded corners*
20,1,$1+$1,$2,$3,$4,$5,0*
20,1,$1+$1,$4,$5,$6,$7,0*
20,1,$1+$1,$6,$7,$8,$9,0*
20,1,$1+$1,$8,$9,$2,$3,0*%
G04 Aperture macros list end*
%TA.AperFunction,SMDPad,CuDef*%
%ADD10RoundRect,0.150000X-0.512500X-0.150000X0.512500X-0.150000X0.512500X0.150000X-0.512500X0.150000X0*%
%TD*%
%TA.AperFunction,SMDPad,CuDef*%
%ADD11RoundRect,0.050000X-0.225000X-0.050000X0.225000X-0.050000X0.225000X0.050000X-0.225000X0.050000X0*%
%TD*%
%TA.AperFunction,SMDPad,CuDef*%
%ADD12RoundRect,0.050000X0.050000X-0.225000X0.050000X0.225000X-0.050000X0.225000X-0.050000X-0.225000X0*%
%TD*%
%TA.AperFunction,SMDPad,CuDef*%
%ADD13RoundRect,0.237500X0.300000X0.237500X-0.300000X0.237500X-0.300000X-0.237500X0.300000X-0.237500X0*%
%TD*%
%TA.AperFunction,SMDPad,CuDef*%
%ADD14R,2.050000X2.050000*%
%TD*%
%TA.AperFunction,SMDPad,CuDef*%
%ADD15R,0.280000X0.850000*%
%TD*%
%TA.AperFunction,SMDPad,CuDef*%
%ADD16R,0.850000X0.280000*%
%TD*%
%TA.AperFunction,SMDPad,CuDef*%
%ADD17RoundRect,0.237500X-0.300000X-0.237500X0.300000X-0.237500X0.300000X0.237500X-0.300000X0.237500X0*%
%TD*%
%TA.AperFunction,ComponentPad*%
%ADD18C,1.700000*%
%TD*%
%TA.AperFunction,ComponentPad*%
%ADD19O,1.700000X1.700000*%
%TD*%
%TA.AperFunction,ViaPad*%
%ADD20C,0.450000*%
%TD*%
%TA.AperFunction,Conductor*%
%ADD21C,0.200000*%
%TD*%
G04 APERTURE END LIST*
D10*
%TO.P,U3,1,IN*%
%TO.N,VIN*%
X145957500Y-85020000D03*
%TO.P,U3,2,GND*%
%TO.N,GND*%
X145957500Y-85970000D03*
%TO.P,U3,3,EN*%
%TO.N,VIN*%
X145957500Y-86920000D03*
%TO.P,U3,4,NC*%
%TO.N,unconnected-(U3-NC-Pad4)*%
X148232500Y-86920000D03*
%TO.P,U3,5,OUT*%
%TO.N,+1V8*%
X148232500Y-85020000D03*
%TD*%
D11*
%TO.P,U1,1,NC*%
%TO.N,unconnected-(U1-NC-Pad1)*%
X147770000Y-79540000D03*
%TO.P,U1,2,NC*%
%TO.N,unconnected-(U1-NC-Pad2)*%
X147770000Y-79940000D03*
%TO.P,U1,3,NC*%
%TO.N,unconnected-(U1-NC-Pad3)*%
X147770000Y-80340000D03*
%TO.P,U1,4,NC*%
%TO.N,unconnected-(U1-NC-Pad4)*%
X147770000Y-80740000D03*
%TO.P,U1,5,NC*%
%TO.N,unconnected-(U1-NC-Pad5)*%
X147770000Y-81140000D03*
%TO.P,U1,6,NC*%
%TO.N,unconnected-(U1-NC-Pad6)*%
X147770000Y-81540000D03*
D12*
%TO.P,U1,7,AUX_CL*%
%TO.N,unconnected-(U1-AUX_CL-Pad7)*%
X148270000Y-82040000D03*
%TO.P,U1,8,VDDIO*%
%TO.N,+1V8*%
X148670000Y-82040000D03*
%TO.P,U1,9,SDO/AD0*%
%TO.N,Net-(U1-SDO{slash}AD0)*%
X149070000Y-82040000D03*
%TO.P,U1,10,REGOUT*%
%TO.N,Net-(U1-REGOUT)*%
X149470000Y-82040000D03*
%TO.P,U1,11,FSYNC*%
%TO.N,unconnected-(U1-FSYNC-Pad11)*%
X149870000Y-82040000D03*
%TO.P,U1,12,INT1*%
%TO.N,unconnected-(U1-INT1-Pad12)*%
X150270000Y-82040000D03*
D11*
%TO.P,U1,13,VDD*%
%TO.N,+1V8*%
X150770000Y-81540000D03*
%TO.P,U1,14,NC*%
%TO.N,unconnected-(U1-NC-Pad14)*%
X150770000Y-81140000D03*
%TO.P,U1,15,NC*%
%TO.N,unconnected-(U1-NC-Pad15)*%
X150770000Y-80740000D03*
%TO.P,U1,16,NC*%
%TO.N,unconnected-(U1-NC-Pad16)*%
X150770000Y-80340000D03*
%TO.P,U1,17,NC*%
%TO.N,unconnected-(U1-NC-Pad17)*%
X150770000Y-79940000D03*
%TO.P,U1,18,GND*%
%TO.N,GND*%
X150770000Y-79540000D03*
D12*
%TO.P,U1,19,RESV*%
%TO.N,unconnected-(U1-RESV-Pad19)*%
X150270000Y-79040000D03*
%TO.P,U1,20,GND*%
%TO.N,GND*%
X149870000Y-79040000D03*
%TO.P,U1,21,AUX_DA*%
%TO.N,unconnected-(U1-AUX_DA-Pad21)*%
X149470000Y-79040000D03*
%TO.P,U1,22,~{CS}*%
%TO.N,Net-(U1-~{CS})*%
X149070000Y-79040000D03*
%TO.P,U1,23,SCL/SCLK*%
%TO.N,Net-(U1-SCL{slash}SCLK)*%
X148670000Y-79040000D03*
%TO.P,U1,24,SDA/SDI*%
%TO.N,Net-(U1-SDA{slash}SDI)*%
X148270000Y-79040000D03*
%TD*%
D13*
%TO.P,C2,2*%
%TO.N,GND*%
X146507500Y-83390000D03*
%TO.P,C2,1*%
%TO.N,+1V8*%
X148232500Y-83390000D03*
%TD*%
%TO.P,C3,1*%
%TO.N,VIN*%
X150905000Y-72265000D03*
%TO.P,C3,2*%
%TO.N,GND*%
X149180000Y-72265000D03*
%TD*%
D14*
%TO.P,U2,15,Pad*%
%TO.N,unconnected-(U2-Pad-Pad15)*%
X151655000Y-75490000D03*
D15*
%TO.P,U2,14,VCCB*%
%TO.N,+1V8*%
X152405000Y-73765000D03*
D16*
%TO.P,U2,13,B1*%
%TO.N,/SDO{slash}AD0*%
X153380000Y-74490000D03*
%TO.P,U2,12,B2*%
%TO.N,/SDA{slash}SDI*%
X153380000Y-74990000D03*
%TO.P,U2,11,B3*%
%TO.N,/SCL{slash}SCLK*%
X153380000Y-75490000D03*
%TO.P,U2,10,B4*%
%TO.N,/CS*%
X153380000Y-75990000D03*
%TO.P,U2,9,NC*%
%TO.N,unconnected-(U2-NC-Pad9)*%
X153380000Y-76490000D03*
D15*
%TO.P,U2,8,OE*%
%TO.N,unconnected-(U2-OE-Pad8)*%
X152405000Y-77215000D03*
%TO.P,U2,7,GND*%
%TO.N,GND*%
X150905000Y-77215000D03*
D16*
%TO.P,U2,6,NC*%
%TO.N,unconnected-(U2-NC-Pad6)*%
X149930000Y-76490000D03*
%TO.P,U2,5,A4*%
%TO.N,Net-(U1-~{CS})*%
X149930000Y-75990000D03*
%TO.P,U2,4,A3*%
%TO.N,Net-(U1-SCL{slash}SCLK)*%
X149930000Y-75490000D03*
%TO.P,U2,3,A2*%
%TO.N,Net-(U1-SDA{slash}SDI)*%
X149930000Y-74990000D03*
%TO.P,U2,2,A1*%
%TO.N,Net-(U1-SDO{slash}AD0)*%
X149930000Y-74490000D03*
D15*
%TO.P,U2,1,VCCA*%
%TO.N,VIN*%
X150905000Y-73765000D03*
%TD*%
D17*
%TO.P,C1,1*%
%TO.N,Net-(U1-REGOUT)*%
X150139930Y-83390000D03*
%TO.P,C1,2*%
%TO.N,GND*%
X151864930Y-83390000D03*
%TD*%
D18*
%TO.P,J2,1,Pin_1*%
%TO.N,VIN*%
X143960000Y-77720000D03*
D19*
%TO.P,J2,2,Pin_2*%
%TO.N,GND*%
X143960000Y-75180000D03*
%TO.P,J2,3,Pin_3*%
%TO.N,+1V8*%
X143960000Y-72640000D03*
%TD*%
%TO.P,J1,4,Pin_4*%
%TO.N,/CS*%
X156660000Y-80260000D03*
%TO.P,J1,3,Pin_3*%
%TO.N,/SCL{slash}SCLK*%
X156660000Y-77720000D03*
%TO.P,J1,2,Pin_2*%
%TO.N,/SDA{slash}SDI*%
X156660000Y-75180000D03*
D18*
%TO.P,J1,1,Pin_1*%
%TO.N,/SDO{slash}AD0*%
X156660000Y-72640000D03*
%TD*%
D20*
%TO.N,GND*%
X150905000Y-78070000D03*
X149180000Y-71360000D03*
X146507500Y-82490000D03*
X149870000Y-78180000D03*
X144870000Y-85970000D03*
%TO.N,+1V8*%
X151470000Y-81540000D03*
X148232500Y-84290000D03*
%TO.N,Net-(U1-SDO{slash}AD0)*%
X149177431Y-83003141D03*
X149070000Y-74490000D03*
%TO.N,+1V8*%
X152405000Y-72900000D03*
%TD*%
D21*
%TO.N,VIN*%
X145050000Y-86920000D02*
X143960000Y-85830000D01*
X145957500Y-86920000D02*
X145050000Y-86920000D01*
X143960000Y-85830000D02*
X143960000Y-77720000D01*
%TO.N,+1V8*%
X150770000Y-81540000D02*
X151470000Y-81540000D01*
%TO.N,GND*%
X150905000Y-78070000D02*
X150905000Y-77215000D01*
X149180000Y-71360000D02*
X149180000Y-72265000D01*
X146507500Y-82490000D02*
X146507500Y-83390000D01*
X149870000Y-78180000D02*
X149870000Y-79040000D01*
X144870000Y-85970000D02*
X145957500Y-85970000D01*
%TO.N,VIN*%
X148640000Y-73040000D02*
X143960000Y-77720000D01*
X150905000Y-73040000D02*
X148640000Y-73040000D01*
X150905000Y-73040000D02*
X150905000Y-72265000D01*
X150905000Y-73765000D02*
X150905000Y-73040000D01*
X145957500Y-85020000D02*
X143980000Y-85020000D01*
%TO.N,/SCL{slash}SCLK*%
X154430000Y-75490000D02*
X153380000Y-75490000D01*
%TO.N,+1V8*%
X148232500Y-84290000D02*
X148232500Y-85020000D01*
X148232500Y-83390000D02*
X148232500Y-84290000D01*
%TO.N,Net-(U1-REGOUT)*%
X150139930Y-83219930D02*
X149704931Y-82784931D01*
X150139930Y-83390000D02*
X150139930Y-83219930D01*
%TO.N,+1V8*%
X148232500Y-82847475D02*
X148232500Y-83390000D01*
X148670000Y-82409975D02*
X148232500Y-82847475D01*
X148670000Y-82040000D02*
X148670000Y-82409975D01*
%TO.N,Net-(U1-REGOUT)*%
X149702431Y-82784931D02*
X149704931Y-82784931D01*
X149470000Y-82552500D02*
X149702431Y-82784931D01*
X149470000Y-82040000D02*
X149470000Y-82552500D01*
%TO.N,Net-(U1-SDO{slash}AD0)*%
X149070000Y-82895710D02*
X149070000Y-82040000D01*
X149177431Y-83003141D02*
X149070000Y-82895710D01*
%TO.N,+1V8*%
X152405000Y-72900000D02*
X152405000Y-73765000D01*
%TO.N,Net-(U1-SDO{slash}AD0)*%
X149070000Y-74490000D02*
X149930000Y-74490000D01*
%TO.N,Net-(U1-SDA{slash}SDI)*%
X149905000Y-75015000D02*
X149930000Y-74990000D01*
X149108628Y-75015000D02*
X149905000Y-75015000D01*
X148270000Y-75853628D02*
X149108628Y-75015000D01*
X148270000Y-79040000D02*
X148270000Y-75853628D01*
%TO.N,Net-(U1-SCL{slash}SCLK)*%
X149199314Y-75490000D02*
X149930000Y-75490000D01*
X148670000Y-76019314D02*
X149199314Y-75490000D01*
X148670000Y-79040000D02*
X148670000Y-76019314D01*
%TO.N,Net-(U1-~{CS})*%
X149265000Y-75990000D02*
X149930000Y-75990000D01*
X149070000Y-76185000D02*
X149265000Y-75990000D01*
X149070000Y-79040000D02*
X149070000Y-76185000D01*
%TO.N,/CS*%
X154045000Y-75990000D02*
X153540000Y-75990000D01*
X155510000Y-77455000D02*
X154045000Y-75990000D01*
%TO.N,/SDA{slash}SDI*%
X153540000Y-74990000D02*
X156470000Y-74990000D01*
X156470000Y-74990000D02*
X156660000Y-75180000D01*
%TO.N,/SDO{slash}AD0*%
X154810000Y-74490000D02*
X153540000Y-74490000D01*
%TO.N,/CS*%
X155510000Y-77455000D02*
X155510000Y-79110000D01*
X155510000Y-79110000D02*
X156660000Y-80260000D01*
%TO.N,/SCL{slash}SCLK*%
X154430000Y-75490000D02*
X156660000Y-77720000D01*
%TO.N,/SDO{slash}AD0*%
X154810000Y-74490000D02*
X156660000Y-72640000D01*
%TD*%
%TA.AperFunction,Conductor*%
%TO.N,GND*%
G36*
X158397500Y-70857113D02*
G01*
X158442887Y-70902500D01*
X158459500Y-70964500D01*
X158459500Y-88245500D01*
X158442887Y-88307500D01*
X158397500Y-88352887D01*
X158335500Y-88369500D01*
X142284500Y-88369500D01*
X142222500Y-88352887D01*
X142177113Y-88307500D01*
X142160500Y-88245500D01*
X142160500Y-77720000D01*
X142904417Y-77720000D01*
X142924699Y-77925932D01*
X142924700Y-77925934D01*
X142984768Y-78123954D01*
X143082315Y-78306450D01*
X143133608Y-78368952D01*
X143213589Y-78466410D01*
X143257566Y-78502500D01*
X143373550Y-78597685D01*
X143556046Y-78695232D01*
X143570701Y-78699677D01*
X143571497Y-78699919D01*
X143617260Y-78725352D01*
X143648447Y-78767404D01*
X143659500Y-78818579D01*
X143659500Y-85760757D01*
X143656756Y-85777577D01*
X143659368Y-85834079D01*
X143659500Y-85839805D01*
X143659500Y-85858819D01*
X143661181Y-85873307D01*
X143662415Y-85899993D01*
X143665213Y-85906330D01*
X143673666Y-85933626D01*
X143674938Y-85940434D01*
X143688997Y-85963140D01*
X143697002Y-85978327D01*
X143707792Y-86002763D01*
X143712688Y-86007659D01*
X143730434Y-86030063D01*
X143734081Y-86035952D01*
X143755396Y-86052048D01*
X143768351Y-86063322D01*
X144788550Y-87083521D01*
X144798507Y-87097358D01*
X144806041Y-87104226D01*
X144806042Y-87104228D01*
X144819429Y-87116432D01*
X144840316Y-87135474D01*
X144844457Y-87139429D01*
X144857888Y-87152860D01*
X144869328Y-87161922D01*
X144889065Y-87179915D01*
X144889066Y-87179915D01*
X144889067Y-87179916D01*
X144895526Y-87182418D01*
X144920809Y-87195745D01*
X144926520Y-87199657D01*
X144952517Y-87205771D01*
X144968908Y-87210846D01*
X144993827Y-87220500D01*
X145000752Y-87220500D01*
X145029142Y-87223794D01*
X145035881Y-87225379D01*
X145035883Y-87225378D01*
X145036093Y-87225428D01*
X145087050Y-87229024D01*
X145132496Y-87253179D01*
X145140112Y-87262909D01*
X145141170Y-87261852D01*
X145238515Y-87359197D01*
X145238516Y-87359197D01*
X145238517Y-87359198D01*
X145343607Y-87410573D01*
X145370860Y-87414543D01*
X145411737Y-87420500D01*
X145411740Y-87420500D01*
X146503260Y-87420500D01*
X146503263Y-87420500D01*
X146537326Y-87415536D01*
X146571393Y-87410573D01*
X146676483Y-87359198D01*
X146759198Y-87276483D01*
X146810573Y-87171393D01*
X146820500Y-87103263D01*
X147369500Y-87103263D01*
X147379426Y-87171390D01*
X147379426Y-87171391D01*
X147379427Y-87171393D01*
X147396233Y-87205771D01*
X147430802Y-87276484D01*
X147513515Y-87359197D01*
X147513516Y-87359197D01*
X147513517Y-87359198D01*
X147618607Y-87410573D01*
X147645860Y-87414543D01*
X147686737Y-87420500D01*
X147686740Y-87420500D01*
X148778260Y-87420500D01*
X148778263Y-87420500D01*
X148812326Y-87415536D01*
X148846393Y-87410573D01*
X148951483Y-87359198D01*
X149034198Y-87276483D01*
X149085573Y-87171393D01*
X149095500Y-87103260D01*
X149095500Y-86736740D01*
X149085573Y-86668607D01*
X149034198Y-86563517D01*
X149034197Y-86563516D01*
X149034197Y-86563515D01*
X148951484Y-86480802D01*
X148897712Y-86454515D01*
X148846393Y-86429427D01*
X148846391Y-86429426D01*
X148846390Y-86429426D01*
X148778263Y-86419500D01*
X148778260Y-86419500D01*
X147686740Y-86419500D01*
X147686737Y-86419500D01*
X147618609Y-86429426D01*
X147513515Y-86480802D01*
X147430802Y-86563515D01*
X147379426Y-86668609D01*
X147369500Y-86736737D01*
X147369500Y-87103263D01*
X146820500Y-87103263D01*
X146820500Y-87103260D01*
X146820500Y-86736740D01*
X146810573Y-86668607D01*
X146759198Y-86563517D01*
X146759197Y-86563516D01*
X146759197Y-86563515D01*
X146676484Y-86480802D01*
X146622712Y-86454515D01*
X146571393Y-86429427D01*
X146571391Y-86429426D01*
X146571390Y-86429426D01*
X146503263Y-86419500D01*
X146503260Y-86419500D01*
X145411740Y-86419500D01*
X145411737Y-86419500D01*
X145343609Y-86429426D01*
X145238515Y-86480802D01*
X145224824Y-86494494D01*
X145169236Y-86526586D01*
X145105050Y-86526586D01*
X145049463Y-86494492D01*
X144296819Y-85741848D01*
X144269939Y-85701620D01*
X144260500Y-85654167D01*
X144260500Y-85444500D01*
X144277113Y-85382500D01*
X144322500Y-85337113D01*
X144384500Y-85320500D01*
X145051029Y-85320500D01*
X145116695Y-85339314D01*
X145138984Y-85364037D01*
X145141170Y-85361852D01*
X145238515Y-85459197D01*
X145238516Y-85459197D01*
X145238517Y-85459198D01*
X145343607Y-85510573D01*
X145370860Y-85514543D01*
X145411737Y-85520500D01*
X145411740Y-85520500D01*
X146503260Y-85520500D01*
X146503263Y-85520500D01*
X146537326Y-85515536D01*
X146571393Y-85510573D01*
X146676483Y-85459198D01*
X146759198Y-85376483D01*
X146810573Y-85271393D01*
X146820500Y-85203260D01*
X146820500Y-84836740D01*
X146810573Y-84768607D01*
X146759198Y-84663517D01*
X146759197Y-84663516D01*
X146759197Y-84663515D01*
X146676484Y-84580802D01*
X146622712Y-84554515D01*
X146571393Y-84529427D01*
X146571391Y-84529426D01*
X146571390Y-84529426D01*
X146503263Y-84519500D01*
X146503260Y-84519500D01*
X145411740Y-84519500D01*
X145411737Y-84519500D01*
X145343609Y-84529426D01*
X145238515Y-84580802D01*
X145141170Y-84678148D01*
X145138984Y-84675962D01*
X145116695Y-84700686D01*
X145051029Y-84719500D01*
X144384500Y-84719500D01*
X144322500Y-84702887D01*
X144277113Y-84657500D01*
X144260500Y-84595500D01*
X144260500Y-78818579D01*
X144271553Y-78767404D01*
X144302740Y-78725352D01*
X144348503Y-78699919D01*
X144349120Y-78699731D01*
X144363954Y-78695232D01*
X144546450Y-78597685D01*
X144706410Y-78466410D01*
X144837685Y-78306450D01*
X144935232Y-78123954D01*
X144995300Y-77925934D01*
X145015583Y-77720000D01*
X144995300Y-77514066D01*
X144935232Y-77316046D01*
X144927618Y-77301802D01*
X144913244Y-77251464D01*
X144920926Y-77199674D01*
X144949295Y-77155674D01*
X148728151Y-73376819D01*
X148768380Y-73349939D01*
X148815833Y-73340500D01*
X150440500Y-73340500D01*
X150502500Y-73357113D01*
X150547887Y-73402500D01*
X150564500Y-73464500D01*
X150564500Y-74036150D01*
X150552595Y-74089167D01*
X150519164Y-74132004D01*
X150470629Y-74156434D01*
X150416308Y-74157766D01*
X150393254Y-74153181D01*
X150374749Y-74149500D01*
X150374748Y-74149500D01*
X149485252Y-74149500D01*
X149485250Y-74149500D01*
X149421805Y-74162120D01*
X149361619Y-74159164D01*
X149342183Y-74147514D01*
X149340719Y-74150388D01*
X149203124Y-74080280D01*
X149070000Y-74059195D01*
X148936875Y-74080280D01*
X148816778Y-74141472D01*
X148721472Y-74236778D01*
X148660280Y-74356875D01*
X148639195Y-74490000D01*
X148660280Y-74623124D01*
X148721472Y-74743221D01*
X148750772Y-74772521D01*
X148782866Y-74828108D01*
X148782866Y-74892296D01*
X148750772Y-74947883D01*
X148106475Y-75592180D01*
X148092639Y-75602136D01*
X148054523Y-75643946D01*
X148050573Y-75648082D01*
X148037141Y-75661514D01*
X148028087Y-75672945D01*
X148010083Y-75692695D01*
X148007578Y-75699162D01*
X147994259Y-75724430D01*
X147990343Y-75730146D01*
X147984228Y-75756145D01*
X147979151Y-75772541D01*
X147969500Y-75797455D01*
X147969500Y-75804379D01*
X147966206Y-75832772D01*
X147964621Y-75839509D01*
X147968311Y-75865960D01*
X147969500Y-75883093D01*
X147969500Y-79115500D01*
X147952887Y-79177500D01*
X147907500Y-79222887D01*
X147845500Y-79239500D01*
X147520325Y-79239500D01*
X147447261Y-79254033D01*
X147364399Y-79309399D01*
X147309033Y-79392261D01*
X147294500Y-79465325D01*
X147294500Y-79614675D01*
X147312935Y-79707354D01*
X147316438Y-79715810D01*
X147316438Y-79764190D01*
X147312935Y-79772645D01*
X147294500Y-79865325D01*
X147294500Y-80014675D01*
X147312934Y-80107345D01*
X147316435Y-80115795D01*
X147316441Y-80164174D01*
X147312938Y-80172634D01*
X147294500Y-80265325D01*
X147294500Y-80414675D01*
X147312935Y-80507351D01*
X147316436Y-80515804D01*
X147316440Y-80564172D01*
X147312937Y-80572633D01*
X147294500Y-80665324D01*
X147294500Y-80814675D01*
X147312935Y-80907354D01*
X147316438Y-80915810D01*
X147316438Y-80964190D01*
X147312935Y-80972645D01*
X147294500Y-81065325D01*
X147294500Y-81214675D01*
X147312935Y-81307354D01*
X147316438Y-81315810D01*
X147316438Y-81364190D01*
X147312935Y-81372645D01*
X147294500Y-81465325D01*
X147294500Y-81614675D01*
X147309033Y-81687738D01*
X147309033Y-81687739D01*
X147309034Y-81687740D01*
X147364399Y-81770601D01*
X147447260Y-81825966D01*
X147483793Y-81833233D01*
X147520325Y-81840500D01*
X147520326Y-81840500D01*
X147845500Y-81840500D01*
X147907500Y-81857113D01*
X147952887Y-81902500D01*
X147969500Y-81964500D01*
X147969500Y-82289675D01*
X147984033Y-82362738D01*
X147984033Y-82362739D01*
X147984034Y-82362740D01*
X148039399Y-82445601D01*
X148039400Y-82445601D01*
X148050117Y-82461641D01*
X148069690Y-82512457D01*
X148065604Y-82566758D01*
X148038648Y-82614072D01*
X148017022Y-82637793D01*
X148013073Y-82641929D01*
X147999641Y-82655361D01*
X147990589Y-82666790D01*
X147983988Y-82674032D01*
X147942435Y-82703933D01*
X147892345Y-82714500D01*
X147879740Y-82714500D01*
X147850154Y-82717274D01*
X147725521Y-82760885D01*
X147619288Y-82839288D01*
X147540885Y-82945521D01*
X147497274Y-83070154D01*
X147494500Y-83099740D01*
X147494500Y-83680260D01*
X147497274Y-83709845D01*
X147540885Y-83834478D01*
X147619288Y-83940711D01*
X147725523Y-84019115D01*
X147725524Y-84019115D01*
X147725525Y-84019116D01*
X147736208Y-84022854D01*
X147740631Y-84024402D01*
X147788661Y-84055083D01*
X147817893Y-84104008D01*
X147822152Y-84160842D01*
X147801695Y-84289999D01*
X147815333Y-84376102D01*
X147812205Y-84429158D01*
X147787151Y-84476031D01*
X147744774Y-84508110D01*
X147692860Y-84519500D01*
X147686737Y-84519500D01*
X147618609Y-84529426D01*
X147513515Y-84580802D01*
X147430802Y-84663515D01*
X147379426Y-84768609D01*
X147369500Y-84836737D01*
X147369500Y-85203263D01*
X147379426Y-85271390D01*
X147430802Y-85376484D01*
X147513515Y-85459197D01*
X147513516Y-85459197D01*
X147513517Y-85459198D01*
X147618607Y-85510573D01*
X147645860Y-85514543D01*
X147686737Y-85520500D01*
X147686740Y-85520500D01*
X148778260Y-85520500D01*
X148778263Y-85520500D01*
X148812326Y-85515536D01*
X148846393Y-85510573D01*
X148951483Y-85459198D01*
X149034198Y-85376483D01*
X149085573Y-85271393D01*
X149095500Y-85203260D01*
X149095500Y-84836740D01*
X149085573Y-84768607D01*
X149034198Y-84663517D01*
X149034197Y-84663516D01*
X149034197Y-84663515D01*
X148951484Y-84580802D01*
X148897712Y-84554515D01*
X148846393Y-84529427D01*
X148846391Y-84529426D01*
X148846390Y-84529426D01*
X148778263Y-84519500D01*
X148778260Y-84519500D01*
X148772140Y-84519500D01*
X148720226Y-84508110D01*
X148677849Y-84476031D01*
X148652795Y-84429158D01*
X148649667Y-84376102D01*
X148663304Y-84290000D01*
X148663304Y-84289999D01*
X148642847Y-84160840D01*
X148647106Y-84104008D01*
X148676338Y-84055083D01*
X148724365Y-84024402D01*
X148739475Y-84019116D01*
X148739476Y-84019114D01*
X148739479Y-84019114D01*
X148845711Y-83940711D01*
X148924114Y-83834478D01*
X148924114Y-83834477D01*
X148924116Y-83834475D01*
X148967725Y-83709849D01*
X148970500Y-83680256D01*
X148970500Y-83546356D01*
X148981890Y-83494442D01*
X149013968Y-83452066D01*
X149060841Y-83427012D01*
X149113898Y-83423883D01*
X149177430Y-83433945D01*
X149177430Y-83433944D01*
X149177431Y-83433945D01*
X149240960Y-83423883D01*
X149258532Y-83421100D01*
X149311588Y-83424228D01*
X149358461Y-83449282D01*
X149390540Y-83491659D01*
X149401930Y-83543573D01*
X149401930Y-83680260D01*
X149404704Y-83709845D01*
X149448315Y-83834478D01*
X149526718Y-83940711D01*
X149632951Y-84019114D01*
X149632953Y-84019114D01*
X149632955Y-84019116D01*
X149757581Y-84062725D01*
X149770263Y-84063914D01*
X149787170Y-84065500D01*
X149787174Y-84065500D01*
X150492686Y-84065500D01*
X150492690Y-84065500D01*
X150507482Y-84064112D01*
X150522279Y-84062725D01*
X150646905Y-84019116D01*
X150753141Y-83940711D01*
X150831546Y-83834475D01*
X150875155Y-83709849D01*
X150877930Y-83680256D01*
X150877930Y-83099744D01*
X150875155Y-83070151D01*
X150831546Y-82945525D01*
X150831544Y-82945523D01*
X150831544Y-82945521D01*
X150753141Y-82839288D01*
X150646908Y-82760885D01*
X150574208Y-82735446D01*
X150522279Y-82717275D01*
X150522277Y-82717274D01*
X150522275Y-82717274D01*
X150494316Y-82714652D01*
X150437389Y-82694552D01*
X150396701Y-82649951D01*
X150381896Y-82591423D01*
X150396484Y-82532841D01*
X150437001Y-82488096D01*
X150500601Y-82445601D01*
X150555966Y-82362740D01*
X150570500Y-82289674D01*
X150570500Y-81964500D01*
X150587113Y-81902500D01*
X150632500Y-81857113D01*
X150694500Y-81840500D01*
X150713827Y-81840500D01*
X151019674Y-81840500D01*
X151117389Y-81840500D01*
X151164842Y-81849939D01*
X151205070Y-81876819D01*
X151216778Y-81888527D01*
X151216780Y-81888528D01*
X151336874Y-81949719D01*
X151470000Y-81970804D01*
X151603126Y-81949719D01*
X151723220Y-81888528D01*
X151818528Y-81793220D01*
X151879719Y-81673126D01*
X151900804Y-81540000D01*
X151879719Y-81406874D01*
X151818528Y-81286780D01*
X151818527Y-81286778D01*
X151723221Y-81191472D01*
X151603124Y-81130280D01*
X151469999Y-81109195D01*
X151378572Y-81123676D01*
X151316256Y-81117539D01*
X151264884Y-81081735D01*
X151237557Y-81025395D01*
X151230966Y-80992260D01*
X151230965Y-80992259D01*
X151227064Y-80972646D01*
X151223563Y-80964195D01*
X151223563Y-80915805D01*
X151227064Y-80907353D01*
X151245500Y-80814675D01*
X151245500Y-80665325D01*
X151227064Y-80572646D01*
X151223563Y-80564195D01*
X151223563Y-80515805D01*
X151227064Y-80507353D01*
X151235304Y-80465934D01*
X151245500Y-80414674D01*
X151245500Y-80265326D01*
X151230966Y-80192260D01*
X151230965Y-80192259D01*
X151227063Y-80172641D01*
X151223561Y-80164185D01*
X151223564Y-80115801D01*
X151227065Y-80107350D01*
X151245500Y-80014675D01*
X151245500Y-79865325D01*
X151230966Y-79792261D01*
X151230966Y-79792260D01*
X151175601Y-79709399D01*
X151092740Y-79654034D01*
X151092739Y-79654033D01*
X151092738Y-79654033D01*
X151019675Y-79639500D01*
X151019674Y-79639500D01*
X150603029Y-79639500D01*
X150539280Y-79621858D01*
X150493671Y-79573954D01*
X150479178Y-79509416D01*
X150499926Y-79446610D01*
X150500599Y-79445601D01*
X150500601Y-79445601D01*
X150555966Y-79362740D01*
X150570500Y-79289674D01*
X150570500Y-78790326D01*
X150565940Y-78767404D01*
X150557827Y-78726614D01*
X150555966Y-78717260D01*
X150500601Y-78634399D01*
X150417740Y-78579034D01*
X150417739Y-78579033D01*
X150417738Y-78579033D01*
X150344675Y-78564500D01*
X150344674Y-78564500D01*
X150195326Y-78564500D01*
X150195325Y-78564500D01*
X150122261Y-78579033D01*
X150122259Y-78579034D01*
X150122260Y-78579034D01*
X150039399Y-78634399D01*
X149998753Y-78695232D01*
X149973103Y-78733620D01*
X149928454Y-78774088D01*
X149870000Y-78788730D01*
X149811546Y-78774088D01*
X149766897Y-78733620D01*
X149744379Y-78699919D01*
X149700601Y-78634399D01*
X149617740Y-78579034D01*
X149617739Y-78579033D01*
X149617738Y-78579033D01*
X149544675Y-78564500D01*
X149544674Y-78564500D01*
X149494500Y-78564500D01*
X149432500Y-78547887D01*
X149387113Y-78502500D01*
X149370500Y-78440500D01*
X149370500Y-76954500D01*
X149387113Y-76892500D01*
X149432500Y-76847113D01*
X149494500Y-76830500D01*
X150374749Y-76830500D01*
X150403989Y-76824683D01*
X150433231Y-76818867D01*
X150499552Y-76774552D01*
X150502187Y-76770607D01*
X150546836Y-76730141D01*
X150605289Y-76715500D01*
X150610252Y-76715500D01*
X151940500Y-76715500D01*
X152002500Y-76732113D01*
X152047887Y-76777500D01*
X152064500Y-76839500D01*
X152064500Y-77659749D01*
X152076132Y-77718230D01*
X152120447Y-77784552D01*
X152186769Y-77828867D01*
X152245251Y-77840500D01*
X152245252Y-77840500D01*
X152564748Y-77840500D01*
X152564749Y-77840500D01*
X152593989Y-77834683D01*
X152623231Y-77828867D01*
X152689552Y-77784552D01*
X152733867Y-77718231D01*
X152745500Y-77659748D01*
X152745500Y-76943850D01*
X152757405Y-76890833D01*
X152790836Y-76847996D01*
X152839371Y-76823566D01*
X152893691Y-76822233D01*
X152914334Y-76826339D01*
X152935251Y-76830500D01*
X152935252Y-76830500D01*
X153824748Y-76830500D01*
X153824749Y-76830500D01*
X153853989Y-76824683D01*
X153883231Y-76818867D01*
X153949552Y-76774552D01*
X153993867Y-76708231D01*
X154005500Y-76649748D01*
X154005747Y-76648506D01*
X154035486Y-76589424D01*
X154091369Y-76554036D01*
X154157493Y-76552413D01*
X154215045Y-76585016D01*
X155173181Y-77543152D01*
X155200061Y-77583380D01*
X155209500Y-77630833D01*
X155209500Y-79040757D01*
X155206756Y-79057577D01*
X155209368Y-79114079D01*
X155209500Y-79119805D01*
X155209500Y-79138819D01*
X155211181Y-79153307D01*
X155212415Y-79179993D01*
X155215213Y-79186330D01*
X155223666Y-79213626D01*
X155224938Y-79220434D01*
X155238997Y-79243140D01*
X155247002Y-79258327D01*
X155257792Y-79282763D01*
X155262688Y-79287659D01*
X155280434Y-79310063D01*
X155284081Y-79315952D01*
X155289441Y-79320000D01*
X155305396Y-79332048D01*
X155318351Y-79343322D01*
X155670701Y-79695673D01*
X155699072Y-79739675D01*
X155706755Y-79791464D01*
X155692378Y-79841807D01*
X155684768Y-79856043D01*
X155624699Y-80054067D01*
X155604417Y-80260000D01*
X155624699Y-80465932D01*
X155637264Y-80507353D01*
X155684768Y-80663954D01*
X155782315Y-80846450D01*
X155816201Y-80887740D01*
X155913589Y-81006410D01*
X155985380Y-81065326D01*
X156073550Y-81137685D01*
X156256046Y-81235232D01*
X156454066Y-81295300D01*
X156660000Y-81315583D01*
X156865934Y-81295300D01*
X157063954Y-81235232D01*
X157246450Y-81137685D01*
X157406410Y-81006410D01*
X157537685Y-80846450D01*
X157635232Y-80663954D01*
X157695300Y-80465934D01*
X157715583Y-80260000D01*
X157695300Y-80054066D01*
X157635232Y-79856046D01*
X157537685Y-79673550D01*
X157455949Y-79573954D01*
X157406410Y-79513589D01*
X157258569Y-79392261D01*
X157246450Y-79382315D01*
X157073134Y-79289675D01*
X157063956Y-79284769D01*
X157063955Y-79284768D01*
X157063954Y-79284768D01*
X156950838Y-79250455D01*
X156865932Y-79224699D01*
X156660000Y-79204417D01*
X156454067Y-79224699D01*
X156256041Y-79284769D01*
X156241804Y-79292379D01*
X156191461Y-79306755D01*
X156139673Y-79299072D01*
X156095672Y-79270701D01*
X155846819Y-79021848D01*
X155819939Y-78981620D01*
X155810500Y-78934167D01*
X155810500Y-78643982D01*
X155829738Y-78577642D01*
X155881483Y-78531887D01*
X155949678Y-78520914D01*
X156013164Y-78548128D01*
X156073550Y-78597685D01*
X156256046Y-78695232D01*
X156454066Y-78755300D01*
X156660000Y-78775583D01*
X156865934Y-78755300D01*
X157063954Y-78695232D01*
X157246450Y-78597685D01*
X157406410Y-78466410D01*
X157537685Y-78306450D01*
X157635232Y-78123954D01*
X157695300Y-77925934D01*
X157715583Y-77720000D01*
X157695300Y-77514066D01*
X157635232Y-77316046D01*
X157537685Y-77133550D01*
X157472047Y-77053570D01*
X157406410Y-76973589D01*
X157252296Y-76847113D01*
X157246450Y-76842315D01*
X157125191Y-76777500D01*
X157063956Y-76744769D01*
X157063955Y-76744768D01*
X157063954Y-76744768D01*
X156955170Y-76711769D01*
X156865932Y-76684699D01*
X156660000Y-76664417D01*
X156454067Y-76684699D01*
X156256041Y-76744769D01*
X156241804Y-76752379D01*
X156191461Y-76766755D01*
X156139673Y-76759072D01*
X156095672Y-76730701D01*
X154867152Y-75502181D01*
X154836902Y-75452818D01*
X154832360Y-75395102D01*
X154854515Y-75341615D01*
X154898538Y-75304015D01*
X154954833Y-75290500D01*
X155503786Y-75290500D01*
X155554962Y-75301553D01*
X155597014Y-75332741D01*
X155622447Y-75378505D01*
X155624699Y-75385931D01*
X155624700Y-75385934D01*
X155684768Y-75583954D01*
X155782315Y-75766450D01*
X155814586Y-75805772D01*
X155913589Y-75926410D01*
X155993570Y-75992047D01*
X156073550Y-76057685D01*
X156256046Y-76155232D01*
X156454066Y-76215300D01*
X156660000Y-76235583D01*
X156865934Y-76215300D01*
X157063954Y-76155232D01*
X157246450Y-76057685D01*
X157406410Y-75926410D01*
X157537685Y-75766450D01*
X157635232Y-75583954D01*
X157695300Y-75385934D01*
X157715583Y-75180000D01*
X157695300Y-74974066D01*
X157635232Y-74776046D01*
X157537685Y-74593550D01*
X157442708Y-74477819D01*
X157406410Y-74433589D01*
X157308952Y-74353609D01*
X157246450Y-74302315D01*
X157063954Y-74204768D01*
X156964944Y-74174734D01*
X156865932Y-74144699D01*
X156660000Y-74124417D01*
X156454067Y-74144699D01*
X156256043Y-74204769D01*
X156073551Y-74302314D01*
X155913589Y-74433589D01*
X155782314Y-74593551D01*
X155766064Y-74623953D01*
X155720455Y-74671858D01*
X155656706Y-74689500D01*
X155334832Y-74689500D01*
X155278537Y-74675985D01*
X155234514Y-74638385D01*
X155212359Y-74584898D01*
X155216901Y-74527182D01*
X155247151Y-74477819D01*
X155665775Y-74059195D01*
X156095674Y-73629295D01*
X156139674Y-73600926D01*
X156191464Y-73593244D01*
X156241802Y-73607618D01*
X156256046Y-73615232D01*
X156454066Y-73675300D01*
X156660000Y-73695583D01*
X156865934Y-73675300D01*
X157063954Y-73615232D01*
X157246450Y-73517685D01*
X157406410Y-73386410D01*
X157537685Y-73226450D01*
X157635232Y-73043954D01*
X157695300Y-72845934D01*
X157715583Y-72640000D01*
X157695300Y-72434066D01*
X157635232Y-72236046D01*
X157537685Y-72053550D01*
X157472047Y-71973569D01*
X157406410Y-71893589D01*
X157308952Y-71813608D01*
X157246450Y-71762315D01*
X157063954Y-71664768D01*
X156964943Y-71634733D01*
X156865932Y-71604699D01*
X156660000Y-71584417D01*
X156454067Y-71604699D01*
X156256043Y-71664769D01*
X156073551Y-71762314D01*
X155913589Y-71893589D01*
X155782314Y-72053551D01*
X155684769Y-72236043D01*
X155624699Y-72434067D01*
X155604417Y-72639999D01*
X155624699Y-72845932D01*
X155684768Y-73043955D01*
X155692377Y-73058190D01*
X155706754Y-73108534D01*
X155699073Y-73160323D01*
X155670701Y-73204326D01*
X154721848Y-74153181D01*
X154681620Y-74180061D01*
X154634167Y-74189500D01*
X153963300Y-74189500D01*
X153927305Y-74184161D01*
X153894409Y-74168602D01*
X153883231Y-74161133D01*
X153843254Y-74153181D01*
X153824749Y-74149500D01*
X153824748Y-74149500D01*
X152935252Y-74149500D01*
X152935251Y-74149500D01*
X152916746Y-74153181D01*
X152893691Y-74157766D01*
X152839371Y-74156434D01*
X152790836Y-74132004D01*
X152757405Y-74089167D01*
X152745500Y-74036150D01*
X152745500Y-73320251D01*
X152732050Y-73252635D01*
X152735013Y-73192427D01*
X152747231Y-73172053D01*
X152744612Y-73170719D01*
X152760622Y-73139298D01*
X152814719Y-73033126D01*
X152835804Y-72900000D01*
X152814719Y-72766874D01*
X152753528Y-72646780D01*
X152753527Y-72646778D01*
X152658221Y-72551472D01*
X152538124Y-72490280D01*
X152405000Y-72469195D01*
X152271875Y-72490280D01*
X152151778Y-72551472D01*
X152056472Y-72646778D01*
X151995280Y-72766875D01*
X151974195Y-72899999D01*
X151995280Y-73033124D01*
X152065388Y-73170719D01*
X152062768Y-73172053D01*
X152074992Y-73192447D01*
X152077950Y-73252633D01*
X152064500Y-73320253D01*
X152064500Y-74140500D01*
X152047887Y-74202500D01*
X152002500Y-74247887D01*
X151940500Y-74264500D01*
X151369500Y-74264500D01*
X151307500Y-74247887D01*
X151262113Y-74202500D01*
X151245500Y-74140500D01*
X151245500Y-73320251D01*
X151243569Y-73310548D01*
X151233867Y-73261769D01*
X151226397Y-73250590D01*
X151210839Y-73217695D01*
X151205500Y-73181700D01*
X151205500Y-73099216D01*
X151209570Y-73070034D01*
X151209078Y-73064723D01*
X151216058Y-73010785D01*
X151245448Y-72965022D01*
X151291590Y-72936240D01*
X151411975Y-72894116D01*
X151473995Y-72848344D01*
X151518211Y-72815711D01*
X151596614Y-72709478D01*
X151596614Y-72709477D01*
X151596616Y-72709475D01*
X151640225Y-72584849D01*
X151643000Y-72555256D01*
X151643000Y-71974744D01*
X151640225Y-71945151D01*
X151596616Y-71820525D01*
X151596614Y-71820523D01*
X151596614Y-71820521D01*
X151518211Y-71714288D01*
X151411978Y-71635885D01*
X151398179Y-71631056D01*
X151287349Y-71592275D01*
X151287347Y-71592274D01*
X151287345Y-71592274D01*
X151257760Y-71589500D01*
X151257756Y-71589500D01*
X150552244Y-71589500D01*
X150552240Y-71589500D01*
X150522654Y-71592274D01*
X150398021Y-71635885D01*
X150291788Y-71714288D01*
X150213385Y-71820521D01*
X150169774Y-71945154D01*
X150167000Y-71974740D01*
X150167000Y-72555260D01*
X150171189Y-72599930D01*
X150168692Y-72600164D01*
X150171910Y-72632838D01*
X150150256Y-72687258D01*
X150106040Y-72725668D01*
X150049128Y-72739500D01*
X148709243Y-72739500D01*
X148692422Y-72736756D01*
X148649308Y-72738749D01*
X148635919Y-72739368D01*
X148630195Y-72739500D01*
X148611183Y-72739500D01*
X148596695Y-72741181D01*
X148570006Y-72742415D01*
X148563662Y-72745216D01*
X148536382Y-72753664D01*
X148529565Y-72754938D01*
X148506855Y-72768999D01*
X148491672Y-72777002D01*
X148467232Y-72787793D01*
X148462331Y-72792695D01*
X148439937Y-72810434D01*
X148434048Y-72814080D01*
X148417953Y-72835393D01*
X148406682Y-72848344D01*
X144524325Y-76730701D01*
X144480323Y-76759072D01*
X144428534Y-76766755D01*
X144378191Y-76752378D01*
X144363956Y-76744769D01*
X144363955Y-76744768D01*
X144363954Y-76744768D01*
X144255170Y-76711769D01*
X144165932Y-76684699D01*
X143960000Y-76664417D01*
X143754067Y-76684699D01*
X143556043Y-76744769D01*
X143373551Y-76842314D01*
X143213589Y-76973589D01*
X143082314Y-77133551D01*
X142984769Y-77316043D01*
X142924699Y-77514067D01*
X142904417Y-77720000D01*
X142160500Y-77720000D01*
X142160500Y-72639999D01*
X142904417Y-72639999D01*
X142924699Y-72845932D01*
X142952093Y-72936238D01*
X142984768Y-73043954D01*
X143082315Y-73226450D01*
X143133608Y-73288952D01*
X143213589Y-73386410D01*
X143293569Y-73452047D01*
X143373550Y-73517685D01*
X143556046Y-73615232D01*
X143754066Y-73675300D01*
X143960000Y-73695583D01*
X144165934Y-73675300D01*
X144363954Y-73615232D01*
X144546450Y-73517685D01*
X144706410Y-73386410D01*
X144837685Y-73226450D01*
X144935232Y-73043954D01*
X144995300Y-72845934D01*
X145015583Y-72640000D01*
X144995300Y-72434066D01*
X144935232Y-72236046D01*
X144837685Y-72053550D01*
X144772047Y-71973569D01*
X144706410Y-71893589D01*
X144608952Y-71813608D01*
X144546450Y-71762315D01*
X144363954Y-71664768D01*
X144264943Y-71634733D01*
X144165932Y-71604699D01*
X143960000Y-71584417D01*
X143754067Y-71604699D01*
X143556043Y-71664769D01*
X143373551Y-71762314D01*
X143213589Y-71893589D01*
X143082314Y-72053551D01*
X142984769Y-72236043D01*
X142924699Y-72434067D01*
X142904417Y-72639999D01*
X142160500Y-72639999D01*
X142160500Y-70964500D01*
X142177113Y-70902500D01*
X142222500Y-70857113D01*
X142284500Y-70840500D01*
X158335500Y-70840500D01*
X158397500Y-70857113D01*
G37*
%TD.AperFunction*%
%TD*%
M02*
