%TF.GenerationSoftware,KiCad,Pcbnew,7.0.1*%
%TF.CreationDate,2023-04-17T09:12:49+12:00*%
%TF.ProjectId,ICM-20948-breakout,49434d2d-3230-4393-9438-2d627265616b,rev?*%
%TF.SameCoordinates,Original*%
%TF.FileFunction,Soldermask,Top*%
%TF.FilePolarity,Negative*%
%FSLAX46Y46*%
G04 Gerber Fmt 4.6, Leading zero omitted, Abs format (unit mm)*
G04 Created by KiCad (PCBNEW 7.0.1) date 2023-04-17 09:12:49*
%MOMM*%
%LPD*%
G01*
G04 APERTURE LIST*
G04 Aperture macros list*
%AMRoundRect*
0 Rectangle with rounded corners*
0 $1 Rounding radius*
0 $2 $3 $4 $5 $6 $7 $8 $9 X,Y pos of 4 corners*
0 Add a 4 corners polygon primitive as box body*
4,1,4,$2,$3,$4,$5,$6,$7,$8,$9,$2,$3,0*
0 Add four circle primitives for the rounded corners*
1,1,$1+$1,$2,$3*
1,1,$1+$1,$4,$5*
1,1,$1+$1,$6,$7*
1,1,$1+$1,$8,$9*
0 Add four rect primitives between the rounded corners*
20,1,$1+$1,$2,$3,$4,$5,0*
20,1,$1+$1,$4,$5,$6,$7,0*
20,1,$1+$1,$6,$7,$8,$9,0*
20,1,$1+$1,$8,$9,$2,$3,0*%
G04 Aperture macros list end*
%ADD10RoundRect,0.150000X-0.512500X-0.150000X0.512500X-0.150000X0.512500X0.150000X-0.512500X0.150000X0*%
%ADD11RoundRect,0.050000X-0.225000X-0.050000X0.225000X-0.050000X0.225000X0.050000X-0.225000X0.050000X0*%
%ADD12RoundRect,0.050000X0.050000X-0.225000X0.050000X0.225000X-0.050000X0.225000X-0.050000X-0.225000X0*%
%ADD13RoundRect,0.237500X0.300000X0.237500X-0.300000X0.237500X-0.300000X-0.237500X0.300000X-0.237500X0*%
%ADD14R,2.050000X2.050000*%
%ADD15R,0.280000X0.850000*%
%ADD16R,0.850000X0.280000*%
%ADD17RoundRect,0.237500X-0.300000X-0.237500X0.300000X-0.237500X0.300000X0.237500X-0.300000X0.237500X0*%
%ADD18C,1.700000*%
%ADD19O,1.700000X1.700000*%
G04 APERTURE END LIST*
D10*
%TO.C,U3*%
X145957500Y-85020000D03*
X145957500Y-85970000D03*
X145957500Y-86920000D03*
X148232500Y-86920000D03*
X148232500Y-85020000D03*
%TD*%
D11*
%TO.C,U1*%
X147770000Y-79540000D03*
X147770000Y-79940000D03*
X147770000Y-80340000D03*
X147770000Y-80740000D03*
X147770000Y-81140000D03*
X147770000Y-81540000D03*
D12*
X148270000Y-82040000D03*
X148670000Y-82040000D03*
X149070000Y-82040000D03*
X149470000Y-82040000D03*
X149870000Y-82040000D03*
X150270000Y-82040000D03*
D11*
X150770000Y-81540000D03*
X150770000Y-81140000D03*
X150770000Y-80740000D03*
X150770000Y-80340000D03*
X150770000Y-79940000D03*
X150770000Y-79540000D03*
D12*
X150270000Y-79040000D03*
X149870000Y-79040000D03*
X149470000Y-79040000D03*
X149070000Y-79040000D03*
X148670000Y-79040000D03*
X148270000Y-79040000D03*
%TD*%
D13*
%TO.C,C2*%
X146507500Y-83390000D03*
X148232500Y-83390000D03*
%TD*%
%TO.C,C3*%
X150905000Y-72265000D03*
X149180000Y-72265000D03*
%TD*%
D14*
%TO.C,U2*%
X151655000Y-75490000D03*
D15*
X152405000Y-73765000D03*
D16*
X153380000Y-74490000D03*
X153380000Y-74990000D03*
X153380000Y-75490000D03*
X153380000Y-75990000D03*
X153380000Y-76490000D03*
D15*
X152405000Y-77215000D03*
X150905000Y-77215000D03*
D16*
X149930000Y-76490000D03*
X149930000Y-75990000D03*
X149930000Y-75490000D03*
X149930000Y-74990000D03*
X149930000Y-74490000D03*
D15*
X150905000Y-73765000D03*
%TD*%
D17*
%TO.C,C1*%
X150139930Y-83390000D03*
X151864930Y-83390000D03*
%TD*%
D18*
%TO.C,J2*%
X143960000Y-77720000D03*
D19*
X143960000Y-75180000D03*
X143960000Y-72640000D03*
%TD*%
%TO.C,J1*%
X156660000Y-80260000D03*
X156660000Y-77720000D03*
X156660000Y-75180000D03*
D18*
X156660000Y-72640000D03*
%TD*%
M02*
