<?xml version="1.0" standalone="no"?>
 <!DOCTYPE svg PUBLIC "-//W3C//DTD SVG 1.1//EN" 
 "http://www.w3.org/Graphics/SVG/1.1/DTD/svg11.dtd"> 
<svg
  xmlns:svg="http://www.w3.org/2000/svg"
  xmlns="http://www.w3.org/2000/svg"
  xmlns:xlink="http://www.w3.org/1999/xlink"
  version="1.1"
  width="18.8722mm" height="39.1922mm" viewBox="0.0000 0.0000 18.8722 39.1922">
<title>SVG Image created as IS31FL3239-breakout-B_Cu.svg date 2023/04/13 05:00:58 </title>
  <desc>Image generated by PCBNEW </desc>
<g style="fill:#000000; fill-opacity:1.0000;stroke:#000000; stroke-opacity:1.0000;
stroke-linecap:round; stroke-linejoin:round;"
 transform="translate(0 0) scale(1 1)">
</g>
<g style="fill:#000000; fill-opacity:0.0; 
stroke:#000000; stroke-width:0.0000; stroke-opacity:1; 
stroke-linecap:round; stroke-linejoin:round;">
<g >
</g>
<g >
</g>
<g >
</g>
<g >
</g>
<g >
</g>
<g >
</g>
<g >
</g>
<g >
</g>
<g >
</g>
<g style="fill:#000000; fill-opacity:0.0; 
stroke:#000000; stroke-width:0.0000; stroke-opacity:1; 
stroke-linecap:round; stroke-linejoin:round;">
</g>
<g style="fill:#000000; fill-opacity:1.0000; 
stroke:#000000; stroke-width:0.0000; stroke-opacity:1; 
stroke-linecap:round; stroke-linejoin:round;">
<circle cx="1.8250" cy="1.8250" r="0.8500" /> 
<circle cx="1.8250" cy="4.3650" r="0.8500" /> 
<circle cx="1.8250" cy="6.9050" r="0.8500" /> 
<circle cx="1.8250" cy="9.4450" r="0.8500" /> 
<circle cx="1.8250" cy="11.9850" r="0.8500" /> 
<circle cx="1.8250" cy="14.5250" r="0.8500" /> 
<circle cx="1.8250" cy="17.0650" r="0.8500" /> 
<circle cx="1.8250" cy="19.6050" r="0.8500" /> 
<circle cx="1.8250" cy="22.1450" r="0.8500" /> 
<circle cx="1.8250" cy="24.6850" r="0.8500" /> 
<circle cx="1.8250" cy="27.2250" r="0.8500" /> 
<circle cx="1.8250" cy="29.7650" r="0.8500" /> 
<circle cx="1.8250" cy="32.3050" r="0.8500" /> 
<circle cx="1.8250" cy="34.8450" r="0.8500" /> 
</g>
<g >
</g>
<g style="fill:#000000; fill-opacity:1.0000; 
stroke:#000000; stroke-width:0.0000; stroke-opacity:1; 
stroke-linecap:round; stroke-linejoin:round;">
<circle cx="17.0650" cy="37.3750" r="0.8500" /> 
<circle cx="17.0650" cy="34.8350" r="0.8500" /> 
<circle cx="17.0650" cy="32.2950" r="0.8500" /> 
<circle cx="17.0650" cy="29.7550" r="0.8500" /> 
<circle cx="17.0650" cy="27.2150" r="0.8500" /> 
<circle cx="17.0650" cy="24.6750" r="0.8500" /> 
<circle cx="17.0650" cy="22.1350" r="0.8500" /> 
<circle cx="17.0650" cy="19.5950" r="0.8500" /> 
<circle cx="17.0650" cy="17.0550" r="0.8500" /> 
<circle cx="17.0650" cy="14.5150" r="0.8500" /> 
<circle cx="17.0650" cy="11.9750" r="0.8500" /> 
<circle cx="17.0650" cy="9.4350" r="0.8500" /> 
<circle cx="17.0650" cy="6.8950" r="0.8500" /> 
<circle cx="17.0650" cy="4.3550" r="0.8500" /> 
<circle cx="17.0650" cy="1.8150" r="0.8500" /> 
</g>
<g >
</g>
<g style="fill:#000000; fill-opacity:1.0000; 
stroke:#000000; stroke-width:0.0000; stroke-opacity:1; 
stroke-linecap:round; stroke-linejoin:round;">
<circle cx="8.3700" cy="10.8100" r="0.2500" /> 
</g>
<g style="fill:#000000; fill-opacity:1.0000; 
stroke:#000000; stroke-width:0.0212; stroke-opacity:1; 
stroke-linecap:round; stroke-linejoin:round;">
</g>
<g style="fill:#000000; fill-opacity:1.0000; 
stroke:#000000; stroke-width:0.0000; stroke-opacity:1; 
stroke-linecap:round; stroke-linejoin:round;">
<circle cx="6.4522" cy="20.9672" r="0.2500" /> 
</g>
<g style="fill:#000000; fill-opacity:1.0000; 
stroke:#000000; stroke-width:0.0212; stroke-opacity:1; 
stroke-linecap:round; stroke-linejoin:round;">
</g>
<g style="fill:#000000; fill-opacity:1.0000; 
stroke:#000000; stroke-width:0.0000; stroke-opacity:1; 
stroke-linecap:round; stroke-linejoin:round;">
<circle cx="11.6650" cy="28.2900" r="0.2500" /> 
</g>
<g style="fill:#000000; fill-opacity:1.0000; 
stroke:#000000; stroke-width:0.0212; stroke-opacity:1; 
stroke-linecap:round; stroke-linejoin:round;">
</g>
<g style="fill:#000000; fill-opacity:1.0000; 
stroke:#000000; stroke-width:0.0000; stroke-opacity:1; 
stroke-linecap:round; stroke-linejoin:round;">
<circle cx="9.4450" cy="8.1475" r="0.2500" /> 
</g>
<g style="fill:#000000; fill-opacity:1.0000; 
stroke:#000000; stroke-width:0.0212; stroke-opacity:1; 
stroke-linecap:round; stroke-linejoin:round;">
</g>
<g style="fill:#000000; fill-opacity:1.0000; 
stroke:#000000; stroke-width:0.0000; stroke-opacity:1; 
stroke-linecap:round; stroke-linejoin:round;">
<circle cx="12.6650" cy="15.8600" r="0.2500" /> 
</g>
<g style="fill:#000000; fill-opacity:1.0000; 
stroke:#000000; stroke-width:0.0212; stroke-opacity:1; 
stroke-linecap:round; stroke-linejoin:round;">
</g>
<g style="fill:#000000; fill-opacity:1.0000; 
stroke:#000000; stroke-width:0.0000; stroke-opacity:1; 
stroke-linecap:round; stroke-linejoin:round;">
<circle cx="7.2850" cy="23.0300" r="0.2500" /> 
</g>
<g style="fill:#000000; fill-opacity:1.0000; 
stroke:#000000; stroke-width:0.0212; stroke-opacity:1; 
stroke-linecap:round; stroke-linejoin:round;">
</g>
<g style="fill:#000000; fill-opacity:1.0000; 
stroke:#000000; stroke-width:0.0000; stroke-opacity:1; 
stroke-linecap:round; stroke-linejoin:round;">
<circle cx="6.2900" cy="31.0625" r="0.2500" /> 
</g>
<g style="fill:#000000; fill-opacity:1.0000; 
stroke:#000000; stroke-width:0.0212; stroke-opacity:1; 
stroke-linecap:round; stroke-linejoin:round;">
</g>
<g style="fill:#000000; fill-opacity:1.0000; 
stroke:#000000; stroke-width:0.0000; stroke-opacity:1; 
stroke-linecap:round; stroke-linejoin:round;">
<circle cx="10.5900" cy="31.0625" r="0.2500" /> 
</g>
<g style="fill:#000000; fill-opacity:1.0000; 
stroke:#000000; stroke-width:0.0212; stroke-opacity:1; 
stroke-linecap:round; stroke-linejoin:round;">
</g>
<g style="fill:#000000; fill-opacity:1.0000; 
stroke:#000000; stroke-width:0.0000; stroke-opacity:1; 
stroke-linecap:round; stroke-linejoin:round;">
<circle cx="6.1660" cy="22.9600" r="0.2500" /> 
</g>
<g style="fill:#000000; fill-opacity:1.0000; 
stroke:#000000; stroke-width:0.0212; stroke-opacity:1; 
stroke-linecap:round; stroke-linejoin:round;">
</g>
<g style="fill:#000000; fill-opacity:1.0000; 
stroke:#000000; stroke-width:0.0000; stroke-opacity:1; 
stroke-linecap:round; stroke-linejoin:round;">
<circle cx="7.6860" cy="22.4182" r="0.2500" /> 
</g>
<g style="fill:#000000; fill-opacity:1.0000; 
stroke:#000000; stroke-width:0.0212; stroke-opacity:1; 
stroke-linecap:round; stroke-linejoin:round;">
</g>
<g style="fill:#000000; fill-opacity:1.0000; 
stroke:#000000; stroke-width:0.0000; stroke-opacity:1; 
stroke-linecap:round; stroke-linejoin:round;">
<circle cx="10.5200" cy="10.8100" r="0.2500" /> 
</g>
<g style="fill:#000000; fill-opacity:1.0000; 
stroke:#000000; stroke-width:0.0212; stroke-opacity:1; 
stroke-linecap:round; stroke-linejoin:round;">
</g>
<g >
</g>
<g style="fill:#000000; fill-opacity:1.0000; 
stroke:#000000; stroke-width:0.0212; stroke-opacity:1; 
stroke-linecap:round; stroke-linejoin:round;">
</g>
<g style="fill:#000000; fill-opacity:1.0000; 
stroke:#000000; stroke-width:0.2000; stroke-opacity:1; 
stroke-linecap:round; stroke-linejoin:round;">
</g>
<g style="fill:#000000; fill-opacity:0.0; 
stroke:#000000; stroke-width:0.2000; stroke-opacity:1; 
stroke-linecap:round; stroke-linejoin:round;">
<path d="M8.3700 19.0494
L8.3700 10.8100
" />
<path d="M6.4522 20.9672
L8.3700 19.0494
" />
<path d="M6.1660 30.9385
L6.2900 31.0625
" />
<path d="M6.2900 31.0625
L10.5900 31.0625
" />
<path d="M6.1660 22.9600
L6.1660 30.9385
" />
<path d="M10.5200 19.5842
L10.5200 10.8100
" />
<path d="M7.6860 22.4182
L10.5200 19.5842
" />
</g>
<g >
</g>
<g style="fill:#000000; fill-opacity:0.0; 
stroke:#000000; stroke-width:0.2000; stroke-opacity:1; 
stroke-linecap:round; stroke-linejoin:round;">
<g >
</g>
<g style="fill:#000000; fill-opacity:1.0000; 
stroke:#000000; stroke-width:0.0000; stroke-opacity:1; 
stroke-linecap:round; stroke-linejoin:round;">
<path style="fill:#000000; fill-opacity:1.0000; 
stroke:#000000; stroke-width:0.0000; stroke-opacity:1; 
stroke-linecap:round; stroke-linejoin:round;fill-rule:evenodd;"
d="M 18.8457,0.0393
18.8640,0.0835
18.8640,39.1165
18.8457,39.1607
18.8015,39.1790
2.6113,39.1790
2.5671,39.1607
0.7667,37.3603
16.0095,37.3603
16.0268,37.5656
16.0835,37.7636
16.1777,37.9468
16.1796,37.9492
16.1796,37.9492
16.2086,37.9858
16.3057,38.1083
16.4626,38.2418
16.6424,38.3423
16.6453,38.3432
16.6453,38.3432
16.8354,38.4050
16.8354,38.4050
16.8383,38.4060
16.8414,38.4063
16.8414,38.4063
16.9034,38.4137
17.0429,38.4304
17.0459,38.4301
17.0459,38.4301
17.2452,38.4148
17.2453,38.4148
17.2483,38.4145
17.4467,38.3591
17.4494,38.3578
17.4495,38.3578
17.6279,38.2676
17.6306,38.2663
17.6330,38.2644
17.6330,38.2644
17.7180,38.1980
17.7930,38.1394
17.8219,38.1059
17.8460,38.0780
17.9276,37.9835
18.0293,37.8043
18.0944,37.6089
18.0995,37.5685
18.1200,37.4062
18.1200,37.4062
18.1202,37.4045
18.1206,37.3750
18.1204,37.3733
18.1204,37.3733
18.1008,37.1730
18.1005,37.1700
18.0409,36.9727
17.9442,36.7908
17.8140,36.6312
17.6553,36.4999
17.4741,36.4019
17.4191,36.3849
17.2802,36.3419
17.2802,36.3419
17.2773,36.3410
17.2742,36.3407
17.2742,36.3407
17.2217,36.3351
17.0724,36.3194
17.0693,36.3197
17.0693,36.3197
16.9564,36.3300
16.8672,36.3381
16.8643,36.3390
16.8643,36.3390
16.7140,36.3832
16.6696,36.3963
16.4870,36.4917
16.3264,36.6208
16.1940,36.7786
16.0948,36.9592
16.0325,37.1555
16.0321,37.1586
16.0321,37.1586
16.0305,37.1730
16.0095,37.3603
0.7667,37.3603
0.0443,36.6379
0.0260,36.5937
0.0260,34.8303
0.7695,34.8303
0.7708,34.8450
0.7862,35.0285
0.7868,35.0356
0.7971,35.0718
0.8407,35.2236
0.8435,35.2336
0.9377,35.4168
0.9396,35.4192
0.9396,35.4192
0.9686,35.4558
1.0657,35.5783
1.2226,35.7118
1.4024,35.8123
1.4053,35.8132
1.4053,35.8132
1.5954,35.8750
1.5954,35.8750
1.5983,35.8760
1.6014,35.8763
1.6014,35.8763
1.6634,35.8837
1.8029,35.9004
1.8059,35.9001
1.8059,35.9001
2.0052,35.8848
2.0053,35.8848
2.0083,35.8845
2.2067,35.8291
2.2094,35.8278
2.2095,35.8278
2.3879,35.7376
2.3906,35.7363
2.3930,35.7344
2.3930,35.7344
2.4780,35.6680
2.5530,35.6094
2.5636,35.5971
2.6060,35.5480
2.6876,35.4535
2.7893,35.2743
2.8544,35.0789
2.8556,35.0689
2.8800,34.8762
2.8800,34.8762
2.8802,34.8745
2.8803,34.8662
2.8806,34.8467
2.8806,34.8467
2.8806,34.8450
2.8804,34.8433
2.8804,34.8433
2.8782,34.8203
16.0095,34.8203
16.0268,35.0256
16.0835,35.2236
16.1777,35.4068
16.1796,35.4092
16.1796,35.4092
16.2147,35.4535
16.3057,35.5683
16.4626,35.7018
16.6424,35.8023
16.6453,35.8032
16.6453,35.8032
16.8354,35.8650
16.8354,35.8650
16.8383,35.8660
16.8414,35.8663
16.8414,35.8663
16.9252,35.8763
17.0429,35.8904
17.0459,35.8901
17.0459,35.8901
17.2452,35.8748
17.2453,35.8748
17.2483,35.8745
17.4467,35.8191
17.4494,35.8178
17.4495,35.8178
17.6279,35.7276
17.6306,35.7263
17.6330,35.7244
17.6330,35.7244
17.7777,35.6113
17.7930,35.5994
17.8112,35.5783
17.8460,35.5380
17.9276,35.4435
18.0293,35.2643
18.0944,35.0689
18.0989,35.0325
18.1200,34.8662
18.1200,34.8662
18.1202,34.8645
18.1204,34.8450
18.1206,34.8367
18.1206,34.8367
18.1206,34.8350
18.1204,34.8333
18.1204,34.8333
18.1008,34.6330
18.1005,34.6300
18.0409,34.4327
17.9495,34.2608
17.9457,34.2535
17.9457,34.2535
17.9442,34.2508
17.8140,34.0912
17.6553,33.9599
17.4741,33.8619
17.4191,33.8449
17.2802,33.8019
17.2802,33.8019
17.2773,33.8010
17.2742,33.8007
17.2742,33.8007
17.2217,33.7951
17.0724,33.7794
17.0693,33.7797
17.0693,33.7797
16.9625,33.7894
16.8672,33.7981
16.8643,33.7990
16.8643,33.7990
16.7140,33.8432
16.6696,33.8563
16.4870,33.9517
16.3264,34.0808
16.1940,34.2386
16.0948,34.4192
16.0325,34.6155
16.0095,34.8203
2.8782,34.8203
2.8608,34.6430
2.8605,34.6400
2.8009,34.4427
2.7042,34.2608
2.5740,34.1012
2.4153,33.9699
2.2341,33.8719
2.1791,33.8549
2.0402,33.8119
2.0402,33.8119
2.0373,33.8110
2.0342,33.8107
2.0342,33.8107
1.9507,33.8019
1.8324,33.7894
1.8293,33.7897
1.8293,33.7897
1.7164,33.8000
1.6272,33.8081
1.6243,33.8090
1.6243,33.8090
1.4740,33.8532
1.4296,33.8663
1.2470,33.9617
1.0864,34.0908
0.9540,34.2486
0.8934,34.3588
0.8603,34.4192
0.8548,34.4292
0.7925,34.6255
0.7921,34.6286
0.7921,34.6286
0.7706,34.8203
0.7695,34.8303
0.0260,34.8303
0.0260,32.2903
0.7695,32.2903
0.7708,32.3050
0.7862,32.4885
0.7868,32.4956
0.7971,32.5318
0.8407,32.6836
0.8435,32.6936
0.9377,32.8768
0.9396,32.8792
0.9396,32.8792
0.9686,32.9158
1.0657,33.0383
1.2226,33.1718
1.4024,33.2723
1.4053,33.2732
1.4053,33.2732
1.5954,33.3350
1.5954,33.3350
1.5983,33.3360
1.6014,33.3363
1.6014,33.3363
1.6634,33.3437
1.8029,33.3604
1.8059,33.3601
1.8059,33.3601
2.0052,33.3448
2.0053,33.3448
2.0083,33.3445
2.2067,33.2891
2.2094,33.2878
2.2095,33.2878
2.3879,33.1976
2.3906,33.1963
2.3930,33.1944
2.3930,33.1944
2.4780,33.1280
2.5530,33.0694
2.5636,33.0571
2.6060,33.0080
2.6876,32.9135
2.7893,32.7343
2.8544,32.5389
2.8556,32.5289
2.8800,32.3362
2.8800,32.3362
2.8802,32.3345
2.8803,32.3262
2.8806,32.3067
2.8806,32.3067
2.8806,32.3050
2.8804,32.3033
2.8804,32.3033
2.8782,32.2803
16.0095,32.2803
16.0268,32.4856
16.0835,32.6836
16.1777,32.8668
16.1796,32.8692
16.1796,32.8692
16.2147,32.9135
16.3057,33.0283
16.4626,33.1618
16.6424,33.2623
16.6453,33.2632
16.6453,33.2632
16.8354,33.3250
16.8354,33.3250
16.8383,33.3260
16.8414,33.3263
16.8414,33.3263
16.9252,33.3363
17.0429,33.3504
17.0459,33.3501
17.0459,33.3501
17.2452,33.3348
17.2453,33.3348
17.2483,33.3345
17.4467,33.2791
17.4494,33.2778
17.4495,33.2778
17.6279,33.1876
17.6306,33.1863
17.6330,33.1844
17.6330,33.1844
17.7777,33.0713
17.7930,33.0594
17.8112,33.0383
17.8460,32.9980
17.9276,32.9035
18.0293,32.7243
18.0944,32.5289
18.0989,32.4925
18.1200,32.3262
18.1200,32.3262
18.1202,32.3245
18.1204,32.3050
18.1206,32.2967
18.1206,32.2967
18.1206,32.2950
18.1204,32.2933
18.1204,32.2933
18.1008,32.0930
18.1005,32.0900
18.0409,31.8927
17.9495,31.7208
17.9457,31.7135
17.9457,31.7135
17.9442,31.7108
17.8140,31.5512
17.6553,31.4199
17.4741,31.3219
17.3999,31.2989
17.2802,31.2619
17.2802,31.2619
17.2773,31.2610
17.2742,31.2607
17.2742,31.2607
17.2217,31.2551
17.0724,31.2394
17.0693,31.2397
17.0693,31.2397
16.9625,31.2494
16.8672,31.2581
16.8643,31.2590
16.8643,31.2590
16.7285,31.2989
16.6696,31.3163
16.4870,31.4117
16.3264,31.5408
16.1940,31.6986
16.0948,31.8792
16.0325,32.0755
16.0095,32.2803
2.8782,32.2803
2.8608,32.1030
2.8605,32.1000
2.8009,31.9027
2.7042,31.7208
2.5740,31.5612
2.4153,31.4299
2.2341,31.3319
2.1730,31.3130
2.0402,31.2719
2.0402,31.2719
2.0373,31.2710
2.0342,31.2707
2.0342,31.2707
1.9507,31.2619
1.8324,31.2494
1.8293,31.2497
1.8293,31.2497
1.7164,31.2600
1.6272,31.2681
1.6243,31.2690
1.6243,31.2690
1.4747,31.3130
1.4296,31.3263
1.2470,31.4217
1.0864,31.5508
0.9540,31.7086
0.8934,31.8188
0.8603,31.8792
0.8548,31.8892
0.7925,32.0855
0.7921,32.0886
0.7921,32.0886
0.7706,32.2803
0.7695,32.2903
0.0260,32.2903
0.0260,27.2103
0.7695,27.2103
0.7708,27.2250
0.7862,27.4085
0.7868,27.4156
0.7971,27.4518
0.8407,27.6036
0.8435,27.6136
0.9377,27.7968
0.9396,27.7992
0.9396,27.7992
0.9686,27.8358
1.0657,27.9583
1.2226,28.0918
1.4024,28.1923
1.4053,28.1932
1.4053,28.1932
1.5954,28.2550
1.5954,28.2550
1.5983,28.2560
1.6014,28.2563
1.6014,28.2563
1.6634,28.2637
1.8029,28.2804
1.8059,28.2801
1.8059,28.2801
2.0052,28.2648
2.0053,28.2648
2.0083,28.2645
2.2067,28.2091
2.2094,28.2078
2.2095,28.2078
2.3879,28.1176
2.3906,28.1163
2.3930,28.1144
2.3930,28.1144
2.4780,28.0480
2.5530,27.9894
2.5636,27.9771
2.6060,27.9280
2.6876,27.8335
2.7893,27.6543
2.8544,27.4589
2.8556,27.4489
2.8800,27.2562
2.8800,27.2562
2.8802,27.2545
2.8803,27.2462
2.8806,27.2267
2.8806,27.2267
2.8806,27.2250
2.8804,27.2233
2.8804,27.2233
2.8608,27.0230
2.8605,27.0200
2.8009,26.8227
2.7042,26.6408
2.5740,26.4812
2.4153,26.3499
2.2341,26.2519
2.1791,26.2349
2.0402,26.1919
2.0402,26.1919
2.0373,26.1910
2.0342,26.1907
2.0342,26.1907
1.9507,26.1819
1.8324,26.1694
1.8293,26.1697
1.8293,26.1697
1.7164,26.1800
1.6272,26.1881
1.6243,26.1890
1.6243,26.1890
1.4740,26.2332
1.4296,26.2463
1.2470,26.3417
1.0864,26.4708
0.9540,26.6286
0.8934,26.7388
0.8603,26.7992
0.8548,26.8092
0.7925,27.0055
0.7921,27.0086
0.7921,27.0086
0.7706,27.2003
0.7695,27.2103
0.0260,27.2103
0.0260,24.6703
0.7695,24.6703
0.7708,24.6850
0.7862,24.8685
0.7868,24.8756
0.7971,24.9118
0.8407,25.0636
0.8435,25.0736
0.9377,25.2568
0.9396,25.2592
0.9396,25.2592
0.9686,25.2958
1.0657,25.4183
1.2226,25.5518
1.4024,25.6523
1.4053,25.6532
1.4053,25.6532
1.5954,25.7150
1.5954,25.7150
1.5983,25.7160
1.6014,25.7163
1.6014,25.7163
1.6634,25.7237
1.8029,25.7404
1.8059,25.7401
1.8059,25.7401
2.0052,25.7248
2.0053,25.7248
2.0083,25.7245
2.2067,25.6691
2.2094,25.6678
2.2095,25.6678
2.3879,25.5776
2.3906,25.5763
2.3930,25.5744
2.3930,25.5744
2.4780,25.5080
2.5530,25.4494
2.5636,25.4371
2.6060,25.3880
2.6876,25.2935
2.7893,25.1143
2.8544,24.9189
2.8556,24.9089
2.8800,24.7162
2.8800,24.7162
2.8802,24.7145
2.8803,24.7062
2.8806,24.6867
2.8806,24.6867
2.8806,24.6850
2.8804,24.6833
2.8804,24.6833
2.8608,24.4830
2.8605,24.4800
2.8009,24.2827
2.7042,24.1008
2.5740,23.9412
2.4153,23.8099
2.2341,23.7119
2.1791,23.6949
2.0402,23.6519
2.0402,23.6519
2.0373,23.6510
2.0342,23.6507
2.0342,23.6507
1.9507,23.6419
1.8324,23.6294
1.8293,23.6297
1.8293,23.6297
1.7164,23.6400
1.6272,23.6481
1.6243,23.6490
1.6243,23.6490
1.4740,23.6932
1.4296,23.7063
1.2470,23.8017
1.0864,23.9308
0.9540,24.0886
0.8934,24.1988
0.8603,24.2592
0.8548,24.2692
0.7925,24.4655
0.7921,24.4686
0.7921,24.4686
0.7706,24.6603
0.7695,24.6703
0.0260,24.6703
0.0260,22.1303
0.7695,22.1303
0.7725,22.1662
0.7862,22.3285
0.7868,22.3356
0.7967,22.3701
0.8407,22.5236
0.8435,22.5336
0.9377,22.7168
0.9396,22.7192
0.9396,22.7192
0.9786,22.7684
1.0657,22.8783
1.0680,22.8803
1.1719,22.9687
1.2226,23.0118
1.4024,23.1123
1.4053,23.1132
1.4053,23.1132
1.5954,23.1750
1.5954,23.1750
1.5983,23.1760
1.6014,23.1763
1.6014,23.1763
1.6634,23.1837
1.8029,23.2004
1.8059,23.2001
1.8059,23.2001
2.0052,23.1848
2.0053,23.1848
2.0083,23.1845
2.2067,23.1291
2.2094,23.1278
2.2095,23.1278
2.3879,23.0376
2.3906,23.0363
2.3930,23.0344
2.3930,23.0344
2.4897,22.9589
2.4953,22.9544
5.7109,22.9544
5.7277,23.0824
5.7295,23.0865
5.7750,23.1900
5.7796,23.2005
5.7914,23.2145
5.8509,23.2853
5.8655,23.3255
5.8655,30.8835
5.8651,30.8896
5.8636,30.8939
5.8638,30.8997
5.8630,30.9054
5.8614,30.9051
5.8577,30.9231
5.8548,30.9294
5.8349,31.0569
5.8516,31.1849
5.8534,31.1890
5.8886,31.2690
5.9036,31.3030
5.9244,31.3277
5.9713,31.3836
5.9866,31.4018
5.9903,31.4043
5.9903,31.4043
6.0318,31.4318
6.0941,31.4733
6.2172,31.5118
6.2217,31.5119
6.2217,31.5119
6.3418,31.5141
6.3418,31.5141
6.3463,31.5141
6.3505,31.5130
6.3505,31.5130
6.4085,31.4972
6.4708,31.4802
6.5658,31.4218
6.5769,31.4150
6.5807,31.4127
6.6071,31.3836
6.6534,31.3630
10.2249,31.3630
10.2691,31.3813
10.2728,31.3853
10.2866,31.4018
10.2903,31.4043
10.2903,31.4043
10.3318,31.4318
10.3941,31.4733
10.5172,31.5118
10.5217,31.5119
10.5217,31.5119
10.6418,31.5141
10.6418,31.5141
10.6463,31.5141
10.6505,31.5130
10.6505,31.5130
10.7085,31.4972
10.7708,31.4802
10.8658,31.4218
10.8769,31.4150
10.8807,31.4127
10.9589,31.3263
10.9643,31.3203
10.9673,31.3170
11.0236,31.2009
11.0450,31.0736
11.0451,31.0625
11.0268,30.9348
10.9734,30.8173
10.8892,30.7195
10.7809,30.6493
10.7766,30.6481
10.7766,30.6481
10.6615,30.6136
10.6615,30.6136
10.6573,30.6124
10.5937,30.6120
10.5327,30.6116
10.5327,30.6116
10.5282,30.6116
10.4042,30.6470
10.2950,30.7159
10.2921,30.7192
10.2921,30.7192
10.2730,30.7409
10.2261,30.7620
6.6544,30.7620
6.6071,30.7403
6.5921,30.7229
6.5921,30.7229
6.5892,30.7195
6.4950,30.6585
6.4679,30.6191
6.4665,30.6061
6.4665,29.7403
16.0095,29.7403
16.0268,29.9456
16.0835,30.1436
16.1777,30.3268
16.1796,30.3292
16.1796,30.3292
16.2086,30.3658
16.3057,30.4883
16.3080,30.4903
16.4515,30.6124
16.4626,30.6218
16.6424,30.7223
16.6453,30.7232
16.6453,30.7232
16.8354,30.7850
16.8354,30.7850
16.8383,30.7860
16.8414,30.7863
16.8414,30.7863
16.9034,30.7937
17.0429,30.8104
17.0459,30.8101
17.0459,30.8101
17.2452,30.7948
17.2453,30.7948
17.2483,30.7945
17.4467,30.7391
17.4494,30.7378
17.4495,30.7378
17.6279,30.6476
17.6306,30.6463
17.6330,30.6444
17.6330,30.6444
17.7180,30.5780
17.7930,30.5194
17.8219,30.4859
17.8460,30.4580
17.9276,30.3635
18.0293,30.1843
18.0944,29.9889
18.0995,29.9485
18.1200,29.7862
18.1200,29.7862
18.1202,29.7845
18.1206,29.7550
18.1204,29.7533
18.1204,29.7533
18.1008,29.5530
18.1005,29.5500
18.0409,29.3527
17.9442,29.1708
17.8140,29.0112
17.6553,28.8799
17.4741,28.7819
17.4191,28.7649
17.2802,28.7219
17.2802,28.7219
17.2773,28.7210
17.2742,28.7207
17.2742,28.7207
17.2217,28.7151
17.0724,28.6994
17.0693,28.6997
17.0693,28.6997
16.9564,28.7100
16.8672,28.7181
16.8643,28.7190
16.8643,28.7190
16.7140,28.7632
16.6696,28.7763
16.4870,28.8717
16.3264,29.0008
16.1940,29.1586
16.0948,29.3392
16.0325,29.5355
16.0321,29.5386
16.0321,29.5386
16.0305,29.5530
16.0095,29.7403
6.4665,29.7403
6.4665,27.2003
16.0095,27.2003
16.0268,27.4056
16.0835,27.6036
16.1777,27.7868
16.1796,27.7892
16.1796,27.7892
16.2147,27.8335
16.3057,27.9483
16.4626,28.0818
16.6424,28.1823
16.6453,28.1832
16.6453,28.1832
16.8354,28.2450
16.8354,28.2450
16.8383,28.2460
16.8414,28.2463
16.8414,28.2463
16.9252,28.2563
17.0429,28.2704
17.0459,28.2701
17.0459,28.2701
17.2452,28.2548
17.2453,28.2548
17.2483,28.2545
17.4467,28.1991
17.4494,28.1978
17.4495,28.1978
17.6279,28.1076
17.6306,28.1063
17.6330,28.1044
17.6330,28.1044
17.7777,27.9913
17.7930,27.9794
17.8112,27.9583
17.8460,27.9180
17.9276,27.8235
18.0293,27.6443
18.0944,27.4489
18.0989,27.4125
18.1200,27.2462
18.1200,27.2462
18.1202,27.2445
18.1204,27.2250
18.1206,27.2167
18.1206,27.2167
18.1206,27.2150
18.1204,27.2133
18.1204,27.2133
18.1008,27.0130
18.1005,27.0100
18.0409,26.8127
17.9495,26.6408
17.9457,26.6335
17.9457,26.6335
17.9442,26.6308
17.8140,26.4712
17.6553,26.3399
17.4741,26.2419
17.4191,26.2249
17.2802,26.1819
17.2802,26.1819
17.2773,26.1810
17.2742,26.1807
17.2742,26.1807
17.2217,26.1751
17.0724,26.1594
17.0693,26.1597
17.0693,26.1597
16.9625,26.1694
16.8672,26.1781
16.8643,26.1790
16.8643,26.1790
16.7140,26.2232
16.6696,26.2363
16.4870,26.3317
16.3264,26.4608
16.1940,26.6186
16.0948,26.7992
16.0325,26.9955
16.0095,27.2003
6.4665,27.2003
6.4665,24.6603
16.0095,24.6603
16.0268,24.8656
16.0835,25.0636
16.1777,25.2468
16.1796,25.2492
16.1796,25.2492
16.2147,25.2935
16.3057,25.4083
16.4626,25.5418
16.6424,25.6423
16.6453,25.6432
16.6453,25.6432
16.8354,25.7050
16.8354,25.7050
16.8383,25.7060
16.8414,25.7063
16.8414,25.7063
16.9252,25.7163
17.0429,25.7304
17.0459,25.7301
17.0459,25.7301
17.2452,25.7148
17.2453,25.7148
17.2483,25.7145
17.4467,25.6591
17.4494,25.6578
17.4495,25.6578
17.6279,25.5676
17.6306,25.5663
17.6330,25.5644
17.6330,25.5644
17.7777,25.4513
17.7930,25.4394
17.8112,25.4183
17.8460,25.3780
17.9276,25.2835
18.0293,25.1043
18.0944,24.9089
18.0989,24.8725
18.1200,24.7062
18.1200,24.7062
18.1202,24.7045
18.1204,24.6850
18.1206,24.6767
18.1206,24.6767
18.1206,24.6750
18.1204,24.6733
18.1204,24.6733
18.1008,24.4730
18.1005,24.4700
18.0409,24.2727
17.9495,24.1008
17.9457,24.0935
17.9457,24.0935
17.9442,24.0908
17.8140,23.9312
17.6553,23.7999
17.4741,23.7019
17.4191,23.6849
17.2802,23.6419
17.2802,23.6419
17.2773,23.6410
17.2742,23.6407
17.2742,23.6407
17.2217,23.6351
17.0724,23.6194
17.0693,23.6197
17.0693,23.6197
16.9625,23.6294
16.8672,23.6381
16.8643,23.6390
16.8643,23.6390
16.7140,23.6832
16.6696,23.6963
16.4870,23.7917
16.3264,23.9208
16.1940,24.0786
16.0948,24.2592
16.0325,24.4555
16.0095,24.6603
6.4665,24.6603
6.4665,23.3235
6.4827,23.2815
6.5404,23.2178
6.5434,23.2145
6.5996,23.0984
6.6210,22.9711
6.6212,22.9600
6.6029,22.8323
6.5658,22.7508
6.5513,22.7188
6.5513,22.7188
6.5495,22.7148
6.4652,22.6170
6.3569,22.5468
6.3527,22.5456
6.3527,22.5456
6.2376,22.5111
6.2376,22.5111
6.2333,22.5099
6.1698,22.5095
6.1087,22.5091
6.1087,22.5091
6.1043,22.5091
5.9802,22.5445
5.8711,22.6134
5.8681,22.6167
5.8681,22.6167
5.7886,22.7068
5.7856,22.7101
5.7308,22.8269
5.7109,22.9544
2.4953,22.9544
2.5530,22.9094
2.5636,22.8971
2.6224,22.8290
2.6876,22.7535
2.7893,22.5743
2.8431,22.4126
7.2309,22.4126
7.2315,22.4171
7.2315,22.4171
7.2328,22.4269
7.2477,22.5406
7.2495,22.5447
7.2787,22.6110
7.2996,22.6587
7.3827,22.7575
7.3864,22.7600
7.3864,22.7600
7.4679,22.8143
7.4901,22.8290
7.6133,22.8675
7.6177,22.8676
7.6177,22.8676
7.7378,22.8698
7.7379,22.8698
7.7423,22.8699
7.7466,22.8687
7.7466,22.8687
7.8045,22.8529
7.8668,22.8359
7.9768,22.7684
8.0017,22.7408
8.0604,22.6760
8.0634,22.6727
8.1196,22.5566
8.1209,22.5493
8.1406,22.4317
8.1410,22.4293
8.1412,22.4182
8.1411,22.4179
8.1592,22.3701
8.4090,22.1203
16.0095,22.1203
16.0106,22.1333
16.0237,22.2895
16.0268,22.3256
16.0835,22.5236
16.1777,22.7068
16.1796,22.7092
16.1796,22.7092
16.2265,22.7684
16.3057,22.8683
16.3080,22.8703
16.4265,22.9711
16.4626,23.0018
16.6424,23.1023
16.6453,23.1032
16.6453,23.1032
16.8354,23.1650
16.8354,23.1650
16.8383,23.1660
16.8414,23.1663
16.8414,23.1663
16.9252,23.1763
17.0429,23.1904
17.0459,23.1901
17.0459,23.1901
17.2452,23.1748
17.2453,23.1748
17.2483,23.1745
17.4467,23.1191
17.4494,23.1178
17.4495,23.1178
17.6279,23.0276
17.6306,23.0263
17.6330,23.0244
17.6330,23.0244
17.7777,22.9113
17.7930,22.8994
17.8112,22.8783
17.8555,22.8269
17.9276,22.7435
18.0015,22.6134
18.0278,22.5670
18.0278,22.5670
18.0293,22.5643
18.0944,22.3689
18.0989,22.3325
18.1200,22.1662
18.1200,22.1662
18.1202,22.1645
18.1204,22.1450
18.1206,22.1367
18.1206,22.1367
18.1206,22.1350
18.1204,22.1333
18.1204,22.1333
18.1008,21.9330
18.1005,21.9300
18.0409,21.7327
17.9495,21.5608
17.9457,21.5535
17.9457,21.5535
17.9442,21.5508
17.8140,21.3912
17.6553,21.2599
17.4741,21.1619
17.4191,21.1449
17.2802,21.1019
17.2802,21.1019
17.2773,21.1010
17.2742,21.1007
17.2742,21.1007
17.2075,21.0936
17.0724,21.0794
17.0693,21.0797
17.0693,21.0797
16.9595,21.0897
16.8672,21.0981
16.8643,21.0990
16.8643,21.0990
16.7140,21.1432
16.6696,21.1563
16.4870,21.2517
16.3264,21.3808
16.1940,21.5386
16.0948,21.7192
16.0325,21.9155
16.0309,21.9300
16.0146,22.0749
16.0095,22.1203
8.4090,22.1203
10.6936,19.8357
10.6982,19.8317
10.7023,19.8297
10.7364,19.7929
10.7380,19.7912
10.7522,19.7770
10.7539,19.7746
10.7557,19.7724
10.7558,19.7724
10.7585,19.7691
10.7745,19.7518
10.7784,19.7476
10.7842,19.7331
10.7907,19.7209
10.7962,19.7129
10.7962,19.7129
10.7995,19.7081
10.8063,19.6796
10.8090,19.6709
10.8199,19.6436
10.8205,19.6373
10.8205,19.6269
10.8222,19.6125
10.8240,19.6048
10.8253,19.5992
10.8228,19.5803
16.0095,19.5803
16.0106,19.5933
16.0257,19.7724
16.0268,19.7856
16.0835,19.9836
16.1777,20.1668
16.1796,20.1692
16.1796,20.1692
16.2147,20.2135
16.3057,20.3283
16.4626,20.4618
16.6424,20.5623
16.6453,20.5632
16.6453,20.5632
16.8354,20.6250
16.8354,20.6250
16.8383,20.6260
16.8414,20.6263
16.8414,20.6263
16.9252,20.6363
17.0429,20.6504
17.0459,20.6501
17.0459,20.6501
17.2452,20.6348
17.2453,20.6348
17.2483,20.6345
17.4467,20.5791
17.4494,20.5778
17.4495,20.5778
17.6279,20.4876
17.6306,20.4863
17.6330,20.4844
17.6330,20.4844
17.7777,20.3713
17.7930,20.3594
17.8112,20.3383
17.8460,20.2980
17.9276,20.2035
18.0293,20.0243
18.0944,19.8289
18.0948,19.8254
18.1200,19.6262
18.1200,19.6262
18.1202,19.6245
18.1202,19.6196
18.1206,19.5967
18.1206,19.5967
18.1206,19.5950
18.1204,19.5933
18.1204,19.5933
18.1008,19.3930
18.1005,19.3900
18.0409,19.1927
17.9797,19.0776
17.9457,19.0135
17.9457,19.0135
17.9442,19.0108
17.8140,18.8512
17.6553,18.7199
17.4741,18.6219
17.4191,18.6049
17.2802,18.5619
17.2802,18.5619
17.2773,18.5610
17.2742,18.5607
17.2742,18.5607
17.2217,18.5551
17.0724,18.5394
17.0693,18.5397
17.0693,18.5397
16.9625,18.5494
16.8672,18.5581
16.8643,18.5590
16.8643,18.5590
16.7140,18.6032
16.6696,18.6163
16.4870,18.7117
16.3264,18.8408
16.1940,18.9986
16.1467,19.0847
16.1011,19.1676
16.0948,19.1792
16.0325,19.3755
16.0095,19.5803
10.8228,19.5803
10.8211,19.5678
10.8205,19.5594
10.8205,17.0403
16.0095,17.0403
16.0268,17.2456
16.0835,17.4436
16.1777,17.6268
16.1796,17.6292
16.1796,17.6292
16.2147,17.6735
16.3057,17.7883
16.4626,17.9218
16.6424,18.0223
16.6453,18.0232
16.6453,18.0232
16.8354,18.0850
16.8354,18.0850
16.8383,18.0860
16.8414,18.0863
16.8414,18.0863
16.9252,18.0963
17.0429,18.1104
17.0459,18.1101
17.0459,18.1101
17.2452,18.0948
17.2453,18.0948
17.2483,18.0945
17.4467,18.0391
17.4494,18.0378
17.4495,18.0378
17.6279,17.9476
17.6306,17.9463
17.6330,17.9444
17.6330,17.9444
17.7777,17.8313
17.7930,17.8194
17.8112,17.7983
17.8460,17.7580
17.9276,17.6635
18.0293,17.4843
18.0944,17.2889
18.0989,17.2525
18.1200,17.0862
18.1200,17.0862
18.1202,17.0845
18.1204,17.0650
18.1206,17.0567
18.1206,17.0567
18.1206,17.0550
18.1204,17.0533
18.1204,17.0533
18.1008,16.8530
18.1005,16.8500
18.0409,16.6527
17.9495,16.4808
17.9457,16.4735
17.9457,16.4735
17.9442,16.4708
17.8140,16.3112
17.6553,16.1799
17.4741,16.0819
17.4191,16.0649
17.2802,16.0219
17.2802,16.0219
17.2773,16.0210
17.2742,16.0207
17.2742,16.0207
17.2217,16.0151
17.0724,15.9994
17.0693,15.9997
17.0693,15.9997
16.9625,16.0094
16.8672,16.0181
16.8643,16.0190
16.8643,16.0190
16.7140,16.0632
16.6696,16.0763
16.4870,16.1717
16.3264,16.3008
16.1940,16.4586
16.0948,16.6392
16.0325,16.8355
16.0095,17.0403
10.8205,17.0403
10.8205,14.5003
16.0095,14.5003
16.0268,14.7056
16.0835,14.9036
16.1777,15.0868
16.1796,15.0892
16.1796,15.0892
16.2147,15.1335
16.3057,15.2483
16.4626,15.3818
16.6424,15.4823
16.6453,15.4832
16.6453,15.4832
16.8354,15.5450
16.8354,15.5450
16.8383,15.5460
16.8414,15.5463
16.8414,15.5463
16.9252,15.5563
17.0429,15.5704
17.0459,15.5701
17.0459,15.5701
17.2452,15.5548
17.2453,15.5548
17.2483,15.5545
17.4467,15.4991
17.4494,15.4978
17.4495,15.4978
17.6279,15.4076
17.6306,15.4063
17.6330,15.4044
17.6330,15.4044
17.7777,15.2913
17.7930,15.2794
17.8112,15.2583
17.8460,15.2180
17.9276,15.1235
18.0293,14.9443
18.0944,14.7489
18.0989,14.7125
18.1200,14.5462
18.1200,14.5462
18.1202,14.5445
18.1204,14.5250
18.1206,14.5167
18.1206,14.5167
18.1206,14.5150
18.1204,14.5133
18.1204,14.5133
18.1008,14.3130
18.1005,14.3100
18.0409,14.1127
17.9495,13.9408
17.9457,13.9335
17.9457,13.9335
17.9442,13.9308
17.8140,13.7712
17.6553,13.6399
17.4741,13.5419
17.4191,13.5249
17.2802,13.4819
17.2802,13.4819
17.2773,13.4810
17.2742,13.4807
17.2742,13.4807
17.2217,13.4751
17.0724,13.4594
17.0693,13.4597
17.0693,13.4597
16.9625,13.4694
16.8672,13.4781
16.8643,13.4790
16.8643,13.4790
16.7140,13.5232
16.6696,13.5363
16.4870,13.6317
16.3264,13.7608
16.1940,13.9186
16.0948,14.0992
16.0325,14.2955
16.0095,14.5003
10.8205,14.5003
10.8205,11.9603
16.0095,11.9603
16.0268,12.1656
16.0835,12.3636
16.1777,12.5468
16.1796,12.5492
16.1796,12.5492
16.2147,12.5935
16.3057,12.7083
16.4626,12.8418
16.6424,12.9423
16.6453,12.9432
16.6453,12.9432
16.8354,13.0050
16.8354,13.0050
16.8383,13.0060
16.8414,13.0063
16.8414,13.0063
16.9252,13.0163
17.0429,13.0304
17.0459,13.0301
17.0459,13.0301
17.2452,13.0148
17.2453,13.0148
17.2483,13.0145
17.4467,12.9591
17.4494,12.9578
17.4495,12.9578
17.6279,12.8676
17.6306,12.8663
17.6330,12.8644
17.6330,12.8644
17.7777,12.7513
17.7930,12.7394
17.8112,12.7183
17.8460,12.6780
17.9276,12.5835
18.0293,12.4043
18.0944,12.2089
18.0989,12.1725
18.1200,12.0062
18.1200,12.0062
18.1202,12.0045
18.1204,11.9850
18.1206,11.9767
18.1206,11.9767
18.1206,11.9750
18.1204,11.9733
18.1204,11.9733
18.1008,11.7730
18.1005,11.7700
18.0409,11.5727
17.9495,11.4008
17.9457,11.3935
17.9457,11.3935
17.9442,11.3908
17.8140,11.2312
17.6553,11.0999
17.4741,11.0019
17.3141,10.9524
17.2802,10.9419
17.2802,10.9419
17.2773,10.9410
17.2742,10.9407
17.2742,10.9407
17.1956,10.9324
17.0724,10.9194
17.0693,10.9197
17.0693,10.9197
16.9625,10.9294
16.8672,10.9381
16.8643,10.9390
16.8643,10.9390
16.7140,10.9832
16.6696,10.9963
16.4870,11.0917
16.3264,11.2208
16.1940,11.3786
16.0948,11.5592
16.0325,11.7555
16.0095,11.9603
10.8205,11.9603
10.8205,11.1735
10.8367,11.1315
10.8619,11.1036
10.8973,11.0645
10.9536,10.9484
10.9549,10.9407
10.9746,10.8235
10.9750,10.8211
10.9751,10.8100
10.9568,10.6823
10.9034,10.5648
10.8192,10.4670
10.7109,10.3968
10.7066,10.3956
10.7066,10.3956
10.5915,10.3611
10.5915,10.3611
10.5873,10.3599
10.5237,10.3595
10.4627,10.3591
10.4627,10.3591
10.4582,10.3591
10.3342,10.3945
10.2250,10.4634
10.2221,10.4667
10.2221,10.4667
10.1924,10.5004
10.1396,10.5601
10.0848,10.6769
10.0649,10.8044
10.0816,10.9324
10.0834,10.9365
10.1162,11.0110
10.1336,11.0505
10.1767,11.1018
10.2048,11.1353
10.2195,11.1755
10.2195,19.4339
10.2012,19.4781
7.7299,21.9494
7.6853,21.9677
7.6481,21.9674
7.6287,21.9673
7.6287,21.9673
7.6243,21.9673
7.5002,22.0027
7.3911,22.0716
7.3881,22.0749
7.3881,22.0749
7.3086,22.1650
7.3056,22.1683
7.2508,22.2851
7.2309,22.4126
2.8431,22.4126
2.8544,22.3789
2.8556,22.3689
2.8800,22.1762
2.8800,22.1762
2.8802,22.1745
2.8803,22.1662
2.8806,22.1467
2.8806,22.1467
2.8806,22.1450
2.8804,22.1433
2.8804,22.1433
2.8608,21.9430
2.8605,21.9400
2.8009,21.7427
2.7042,21.5608
2.5740,21.4012
2.4153,21.2699
2.2341,21.1719
2.1791,21.1549
2.0402,21.1119
2.0402,21.1119
2.0373,21.1110
2.0342,21.1107
2.0342,21.1107
1.9507,21.1019
1.8324,21.0894
1.8293,21.0897
1.8293,21.0897
1.7164,21.1000
1.6272,21.1081
1.6243,21.1090
1.6243,21.1090
1.4740,21.1532
1.4296,21.1663
1.2470,21.2617
1.0864,21.3908
0.9540,21.5486
0.8934,21.6588
0.8603,21.7192
0.8548,21.7292
0.7925,21.9255
0.7921,21.9286
0.7921,21.9286
0.7706,22.1203
0.7695,22.1303
0.0260,22.1303
0.0260,20.9616
5.9971,20.9616
5.9977,20.9660
5.9977,20.9660
5.9989,20.9759
6.0138,21.0896
6.0156,21.0936
6.0500,21.1719
6.0658,21.2077
6.1488,21.3065
6.1525,21.3089
6.1525,21.3089
6.2341,21.3632
6.2562,21.3780
6.3794,21.4165
6.3839,21.4165
6.3839,21.4165
6.5040,21.4187
6.5040,21.4187
6.5084,21.4188
6.5127,21.4177
6.5127,21.4177
6.6026,21.3932
6.6329,21.3849
6.7429,21.3174
6.7933,21.2617
6.8265,21.2250
6.8295,21.2217
6.8858,21.1056
6.8865,21.1010
6.9068,20.9807
6.9072,20.9783
6.9073,20.9672
6.9073,20.9669
6.9253,20.9190
8.5436,19.3008
8.5482,19.2968
8.5523,19.2948
8.5864,19.2580
8.5880,19.2563
8.6022,19.2421
8.6039,19.2397
8.6057,19.2375
8.6058,19.2376
8.6085,19.2342
8.6245,19.2169
8.6284,19.2127
8.6342,19.1982
8.6407,19.1861
8.6462,19.1780
8.6462,19.1780
8.6495,19.1732
8.6563,19.1447
8.6590,19.1360
8.6699,19.1087
8.6705,19.1024
8.6705,19.0920
8.6722,19.0776
8.6740,19.0699
8.6753,19.0643
8.6711,19.0329
8.6705,19.0245
8.6705,11.1735
8.6867,11.1315
8.7119,11.1036
8.7473,11.0645
8.8036,10.9484
8.8049,10.9407
8.8246,10.8235
8.8250,10.8211
8.8251,10.8100
8.8068,10.6823
8.7534,10.5648
8.6692,10.4670
8.5609,10.3968
8.5566,10.3956
8.5566,10.3956
8.4415,10.3611
8.4415,10.3611
8.4373,10.3599
8.3737,10.3595
8.3127,10.3591
8.3127,10.3591
8.3082,10.3591
8.1842,10.3945
8.0750,10.4634
8.0721,10.4667
8.0721,10.4667
8.0424,10.5004
7.9896,10.5601
7.9348,10.6769
7.9149,10.8044
7.9316,10.9324
7.9334,10.9365
7.9662,11.0110
7.9836,11.0505
8.0267,11.1018
8.0548,11.1353
8.0695,11.1755
8.0695,18.8990
8.0512,18.9432
6.4961,20.4983
6.4515,20.5166
6.4142,20.5164
6.3949,20.5163
6.3949,20.5163
6.3904,20.5163
6.2663,20.5517
6.1572,20.6206
6.1543,20.6239
6.1543,20.6239
6.0747,20.7140
6.0718,20.7173
6.0169,20.8341
5.9971,20.9616
0.0260,20.9616
0.0260,19.5903
0.7695,19.5903
0.7707,19.6048
0.7862,19.7885
0.7868,19.7956
0.7965,19.8297
0.8407,19.9836
0.8435,19.9936
0.9377,20.1768
0.9396,20.1792
0.9396,20.1792
0.9686,20.2158
1.0657,20.3383
1.2226,20.4718
1.4024,20.5723
1.4053,20.5732
1.4053,20.5732
1.5954,20.6350
1.5954,20.6350
1.5983,20.6360
1.6014,20.6363
1.6014,20.6363
1.6634,20.6437
1.8029,20.6604
1.8059,20.6601
1.8059,20.6601
2.0052,20.6448
2.0053,20.6448
2.0083,20.6445
2.2067,20.5891
2.2094,20.5878
2.2095,20.5878
2.3879,20.4976
2.3906,20.4963
2.3930,20.4944
2.3930,20.4944
2.4780,20.4280
2.5530,20.3694
2.5636,20.3571
2.6060,20.3080
2.6876,20.2135
2.7893,20.0343
2.8544,19.8389
2.8548,19.8357
2.8800,19.6362
2.8800,19.6362
2.8802,19.6345
2.8803,19.6262
2.8806,19.6067
2.8806,19.6067
2.8806,19.6050
2.8804,19.6033
2.8804,19.6033
2.8608,19.4030
2.8605,19.4000
2.8009,19.2027
2.7344,19.0776
2.7057,19.0235
2.7057,19.0235
2.7042,19.0208
2.5740,18.8612
2.4153,18.7299
2.2341,18.6319
2.1791,18.6149
2.0402,18.5719
2.0402,18.5719
2.0373,18.5710
2.0342,18.5707
2.0342,18.5707
1.9507,18.5619
1.8324,18.5494
1.8293,18.5497
1.8293,18.5497
1.7164,18.5600
1.6272,18.5681
1.6243,18.5690
1.6243,18.5690
1.4740,18.6132
1.4296,18.6263
1.2470,18.7217
1.0864,18.8508
0.9540,19.0086
0.9033,19.1009
0.8603,19.1792
0.8548,19.1892
0.7925,19.3855
0.7921,19.3886
0.7921,19.3886
0.7706,19.5803
0.7695,19.5903
0.0260,19.5903
0.0260,17.0503
0.7695,17.0503
0.7708,17.0650
0.7862,17.2485
0.7868,17.2556
0.7971,17.2918
0.8407,17.4436
0.8435,17.4536
0.9377,17.6368
0.9396,17.6392
0.9396,17.6392
0.9686,17.6758
1.0657,17.7983
1.2226,17.9318
1.4024,18.0323
1.4053,18.0332
1.4053,18.0332
1.5954,18.0950
1.5954,18.0950
1.5983,18.0960
1.6014,18.0963
1.6014,18.0963
1.6634,18.1037
1.8029,18.1204
1.8059,18.1201
1.8059,18.1201
2.0052,18.1048
2.0053,18.1048
2.0083,18.1045
2.2067,18.0491
2.2094,18.0478
2.2095,18.0478
2.3879,17.9576
2.3906,17.9563
2.3930,17.9544
2.3930,17.9544
2.4780,17.8880
2.5530,17.8294
2.5636,17.8171
2.6060,17.7680
2.6876,17.6735
2.7893,17.4943
2.8544,17.2989
2.8556,17.2889
2.8800,17.0962
2.8800,17.0962
2.8802,17.0945
2.8803,17.0862
2.8806,17.0667
2.8806,17.0667
2.8806,17.0650
2.8804,17.0633
2.8804,17.0633
2.8608,16.8630
2.8605,16.8600
2.8009,16.6627
2.7042,16.4808
2.5740,16.3212
2.4153,16.1899
2.2341,16.0919
2.1791,16.0749
2.0402,16.0319
2.0402,16.0319
2.0373,16.0310
2.0342,16.0307
2.0342,16.0307
1.9507,16.0219
1.8324,16.0094
1.8293,16.0097
1.8293,16.0097
1.7164,16.0200
1.6272,16.0281
1.6243,16.0290
1.6243,16.0290
1.4740,16.0732
1.4296,16.0863
1.2470,16.1817
1.0864,16.3108
0.9540,16.4686
0.8934,16.5788
0.8603,16.6392
0.8548,16.6492
0.7925,16.8455
0.7921,16.8486
0.7921,16.8486
0.7706,17.0403
0.7695,17.0503
0.0260,17.0503
0.0260,14.5103
0.7695,14.5103
0.7708,14.5250
0.7862,14.7085
0.7868,14.7156
0.7971,14.7518
0.8407,14.9036
0.8435,14.9136
0.9377,15.0968
0.9396,15.0992
0.9396,15.0992
0.9686,15.1358
1.0657,15.2583
1.2226,15.3918
1.4024,15.4923
1.4053,15.4932
1.4053,15.4932
1.5954,15.5550
1.5954,15.5550
1.5983,15.5560
1.6014,15.5563
1.6014,15.5563
1.6634,15.5637
1.8029,15.5804
1.8059,15.5801
1.8059,15.5801
2.0052,15.5648
2.0053,15.5648
2.0083,15.5645
2.2067,15.5091
2.2094,15.5078
2.2095,15.5078
2.3879,15.4176
2.3906,15.4163
2.3930,15.4144
2.3930,15.4144
2.4780,15.3480
2.5530,15.2894
2.5636,15.2771
2.6060,15.2280
2.6876,15.1335
2.7893,14.9543
2.8544,14.7589
2.8556,14.7489
2.8800,14.5562
2.8800,14.5562
2.8802,14.5545
2.8803,14.5462
2.8806,14.5267
2.8806,14.5267
2.8806,14.5250
2.8804,14.5233
2.8804,14.5233
2.8608,14.3230
2.8605,14.3200
2.8009,14.1227
2.7042,13.9408
2.5740,13.7812
2.4153,13.6499
2.2341,13.5519
2.1791,13.5349
2.0402,13.4919
2.0402,13.4919
2.0373,13.4910
2.0342,13.4907
2.0342,13.4907
1.9507,13.4819
1.8324,13.4694
1.8293,13.4697
1.8293,13.4697
1.7164,13.4800
1.6272,13.4881
1.6243,13.4890
1.6243,13.4890
1.4740,13.5332
1.4296,13.5463
1.2470,13.6417
1.0864,13.7708
0.9540,13.9286
0.8934,14.0388
0.8603,14.0992
0.8548,14.1092
0.7925,14.3055
0.7921,14.3086
0.7921,14.3086
0.7706,14.5003
0.7695,14.5103
0.0260,14.5103
0.0260,11.9703
0.7695,11.9703
0.7708,11.9850
0.7862,12.1685
0.7868,12.1756
0.7971,12.2118
0.8407,12.3636
0.8435,12.3736
0.9377,12.5568
0.9396,12.5592
0.9396,12.5592
0.9686,12.5958
1.0657,12.7183
1.2226,12.8518
1.4024,12.9523
1.4053,12.9532
1.4053,12.9532
1.5954,13.0150
1.5954,13.0150
1.5983,13.0160
1.6014,13.0163
1.6014,13.0163
1.6634,13.0237
1.8029,13.0404
1.8059,13.0401
1.8059,13.0401
2.0052,13.0248
2.0053,13.0248
2.0083,13.0245
2.2067,12.9691
2.2094,12.9678
2.2095,12.9678
2.3879,12.8776
2.3906,12.8763
2.3930,12.8744
2.3930,12.8744
2.4780,12.8080
2.5530,12.7494
2.5636,12.7371
2.6060,12.6880
2.6876,12.5935
2.7893,12.4143
2.8544,12.2189
2.8556,12.2089
2.8800,12.0162
2.8800,12.0162
2.8802,12.0145
2.8803,12.0062
2.8806,11.9867
2.8806,11.9867
2.8806,11.9850
2.8804,11.9833
2.8804,11.9833
2.8608,11.7830
2.8605,11.7800
2.8009,11.5827
2.7042,11.4008
2.5740,11.2412
2.4153,11.1099
2.2341,11.0119
2.1791,10.9949
2.0402,10.9519
2.0402,10.9519
2.0373,10.9510
2.0342,10.9507
2.0342,10.9507
1.9817,10.9451
1.8324,10.9294
1.8293,10.9297
1.8293,10.9297
1.7164,10.9400
1.6272,10.9481
1.6243,10.9490
1.6243,10.9490
1.4740,10.9932
1.4296,11.0063
1.2470,11.1017
1.0864,11.2308
0.9540,11.3886
0.8934,11.4988
0.8603,11.5592
0.8548,11.5692
0.7925,11.7655
0.7921,11.7686
0.7921,11.7686
0.7706,11.9603
0.7695,11.9703
0.0260,11.9703
0.0260,9.4303
0.7695,9.4303
0.7708,9.4450
0.7862,9.6285
0.7868,9.6356
0.7971,9.6718
0.8407,9.8236
0.8435,9.8336
0.9377,10.0168
0.9396,10.0192
0.9396,10.0192
0.9686,10.0558
1.0657,10.1783
1.2226,10.3118
1.4024,10.4123
1.4053,10.4132
1.4053,10.4132
1.5954,10.4750
1.5954,10.4750
1.5983,10.4760
1.6014,10.4763
1.6014,10.4763
1.6634,10.4837
1.8029,10.5004
1.8059,10.5001
1.8059,10.5001
2.0052,10.4848
2.0053,10.4848
2.0083,10.4845
2.2067,10.4291
2.2094,10.4278
2.2095,10.4278
2.3879,10.3376
2.3906,10.3363
2.3930,10.3344
2.3930,10.3344
2.4780,10.2680
2.5530,10.2094
2.5636,10.1971
2.6060,10.1480
2.6876,10.0535
2.7893,9.8743
2.8544,9.6789
2.8556,9.6689
2.8800,9.4762
2.8800,9.4762
2.8802,9.4745
2.8803,9.4662
2.8806,9.4467
2.8806,9.4467
2.8806,9.4450
2.8804,9.4433
2.8804,9.4433
2.8782,9.4203
16.0095,9.4203
16.0268,9.6256
16.0835,9.8236
16.1777,10.0068
16.1796,10.0092
16.1796,10.0092
16.2147,10.0535
16.3057,10.1683
16.4626,10.3018
16.6424,10.4023
16.6453,10.4032
16.6453,10.4032
16.8354,10.4650
16.8354,10.4650
16.8383,10.4660
16.8414,10.4663
16.8414,10.4663
16.9252,10.4763
17.0429,10.4904
17.0459,10.4901
17.0459,10.4901
17.2452,10.4748
17.2453,10.4748
17.2483,10.4745
17.4467,10.4191
17.4494,10.4178
17.4495,10.4178
17.6279,10.3276
17.6306,10.3263
17.6330,10.3244
17.6330,10.3244
17.7777,10.2113
17.7930,10.1994
17.8112,10.1783
17.8460,10.1380
17.9276,10.0435
18.0293,9.8643
18.0944,9.6689
18.0989,9.6325
18.1200,9.4662
18.1200,9.4662
18.1202,9.4645
18.1204,9.4450
18.1206,9.4367
18.1206,9.4367
18.1206,9.4350
18.1204,9.4333
18.1204,9.4333
18.1008,9.2330
18.1005,9.2300
18.0409,9.0327
17.9495,8.8608
17.9457,8.8535
17.9457,8.8535
17.9442,8.8508
17.8140,8.6912
17.6553,8.5599
17.4741,8.4619
17.4191,8.4449
17.2802,8.4019
17.2802,8.4019
17.2773,8.4010
17.2742,8.4007
17.2742,8.4007
17.2217,8.3951
17.0724,8.3794
17.0693,8.3797
17.0693,8.3797
16.9625,8.3894
16.8672,8.3981
16.8643,8.3990
16.8643,8.3990
16.7140,8.4432
16.6696,8.4563
16.4870,8.5517
16.3264,8.6808
16.1940,8.8386
16.0948,9.0192
16.0325,9.2155
16.0095,9.4203
2.8782,9.4203
2.8608,9.2430
2.8605,9.2400
2.8009,9.0427
2.7042,8.8608
2.5740,8.7012
2.4153,8.5699
2.2341,8.4719
2.1791,8.4549
2.0402,8.4119
2.0402,8.4119
2.0373,8.4110
2.0342,8.4107
2.0342,8.4107
1.9507,8.4019
1.8324,8.3894
1.8293,8.3897
1.8293,8.3897
1.7164,8.4000
1.6272,8.4081
1.6243,8.4090
1.6243,8.4090
1.4740,8.4532
1.4296,8.4663
1.2470,8.5617
1.0864,8.6908
0.9540,8.8486
0.8934,8.9588
0.8603,9.0192
0.8548,9.0292
0.7925,9.2255
0.7921,9.2286
0.7921,9.2286
0.7706,9.4203
0.7695,9.4303
0.0260,9.4303
0.0260,6.8903
0.7695,6.8903
0.7708,6.9050
0.7862,7.0885
0.7868,7.0956
0.7971,7.1318
0.8407,7.2836
0.8435,7.2936
0.9377,7.4768
0.9396,7.4792
0.9396,7.4792
0.9686,7.5158
1.0657,7.6383
1.2226,7.7718
1.4024,7.8723
1.4053,7.8732
1.4053,7.8732
1.5954,7.9350
1.5954,7.9350
1.5983,7.9360
1.6014,7.9363
1.6014,7.9363
1.6634,7.9437
1.8029,7.9604
1.8059,7.9601
1.8059,7.9601
2.0052,7.9448
2.0053,7.9448
2.0083,7.9445
2.2067,7.8891
2.2094,7.8878
2.2095,7.8878
2.3879,7.7976
2.3906,7.7963
2.3930,7.7944
2.3930,7.7944
2.4780,7.7280
2.5530,7.6694
2.5636,7.6571
2.6060,7.6080
2.6876,7.5135
2.7893,7.3343
2.8544,7.1389
2.8556,7.1289
2.8800,6.9362
2.8800,6.9362
2.8802,6.9345
2.8803,6.9262
2.8806,6.9067
2.8806,6.9067
2.8806,6.9050
2.8804,6.9033
2.8804,6.9033
2.8782,6.8803
16.0095,6.8803
16.0268,7.0856
16.0835,7.2836
16.1777,7.4668
16.1796,7.4692
16.1796,7.4692
16.2147,7.5135
16.3057,7.6283
16.4626,7.7618
16.6424,7.8623
16.6453,7.8632
16.6453,7.8632
16.8354,7.9250
16.8354,7.9250
16.8383,7.9260
16.8414,7.9263
16.8414,7.9263
16.9252,7.9363
17.0429,7.9504
17.0459,7.9501
17.0459,7.9501
17.2452,7.9348
17.2453,7.9348
17.2483,7.9345
17.4467,7.8791
17.4494,7.8778
17.4495,7.8778
17.6279,7.7876
17.6306,7.7863
17.6330,7.7844
17.6330,7.7844
17.7777,7.6713
17.7930,7.6594
17.8112,7.6383
17.8460,7.5980
17.9276,7.5035
18.0293,7.3243
18.0944,7.1289
18.0989,7.0925
18.1200,6.9262
18.1200,6.9262
18.1202,6.9245
18.1204,6.9050
18.1206,6.8967
18.1206,6.8967
18.1206,6.8950
18.1204,6.8933
18.1204,6.8933
18.1008,6.6930
18.1005,6.6900
18.0409,6.4927
17.9495,6.3208
17.9457,6.3135
17.9457,6.3135
17.9442,6.3108
17.8140,6.1512
17.6553,6.0199
17.4741,5.9219
17.4191,5.9049
17.2802,5.8619
17.2802,5.8619
17.2773,5.8610
17.2742,5.8607
17.2742,5.8607
17.2217,5.8551
17.0724,5.8394
17.0693,5.8397
17.0693,5.8397
16.9625,5.8494
16.8672,5.8581
16.8643,5.8590
16.8643,5.8590
16.7140,5.9032
16.6696,5.9163
16.4870,6.0117
16.3264,6.1408
16.1940,6.2986
16.0948,6.4792
16.0325,6.6755
16.0095,6.8803
2.8782,6.8803
2.8608,6.7030
2.8605,6.7000
2.8009,6.5027
2.7042,6.3208
2.5740,6.1612
2.4153,6.0299
2.2341,5.9319
2.1791,5.9149
2.0402,5.8719
2.0402,5.8719
2.0373,5.8710
2.0342,5.8707
2.0342,5.8707
1.9507,5.8619
1.8324,5.8494
1.8293,5.8497
1.8293,5.8497
1.7164,5.8600
1.6272,5.8681
1.6243,5.8690
1.6243,5.8690
1.4740,5.9132
1.4296,5.9263
1.2470,6.0217
1.0864,6.1508
0.9540,6.3086
0.8934,6.4188
0.8603,6.4792
0.8548,6.4892
0.7925,6.6855
0.7921,6.6886
0.7921,6.6886
0.7706,6.8803
0.7695,6.8903
0.0260,6.8903
0.0260,4.3503
0.7695,4.3503
0.7708,4.3650
0.7862,4.5485
0.7868,4.5556
0.7971,4.5918
0.8407,4.7436
0.8435,4.7536
0.9377,4.9368
0.9396,4.9392
0.9396,4.9392
0.9686,4.9758
1.0657,5.0983
1.2226,5.2318
1.4024,5.3323
1.4053,5.3332
1.4053,5.3332
1.5954,5.3950
1.5954,5.3950
1.5983,5.3960
1.6014,5.3963
1.6014,5.3963
1.6634,5.4037
1.8029,5.4204
1.8059,5.4201
1.8059,5.4201
2.0052,5.4048
2.0053,5.4048
2.0083,5.4045
2.2067,5.3491
2.2094,5.3478
2.2095,5.3478
2.3879,5.2576
2.3906,5.2563
2.3930,5.2544
2.3930,5.2544
2.4780,5.1880
2.5530,5.1294
2.5636,5.1171
2.6060,5.0680
2.6876,4.9735
2.7893,4.7943
2.8544,4.5989
2.8556,4.5889
2.8800,4.3962
2.8800,4.3962
2.8802,4.3945
2.8803,4.3862
2.8806,4.3667
2.8806,4.3667
2.8806,4.3650
2.8804,4.3633
2.8804,4.3633
2.8782,4.3403
16.0095,4.3403
16.0268,4.5456
16.0835,4.7436
16.1777,4.9268
16.1796,4.9292
16.1796,4.9292
16.2147,4.9735
16.3057,5.0883
16.4626,5.2218
16.6424,5.3223
16.6453,5.3232
16.6453,5.3232
16.8354,5.3850
16.8354,5.3850
16.8383,5.3860
16.8414,5.3863
16.8414,5.3863
16.9252,5.3963
17.0429,5.4104
17.0459,5.4101
17.0459,5.4101
17.2452,5.3948
17.2453,5.3948
17.2483,5.3945
17.4467,5.3391
17.4494,5.3378
17.4495,5.3378
17.6279,5.2476
17.6306,5.2463
17.6330,5.2444
17.6330,5.2444
17.7777,5.1313
17.7930,5.1194
17.8112,5.0983
17.8460,5.0580
17.9276,4.9635
18.0293,4.7843
18.0944,4.5889
18.0989,4.5525
18.1200,4.3862
18.1200,4.3862
18.1202,4.3845
18.1204,4.3650
18.1206,4.3567
18.1206,4.3567
18.1206,4.3550
18.1204,4.3533
18.1204,4.3533
18.1008,4.1530
18.1005,4.1500
18.0409,3.9527
17.9495,3.7808
17.9457,3.7735
17.9457,3.7735
17.9442,3.7708
17.8140,3.6112
17.6553,3.4799
17.4741,3.3819
17.4191,3.3649
17.2802,3.3219
17.2802,3.3219
17.2773,3.3210
17.2742,3.3207
17.2742,3.3207
17.2217,3.3151
17.0724,3.2994
17.0693,3.2997
17.0693,3.2997
16.9625,3.3094
16.8672,3.3181
16.8643,3.3190
16.8643,3.3190
16.7140,3.3632
16.6696,3.3763
16.4870,3.4717
16.3264,3.6008
16.1940,3.7586
16.0948,3.9392
16.0325,4.1355
16.0095,4.3403
2.8782,4.3403
2.8608,4.1630
2.8605,4.1600
2.8009,3.9627
2.7042,3.7808
2.5740,3.6212
2.4153,3.4899
2.2341,3.3919
2.1791,3.3749
2.0402,3.3319
2.0402,3.3319
2.0373,3.3310
2.0342,3.3307
2.0342,3.3307
1.9507,3.3219
1.8324,3.3094
1.8293,3.3097
1.8293,3.3097
1.7164,3.3200
1.6272,3.3281
1.6243,3.3290
1.6243,3.3290
1.4740,3.3732
1.4296,3.3863
1.2470,3.4817
1.0864,3.6108
0.9540,3.7686
0.8934,3.8788
0.8603,3.9392
0.8548,3.9492
0.7925,4.1455
0.7921,4.1486
0.7921,4.1486
0.7706,4.3403
0.7695,4.3503
0.0260,4.3503
0.0260,1.8103
0.7695,1.8103
0.7708,1.8250
0.7862,2.0085
0.7868,2.0156
0.7971,2.0518
0.8407,2.2036
0.8435,2.2136
0.9377,2.3968
0.9396,2.3992
0.9396,2.3992
0.9686,2.4358
1.0657,2.5583
1.2226,2.6918
1.4024,2.7923
1.4053,2.7932
1.4053,2.7932
1.5954,2.8550
1.5954,2.8550
1.5983,2.8560
1.6014,2.8563
1.6014,2.8563
1.6634,2.8637
1.8029,2.8804
1.8059,2.8801
1.8059,2.8801
2.0052,2.8648
2.0053,2.8648
2.0083,2.8645
2.2067,2.8091
2.2094,2.8078
2.2095,2.8078
2.3879,2.7176
2.3906,2.7163
2.3930,2.7144
2.3930,2.7144
2.4780,2.6480
2.5530,2.5894
2.5636,2.5771
2.6060,2.5280
2.6876,2.4335
2.7893,2.2543
2.8544,2.0589
2.8556,2.0489
2.8800,1.8562
2.8800,1.8562
2.8802,1.8545
2.8803,1.8462
2.8806,1.8267
2.8806,1.8267
2.8806,1.8250
2.8804,1.8233
2.8804,1.8233
2.8782,1.8003
16.0095,1.8003
16.0268,2.0056
16.0835,2.2036
16.1777,2.3868
16.1796,2.3892
16.1796,2.3892
16.2147,2.4335
16.3057,2.5483
16.4626,2.6818
16.6424,2.7823
16.6453,2.7832
16.6453,2.7832
16.8354,2.8450
16.8354,2.8450
16.8383,2.8460
16.8414,2.8463
16.8414,2.8463
16.9252,2.8563
17.0429,2.8704
17.0459,2.8701
17.0459,2.8701
17.2452,2.8548
17.2453,2.8548
17.2483,2.8545
17.4467,2.7991
17.4494,2.7978
17.4495,2.7978
17.6279,2.7076
17.6306,2.7063
17.6330,2.7044
17.6330,2.7044
17.7777,2.5913
17.7930,2.5794
17.8112,2.5583
17.8460,2.5180
17.9276,2.4235
18.0293,2.2443
18.0944,2.0489
18.0989,2.0125
18.1200,1.8462
18.1200,1.8462
18.1202,1.8445
18.1204,1.8250
18.1206,1.8167
18.1206,1.8167
18.1206,1.8150
18.1204,1.8133
18.1204,1.8133
18.1008,1.6130
18.1005,1.6100
18.0409,1.4127
17.9495,1.2408
17.9457,1.2335
17.9457,1.2335
17.9442,1.2308
17.8140,1.0712
17.6553,0.9399
17.4741,0.8419
17.4191,0.8249
17.2802,0.7819
17.2802,0.7819
17.2773,0.7810
17.2742,0.7807
17.2742,0.7807
17.2217,0.7751
17.0724,0.7594
17.0693,0.7597
17.0693,0.7597
16.9625,0.7694
16.8672,0.7781
16.8643,0.7790
16.8643,0.7790
16.7140,0.8232
16.6696,0.8363
16.4870,0.9317
16.3264,1.0608
16.1940,1.2186
16.0948,1.3992
16.0325,1.5955
16.0095,1.8003
2.8782,1.8003
2.8608,1.6230
2.8605,1.6200
2.8009,1.4227
2.7042,1.2408
2.5740,1.0812
2.4153,0.9499
2.2341,0.8519
2.1791,0.8349
2.0402,0.7919
2.0402,0.7919
2.0373,0.7910
2.0342,0.7907
2.0342,0.7907
1.9507,0.7819
1.8324,0.7694
1.8293,0.7697
1.8293,0.7697
1.7164,0.7800
1.6272,0.7881
1.6243,0.7890
1.6243,0.7890
1.4740,0.8332
1.4296,0.8463
1.2470,0.9417
1.0864,1.0708
0.9540,1.2286
0.8934,1.3388
0.8603,1.3992
0.8548,1.4092
0.7925,1.6055
0.7921,1.6086
0.7921,1.6086
0.7706,1.8003
0.7695,1.8103
0.0260,1.8103
0.0260,0.0835
0.0443,0.0393
0.0885,0.0210
18.8015,0.0210
Z" /> 
</g>
</g>
</g>
<g style="fill:#FFFFFF; fill-opacity:1.0000; 
stroke:#FFFFFF; stroke-width:0.0000; stroke-opacity:1; 
stroke-linecap:round; stroke-linejoin:round;">
<circle cx="8.3700" cy="10.8100" r="0.1250" /> 
</g>
<g style="fill:#FFFFFF; fill-opacity:1.0000; 
stroke:#FFFFFF; stroke-width:0.0212; stroke-opacity:1; 
stroke-linecap:round; stroke-linejoin:round;">
</g>
<g style="fill:#FFFFFF; fill-opacity:1.0000; 
stroke:#FFFFFF; stroke-width:0.0000; stroke-opacity:1; 
stroke-linecap:round; stroke-linejoin:round;">
<circle cx="6.4522" cy="20.9672" r="0.1250" /> 
</g>
<g style="fill:#FFFFFF; fill-opacity:1.0000; 
stroke:#FFFFFF; stroke-width:0.0212; stroke-opacity:1; 
stroke-linecap:round; stroke-linejoin:round;">
</g>
<g style="fill:#FFFFFF; fill-opacity:1.0000; 
stroke:#FFFFFF; stroke-width:0.0000; stroke-opacity:1; 
stroke-linecap:round; stroke-linejoin:round;">
<circle cx="11.6650" cy="28.2900" r="0.1250" /> 
</g>
<g style="fill:#FFFFFF; fill-opacity:1.0000; 
stroke:#FFFFFF; stroke-width:0.0212; stroke-opacity:1; 
stroke-linecap:round; stroke-linejoin:round;">
</g>
<g style="fill:#FFFFFF; fill-opacity:1.0000; 
stroke:#FFFFFF; stroke-width:0.0000; stroke-opacity:1; 
stroke-linecap:round; stroke-linejoin:round;">
<circle cx="9.4450" cy="8.1475" r="0.1250" /> 
</g>
<g style="fill:#FFFFFF; fill-opacity:1.0000; 
stroke:#FFFFFF; stroke-width:0.0212; stroke-opacity:1; 
stroke-linecap:round; stroke-linejoin:round;">
</g>
<g style="fill:#FFFFFF; fill-opacity:1.0000; 
stroke:#FFFFFF; stroke-width:0.0000; stroke-opacity:1; 
stroke-linecap:round; stroke-linejoin:round;">
<circle cx="12.6650" cy="15.8600" r="0.1250" /> 
</g>
<g style="fill:#FFFFFF; fill-opacity:1.0000; 
stroke:#FFFFFF; stroke-width:0.0212; stroke-opacity:1; 
stroke-linecap:round; stroke-linejoin:round;">
</g>
<g style="fill:#FFFFFF; fill-opacity:1.0000; 
stroke:#FFFFFF; stroke-width:0.0000; stroke-opacity:1; 
stroke-linecap:round; stroke-linejoin:round;">
<circle cx="7.2850" cy="23.0300" r="0.1250" /> 
</g>
<g style="fill:#FFFFFF; fill-opacity:1.0000; 
stroke:#FFFFFF; stroke-width:0.0212; stroke-opacity:1; 
stroke-linecap:round; stroke-linejoin:round;">
</g>
<g style="fill:#FFFFFF; fill-opacity:1.0000; 
stroke:#FFFFFF; stroke-width:0.0000; stroke-opacity:1; 
stroke-linecap:round; stroke-linejoin:round;">
<circle cx="6.2900" cy="31.0625" r="0.1250" /> 
</g>
<g style="fill:#FFFFFF; fill-opacity:1.0000; 
stroke:#FFFFFF; stroke-width:0.0212; stroke-opacity:1; 
stroke-linecap:round; stroke-linejoin:round;">
</g>
<g style="fill:#FFFFFF; fill-opacity:1.0000; 
stroke:#FFFFFF; stroke-width:0.0000; stroke-opacity:1; 
stroke-linecap:round; stroke-linejoin:round;">
<circle cx="10.5900" cy="31.0625" r="0.1250" /> 
</g>
<g style="fill:#FFFFFF; fill-opacity:1.0000; 
stroke:#FFFFFF; stroke-width:0.0212; stroke-opacity:1; 
stroke-linecap:round; stroke-linejoin:round;">
</g>
<g style="fill:#FFFFFF; fill-opacity:1.0000; 
stroke:#FFFFFF; stroke-width:0.0000; stroke-opacity:1; 
stroke-linecap:round; stroke-linejoin:round;">
<circle cx="6.1660" cy="22.9600" r="0.1250" /> 
</g>
<g style="fill:#FFFFFF; fill-opacity:1.0000; 
stroke:#FFFFFF; stroke-width:0.0212; stroke-opacity:1; 
stroke-linecap:round; stroke-linejoin:round;">
</g>
<g style="fill:#FFFFFF; fill-opacity:1.0000; 
stroke:#FFFFFF; stroke-width:0.0000; stroke-opacity:1; 
stroke-linecap:round; stroke-linejoin:round;">
<circle cx="7.6860" cy="22.4182" r="0.1250" /> 
</g>
<g style="fill:#FFFFFF; fill-opacity:1.0000; 
stroke:#FFFFFF; stroke-width:0.0212; stroke-opacity:1; 
stroke-linecap:round; stroke-linejoin:round;">
</g>
<g style="fill:#FFFFFF; fill-opacity:1.0000; 
stroke:#FFFFFF; stroke-width:0.0000; stroke-opacity:1; 
stroke-linecap:round; stroke-linejoin:round;">
<circle cx="10.5200" cy="10.8100" r="0.1250" /> 
</g>
<g style="fill:#FFFFFF; fill-opacity:1.0000; 
stroke:#FFFFFF; stroke-width:0.0212; stroke-opacity:1; 
stroke-linecap:round; stroke-linejoin:round;">
</g>
<g style="fill:#FFFFFF; fill-opacity:1.0000; 
stroke:#FFFFFF; stroke-width:0.0000; stroke-opacity:1; 
stroke-linecap:round; stroke-linejoin:round;">
<circle cx="1.8250" cy="1.8250" r="0.5000" /> 
</g>
<g style="fill:#FFFFFF; fill-opacity:1.0000; 
stroke:#FFFFFF; stroke-width:0.0212; stroke-opacity:1; 
stroke-linecap:round; stroke-linejoin:round;">
</g>
<g style="fill:#FFFFFF; fill-opacity:1.0000; 
stroke:#FFFFFF; stroke-width:0.0000; stroke-opacity:1; 
stroke-linecap:round; stroke-linejoin:round;">
<circle cx="1.8250" cy="4.3650" r="0.5000" /> 
</g>
<g style="fill:#FFFFFF; fill-opacity:1.0000; 
stroke:#FFFFFF; stroke-width:0.0212; stroke-opacity:1; 
stroke-linecap:round; stroke-linejoin:round;">
</g>
<g style="fill:#FFFFFF; fill-opacity:1.0000; 
stroke:#FFFFFF; stroke-width:0.0000; stroke-opacity:1; 
stroke-linecap:round; stroke-linejoin:round;">
<circle cx="1.8250" cy="6.9050" r="0.5000" /> 
</g>
<g style="fill:#FFFFFF; fill-opacity:1.0000; 
stroke:#FFFFFF; stroke-width:0.0212; stroke-opacity:1; 
stroke-linecap:round; stroke-linejoin:round;">
</g>
<g style="fill:#FFFFFF; fill-opacity:1.0000; 
stroke:#FFFFFF; stroke-width:0.0000; stroke-opacity:1; 
stroke-linecap:round; stroke-linejoin:round;">
<circle cx="1.8250" cy="9.4450" r="0.5000" /> 
</g>
<g style="fill:#FFFFFF; fill-opacity:1.0000; 
stroke:#FFFFFF; stroke-width:0.0212; stroke-opacity:1; 
stroke-linecap:round; stroke-linejoin:round;">
</g>
<g style="fill:#FFFFFF; fill-opacity:1.0000; 
stroke:#FFFFFF; stroke-width:0.0000; stroke-opacity:1; 
stroke-linecap:round; stroke-linejoin:round;">
<circle cx="1.8250" cy="11.9850" r="0.5000" /> 
</g>
<g style="fill:#FFFFFF; fill-opacity:1.0000; 
stroke:#FFFFFF; stroke-width:0.0212; stroke-opacity:1; 
stroke-linecap:round; stroke-linejoin:round;">
</g>
<g style="fill:#FFFFFF; fill-opacity:1.0000; 
stroke:#FFFFFF; stroke-width:0.0000; stroke-opacity:1; 
stroke-linecap:round; stroke-linejoin:round;">
<circle cx="1.8250" cy="14.5250" r="0.5000" /> 
</g>
<g style="fill:#FFFFFF; fill-opacity:1.0000; 
stroke:#FFFFFF; stroke-width:0.0212; stroke-opacity:1; 
stroke-linecap:round; stroke-linejoin:round;">
</g>
<g style="fill:#FFFFFF; fill-opacity:1.0000; 
stroke:#FFFFFF; stroke-width:0.0000; stroke-opacity:1; 
stroke-linecap:round; stroke-linejoin:round;">
<circle cx="1.8250" cy="17.0650" r="0.5000" /> 
</g>
<g style="fill:#FFFFFF; fill-opacity:1.0000; 
stroke:#FFFFFF; stroke-width:0.0212; stroke-opacity:1; 
stroke-linecap:round; stroke-linejoin:round;">
</g>
<g style="fill:#FFFFFF; fill-opacity:1.0000; 
stroke:#FFFFFF; stroke-width:0.0000; stroke-opacity:1; 
stroke-linecap:round; stroke-linejoin:round;">
<circle cx="1.8250" cy="19.6050" r="0.5000" /> 
</g>
<g style="fill:#FFFFFF; fill-opacity:1.0000; 
stroke:#FFFFFF; stroke-width:0.0212; stroke-opacity:1; 
stroke-linecap:round; stroke-linejoin:round;">
</g>
<g style="fill:#FFFFFF; fill-opacity:1.0000; 
stroke:#FFFFFF; stroke-width:0.0000; stroke-opacity:1; 
stroke-linecap:round; stroke-linejoin:round;">
<circle cx="1.8250" cy="22.1450" r="0.5000" /> 
</g>
<g style="fill:#FFFFFF; fill-opacity:1.0000; 
stroke:#FFFFFF; stroke-width:0.0212; stroke-opacity:1; 
stroke-linecap:round; stroke-linejoin:round;">
</g>
<g style="fill:#FFFFFF; fill-opacity:1.0000; 
stroke:#FFFFFF; stroke-width:0.0000; stroke-opacity:1; 
stroke-linecap:round; stroke-linejoin:round;">
<circle cx="1.8250" cy="24.6850" r="0.5000" /> 
</g>
<g style="fill:#FFFFFF; fill-opacity:1.0000; 
stroke:#FFFFFF; stroke-width:0.0212; stroke-opacity:1; 
stroke-linecap:round; stroke-linejoin:round;">
</g>
<g style="fill:#FFFFFF; fill-opacity:1.0000; 
stroke:#FFFFFF; stroke-width:0.0000; stroke-opacity:1; 
stroke-linecap:round; stroke-linejoin:round;">
<circle cx="1.8250" cy="27.2250" r="0.5000" /> 
</g>
<g style="fill:#FFFFFF; fill-opacity:1.0000; 
stroke:#FFFFFF; stroke-width:0.0212; stroke-opacity:1; 
stroke-linecap:round; stroke-linejoin:round;">
</g>
<g style="fill:#FFFFFF; fill-opacity:1.0000; 
stroke:#FFFFFF; stroke-width:0.0000; stroke-opacity:1; 
stroke-linecap:round; stroke-linejoin:round;">
<circle cx="1.8250" cy="29.7650" r="0.5000" /> 
</g>
<g style="fill:#FFFFFF; fill-opacity:1.0000; 
stroke:#FFFFFF; stroke-width:0.0212; stroke-opacity:1; 
stroke-linecap:round; stroke-linejoin:round;">
</g>
<g style="fill:#FFFFFF; fill-opacity:1.0000; 
stroke:#FFFFFF; stroke-width:0.0000; stroke-opacity:1; 
stroke-linecap:round; stroke-linejoin:round;">
<circle cx="1.8250" cy="32.3050" r="0.5000" /> 
</g>
<g style="fill:#FFFFFF; fill-opacity:1.0000; 
stroke:#FFFFFF; stroke-width:0.0212; stroke-opacity:1; 
stroke-linecap:round; stroke-linejoin:round;">
</g>
<g style="fill:#FFFFFF; fill-opacity:1.0000; 
stroke:#FFFFFF; stroke-width:0.0000; stroke-opacity:1; 
stroke-linecap:round; stroke-linejoin:round;">
<circle cx="1.8250" cy="34.8450" r="0.5000" /> 
</g>
<g style="fill:#FFFFFF; fill-opacity:1.0000; 
stroke:#FFFFFF; stroke-width:0.0212; stroke-opacity:1; 
stroke-linecap:round; stroke-linejoin:round;">
</g>
<g style="fill:#FFFFFF; fill-opacity:1.0000; 
stroke:#FFFFFF; stroke-width:0.0000; stroke-opacity:1; 
stroke-linecap:round; stroke-linejoin:round;">
<circle cx="17.0650" cy="37.3750" r="0.5000" /> 
</g>
<g style="fill:#FFFFFF; fill-opacity:1.0000; 
stroke:#FFFFFF; stroke-width:0.0212; stroke-opacity:1; 
stroke-linecap:round; stroke-linejoin:round;">
</g>
<g style="fill:#FFFFFF; fill-opacity:1.0000; 
stroke:#FFFFFF; stroke-width:0.0000; stroke-opacity:1; 
stroke-linecap:round; stroke-linejoin:round;">
<circle cx="17.0650" cy="34.8350" r="0.5000" /> 
</g>
<g style="fill:#FFFFFF; fill-opacity:1.0000; 
stroke:#FFFFFF; stroke-width:0.0212; stroke-opacity:1; 
stroke-linecap:round; stroke-linejoin:round;">
</g>
<g style="fill:#FFFFFF; fill-opacity:1.0000; 
stroke:#FFFFFF; stroke-width:0.0000; stroke-opacity:1; 
stroke-linecap:round; stroke-linejoin:round;">
<circle cx="17.0650" cy="32.2950" r="0.5000" /> 
</g>
<g style="fill:#FFFFFF; fill-opacity:1.0000; 
stroke:#FFFFFF; stroke-width:0.0212; stroke-opacity:1; 
stroke-linecap:round; stroke-linejoin:round;">
</g>
<g style="fill:#FFFFFF; fill-opacity:1.0000; 
stroke:#FFFFFF; stroke-width:0.0000; stroke-opacity:1; 
stroke-linecap:round; stroke-linejoin:round;">
<circle cx="17.0650" cy="29.7550" r="0.5000" /> 
</g>
<g style="fill:#FFFFFF; fill-opacity:1.0000; 
stroke:#FFFFFF; stroke-width:0.0212; stroke-opacity:1; 
stroke-linecap:round; stroke-linejoin:round;">
</g>
<g style="fill:#FFFFFF; fill-opacity:1.0000; 
stroke:#FFFFFF; stroke-width:0.0000; stroke-opacity:1; 
stroke-linecap:round; stroke-linejoin:round;">
<circle cx="17.0650" cy="27.2150" r="0.5000" /> 
</g>
<g style="fill:#FFFFFF; fill-opacity:1.0000; 
stroke:#FFFFFF; stroke-width:0.0212; stroke-opacity:1; 
stroke-linecap:round; stroke-linejoin:round;">
</g>
<g style="fill:#FFFFFF; fill-opacity:1.0000; 
stroke:#FFFFFF; stroke-width:0.0000; stroke-opacity:1; 
stroke-linecap:round; stroke-linejoin:round;">
<circle cx="17.0650" cy="24.6750" r="0.5000" /> 
</g>
<g style="fill:#FFFFFF; fill-opacity:1.0000; 
stroke:#FFFFFF; stroke-width:0.0212; stroke-opacity:1; 
stroke-linecap:round; stroke-linejoin:round;">
</g>
<g style="fill:#FFFFFF; fill-opacity:1.0000; 
stroke:#FFFFFF; stroke-width:0.0000; stroke-opacity:1; 
stroke-linecap:round; stroke-linejoin:round;">
<circle cx="17.0650" cy="22.1350" r="0.5000" /> 
</g>
<g style="fill:#FFFFFF; fill-opacity:1.0000; 
stroke:#FFFFFF; stroke-width:0.0212; stroke-opacity:1; 
stroke-linecap:round; stroke-linejoin:round;">
</g>
<g style="fill:#FFFFFF; fill-opacity:1.0000; 
stroke:#FFFFFF; stroke-width:0.0000; stroke-opacity:1; 
stroke-linecap:round; stroke-linejoin:round;">
<circle cx="17.0650" cy="19.5950" r="0.5000" /> 
</g>
<g style="fill:#FFFFFF; fill-opacity:1.0000; 
stroke:#FFFFFF; stroke-width:0.0212; stroke-opacity:1; 
stroke-linecap:round; stroke-linejoin:round;">
</g>
<g style="fill:#FFFFFF; fill-opacity:1.0000; 
stroke:#FFFFFF; stroke-width:0.0000; stroke-opacity:1; 
stroke-linecap:round; stroke-linejoin:round;">
<circle cx="17.0650" cy="17.0550" r="0.5000" /> 
</g>
<g style="fill:#FFFFFF; fill-opacity:1.0000; 
stroke:#FFFFFF; stroke-width:0.0212; stroke-opacity:1; 
stroke-linecap:round; stroke-linejoin:round;">
</g>
<g style="fill:#FFFFFF; fill-opacity:1.0000; 
stroke:#FFFFFF; stroke-width:0.0000; stroke-opacity:1; 
stroke-linecap:round; stroke-linejoin:round;">
<circle cx="17.0650" cy="14.5150" r="0.5000" /> 
</g>
<g style="fill:#FFFFFF; fill-opacity:1.0000; 
stroke:#FFFFFF; stroke-width:0.0212; stroke-opacity:1; 
stroke-linecap:round; stroke-linejoin:round;">
</g>
<g style="fill:#FFFFFF; fill-opacity:1.0000; 
stroke:#FFFFFF; stroke-width:0.0000; stroke-opacity:1; 
stroke-linecap:round; stroke-linejoin:round;">
<circle cx="17.0650" cy="11.9750" r="0.5000" /> 
</g>
<g style="fill:#FFFFFF; fill-opacity:1.0000; 
stroke:#FFFFFF; stroke-width:0.0212; stroke-opacity:1; 
stroke-linecap:round; stroke-linejoin:round;">
</g>
<g style="fill:#FFFFFF; fill-opacity:1.0000; 
stroke:#FFFFFF; stroke-width:0.0000; stroke-opacity:1; 
stroke-linecap:round; stroke-linejoin:round;">
<circle cx="17.0650" cy="9.4350" r="0.5000" /> 
</g>
<g style="fill:#FFFFFF; fill-opacity:1.0000; 
stroke:#FFFFFF; stroke-width:0.0212; stroke-opacity:1; 
stroke-linecap:round; stroke-linejoin:round;">
</g>
<g style="fill:#FFFFFF; fill-opacity:1.0000; 
stroke:#FFFFFF; stroke-width:0.0000; stroke-opacity:1; 
stroke-linecap:round; stroke-linejoin:round;">
<circle cx="17.0650" cy="6.8950" r="0.5000" /> 
</g>
<g style="fill:#FFFFFF; fill-opacity:1.0000; 
stroke:#FFFFFF; stroke-width:0.0212; stroke-opacity:1; 
stroke-linecap:round; stroke-linejoin:round;">
</g>
<g style="fill:#FFFFFF; fill-opacity:1.0000; 
stroke:#FFFFFF; stroke-width:0.0000; stroke-opacity:1; 
stroke-linecap:round; stroke-linejoin:round;">
<circle cx="17.0650" cy="4.3550" r="0.5000" /> 
</g>
<g style="fill:#FFFFFF; fill-opacity:1.0000; 
stroke:#FFFFFF; stroke-width:0.0212; stroke-opacity:1; 
stroke-linecap:round; stroke-linejoin:round;">
</g>
<g style="fill:#FFFFFF; fill-opacity:1.0000; 
stroke:#FFFFFF; stroke-width:0.0000; stroke-opacity:1; 
stroke-linecap:round; stroke-linejoin:round;">
<circle cx="17.0650" cy="1.8150" r="0.5000" /> 
</g>
<g style="fill:#FFFFFF; fill-opacity:1.0000; 
stroke:#FFFFFF; stroke-width:0.0212; stroke-opacity:1; 
stroke-linecap:round; stroke-linejoin:round;">
</g>
<g style="fill:#000000; fill-opacity:1.0000; 
stroke:#000000; stroke-width:0.0212; stroke-opacity:1; 
stroke-linecap:round; stroke-linejoin:round;">
</g>
<g style="fill:#000000; fill-opacity:1.0000; 
stroke:#000000; stroke-width:0.0001; stroke-opacity:1; 
stroke-linecap:round; stroke-linejoin:round;">
</g>
<g style="fill:#000000; fill-opacity:0.0; 
stroke:#000000; stroke-width:0.0001; stroke-opacity:1; 
stroke-linecap:round; stroke-linejoin:round;">
<path d="M18.8650 0.0200
L0.0250 0.0200
" />
<path d="M0.0250 0.0200
L0.0250 36.6200
" />
<path d="M2.5850 39.1800
L18.8650 39.1800
" />
<path d="M0.0250 36.6200
L2.5850 39.1800
" />
<path d="M18.8650 39.1800
L18.8650 0.0200
" />
<g >
</g>
<g >
</g>
<g >
</g>
<g >
</g>
<g >
</g>
<g >
</g>
<g >
</g>
<g >
</g>
<g >
</g>
<g >
</g>
<g >
</g>
<g >
</g>
<g >
</g>
</g> 
</svg>
