<?xml version="1.0" standalone="no"?>
 <!DOCTYPE svg PUBLIC "-//W3C//DTD SVG 1.1//EN" 
 "http://www.w3.org/Graphics/SVG/1.1/DTD/svg11.dtd"> 
<svg
  xmlns:svg="http://www.w3.org/2000/svg"
  xmlns="http://www.w3.org/2000/svg"
  xmlns:xlink="http://www.w3.org/1999/xlink"
  version="1.1"
  width="297.0022mm" height="210.0072mm" viewBox="0.0000 0.0000 297.0022 210.0072">
<title>SVG Image created as ICM-20948-breakout-B_Cu.svg date 2023/04/17 09:22:45 </title>
  <desc>Image generated by PCBNEW </desc>
<g style="fill:#000000; fill-opacity:1.0000;stroke:#000000; stroke-opacity:1.0000;
stroke-linecap:round; stroke-linejoin:round;"
 transform="translate(0 0) scale(1 1)">
</g>
<g style="fill:#000000; fill-opacity:0.0; 
stroke:#000000; stroke-width:0.0000; stroke-opacity:1; 
stroke-linecap:round; stroke-linejoin:round;">
<g >
</g>
<g >
</g>
<g >
</g>
<g >
</g>
<g >
</g>
<g >
</g>
<g >
</g>
<g style="fill:#000000; fill-opacity:0.0; 
stroke:#000000; stroke-width:0.0000; stroke-opacity:1; 
stroke-linecap:round; stroke-linejoin:round;">
</g>
<g style="fill:#000000; fill-opacity:1.0000; 
stroke:#000000; stroke-width:0.0000; stroke-opacity:1; 
stroke-linecap:round; stroke-linejoin:round;">
<circle cx="143.9600" cy="77.7200" r="0.8500" /> 
</g>
<g style="fill:#000000; fill-opacity:1.0000; 
stroke:#000000; stroke-width:0.0212; stroke-opacity:1; 
stroke-linecap:round; stroke-linejoin:round;">
</g>
<g style="fill:#000000; fill-opacity:1.0000; 
stroke:#000000; stroke-width:0.0000; stroke-opacity:1; 
stroke-linecap:round; stroke-linejoin:round;">
<circle cx="143.9600" cy="75.1800" r="0.8500" /> 
<circle cx="143.9600" cy="72.6400" r="0.8500" /> 
</g>
<g >
</g>
<g style="fill:#000000; fill-opacity:1.0000; 
stroke:#000000; stroke-width:0.0000; stroke-opacity:1; 
stroke-linecap:round; stroke-linejoin:round;">
<circle cx="156.6600" cy="80.2600" r="0.8500" /> 
<circle cx="156.6600" cy="77.7200" r="0.8500" /> 
<circle cx="156.6600" cy="75.1800" r="0.8500" /> 
<circle cx="156.6600" cy="72.6400" r="0.8500" /> 
</g>
<g style="fill:#000000; fill-opacity:1.0000; 
stroke:#000000; stroke-width:0.0212; stroke-opacity:1; 
stroke-linecap:round; stroke-linejoin:round;">
</g>
<g >
</g>
<g style="fill:#000000; fill-opacity:1.0000; 
stroke:#000000; stroke-width:0.0212; stroke-opacity:1; 
stroke-linecap:round; stroke-linejoin:round;">
</g>
<g style="fill:#000000; fill-opacity:1.0000; 
stroke:#000000; stroke-width:0.0000; stroke-opacity:1; 
stroke-linecap:round; stroke-linejoin:round;">
<circle cx="150.9050" cy="78.0700" r="0.2250" /> 
</g>
<g style="fill:#000000; fill-opacity:1.0000; 
stroke:#000000; stroke-width:0.0212; stroke-opacity:1; 
stroke-linecap:round; stroke-linejoin:round;">
</g>
<g style="fill:#000000; fill-opacity:1.0000; 
stroke:#000000; stroke-width:0.0000; stroke-opacity:1; 
stroke-linecap:round; stroke-linejoin:round;">
<circle cx="149.1800" cy="71.3600" r="0.2250" /> 
</g>
<g style="fill:#000000; fill-opacity:1.0000; 
stroke:#000000; stroke-width:0.0212; stroke-opacity:1; 
stroke-linecap:round; stroke-linejoin:round;">
</g>
<g style="fill:#000000; fill-opacity:1.0000; 
stroke:#000000; stroke-width:0.0000; stroke-opacity:1; 
stroke-linecap:round; stroke-linejoin:round;">
<circle cx="146.5075" cy="82.4900" r="0.2250" /> 
</g>
<g style="fill:#000000; fill-opacity:1.0000; 
stroke:#000000; stroke-width:0.0212; stroke-opacity:1; 
stroke-linecap:round; stroke-linejoin:round;">
</g>
<g style="fill:#000000; fill-opacity:1.0000; 
stroke:#000000; stroke-width:0.0000; stroke-opacity:1; 
stroke-linecap:round; stroke-linejoin:round;">
<circle cx="149.8700" cy="78.1800" r="0.2250" /> 
</g>
<g style="fill:#000000; fill-opacity:1.0000; 
stroke:#000000; stroke-width:0.0212; stroke-opacity:1; 
stroke-linecap:round; stroke-linejoin:round;">
</g>
<g style="fill:#000000; fill-opacity:1.0000; 
stroke:#000000; stroke-width:0.0000; stroke-opacity:1; 
stroke-linecap:round; stroke-linejoin:round;">
<circle cx="144.8700" cy="85.9700" r="0.2250" /> 
</g>
<g style="fill:#000000; fill-opacity:1.0000; 
stroke:#000000; stroke-width:0.0212; stroke-opacity:1; 
stroke-linecap:round; stroke-linejoin:round;">
</g>
<g style="fill:#000000; fill-opacity:1.0000; 
stroke:#000000; stroke-width:0.0000; stroke-opacity:1; 
stroke-linecap:round; stroke-linejoin:round;">
<circle cx="151.4700" cy="81.5400" r="0.2250" /> 
</g>
<g style="fill:#000000; fill-opacity:1.0000; 
stroke:#000000; stroke-width:0.0212; stroke-opacity:1; 
stroke-linecap:round; stroke-linejoin:round;">
</g>
<g style="fill:#000000; fill-opacity:1.0000; 
stroke:#000000; stroke-width:0.0000; stroke-opacity:1; 
stroke-linecap:round; stroke-linejoin:round;">
<circle cx="148.2325" cy="84.2900" r="0.2250" /> 
</g>
<g style="fill:#000000; fill-opacity:1.0000; 
stroke:#000000; stroke-width:0.0212; stroke-opacity:1; 
stroke-linecap:round; stroke-linejoin:round;">
</g>
<g style="fill:#000000; fill-opacity:1.0000; 
stroke:#000000; stroke-width:0.0000; stroke-opacity:1; 
stroke-linecap:round; stroke-linejoin:round;">
<circle cx="149.1774" cy="83.0031" r="0.2250" /> 
</g>
<g style="fill:#000000; fill-opacity:1.0000; 
stroke:#000000; stroke-width:0.0212; stroke-opacity:1; 
stroke-linecap:round; stroke-linejoin:round;">
</g>
<g style="fill:#000000; fill-opacity:1.0000; 
stroke:#000000; stroke-width:0.0000; stroke-opacity:1; 
stroke-linecap:round; stroke-linejoin:round;">
<circle cx="149.0700" cy="74.4900" r="0.2250" /> 
</g>
<g style="fill:#000000; fill-opacity:1.0000; 
stroke:#000000; stroke-width:0.0212; stroke-opacity:1; 
stroke-linecap:round; stroke-linejoin:round;">
</g>
<g style="fill:#000000; fill-opacity:1.0000; 
stroke:#000000; stroke-width:0.0000; stroke-opacity:1; 
stroke-linecap:round; stroke-linejoin:round;">
<circle cx="152.4050" cy="72.9000" r="0.2250" /> 
</g>
<g style="fill:#000000; fill-opacity:1.0000; 
stroke:#000000; stroke-width:0.0212; stroke-opacity:1; 
stroke-linecap:round; stroke-linejoin:round;">
</g>
<g >
</g>
<g style="fill:#000000; fill-opacity:1.0000; 
stroke:#000000; stroke-width:0.0212; stroke-opacity:1; 
stroke-linecap:round; stroke-linejoin:round;">
</g>
<g style="fill:#000000; fill-opacity:1.0000; 
stroke:#000000; stroke-width:0.2000; stroke-opacity:1; 
stroke-linecap:round; stroke-linejoin:round;">
</g>
<g style="fill:#000000; fill-opacity:0.0; 
stroke:#000000; stroke-width:0.2000; stroke-opacity:1; 
stroke-linecap:round; stroke-linejoin:round;">
<path d="M151.4700 81.5400
L152.4050 80.6050
" />
<path d="M152.1450 72.6400
L143.9600 72.6400
" />
<path d="M152.4050 72.9000
L152.1450 72.6400
" />
<path d="M152.4050 80.6050
L152.4050 72.9000
" />
<path d="M149.0700 82.8957
L149.0700 74.4900
" />
<path d="M149.1774 83.0031
L149.0700 82.8957
" />
<path d="M151.4700 81.5400
L148.7200 84.2900
" />
<path d="M148.7200 84.2900
L148.2325 84.2900
" />
</g>
<g >
</g>
<g style="fill:#000000; fill-opacity:0.0; 
stroke:#000000; stroke-width:0.2000; stroke-opacity:1; 
stroke-linecap:round; stroke-linejoin:round;">
<g >
</g>
<g style="fill:#000000; fill-opacity:1.0000; 
stroke:#000000; stroke-width:0.0000; stroke-opacity:1; 
stroke-linecap:round; stroke-linejoin:round;">
<path style="fill:#000000; fill-opacity:1.0000; 
stroke:#000000; stroke-width:0.0000; stroke-opacity:1; 
stroke-linecap:round; stroke-linejoin:round;fill-rule:evenodd;"
d="M 158.3975,70.8571
158.4429,70.9025
158.4595,70.9645
158.4595,88.2455
158.4429,88.3075
158.3975,88.3529
158.3355,88.3695
142.2845,88.3695
142.2225,88.3529
142.1771,88.3075
142.1605,88.2455
142.1605,77.7200
142.9044,77.7200
142.9247,77.9259
142.9247,77.9259
142.9848,78.1240
143.0823,78.3064
143.1336,78.3690
143.2136,78.4664
143.2936,78.5320
143.3735,78.5977
143.5560,78.6952
143.7541,78.7553
143.9600,78.7756
144.1659,78.7553
144.3640,78.6952
144.5464,78.5977
144.7064,78.4664
144.8377,78.3064
144.9352,78.1240
144.9953,77.9259
145.0156,77.7200
144.9953,77.5141
144.9352,77.3160
144.8377,77.1335
144.7720,77.0536
144.7064,76.9736
144.6090,76.8936
144.5464,76.8423
144.3640,76.7448
144.2649,76.7147
144.1659,76.6847
143.9600,76.6644
143.7541,76.6847
143.5560,76.7448
143.3736,76.8423
143.2136,76.9736
143.0823,77.1336
142.9848,77.3160
142.9247,77.5141
142.9044,77.7200
142.1605,77.7200
142.1605,72.6400
142.9044,72.6400
142.9247,72.8459
142.9534,72.9405
142.9848,73.0440
143.0823,73.2264
143.1038,73.2526
143.2136,73.3864
143.2936,73.4520
143.3735,73.5177
143.5560,73.6152
143.7541,73.6753
143.9600,73.6956
144.1659,73.6753
144.3640,73.6152
144.5464,73.5177
144.7064,73.3864
144.8377,73.2264
144.9352,73.0440
144.9399,73.0285
144.9654,72.9827
145.0074,72.9516
145.0586,72.9405
151.8747,72.9405
151.9310,72.9540
151.9750,72.9916
151.9852,73.0162
151.9864,73.0156
152.0565,73.1532
152.0682,73.1649
152.0951,73.2052
152.1045,73.2526
152.1045,80.4292
152.0951,80.4766
152.0682,80.5168
151.5054,81.0796
151.4740,81.1024
151.4371,81.1144
151.3369,81.1303
151.2168,81.1915
151.1215,81.2868
151.0603,81.4069
151.0444,81.5071
151.0324,81.5440
151.0096,81.5754
149.7510,82.8340
149.7016,82.8643
149.6439,82.8688
149.5904,82.8467
149.5528,82.8026
149.5260,82.7499
149.4168,82.6407
149.4178,82.6396
149.3888,82.6128
149.3705,82.5480
149.3705,74.8426
149.3799,74.7952
149.4068,74.7549
149.4185,74.7432
149.4185,74.7432
149.4797,74.6231
149.5008,74.4900
149.4797,74.3569
149.4185,74.2368
149.4185,74.2368
149.3232,74.1415
149.2031,74.0803
149.0700,74.0592
148.9369,74.0803
148.8168,74.1415
148.7215,74.2368
148.6603,74.3569
148.6392,74.4900
148.6603,74.6231
148.7215,74.7432
148.7332,74.7549
148.7601,74.7952
148.7695,74.8426
148.7695,82.8265
148.7668,82.8433
148.7673,82.8560
148.7659,82.8811
148.7466,83.0031
148.7677,83.1363
148.8289,83.2564
148.9242,83.3517
148.9242,83.3517
148.9769,83.3785
149.0210,83.4161
149.0431,83.4696
149.0386,83.5273
149.0083,83.5767
148.6523,83.9327
148.5967,83.9648
148.5325,83.9648
148.5042,83.9484
148.5032,83.9504
148.3656,83.8803
148.2325,83.8592
148.0994,83.8803
147.9793,83.9415
147.8840,84.0368
147.8228,84.1569
147.8017,84.2900
147.8228,84.4231
147.8840,84.5432
147.9793,84.6385
147.9793,84.6385
148.0994,84.6997
148.2325,84.7208
148.3656,84.6997
148.4857,84.6385
148.4857,84.6385
148.4974,84.6268
148.5377,84.5999
148.5851,84.5905
148.6508,84.5905
148.6676,84.5932
148.6778,84.5928
148.6778,84.5928
148.7241,84.5906
148.7298,84.5905
148.7488,84.5905
148.7633,84.5888
148.7900,84.5876
148.7963,84.5848
148.8236,84.5763
148.8304,84.5751
148.8531,84.5610
148.8683,84.5530
148.8928,84.5422
148.8977,84.5373
148.9201,84.5196
148.9260,84.5159
148.9421,84.4946
148.9533,84.4817
151.4346,82.0004
151.4660,81.9776
151.5029,81.9656
151.6031,81.9497
151.7232,81.8885
151.8185,81.7932
151.8797,81.6731
151.8956,81.5729
151.9076,81.5360
151.9304,81.5046
152.5685,80.8665
152.5824,80.8565
152.5892,80.8490
152.5892,80.8490
152.6205,80.8147
152.6244,80.8106
152.6372,80.7978
152.6372,80.7978
152.6379,80.7971
152.6469,80.7857
152.6649,80.7659
152.6649,80.7659
152.6649,80.7659
152.6674,80.7595
152.6807,80.7342
152.6847,80.7285
152.6847,80.7285
152.6847,80.7285
152.6908,80.7025
152.6958,80.6861
152.7055,80.6612
152.7055,80.6542
152.7088,80.6259
152.7088,80.6257
152.7104,80.6191
152.7067,80.5927
152.7055,80.5755
152.7055,80.2600
155.6044,80.2600
155.6247,80.4659
155.6291,80.4805
155.6848,80.6640
155.7823,80.8464
155.7987,80.8665
155.9136,81.0064
155.9936,81.0720
156.0735,81.1377
156.2560,81.2352
156.4541,81.2953
156.6600,81.3156
156.8659,81.2953
157.0640,81.2352
157.2464,81.1377
157.4064,81.0064
157.5377,80.8464
157.6352,80.6640
157.6953,80.4659
157.7156,80.2600
157.6953,80.0541
157.6352,79.8560
157.5377,79.6735
157.4720,79.5936
157.4064,79.5136
157.3090,79.4336
157.2464,79.3823
157.0640,79.2848
156.9649,79.2547
156.8659,79.2247
156.6600,79.2044
156.4541,79.2247
156.2560,79.2848
156.0736,79.3823
155.9136,79.5136
155.7823,79.6736
155.6848,79.8560
155.6247,80.0541
155.6044,80.2600
152.7055,80.2600
152.7055,77.7200
155.6044,77.7200
155.6247,77.9259
155.6247,77.9259
155.6848,78.1240
155.7823,78.3064
155.8336,78.3690
155.9136,78.4664
155.9936,78.5320
156.0735,78.5977
156.2560,78.6952
156.4541,78.7553
156.6600,78.7756
156.8659,78.7553
157.0640,78.6952
157.2464,78.5977
157.4064,78.4664
157.5377,78.3064
157.6352,78.1240
157.6953,77.9259
157.7156,77.7200
157.6953,77.5141
157.6352,77.3160
157.5377,77.1335
157.4720,77.0536
157.4064,76.9736
157.3090,76.8936
157.2464,76.8423
157.0640,76.7448
156.9649,76.7147
156.8659,76.6847
156.6600,76.6644
156.4541,76.6847
156.2560,76.7448
156.0736,76.8423
155.9136,76.9736
155.7823,77.1336
155.6848,77.3160
155.6247,77.5141
155.6044,77.7200
152.7055,77.7200
152.7055,75.1800
155.6044,75.1800
155.6247,75.3859
155.6247,75.3859
155.6848,75.5840
155.7823,75.7664
155.8336,75.8290
155.9136,75.9264
155.9936,75.9920
156.0735,76.0577
156.2560,76.1552
156.4541,76.2153
156.6600,76.2356
156.8659,76.2153
157.0640,76.1552
157.2464,76.0577
157.4064,75.9264
157.5377,75.7664
157.6352,75.5840
157.6953,75.3859
157.7156,75.1800
157.6953,74.9741
157.6352,74.7760
157.5377,74.5935
157.4527,74.4900
157.4064,74.4336
157.3090,74.3536
157.2464,74.3023
157.0640,74.2048
156.9649,74.1747
156.8659,74.1447
156.6600,74.1244
156.4541,74.1447
156.2560,74.2048
156.0736,74.3023
155.9136,74.4336
155.7823,74.5936
155.6848,74.7760
155.6247,74.9741
155.6044,75.1800
152.7055,75.1800
152.7055,73.2526
152.7149,73.2052
152.7418,73.1649
152.7535,73.1532
152.7535,73.1532
152.8147,73.0331
152.8358,72.9000
152.8147,72.7669
152.7535,72.6468
152.7535,72.6468
152.7467,72.6400
155.6044,72.6400
155.6247,72.8459
155.6534,72.9405
155.6848,73.0440
155.7823,73.2264
155.8038,73.2526
155.9136,73.3864
155.9936,73.4520
156.0735,73.5177
156.2560,73.6152
156.4541,73.6753
156.6600,73.6956
156.8659,73.6753
157.0640,73.6152
157.2464,73.5177
157.4064,73.3864
157.5377,73.2264
157.6352,73.0440
157.6953,72.8459
157.7156,72.6400
157.6953,72.4341
157.6352,72.2360
157.5377,72.0536
157.4720,71.9736
157.4064,71.8936
157.3090,71.8136
157.2464,71.7623
157.0640,71.6648
156.9649,71.6347
156.8659,71.6047
156.6600,71.5844
156.4541,71.6047
156.2560,71.6648
156.0736,71.7623
155.9136,71.8936
155.7823,72.0536
155.6848,72.2360
155.6247,72.4341
155.6044,72.6400
152.7467,72.6400
152.6582,72.5515
152.5381,72.4903
152.4401,72.4748
152.4058,72.4640
152.3760,72.4439
152.3547,72.4245
152.3505,72.4206
152.3371,72.4071
152.3257,72.3981
152.3059,72.3801
152.2995,72.3776
152.2742,72.3643
152.2685,72.3603
152.2685,72.3603
152.2685,72.3603
152.2425,72.3542
152.2261,72.3492
152.2012,72.3395
152.1942,72.3395
152.1659,72.3362
152.1591,72.3346
152.1591,72.3346
152.1478,72.3362
152.1327,72.3383
152.1155,72.3395
145.0586,72.3395
145.0074,72.3284
144.9654,72.2973
144.9399,72.2515
144.9397,72.2507
144.9352,72.2360
144.8377,72.0536
144.7720,71.9736
144.7064,71.8936
144.6090,71.8136
144.5464,71.7623
144.3640,71.6648
144.2649,71.6347
144.1659,71.6047
143.9600,71.5844
143.7541,71.6047
143.5560,71.6648
143.3736,71.7623
143.2136,71.8936
143.0823,72.0536
142.9848,72.2360
142.9247,72.4341
142.9044,72.6400
142.1605,72.6400
142.1605,70.9645
142.1771,70.9025
142.2225,70.8571
142.2845,70.8405
158.3355,70.8405
Z" /> 
</g>
</g>
</g>
<g style="fill:#FFFFFF; fill-opacity:1.0000; 
stroke:#FFFFFF; stroke-width:0.0000; stroke-opacity:1; 
stroke-linecap:round; stroke-linejoin:round;">
<circle cx="150.9050" cy="78.0700" r="0.1250" /> 
</g>
<g style="fill:#FFFFFF; fill-opacity:1.0000; 
stroke:#FFFFFF; stroke-width:0.0212; stroke-opacity:1; 
stroke-linecap:round; stroke-linejoin:round;">
</g>
<g style="fill:#FFFFFF; fill-opacity:1.0000; 
stroke:#FFFFFF; stroke-width:0.0000; stroke-opacity:1; 
stroke-linecap:round; stroke-linejoin:round;">
<circle cx="149.1800" cy="71.3600" r="0.1250" /> 
</g>
<g style="fill:#FFFFFF; fill-opacity:1.0000; 
stroke:#FFFFFF; stroke-width:0.0212; stroke-opacity:1; 
stroke-linecap:round; stroke-linejoin:round;">
</g>
<g style="fill:#FFFFFF; fill-opacity:1.0000; 
stroke:#FFFFFF; stroke-width:0.0000; stroke-opacity:1; 
stroke-linecap:round; stroke-linejoin:round;">
<circle cx="146.5075" cy="82.4900" r="0.1250" /> 
</g>
<g style="fill:#FFFFFF; fill-opacity:1.0000; 
stroke:#FFFFFF; stroke-width:0.0212; stroke-opacity:1; 
stroke-linecap:round; stroke-linejoin:round;">
</g>
<g style="fill:#FFFFFF; fill-opacity:1.0000; 
stroke:#FFFFFF; stroke-width:0.0000; stroke-opacity:1; 
stroke-linecap:round; stroke-linejoin:round;">
<circle cx="149.8700" cy="78.1800" r="0.1250" /> 
</g>
<g style="fill:#FFFFFF; fill-opacity:1.0000; 
stroke:#FFFFFF; stroke-width:0.0212; stroke-opacity:1; 
stroke-linecap:round; stroke-linejoin:round;">
</g>
<g style="fill:#FFFFFF; fill-opacity:1.0000; 
stroke:#FFFFFF; stroke-width:0.0000; stroke-opacity:1; 
stroke-linecap:round; stroke-linejoin:round;">
<circle cx="144.8700" cy="85.9700" r="0.1250" /> 
</g>
<g style="fill:#FFFFFF; fill-opacity:1.0000; 
stroke:#FFFFFF; stroke-width:0.0212; stroke-opacity:1; 
stroke-linecap:round; stroke-linejoin:round;">
</g>
<g style="fill:#FFFFFF; fill-opacity:1.0000; 
stroke:#FFFFFF; stroke-width:0.0000; stroke-opacity:1; 
stroke-linecap:round; stroke-linejoin:round;">
<circle cx="151.4700" cy="81.5400" r="0.1250" /> 
</g>
<g style="fill:#FFFFFF; fill-opacity:1.0000; 
stroke:#FFFFFF; stroke-width:0.0212; stroke-opacity:1; 
stroke-linecap:round; stroke-linejoin:round;">
</g>
<g style="fill:#FFFFFF; fill-opacity:1.0000; 
stroke:#FFFFFF; stroke-width:0.0000; stroke-opacity:1; 
stroke-linecap:round; stroke-linejoin:round;">
<circle cx="148.2325" cy="84.2900" r="0.1250" /> 
</g>
<g style="fill:#FFFFFF; fill-opacity:1.0000; 
stroke:#FFFFFF; stroke-width:0.0212; stroke-opacity:1; 
stroke-linecap:round; stroke-linejoin:round;">
</g>
<g style="fill:#FFFFFF; fill-opacity:1.0000; 
stroke:#FFFFFF; stroke-width:0.0000; stroke-opacity:1; 
stroke-linecap:round; stroke-linejoin:round;">
<circle cx="149.1774" cy="83.0031" r="0.1250" /> 
</g>
<g style="fill:#FFFFFF; fill-opacity:1.0000; 
stroke:#FFFFFF; stroke-width:0.0212; stroke-opacity:1; 
stroke-linecap:round; stroke-linejoin:round;">
</g>
<g style="fill:#FFFFFF; fill-opacity:1.0000; 
stroke:#FFFFFF; stroke-width:0.0000; stroke-opacity:1; 
stroke-linecap:round; stroke-linejoin:round;">
<circle cx="149.0700" cy="74.4900" r="0.1250" /> 
</g>
<g style="fill:#FFFFFF; fill-opacity:1.0000; 
stroke:#FFFFFF; stroke-width:0.0212; stroke-opacity:1; 
stroke-linecap:round; stroke-linejoin:round;">
</g>
<g style="fill:#FFFFFF; fill-opacity:1.0000; 
stroke:#FFFFFF; stroke-width:0.0000; stroke-opacity:1; 
stroke-linecap:round; stroke-linejoin:round;">
<circle cx="152.4050" cy="72.9000" r="0.1250" /> 
</g>
<g style="fill:#FFFFFF; fill-opacity:1.0000; 
stroke:#FFFFFF; stroke-width:0.0212; stroke-opacity:1; 
stroke-linecap:round; stroke-linejoin:round;">
</g>
<g style="fill:#FFFFFF; fill-opacity:1.0000; 
stroke:#FFFFFF; stroke-width:0.0000; stroke-opacity:1; 
stroke-linecap:round; stroke-linejoin:round;">
<circle cx="143.9600" cy="77.7200" r="0.5000" /> 
</g>
<g style="fill:#FFFFFF; fill-opacity:1.0000; 
stroke:#FFFFFF; stroke-width:0.0212; stroke-opacity:1; 
stroke-linecap:round; stroke-linejoin:round;">
</g>
<g style="fill:#FFFFFF; fill-opacity:1.0000; 
stroke:#FFFFFF; stroke-width:0.0000; stroke-opacity:1; 
stroke-linecap:round; stroke-linejoin:round;">
<circle cx="143.9600" cy="75.1800" r="0.5000" /> 
</g>
<g style="fill:#FFFFFF; fill-opacity:1.0000; 
stroke:#FFFFFF; stroke-width:0.0212; stroke-opacity:1; 
stroke-linecap:round; stroke-linejoin:round;">
</g>
<g style="fill:#FFFFFF; fill-opacity:1.0000; 
stroke:#FFFFFF; stroke-width:0.0000; stroke-opacity:1; 
stroke-linecap:round; stroke-linejoin:round;">
<circle cx="143.9600" cy="72.6400" r="0.5000" /> 
</g>
<g style="fill:#FFFFFF; fill-opacity:1.0000; 
stroke:#FFFFFF; stroke-width:0.0212; stroke-opacity:1; 
stroke-linecap:round; stroke-linejoin:round;">
</g>
<g style="fill:#FFFFFF; fill-opacity:1.0000; 
stroke:#FFFFFF; stroke-width:0.0000; stroke-opacity:1; 
stroke-linecap:round; stroke-linejoin:round;">
<circle cx="156.6600" cy="80.2600" r="0.5000" /> 
</g>
<g style="fill:#FFFFFF; fill-opacity:1.0000; 
stroke:#FFFFFF; stroke-width:0.0212; stroke-opacity:1; 
stroke-linecap:round; stroke-linejoin:round;">
</g>
<g style="fill:#FFFFFF; fill-opacity:1.0000; 
stroke:#FFFFFF; stroke-width:0.0000; stroke-opacity:1; 
stroke-linecap:round; stroke-linejoin:round;">
<circle cx="156.6600" cy="77.7200" r="0.5000" /> 
</g>
<g style="fill:#FFFFFF; fill-opacity:1.0000; 
stroke:#FFFFFF; stroke-width:0.0212; stroke-opacity:1; 
stroke-linecap:round; stroke-linejoin:round;">
</g>
<g style="fill:#FFFFFF; fill-opacity:1.0000; 
stroke:#FFFFFF; stroke-width:0.0000; stroke-opacity:1; 
stroke-linecap:round; stroke-linejoin:round;">
<circle cx="156.6600" cy="75.1800" r="0.5000" /> 
</g>
<g style="fill:#FFFFFF; fill-opacity:1.0000; 
stroke:#FFFFFF; stroke-width:0.0212; stroke-opacity:1; 
stroke-linecap:round; stroke-linejoin:round;">
</g>
<g style="fill:#FFFFFF; fill-opacity:1.0000; 
stroke:#FFFFFF; stroke-width:0.0000; stroke-opacity:1; 
stroke-linecap:round; stroke-linejoin:round;">
<circle cx="156.6600" cy="72.6400" r="0.5000" /> 
</g>
<g style="fill:#FFFFFF; fill-opacity:1.0000; 
stroke:#FFFFFF; stroke-width:0.0212; stroke-opacity:1; 
stroke-linecap:round; stroke-linejoin:round;">
</g>
<g style="fill:#000000; fill-opacity:1.0000; 
stroke:#000000; stroke-width:0.0212; stroke-opacity:1; 
stroke-linecap:round; stroke-linejoin:round;">
</g> 
</svg>
