<?xml version="1.0" standalone="no"?>
 <!DOCTYPE svg PUBLIC "-//W3C//DTD SVG 1.1//EN" 
 "http://www.w3.org/Graphics/SVG/1.1/DTD/svg11.dtd"> 
<svg
  xmlns:svg="http://www.w3.org/2000/svg"
  xmlns="http://www.w3.org/2000/svg"
  xmlns:xlink="http://www.w3.org/1999/xlink"
  version="1.1"
  width="297.0022mm" height="210.0072mm" viewBox="0.0000 0.0000 297.0022 210.0072">
<title>SVG Image created as ICM-20948-breakout-F_Cu.svg date 2023/04/17 09:22:24 </title>
  <desc>Image generated by PCBNEW </desc>
<g style="fill:#000000; fill-opacity:1.0000;stroke:#000000; stroke-opacity:1.0000;
stroke-linecap:round; stroke-linejoin:round;"
 transform="translate(0 0) scale(1 1)">
</g>
<g style="fill:#000000; fill-opacity:0.0; 
stroke:#000000; stroke-width:0.0000; stroke-opacity:1; 
stroke-linecap:round; stroke-linejoin:round;">
<g >
</g>
<g style="fill:#000000; fill-opacity:0.0; 
stroke:#000000; stroke-width:0.0000; stroke-opacity:1; 
stroke-linecap:round; stroke-linejoin:round;">
</g>
<g style="fill:#000000; fill-opacity:1.0000; 
stroke:#000000; stroke-width:0.0000; stroke-opacity:1; 
stroke-linecap:round; stroke-linejoin:round;">
<path style="fill:#000000; fill-opacity:1.0000; 
stroke:#000000; stroke-width:0.0000; stroke-opacity:1; 
stroke-linecap:round; stroke-linejoin:round;fill-rule:evenodd;"
d="M 145.2950,84.8700
145.3064,84.8126
145.3389,84.7639
145.3876,84.7314
145.4450,84.7200
146.4700,84.7200
146.5274,84.7314
146.5761,84.7639
146.6086,84.8126
146.6200,84.8700
146.6200,85.1700
146.6086,85.2274
146.5761,85.2761
146.5274,85.3086
146.4700,85.3200
145.4450,85.3200
145.3876,85.3086
145.3389,85.2761
145.3064,85.2274
145.2950,85.1700
Z" /> 
<path style="fill:#000000; fill-opacity:1.0000; 
stroke:#000000; stroke-width:0.0000; stroke-opacity:1; 
stroke-linecap:round; stroke-linejoin:round;fill-rule:evenodd;"
d="M 145.2950,85.8200
145.3064,85.7626
145.3389,85.7139
145.3876,85.6814
145.4450,85.6700
146.4700,85.6700
146.5274,85.6814
146.5761,85.7139
146.6086,85.7626
146.6200,85.8200
146.6200,86.1200
146.6086,86.1774
146.5761,86.2261
146.5274,86.2586
146.4700,86.2700
145.4450,86.2700
145.3876,86.2586
145.3389,86.2261
145.3064,86.1774
145.2950,86.1200
Z" /> 
<path style="fill:#000000; fill-opacity:1.0000; 
stroke:#000000; stroke-width:0.0000; stroke-opacity:1; 
stroke-linecap:round; stroke-linejoin:round;fill-rule:evenodd;"
d="M 145.2950,86.7700
145.3064,86.7126
145.3389,86.6639
145.3876,86.6314
145.4450,86.6200
146.4700,86.6200
146.5274,86.6314
146.5761,86.6639
146.6086,86.7126
146.6200,86.7700
146.6200,87.0700
146.6086,87.1274
146.5761,87.1761
146.5274,87.2086
146.4700,87.2200
145.4450,87.2200
145.3876,87.2086
145.3389,87.1761
145.3064,87.1274
145.2950,87.0700
Z" /> 
<path style="fill:#000000; fill-opacity:1.0000; 
stroke:#000000; stroke-width:0.0000; stroke-opacity:1; 
stroke-linecap:round; stroke-linejoin:round;fill-rule:evenodd;"
d="M 147.5700,86.7700
147.5814,86.7126
147.6139,86.6639
147.6626,86.6314
147.7200,86.6200
148.7450,86.6200
148.8024,86.6314
148.8511,86.6639
148.8836,86.7126
148.8950,86.7700
148.8950,87.0700
148.8836,87.1274
148.8511,87.1761
148.8024,87.2086
148.7450,87.2200
147.7200,87.2200
147.6626,87.2086
147.6139,87.1761
147.5814,87.1274
147.5700,87.0700
Z" /> 
<path style="fill:#000000; fill-opacity:1.0000; 
stroke:#000000; stroke-width:0.0000; stroke-opacity:1; 
stroke-linecap:round; stroke-linejoin:round;fill-rule:evenodd;"
d="M 147.5700,84.8700
147.5814,84.8126
147.6139,84.7639
147.6626,84.7314
147.7200,84.7200
148.7450,84.7200
148.8024,84.7314
148.8511,84.7639
148.8836,84.8126
148.8950,84.8700
148.8950,85.1700
148.8836,85.2274
148.8511,85.2761
148.8024,85.3086
148.7450,85.3200
147.7200,85.3200
147.6626,85.3086
147.6139,85.2761
147.5814,85.2274
147.5700,85.1700
Z" /> 
</g>
<g >
</g>
<g style="fill:#000000; fill-opacity:1.0000; 
stroke:#000000; stroke-width:0.0000; stroke-opacity:1; 
stroke-linecap:round; stroke-linejoin:round;">
<path style="fill:#000000; fill-opacity:1.0000; 
stroke:#000000; stroke-width:0.0000; stroke-opacity:1; 
stroke-linecap:round; stroke-linejoin:round;fill-rule:evenodd;"
d="M 147.4950,79.4900
147.4988,79.4709
147.5096,79.4546
147.5259,79.4438
147.5450,79.4400
147.9950,79.4400
148.0141,79.4438
148.0304,79.4546
148.0412,79.4709
148.0450,79.4900
148.0450,79.5900
148.0412,79.6091
148.0304,79.6254
148.0141,79.6362
147.9950,79.6400
147.5450,79.6400
147.5259,79.6362
147.5096,79.6254
147.4988,79.6091
147.4950,79.5900
Z" /> 
<path style="fill:#000000; fill-opacity:1.0000; 
stroke:#000000; stroke-width:0.0000; stroke-opacity:1; 
stroke-linecap:round; stroke-linejoin:round;fill-rule:evenodd;"
d="M 147.4950,79.8900
147.4988,79.8709
147.5096,79.8546
147.5259,79.8438
147.5450,79.8400
147.9950,79.8400
148.0141,79.8438
148.0304,79.8546
148.0412,79.8709
148.0450,79.8900
148.0450,79.9900
148.0412,80.0091
148.0304,80.0254
148.0141,80.0362
147.9950,80.0400
147.5450,80.0400
147.5259,80.0362
147.5096,80.0254
147.4988,80.0091
147.4950,79.9900
Z" /> 
<path style="fill:#000000; fill-opacity:1.0000; 
stroke:#000000; stroke-width:0.0000; stroke-opacity:1; 
stroke-linecap:round; stroke-linejoin:round;fill-rule:evenodd;"
d="M 147.4950,80.2900
147.4988,80.2709
147.5096,80.2546
147.5259,80.2438
147.5450,80.2400
147.9950,80.2400
148.0141,80.2438
148.0304,80.2546
148.0412,80.2709
148.0450,80.2900
148.0450,80.3900
148.0412,80.4091
148.0304,80.4254
148.0141,80.4362
147.9950,80.4400
147.5450,80.4400
147.5259,80.4362
147.5096,80.4254
147.4988,80.4091
147.4950,80.3900
Z" /> 
<path style="fill:#000000; fill-opacity:1.0000; 
stroke:#000000; stroke-width:0.0000; stroke-opacity:1; 
stroke-linecap:round; stroke-linejoin:round;fill-rule:evenodd;"
d="M 147.4950,80.6900
147.4988,80.6709
147.5096,80.6546
147.5259,80.6438
147.5450,80.6400
147.9950,80.6400
148.0141,80.6438
148.0304,80.6546
148.0412,80.6709
148.0450,80.6900
148.0450,80.7900
148.0412,80.8091
148.0304,80.8254
148.0141,80.8362
147.9950,80.8400
147.5450,80.8400
147.5259,80.8362
147.5096,80.8254
147.4988,80.8091
147.4950,80.7900
Z" /> 
<path style="fill:#000000; fill-opacity:1.0000; 
stroke:#000000; stroke-width:0.0000; stroke-opacity:1; 
stroke-linecap:round; stroke-linejoin:round;fill-rule:evenodd;"
d="M 147.4950,81.0900
147.4988,81.0709
147.5096,81.0546
147.5259,81.0438
147.5450,81.0400
147.9950,81.0400
148.0141,81.0438
148.0304,81.0546
148.0412,81.0709
148.0450,81.0900
148.0450,81.1900
148.0412,81.2091
148.0304,81.2254
148.0141,81.2362
147.9950,81.2400
147.5450,81.2400
147.5259,81.2362
147.5096,81.2254
147.4988,81.2091
147.4950,81.1900
Z" /> 
<path style="fill:#000000; fill-opacity:1.0000; 
stroke:#000000; stroke-width:0.0000; stroke-opacity:1; 
stroke-linecap:round; stroke-linejoin:round;fill-rule:evenodd;"
d="M 147.4950,81.4900
147.4988,81.4709
147.5096,81.4546
147.5259,81.4438
147.5450,81.4400
147.9950,81.4400
148.0141,81.4438
148.0304,81.4546
148.0412,81.4709
148.0450,81.4900
148.0450,81.5900
148.0412,81.6091
148.0304,81.6254
148.0141,81.6362
147.9950,81.6400
147.5450,81.6400
147.5259,81.6362
147.5096,81.6254
147.4988,81.6091
147.4950,81.5900
Z" /> 
<path style="fill:#000000; fill-opacity:1.0000; 
stroke:#000000; stroke-width:0.0000; stroke-opacity:1; 
stroke-linecap:round; stroke-linejoin:round;fill-rule:evenodd;"
d="M 148.2200,82.3150
148.2009,82.3112
148.1846,82.3004
148.1738,82.2841
148.1700,82.2650
148.1700,81.8150
148.1738,81.7959
148.1846,81.7796
148.2009,81.7688
148.2200,81.7650
148.3200,81.7650
148.3391,81.7688
148.3554,81.7796
148.3662,81.7959
148.3700,81.8150
148.3700,82.2650
148.3662,82.2841
148.3554,82.3004
148.3391,82.3112
148.3200,82.3150
Z" /> 
<path style="fill:#000000; fill-opacity:1.0000; 
stroke:#000000; stroke-width:0.0000; stroke-opacity:1; 
stroke-linecap:round; stroke-linejoin:round;fill-rule:evenodd;"
d="M 148.6200,82.3150
148.6009,82.3112
148.5846,82.3004
148.5738,82.2841
148.5700,82.2650
148.5700,81.8150
148.5738,81.7959
148.5846,81.7796
148.6009,81.7688
148.6200,81.7650
148.7200,81.7650
148.7391,81.7688
148.7554,81.7796
148.7662,81.7959
148.7700,81.8150
148.7700,82.2650
148.7662,82.2841
148.7554,82.3004
148.7391,82.3112
148.7200,82.3150
Z" /> 
<path style="fill:#000000; fill-opacity:1.0000; 
stroke:#000000; stroke-width:0.0000; stroke-opacity:1; 
stroke-linecap:round; stroke-linejoin:round;fill-rule:evenodd;"
d="M 149.0200,82.3150
149.0009,82.3112
148.9846,82.3004
148.9738,82.2841
148.9700,82.2650
148.9700,81.8150
148.9738,81.7959
148.9846,81.7796
149.0009,81.7688
149.0200,81.7650
149.1200,81.7650
149.1391,81.7688
149.1554,81.7796
149.1662,81.7959
149.1700,81.8150
149.1700,82.2650
149.1662,82.2841
149.1554,82.3004
149.1391,82.3112
149.1200,82.3150
Z" /> 
<path style="fill:#000000; fill-opacity:1.0000; 
stroke:#000000; stroke-width:0.0000; stroke-opacity:1; 
stroke-linecap:round; stroke-linejoin:round;fill-rule:evenodd;"
d="M 149.4200,82.3150
149.4009,82.3112
149.3846,82.3004
149.3738,82.2841
149.3700,82.2650
149.3700,81.8150
149.3738,81.7959
149.3846,81.7796
149.4009,81.7688
149.4200,81.7650
149.5200,81.7650
149.5391,81.7688
149.5554,81.7796
149.5662,81.7959
149.5700,81.8150
149.5700,82.2650
149.5662,82.2841
149.5554,82.3004
149.5391,82.3112
149.5200,82.3150
Z" /> 
<path style="fill:#000000; fill-opacity:1.0000; 
stroke:#000000; stroke-width:0.0000; stroke-opacity:1; 
stroke-linecap:round; stroke-linejoin:round;fill-rule:evenodd;"
d="M 149.8200,82.3150
149.8009,82.3112
149.7846,82.3004
149.7738,82.2841
149.7700,82.2650
149.7700,81.8150
149.7738,81.7959
149.7846,81.7796
149.8009,81.7688
149.8200,81.7650
149.9200,81.7650
149.9391,81.7688
149.9554,81.7796
149.9662,81.7959
149.9700,81.8150
149.9700,82.2650
149.9662,82.2841
149.9554,82.3004
149.9391,82.3112
149.9200,82.3150
Z" /> 
<path style="fill:#000000; fill-opacity:1.0000; 
stroke:#000000; stroke-width:0.0000; stroke-opacity:1; 
stroke-linecap:round; stroke-linejoin:round;fill-rule:evenodd;"
d="M 150.2200,82.3150
150.2009,82.3112
150.1846,82.3004
150.1738,82.2841
150.1700,82.2650
150.1700,81.8150
150.1738,81.7959
150.1846,81.7796
150.2009,81.7688
150.2200,81.7650
150.3200,81.7650
150.3391,81.7688
150.3554,81.7796
150.3662,81.7959
150.3700,81.8150
150.3700,82.2650
150.3662,82.2841
150.3554,82.3004
150.3391,82.3112
150.3200,82.3150
Z" /> 
<path style="fill:#000000; fill-opacity:1.0000; 
stroke:#000000; stroke-width:0.0000; stroke-opacity:1; 
stroke-linecap:round; stroke-linejoin:round;fill-rule:evenodd;"
d="M 150.4950,81.4900
150.4988,81.4709
150.5096,81.4546
150.5259,81.4438
150.5450,81.4400
150.9950,81.4400
151.0141,81.4438
151.0304,81.4546
151.0412,81.4709
151.0450,81.4900
151.0450,81.5900
151.0412,81.6091
151.0304,81.6254
151.0141,81.6362
150.9950,81.6400
150.5450,81.6400
150.5259,81.6362
150.5096,81.6254
150.4988,81.6091
150.4950,81.5900
Z" /> 
<path style="fill:#000000; fill-opacity:1.0000; 
stroke:#000000; stroke-width:0.0000; stroke-opacity:1; 
stroke-linecap:round; stroke-linejoin:round;fill-rule:evenodd;"
d="M 150.4950,81.0900
150.4988,81.0709
150.5096,81.0546
150.5259,81.0438
150.5450,81.0400
150.9950,81.0400
151.0141,81.0438
151.0304,81.0546
151.0412,81.0709
151.0450,81.0900
151.0450,81.1900
151.0412,81.2091
151.0304,81.2254
151.0141,81.2362
150.9950,81.2400
150.5450,81.2400
150.5259,81.2362
150.5096,81.2254
150.4988,81.2091
150.4950,81.1900
Z" /> 
<path style="fill:#000000; fill-opacity:1.0000; 
stroke:#000000; stroke-width:0.0000; stroke-opacity:1; 
stroke-linecap:round; stroke-linejoin:round;fill-rule:evenodd;"
d="M 150.4950,80.6900
150.4988,80.6709
150.5096,80.6546
150.5259,80.6438
150.5450,80.6400
150.9950,80.6400
151.0141,80.6438
151.0304,80.6546
151.0412,80.6709
151.0450,80.6900
151.0450,80.7900
151.0412,80.8091
151.0304,80.8254
151.0141,80.8362
150.9950,80.8400
150.5450,80.8400
150.5259,80.8362
150.5096,80.8254
150.4988,80.8091
150.4950,80.7900
Z" /> 
<path style="fill:#000000; fill-opacity:1.0000; 
stroke:#000000; stroke-width:0.0000; stroke-opacity:1; 
stroke-linecap:round; stroke-linejoin:round;fill-rule:evenodd;"
d="M 150.4950,80.2900
150.4988,80.2709
150.5096,80.2546
150.5259,80.2438
150.5450,80.2400
150.9950,80.2400
151.0141,80.2438
151.0304,80.2546
151.0412,80.2709
151.0450,80.2900
151.0450,80.3900
151.0412,80.4091
151.0304,80.4254
151.0141,80.4362
150.9950,80.4400
150.5450,80.4400
150.5259,80.4362
150.5096,80.4254
150.4988,80.4091
150.4950,80.3900
Z" /> 
<path style="fill:#000000; fill-opacity:1.0000; 
stroke:#000000; stroke-width:0.0000; stroke-opacity:1; 
stroke-linecap:round; stroke-linejoin:round;fill-rule:evenodd;"
d="M 150.4950,79.8900
150.4988,79.8709
150.5096,79.8546
150.5259,79.8438
150.5450,79.8400
150.9950,79.8400
151.0141,79.8438
151.0304,79.8546
151.0412,79.8709
151.0450,79.8900
151.0450,79.9900
151.0412,80.0091
151.0304,80.0254
151.0141,80.0362
150.9950,80.0400
150.5450,80.0400
150.5259,80.0362
150.5096,80.0254
150.4988,80.0091
150.4950,79.9900
Z" /> 
<path style="fill:#000000; fill-opacity:1.0000; 
stroke:#000000; stroke-width:0.0000; stroke-opacity:1; 
stroke-linecap:round; stroke-linejoin:round;fill-rule:evenodd;"
d="M 150.4950,79.4900
150.4988,79.4709
150.5096,79.4546
150.5259,79.4438
150.5450,79.4400
150.9950,79.4400
151.0141,79.4438
151.0304,79.4546
151.0412,79.4709
151.0450,79.4900
151.0450,79.5900
151.0412,79.6091
151.0304,79.6254
151.0141,79.6362
150.9950,79.6400
150.5450,79.6400
150.5259,79.6362
150.5096,79.6254
150.4988,79.6091
150.4950,79.5900
Z" /> 
<path style="fill:#000000; fill-opacity:1.0000; 
stroke:#000000; stroke-width:0.0000; stroke-opacity:1; 
stroke-linecap:round; stroke-linejoin:round;fill-rule:evenodd;"
d="M 150.2200,79.3150
150.2009,79.3112
150.1846,79.3004
150.1738,79.2841
150.1700,79.2650
150.1700,78.8150
150.1738,78.7959
150.1846,78.7796
150.2009,78.7688
150.2200,78.7650
150.3200,78.7650
150.3391,78.7688
150.3554,78.7796
150.3662,78.7959
150.3700,78.8150
150.3700,79.2650
150.3662,79.2841
150.3554,79.3004
150.3391,79.3112
150.3200,79.3150
Z" /> 
<path style="fill:#000000; fill-opacity:1.0000; 
stroke:#000000; stroke-width:0.0000; stroke-opacity:1; 
stroke-linecap:round; stroke-linejoin:round;fill-rule:evenodd;"
d="M 149.8200,79.3150
149.8009,79.3112
149.7846,79.3004
149.7738,79.2841
149.7700,79.2650
149.7700,78.8150
149.7738,78.7959
149.7846,78.7796
149.8009,78.7688
149.8200,78.7650
149.9200,78.7650
149.9391,78.7688
149.9554,78.7796
149.9662,78.7959
149.9700,78.8150
149.9700,79.2650
149.9662,79.2841
149.9554,79.3004
149.9391,79.3112
149.9200,79.3150
Z" /> 
<path style="fill:#000000; fill-opacity:1.0000; 
stroke:#000000; stroke-width:0.0000; stroke-opacity:1; 
stroke-linecap:round; stroke-linejoin:round;fill-rule:evenodd;"
d="M 149.4200,79.3150
149.4009,79.3112
149.3846,79.3004
149.3738,79.2841
149.3700,79.2650
149.3700,78.8150
149.3738,78.7959
149.3846,78.7796
149.4009,78.7688
149.4200,78.7650
149.5200,78.7650
149.5391,78.7688
149.5554,78.7796
149.5662,78.7959
149.5700,78.8150
149.5700,79.2650
149.5662,79.2841
149.5554,79.3004
149.5391,79.3112
149.5200,79.3150
Z" /> 
<path style="fill:#000000; fill-opacity:1.0000; 
stroke:#000000; stroke-width:0.0000; stroke-opacity:1; 
stroke-linecap:round; stroke-linejoin:round;fill-rule:evenodd;"
d="M 149.0200,79.3150
149.0009,79.3112
148.9846,79.3004
148.9738,79.2841
148.9700,79.2650
148.9700,78.8150
148.9738,78.7959
148.9846,78.7796
149.0009,78.7688
149.0200,78.7650
149.1200,78.7650
149.1391,78.7688
149.1554,78.7796
149.1662,78.7959
149.1700,78.8150
149.1700,79.2650
149.1662,79.2841
149.1554,79.3004
149.1391,79.3112
149.1200,79.3150
Z" /> 
<path style="fill:#000000; fill-opacity:1.0000; 
stroke:#000000; stroke-width:0.0000; stroke-opacity:1; 
stroke-linecap:round; stroke-linejoin:round;fill-rule:evenodd;"
d="M 148.6200,79.3150
148.6009,79.3112
148.5846,79.3004
148.5738,79.2841
148.5700,79.2650
148.5700,78.8150
148.5738,78.7959
148.5846,78.7796
148.6009,78.7688
148.6200,78.7650
148.7200,78.7650
148.7391,78.7688
148.7554,78.7796
148.7662,78.7959
148.7700,78.8150
148.7700,79.2650
148.7662,79.2841
148.7554,79.3004
148.7391,79.3112
148.7200,79.3150
Z" /> 
<path style="fill:#000000; fill-opacity:1.0000; 
stroke:#000000; stroke-width:0.0000; stroke-opacity:1; 
stroke-linecap:round; stroke-linejoin:round;fill-rule:evenodd;"
d="M 148.2200,79.3150
148.2009,79.3112
148.1846,79.3004
148.1738,79.2841
148.1700,79.2650
148.1700,78.8150
148.1738,78.7959
148.1846,78.7796
148.2009,78.7688
148.2200,78.7650
148.3200,78.7650
148.3391,78.7688
148.3554,78.7796
148.3662,78.7959
148.3700,78.8150
148.3700,79.2650
148.3662,79.2841
148.3554,79.3004
148.3391,79.3112
148.3200,79.3150
Z" /> 
</g>
<g >
</g>
<g style="fill:#000000; fill-opacity:1.0000; 
stroke:#000000; stroke-width:0.0000; stroke-opacity:1; 
stroke-linecap:round; stroke-linejoin:round;">
<path style="fill:#000000; fill-opacity:1.0000; 
stroke:#000000; stroke-width:0.0000; stroke-opacity:1; 
stroke-linecap:round; stroke-linejoin:round;fill-rule:evenodd;"
d="M 147.0450,83.6275
147.0269,83.7184
146.9754,83.7954
146.8984,83.8469
146.8075,83.8650
146.2075,83.8650
146.1166,83.8469
146.0396,83.7954
145.9881,83.7184
145.9700,83.6275
145.9700,83.1525
145.9881,83.0616
146.0396,82.9846
146.1166,82.9331
146.2075,82.9150
146.8075,82.9150
146.8984,82.9331
146.9754,82.9846
147.0269,83.0616
147.0450,83.1525
Z" /> 
<path style="fill:#000000; fill-opacity:1.0000; 
stroke:#000000; stroke-width:0.0000; stroke-opacity:1; 
stroke-linecap:round; stroke-linejoin:round;fill-rule:evenodd;"
d="M 148.7700,83.6275
148.7519,83.7184
148.7004,83.7954
148.6234,83.8469
148.5325,83.8650
147.9325,83.8650
147.8416,83.8469
147.7646,83.7954
147.7131,83.7184
147.6950,83.6275
147.6950,83.1525
147.7131,83.0616
147.7646,82.9846
147.8416,82.9331
147.9325,82.9150
148.5325,82.9150
148.6234,82.9331
148.7004,82.9846
148.7519,83.0616
148.7700,83.1525
Z" /> 
</g>
<g >
</g>
<g style="fill:#000000; fill-opacity:1.0000; 
stroke:#000000; stroke-width:0.0000; stroke-opacity:1; 
stroke-linecap:round; stroke-linejoin:round;">
<path style="fill:#000000; fill-opacity:1.0000; 
stroke:#000000; stroke-width:0.0000; stroke-opacity:1; 
stroke-linecap:round; stroke-linejoin:round;fill-rule:evenodd;"
d="M 151.4425,72.5025
151.4244,72.5934
151.3729,72.6704
151.2959,72.7219
151.2050,72.7400
150.6050,72.7400
150.5141,72.7219
150.4371,72.6704
150.3856,72.5934
150.3675,72.5025
150.3675,72.0275
150.3856,71.9366
150.4371,71.8596
150.5141,71.8081
150.6050,71.7900
151.2050,71.7900
151.2959,71.8081
151.3729,71.8596
151.4244,71.9366
151.4425,72.0275
Z" /> 
<path style="fill:#000000; fill-opacity:1.0000; 
stroke:#000000; stroke-width:0.0000; stroke-opacity:1; 
stroke-linecap:round; stroke-linejoin:round;fill-rule:evenodd;"
d="M 149.7175,72.5025
149.6994,72.5934
149.6479,72.6704
149.5709,72.7219
149.4800,72.7400
148.8800,72.7400
148.7891,72.7219
148.7121,72.6704
148.6606,72.5934
148.6425,72.5025
148.6425,72.0275
148.6606,71.9366
148.7121,71.8596
148.7891,71.8081
148.8800,71.7900
149.4800,71.7900
149.5709,71.8081
149.6479,71.8596
149.6994,71.9366
149.7175,72.0275
Z" /> 
</g>
<g >
</g>
<g style="fill:#000000; fill-opacity:1.0000; 
stroke:#000000; stroke-width:0.0000; stroke-opacity:1; 
stroke-linecap:round; stroke-linejoin:round;">
<path style="fill:#000000; fill-opacity:1.0000; 
stroke:#000000; stroke-width:0.0000; stroke-opacity:1; 
stroke-linecap:round; stroke-linejoin:round;fill-rule:evenodd;"
d="M 150.6300,74.4650
152.6800,74.4650
152.6800,76.5150
150.6300,76.5150
Z" /> 
<path style="fill:#000000; fill-opacity:1.0000; 
stroke:#000000; stroke-width:0.0000; stroke-opacity:1; 
stroke-linecap:round; stroke-linejoin:round;fill-rule:evenodd;"
d="M 152.2650,73.3400
152.5450,73.3400
152.5450,74.1900
152.2650,74.1900
Z" /> 
<path style="fill:#000000; fill-opacity:1.0000; 
stroke:#000000; stroke-width:0.0000; stroke-opacity:1; 
stroke-linecap:round; stroke-linejoin:round;fill-rule:evenodd;"
d="M 152.9550,74.3500
153.8050,74.3500
153.8050,74.6300
152.9550,74.6300
Z" /> 
<path style="fill:#000000; fill-opacity:1.0000; 
stroke:#000000; stroke-width:0.0000; stroke-opacity:1; 
stroke-linecap:round; stroke-linejoin:round;fill-rule:evenodd;"
d="M 152.9550,74.8500
153.8050,74.8500
153.8050,75.1300
152.9550,75.1300
Z" /> 
<path style="fill:#000000; fill-opacity:1.0000; 
stroke:#000000; stroke-width:0.0000; stroke-opacity:1; 
stroke-linecap:round; stroke-linejoin:round;fill-rule:evenodd;"
d="M 152.9550,75.3500
153.8050,75.3500
153.8050,75.6300
152.9550,75.6300
Z" /> 
<path style="fill:#000000; fill-opacity:1.0000; 
stroke:#000000; stroke-width:0.0000; stroke-opacity:1; 
stroke-linecap:round; stroke-linejoin:round;fill-rule:evenodd;"
d="M 152.9550,75.8500
153.8050,75.8500
153.8050,76.1300
152.9550,76.1300
Z" /> 
<path style="fill:#000000; fill-opacity:1.0000; 
stroke:#000000; stroke-width:0.0000; stroke-opacity:1; 
stroke-linecap:round; stroke-linejoin:round;fill-rule:evenodd;"
d="M 152.9550,76.3500
153.8050,76.3500
153.8050,76.6300
152.9550,76.6300
Z" /> 
<path style="fill:#000000; fill-opacity:1.0000; 
stroke:#000000; stroke-width:0.0000; stroke-opacity:1; 
stroke-linecap:round; stroke-linejoin:round;fill-rule:evenodd;"
d="M 152.2650,76.7900
152.5450,76.7900
152.5450,77.6400
152.2650,77.6400
Z" /> 
<path style="fill:#000000; fill-opacity:1.0000; 
stroke:#000000; stroke-width:0.0000; stroke-opacity:1; 
stroke-linecap:round; stroke-linejoin:round;fill-rule:evenodd;"
d="M 150.7650,76.7900
151.0450,76.7900
151.0450,77.6400
150.7650,77.6400
Z" /> 
<path style="fill:#000000; fill-opacity:1.0000; 
stroke:#000000; stroke-width:0.0000; stroke-opacity:1; 
stroke-linecap:round; stroke-linejoin:round;fill-rule:evenodd;"
d="M 149.5050,76.3500
150.3550,76.3500
150.3550,76.6300
149.5050,76.6300
Z" /> 
<path style="fill:#000000; fill-opacity:1.0000; 
stroke:#000000; stroke-width:0.0000; stroke-opacity:1; 
stroke-linecap:round; stroke-linejoin:round;fill-rule:evenodd;"
d="M 149.5050,75.8500
150.3550,75.8500
150.3550,76.1300
149.5050,76.1300
Z" /> 
<path style="fill:#000000; fill-opacity:1.0000; 
stroke:#000000; stroke-width:0.0000; stroke-opacity:1; 
stroke-linecap:round; stroke-linejoin:round;fill-rule:evenodd;"
d="M 149.5050,75.3500
150.3550,75.3500
150.3550,75.6300
149.5050,75.6300
Z" /> 
<path style="fill:#000000; fill-opacity:1.0000; 
stroke:#000000; stroke-width:0.0000; stroke-opacity:1; 
stroke-linecap:round; stroke-linejoin:round;fill-rule:evenodd;"
d="M 149.5050,74.8500
150.3550,74.8500
150.3550,75.1300
149.5050,75.1300
Z" /> 
<path style="fill:#000000; fill-opacity:1.0000; 
stroke:#000000; stroke-width:0.0000; stroke-opacity:1; 
stroke-linecap:round; stroke-linejoin:round;fill-rule:evenodd;"
d="M 149.5050,74.3500
150.3550,74.3500
150.3550,74.6300
149.5050,74.6300
Z" /> 
<path style="fill:#000000; fill-opacity:1.0000; 
stroke:#000000; stroke-width:0.0000; stroke-opacity:1; 
stroke-linecap:round; stroke-linejoin:round;fill-rule:evenodd;"
d="M 150.7650,73.3400
151.0450,73.3400
151.0450,74.1900
150.7650,74.1900
Z" /> 
</g>
<g >
</g>
<g style="fill:#000000; fill-opacity:1.0000; 
stroke:#000000; stroke-width:0.0000; stroke-opacity:1; 
stroke-linecap:round; stroke-linejoin:round;">
<path style="fill:#000000; fill-opacity:1.0000; 
stroke:#000000; stroke-width:0.0000; stroke-opacity:1; 
stroke-linecap:round; stroke-linejoin:round;fill-rule:evenodd;"
d="M 149.6024,83.1525
149.6205,83.0616
149.6720,82.9846
149.7490,82.9331
149.8399,82.9150
150.4399,82.9150
150.5308,82.9331
150.6079,82.9846
150.6594,83.0616
150.6774,83.1525
150.6774,83.6275
150.6594,83.7184
150.6079,83.7954
150.5308,83.8469
150.4399,83.8650
149.8399,83.8650
149.7490,83.8469
149.6720,83.7954
149.6205,83.7184
149.6024,83.6275
Z" /> 
<path style="fill:#000000; fill-opacity:1.0000; 
stroke:#000000; stroke-width:0.0000; stroke-opacity:1; 
stroke-linecap:round; stroke-linejoin:round;fill-rule:evenodd;"
d="M 151.3274,83.1525
151.3455,83.0616
151.3970,82.9846
151.4740,82.9331
151.5649,82.9150
152.1649,82.9150
152.2558,82.9331
152.3329,82.9846
152.3844,83.0616
152.4024,83.1525
152.4024,83.6275
152.3844,83.7184
152.3329,83.7954
152.2558,83.8469
152.1649,83.8650
151.5649,83.8650
151.4740,83.8469
151.3970,83.7954
151.3455,83.7184
151.3274,83.6275
Z" /> 
</g>
<g >
</g>
<g style="fill:#000000; fill-opacity:1.0000; 
stroke:#000000; stroke-width:0.0000; stroke-opacity:1; 
stroke-linecap:round; stroke-linejoin:round;">
<circle cx="143.9600" cy="77.7200" r="0.8500" /> 
</g>
<g style="fill:#000000; fill-opacity:1.0000; 
stroke:#000000; stroke-width:0.0212; stroke-opacity:1; 
stroke-linecap:round; stroke-linejoin:round;">
</g>
<g style="fill:#000000; fill-opacity:1.0000; 
stroke:#000000; stroke-width:0.0000; stroke-opacity:1; 
stroke-linecap:round; stroke-linejoin:round;">
<circle cx="143.9600" cy="75.1800" r="0.8500" /> 
<circle cx="143.9600" cy="72.6400" r="0.8500" /> 
</g>
<g >
</g>
<g style="fill:#000000; fill-opacity:1.0000; 
stroke:#000000; stroke-width:0.0000; stroke-opacity:1; 
stroke-linecap:round; stroke-linejoin:round;">
<circle cx="156.6600" cy="80.2600" r="0.8500" /> 
<circle cx="156.6600" cy="77.7200" r="0.8500" /> 
<circle cx="156.6600" cy="75.1800" r="0.8500" /> 
<circle cx="156.6600" cy="72.6400" r="0.8500" /> 
</g>
<g style="fill:#000000; fill-opacity:1.0000; 
stroke:#000000; stroke-width:0.0212; stroke-opacity:1; 
stroke-linecap:round; stroke-linejoin:round;">
</g>
<g >
</g>
<g style="fill:#000000; fill-opacity:1.0000; 
stroke:#000000; stroke-width:0.0212; stroke-opacity:1; 
stroke-linecap:round; stroke-linejoin:round;">
</g>
<g style="fill:#000000; fill-opacity:1.0000; 
stroke:#000000; stroke-width:0.0000; stroke-opacity:1; 
stroke-linecap:round; stroke-linejoin:round;">
<circle cx="150.9050" cy="78.0700" r="0.2250" /> 
</g>
<g style="fill:#000000; fill-opacity:1.0000; 
stroke:#000000; stroke-width:0.0212; stroke-opacity:1; 
stroke-linecap:round; stroke-linejoin:round;">
</g>
<g style="fill:#000000; fill-opacity:1.0000; 
stroke:#000000; stroke-width:0.0000; stroke-opacity:1; 
stroke-linecap:round; stroke-linejoin:round;">
<circle cx="149.1800" cy="71.3600" r="0.2250" /> 
</g>
<g style="fill:#000000; fill-opacity:1.0000; 
stroke:#000000; stroke-width:0.0212; stroke-opacity:1; 
stroke-linecap:round; stroke-linejoin:round;">
</g>
<g style="fill:#000000; fill-opacity:1.0000; 
stroke:#000000; stroke-width:0.0000; stroke-opacity:1; 
stroke-linecap:round; stroke-linejoin:round;">
<circle cx="146.5075" cy="82.4900" r="0.2250" /> 
</g>
<g style="fill:#000000; fill-opacity:1.0000; 
stroke:#000000; stroke-width:0.0212; stroke-opacity:1; 
stroke-linecap:round; stroke-linejoin:round;">
</g>
<g style="fill:#000000; fill-opacity:1.0000; 
stroke:#000000; stroke-width:0.0000; stroke-opacity:1; 
stroke-linecap:round; stroke-linejoin:round;">
<circle cx="149.8700" cy="78.1800" r="0.2250" /> 
</g>
<g style="fill:#000000; fill-opacity:1.0000; 
stroke:#000000; stroke-width:0.0212; stroke-opacity:1; 
stroke-linecap:round; stroke-linejoin:round;">
</g>
<g style="fill:#000000; fill-opacity:1.0000; 
stroke:#000000; stroke-width:0.0000; stroke-opacity:1; 
stroke-linecap:round; stroke-linejoin:round;">
<circle cx="144.8700" cy="85.9700" r="0.2250" /> 
</g>
<g style="fill:#000000; fill-opacity:1.0000; 
stroke:#000000; stroke-width:0.0212; stroke-opacity:1; 
stroke-linecap:round; stroke-linejoin:round;">
</g>
<g style="fill:#000000; fill-opacity:1.0000; 
stroke:#000000; stroke-width:0.0000; stroke-opacity:1; 
stroke-linecap:round; stroke-linejoin:round;">
<circle cx="151.4700" cy="81.5400" r="0.2250" /> 
</g>
<g style="fill:#000000; fill-opacity:1.0000; 
stroke:#000000; stroke-width:0.0212; stroke-opacity:1; 
stroke-linecap:round; stroke-linejoin:round;">
</g>
<g style="fill:#000000; fill-opacity:1.0000; 
stroke:#000000; stroke-width:0.0000; stroke-opacity:1; 
stroke-linecap:round; stroke-linejoin:round;">
<circle cx="148.2325" cy="84.2900" r="0.2250" /> 
</g>
<g style="fill:#000000; fill-opacity:1.0000; 
stroke:#000000; stroke-width:0.0212; stroke-opacity:1; 
stroke-linecap:round; stroke-linejoin:round;">
</g>
<g style="fill:#000000; fill-opacity:1.0000; 
stroke:#000000; stroke-width:0.0000; stroke-opacity:1; 
stroke-linecap:round; stroke-linejoin:round;">
<circle cx="149.1774" cy="83.0031" r="0.2250" /> 
</g>
<g style="fill:#000000; fill-opacity:1.0000; 
stroke:#000000; stroke-width:0.0212; stroke-opacity:1; 
stroke-linecap:round; stroke-linejoin:round;">
</g>
<g style="fill:#000000; fill-opacity:1.0000; 
stroke:#000000; stroke-width:0.0000; stroke-opacity:1; 
stroke-linecap:round; stroke-linejoin:round;">
<circle cx="149.0700" cy="74.4900" r="0.2250" /> 
</g>
<g style="fill:#000000; fill-opacity:1.0000; 
stroke:#000000; stroke-width:0.0212; stroke-opacity:1; 
stroke-linecap:round; stroke-linejoin:round;">
</g>
<g style="fill:#000000; fill-opacity:1.0000; 
stroke:#000000; stroke-width:0.0000; stroke-opacity:1; 
stroke-linecap:round; stroke-linejoin:round;">
<circle cx="152.4050" cy="72.9000" r="0.2250" /> 
</g>
<g style="fill:#000000; fill-opacity:1.0000; 
stroke:#000000; stroke-width:0.0212; stroke-opacity:1; 
stroke-linecap:round; stroke-linejoin:round;">
</g>
<g >
</g>
<g style="fill:#000000; fill-opacity:1.0000; 
stroke:#000000; stroke-width:0.0212; stroke-opacity:1; 
stroke-linecap:round; stroke-linejoin:round;">
</g>
<g style="fill:#000000; fill-opacity:1.0000; 
stroke:#000000; stroke-width:0.2000; stroke-opacity:1; 
stroke-linecap:round; stroke-linejoin:round;">
</g>
<g style="fill:#000000; fill-opacity:0.0; 
stroke:#000000; stroke-width:0.2000; stroke-opacity:1; 
stroke-linecap:round; stroke-linejoin:round;">
<path d="M145.0500 86.9200
L143.9600 85.8300
" />
<path d="M145.9575 86.9200
L145.0500 86.9200
" />
<path d="M143.9600 85.8300
L143.9600 77.7200
" />
<path d="M150.7700 81.5400
L151.4700 81.5400
" />
<path d="M150.9050 78.0700
L150.9050 77.2150
" />
<path d="M149.1800 71.3600
L149.1800 72.2650
" />
<path d="M146.5075 82.4900
L146.5075 83.3900
" />
<path d="M149.8700 78.1800
L149.8700 79.0400
" />
<path d="M144.8700 85.9700
L145.9575 85.9700
" />
<path d="M148.6400 73.0400
L143.9600 77.7200
" />
<path d="M150.9050 73.0400
L148.6400 73.0400
" />
<path d="M150.9050 73.0400
L150.9050 72.2650
" />
<path d="M150.9050 73.7650
L150.9050 73.0400
" />
<path d="M145.9575 85.0200
L143.9800 85.0200
" />
<path d="M154.4300 75.4900
L153.3800 75.4900
" />
<path d="M148.2325 84.2900
L148.2325 85.0200
" />
<path d="M148.2325 83.3900
L148.2325 84.2900
" />
<path d="M150.1399 83.2199
L149.7049 82.7849
" />
<path d="M150.1399 83.3900
L150.1399 83.2199
" />
<path d="M148.2325 82.8475
L148.2325 83.3900
" />
<path d="M148.6700 82.4100
L148.2325 82.8475
" />
<path d="M148.6700 82.0400
L148.6700 82.4100
" />
<path d="M149.7024 82.7849
L149.7049 82.7849
" />
<path d="M149.4700 82.5525
L149.7024 82.7849
" />
<path d="M149.4700 82.0400
L149.4700 82.5525
" />
<path d="M149.0700 82.8957
L149.0700 82.0400
" />
<path d="M149.1774 83.0031
L149.0700 82.8957
" />
<path d="M152.4050 72.9000
L152.4050 73.7650
" />
<path d="M149.0700 74.4900
L149.9300 74.4900
" />
<path d="M149.9050 75.0150
L149.9300 74.9900
" />
<path d="M149.1086 75.0150
L149.9050 75.0150
" />
<path d="M148.2700 75.8536
L149.1086 75.0150
" />
<path d="M148.2700 79.0400
L148.2700 75.8536
" />
<path d="M149.1993 75.4900
L149.9300 75.4900
" />
<path d="M148.6700 76.0193
L149.1993 75.4900
" />
<path d="M148.6700 79.0400
L148.6700 76.0193
" />
<path d="M149.2650 75.9900
L149.9300 75.9900
" />
<path d="M149.0700 76.1850
L149.2650 75.9900
" />
<path d="M149.0700 79.0400
L149.0700 76.1850
" />
<path d="M154.0450 75.9900
L153.5400 75.9900
" />
<path d="M155.5100 77.4550
L154.0450 75.9900
" />
<path d="M153.5400 74.9900
L156.4700 74.9900
" />
<path d="M156.4700 74.9900
L156.6600 75.1800
" />
<path d="M154.8100 74.4900
L153.5400 74.4900
" />
<path d="M155.5100 77.4550
L155.5100 79.1100
" />
<path d="M155.5100 79.1100
L156.6600 80.2600
" />
<path d="M154.4300 75.4900
L156.6600 77.7200
" />
<path d="M154.8100 74.4900
L156.6600 72.6400
" />
</g>
<g >
</g>
<g style="fill:#000000; fill-opacity:0.0; 
stroke:#000000; stroke-width:0.2000; stroke-opacity:1; 
stroke-linecap:round; stroke-linejoin:round;">
<g >
</g>
<g style="fill:#000000; fill-opacity:1.0000; 
stroke:#000000; stroke-width:0.0000; stroke-opacity:1; 
stroke-linecap:round; stroke-linejoin:round;">
<path style="fill:#000000; fill-opacity:1.0000; 
stroke:#000000; stroke-width:0.0000; stroke-opacity:1; 
stroke-linecap:round; stroke-linejoin:round;fill-rule:evenodd;"
d="M 158.3975,70.8571
158.4429,70.9025
158.4595,70.9645
158.4595,88.2455
158.4429,88.3075
158.3975,88.3529
158.3355,88.3695
142.2845,88.3695
142.2225,88.3529
142.1771,88.3075
142.1605,88.2455
142.1605,77.7200
142.9044,77.7200
142.9247,77.9259
142.9247,77.9259
142.9848,78.1240
143.0823,78.3064
143.1336,78.3690
143.2136,78.4664
143.2576,78.5025
143.3735,78.5977
143.5560,78.6952
143.5707,78.6997
143.5715,78.6999
143.6173,78.7254
143.6484,78.7674
143.6595,78.8186
143.6595,85.7608
143.6568,85.7776
143.6594,85.8341
143.6595,85.8398
143.6595,85.8588
143.6612,85.8733
143.6624,85.9000
143.6652,85.9063
143.6737,85.9336
143.6749,85.9404
143.6890,85.9631
143.6970,85.9783
143.7078,86.0028
143.7127,86.0077
143.7304,86.0301
143.7341,86.0360
143.7554,86.0520
143.7684,86.0633
144.7885,87.0835
144.7985,87.0974
144.8060,87.1042
144.8060,87.1042
144.8194,87.1164
144.8403,87.1355
144.8445,87.1394
144.8579,87.1529
144.8693,87.1619
144.8891,87.1799
144.8891,87.1799
144.8891,87.1799
144.8955,87.1824
144.9208,87.1957
144.9265,87.1997
144.9525,87.2058
144.9689,87.2108
144.9938,87.2205
145.0008,87.2205
145.0291,87.2238
145.0359,87.2254
145.0359,87.2254
145.0361,87.2254
145.0871,87.2290
145.1325,87.2532
145.1401,87.2629
145.1412,87.2619
145.2385,87.3592
145.2385,87.3592
145.2385,87.3592
145.3436,87.4106
145.3709,87.4145
145.4117,87.4205
145.4117,87.4205
146.5033,87.4205
146.5033,87.4205
146.5373,87.4155
146.5714,87.4106
146.6765,87.3592
146.7592,87.2765
146.8106,87.1714
146.8205,87.1033
147.3695,87.1033
147.3794,87.1714
147.3794,87.1714
147.3794,87.1714
147.3962,87.2058
147.4308,87.2765
147.5135,87.3592
147.5135,87.3592
147.5135,87.3592
147.6186,87.4106
147.6459,87.4145
147.6867,87.4205
147.6867,87.4205
148.7783,87.4205
148.7783,87.4205
148.8123,87.4155
148.8464,87.4106
148.9515,87.3592
149.0342,87.2765
149.0856,87.1714
149.0955,87.1033
149.0955,86.7367
149.0856,86.6686
149.0342,86.5635
149.0342,86.5635
149.0342,86.5635
148.9515,86.4808
148.8977,86.4545
148.8464,86.4294
148.8464,86.4294
148.8464,86.4294
148.7783,86.4195
148.7783,86.4195
147.6867,86.4195
147.6867,86.4195
147.6186,86.4294
147.5135,86.4808
147.4308,86.5635
147.3794,86.6686
147.3695,86.7367
147.3695,87.1033
146.8205,87.1033
146.8205,87.1033
146.8205,86.7367
146.8106,86.6686
146.7592,86.5635
146.7592,86.5635
146.7592,86.5635
146.6765,86.4808
146.6227,86.4545
146.5714,86.4294
146.5714,86.4294
146.5714,86.4294
146.5033,86.4195
146.5033,86.4195
145.4117,86.4195
145.4117,86.4195
145.3436,86.4294
145.2385,86.4808
145.2248,86.4945
145.1692,86.5266
145.1051,86.5266
145.0495,86.4945
144.2968,85.7418
144.2699,85.7016
144.2605,85.6542
144.2605,85.4445
144.2771,85.3825
144.3225,85.3371
144.3845,85.3205
145.0510,85.3205
145.1167,85.3393
145.1390,85.3640
145.1412,85.3619
145.2385,85.4592
145.2385,85.4592
145.2385,85.4592
145.3436,85.5106
145.3709,85.5145
145.4117,85.5205
145.4117,85.5205
146.5033,85.5205
146.5033,85.5205
146.5373,85.5155
146.5714,85.5106
146.6765,85.4592
146.7592,85.3765
146.8106,85.2714
146.8205,85.2033
146.8205,84.8367
146.8106,84.7686
146.7592,84.6635
146.7592,84.6635
146.7592,84.6635
146.6765,84.5808
146.6227,84.5545
146.5714,84.5294
146.5714,84.5294
146.5714,84.5294
146.5033,84.5195
146.5033,84.5195
145.4117,84.5195
145.4117,84.5195
145.3436,84.5294
145.2385,84.5808
145.1412,84.6781
145.1390,84.6760
145.1167,84.7007
145.0510,84.7195
144.3845,84.7195
144.3225,84.7029
144.2771,84.6575
144.2605,84.5955
144.2605,78.8186
144.2716,78.7674
144.3027,78.7254
144.3485,78.6999
144.3491,78.6997
144.3640,78.6952
144.5464,78.5977
144.7064,78.4664
144.8377,78.3064
144.9352,78.1240
144.9953,77.9259
145.0156,77.7200
144.9953,77.5141
144.9352,77.3160
144.9276,77.3018
144.9132,77.2515
144.9209,77.1997
144.9493,77.1557
148.7282,73.3768
148.7684,73.3499
148.8158,73.3405
150.4405,73.3405
150.5025,73.3571
150.5479,73.4025
150.5645,73.4645
150.5645,74.0361
150.5526,74.0892
150.5192,74.1320
150.4706,74.1564
150.4163,74.1578
150.3933,74.1532
150.3747,74.1495
150.3747,74.1495
149.4853,74.1495
149.4852,74.1495
149.4218,74.1621
149.3616,74.1592
149.3422,74.1475
149.3407,74.1504
149.2031,74.0803
149.0700,74.0592
148.9369,74.0803
148.8168,74.1415
148.7215,74.2368
148.6603,74.3569
148.6392,74.4900
148.6603,74.6231
148.7215,74.7432
148.7508,74.7725
148.7829,74.8281
148.7829,74.8923
148.7508,74.9479
148.1065,75.5922
148.0926,75.6021
148.0545,75.6439
148.0506,75.6481
148.0371,75.6615
148.0281,75.6729
148.0101,75.6927
148.0076,75.6992
147.9943,75.7244
147.9903,75.7301
147.9842,75.7561
147.9792,75.7725
147.9695,75.7975
147.9695,75.8044
147.9662,75.8328
147.9646,75.8395
147.9683,75.8660
147.9695,75.8831
147.9695,79.1155
147.9529,79.1775
147.9075,79.2229
147.8455,79.2395
147.5203,79.2395
147.4473,79.2540
147.3644,79.3094
147.3090,79.3923
147.2945,79.4653
147.2945,79.6147
147.3129,79.7074
147.3164,79.7158
147.3164,79.7642
147.3129,79.7726
147.2945,79.8653
147.2945,80.0147
147.3129,80.1073
147.3164,80.1158
147.3164,80.1642
147.3129,80.1726
147.2945,80.2653
147.2945,80.4147
147.3129,80.5074
147.3164,80.5158
147.3164,80.5642
147.3129,80.5726
147.2945,80.6653
147.2945,80.8147
147.3129,80.9074
147.3164,80.9158
147.3164,80.9642
147.3129,80.9726
147.2945,81.0653
147.2945,81.2147
147.3129,81.3074
147.3164,81.3158
147.3164,81.3642
147.3129,81.3726
147.2945,81.4653
147.2945,81.6147
147.3090,81.6877
147.3090,81.6877
147.3090,81.6877
147.3644,81.7706
147.4473,81.8260
147.4838,81.8332
147.5203,81.8405
147.5203,81.8405
147.8455,81.8405
147.9075,81.8571
147.9529,81.9025
147.9695,81.9645
147.9695,82.2897
147.9840,82.3627
147.9840,82.3627
147.9840,82.3627
148.0394,82.4456
148.0394,82.4456
148.0501,82.4616
148.0697,82.5125
148.0656,82.5668
148.0386,82.6141
148.0170,82.6378
148.0131,82.6419
147.9996,82.6554
147.9906,82.6668
147.9840,82.6740
147.9424,82.7039
147.8923,82.7145
147.8797,82.7145
147.8502,82.7173
147.7255,82.7609
147.6193,82.8393
147.5409,82.9455
147.4973,83.0702
147.4945,83.0997
147.4945,83.6803
147.4973,83.7098
147.5409,83.8345
147.6193,83.9407
147.7255,84.0191
147.7255,84.0191
147.7255,84.0191
147.7362,84.0229
147.7406,84.0244
147.7887,84.0551
147.8179,84.1040
147.8222,84.1608
147.8017,84.2900
147.8153,84.3761
147.8122,84.4292
147.7872,84.4760
147.7448,84.5081
147.6929,84.5195
147.6867,84.5195
147.6186,84.5294
147.5135,84.5808
147.4308,84.6635
147.3794,84.7686
147.3695,84.8367
147.3695,85.2033
147.3794,85.2714
147.4308,85.3765
147.5135,85.4592
147.5135,85.4592
147.5135,85.4592
147.6186,85.5106
147.6459,85.5145
147.6867,85.5205
147.6867,85.5205
148.7783,85.5205
148.7783,85.5205
148.8123,85.5155
148.8464,85.5106
148.9515,85.4592
149.0342,85.3765
149.0856,85.2714
149.0955,85.2033
149.0955,84.8367
149.0856,84.7686
149.0342,84.6635
149.0342,84.6635
149.0342,84.6635
148.9515,84.5808
148.8977,84.5545
148.8464,84.5294
148.8464,84.5294
148.8464,84.5294
148.7783,84.5195
148.7783,84.5195
148.7721,84.5195
148.7202,84.5081
148.6778,84.4760
148.6528,84.4292
148.6497,84.3761
148.6633,84.2900
148.6633,84.2900
148.6428,84.1608
148.6471,84.1040
148.6763,84.0551
148.7244,84.0244
148.7395,84.0191
148.7395,84.0191
148.7395,84.0191
148.8457,83.9407
148.9241,83.8345
148.9241,83.8345
148.9241,83.8345
148.9677,83.7098
148.9705,83.6803
148.9705,83.5464
148.9819,83.4944
149.0140,83.4521
149.0608,83.4270
149.1139,83.4239
149.1774,83.4339
149.1774,83.4339
149.1774,83.4339
149.2410,83.4239
149.2585,83.4211
149.3116,83.4242
149.3585,83.4493
149.3905,83.4917
149.4019,83.5436
149.4019,83.6803
149.4047,83.7098
149.4483,83.8345
149.5267,83.9407
149.6330,84.0191
149.6330,84.0191
149.6330,84.0191
149.7576,84.0627
149.7703,84.0639
149.7872,84.0655
149.7872,84.0655
150.4927,84.0655
150.4927,84.0655
150.5075,84.0641
150.5223,84.0627
150.6469,84.0191
150.7531,83.9407
150.8315,83.8345
150.8752,83.7098
150.8779,83.6803
150.8779,83.0997
150.8752,83.0702
150.8315,82.9455
150.8315,82.9455
150.8315,82.9455
150.7531,82.8393
150.6469,82.7609
150.5742,82.7354
150.5223,82.7173
150.5223,82.7173
150.5223,82.7173
150.4943,82.7147
150.4374,82.6946
150.3967,82.6500
150.3819,82.5914
150.3965,82.5328
150.4370,82.4881
150.5006,82.4456
150.5560,82.3627
150.5705,82.2897
150.5705,81.9645
150.5871,81.9025
150.6325,81.8571
150.6945,81.8405
150.7138,81.8405
151.0197,81.8405
151.1174,81.8405
151.1648,81.8499
151.2051,81.8768
151.2168,81.8885
151.2168,81.8885
151.3369,81.9497
151.4700,81.9708
151.6031,81.9497
151.7232,81.8885
151.8185,81.7932
151.8797,81.6731
151.9008,81.5400
151.8797,81.4069
151.8185,81.2868
151.8185,81.2868
151.7232,81.1915
151.6031,81.1303
151.4700,81.1092
151.3786,81.1237
151.3163,81.1175
151.2649,81.0817
151.2376,81.0254
151.2310,80.9923
151.2310,80.9923
151.2271,80.9726
151.2236,80.9642
151.2236,80.9158
151.2271,80.9074
151.2455,80.8147
151.2455,80.6653
151.2271,80.5726
151.2236,80.5642
151.2236,80.5158
151.2271,80.5074
151.2353,80.4659
151.2455,80.4147
151.2455,80.2653
151.2310,80.1923
151.2310,80.1923
151.2271,80.1726
151.2236,80.1642
151.2236,80.1158
151.2271,80.1073
151.2455,80.0147
151.2455,79.8653
151.2310,79.7923
151.2310,79.7923
151.1756,79.7094
151.0927,79.6540
151.0927,79.6540
151.0927,79.6540
151.0197,79.6395
151.0197,79.6395
150.6030,79.6395
150.5393,79.6219
150.4937,79.5740
150.4792,79.5094
150.4999,79.4466
150.5006,79.4456
150.5006,79.4456
150.5560,79.3627
150.5705,79.2897
150.5705,78.7903
150.5659,78.7674
150.5578,78.7266
150.5560,78.7173
150.5006,78.6344
150.4177,78.5790
150.4177,78.5790
150.4177,78.5790
150.3447,78.5645
150.3447,78.5645
150.1953,78.5645
150.1953,78.5645
150.1223,78.5790
150.1223,78.5790
150.1223,78.5790
150.0394,78.6344
149.9988,78.6952
149.9731,78.7336
149.9285,78.7741
149.8700,78.7887
149.8115,78.7741
149.7669,78.7336
149.7444,78.6999
149.7006,78.6344
149.6177,78.5790
149.6177,78.5790
149.6177,78.5790
149.5447,78.5645
149.5447,78.5645
149.4945,78.5645
149.4325,78.5479
149.3871,78.5025
149.3705,78.4405
149.3705,76.9545
149.3871,76.8925
149.4325,76.8471
149.4945,76.8305
150.3747,76.8305
150.4040,76.8247
150.4332,76.8189
150.4996,76.7746
150.5022,76.7706
150.5468,76.7301
150.6053,76.7155
150.6103,76.7155
151.9405,76.7155
152.0025,76.7321
152.0479,76.7775
152.0645,76.8395
152.0645,77.6597
152.0761,77.7182
152.1204,77.7846
152.1868,77.8289
152.2453,77.8405
152.2453,77.8405
152.5647,77.8405
152.5647,77.8405
152.5940,77.8347
152.6232,77.8289
152.6896,77.7846
152.7339,77.7182
152.7455,77.6597
152.7455,76.9438
152.7574,76.8908
152.7908,76.8480
152.8394,76.8236
152.8937,76.8222
152.9143,76.8263
152.9353,76.8305
152.9353,76.8305
153.8247,76.8305
153.8247,76.8305
153.8540,76.8247
153.8832,76.8189
153.9496,76.7746
153.9939,76.7082
154.0055,76.6497
154.0057,76.6485
154.0355,76.5894
154.0914,76.5540
154.1575,76.5524
154.2150,76.5850
155.1732,77.5432
155.2001,77.5834
155.2095,77.6308
155.2095,79.0408
155.2068,79.0576
155.2094,79.1141
155.2095,79.1198
155.2095,79.1388
155.2112,79.1533
155.2124,79.1800
155.2152,79.1863
155.2237,79.2136
155.2249,79.2204
155.2390,79.2431
155.2470,79.2583
155.2578,79.2828
155.2627,79.2877
155.2804,79.3101
155.2841,79.3160
155.2894,79.3200
155.3054,79.3320
155.3184,79.3433
155.6707,79.6957
155.6991,79.7397
155.7068,79.7915
155.6924,79.8418
155.6848,79.8560
155.6247,80.0541
155.6044,80.2600
155.6247,80.4659
155.6373,80.5074
155.6848,80.6640
155.7823,80.8464
155.8162,80.8877
155.9136,81.0064
155.9854,81.0653
156.0735,81.1377
156.2560,81.2352
156.4541,81.2953
156.6600,81.3156
156.8659,81.2953
157.0640,81.2352
157.2464,81.1377
157.4064,81.0064
157.5377,80.8464
157.6352,80.6640
157.6953,80.4659
157.7156,80.2600
157.6953,80.0541
157.6352,79.8560
157.5377,79.6735
157.4559,79.5740
157.4064,79.5136
157.2586,79.3923
157.2464,79.3823
157.0731,79.2897
157.0640,79.2848
157.0640,79.2848
157.0640,79.2848
156.9508,79.2505
156.8659,79.2247
156.6600,79.2044
156.4541,79.2247
156.2560,79.2848
156.2418,79.2924
156.1915,79.3068
156.1397,79.2991
156.0957,79.2707
155.8468,79.0218
155.8199,78.9816
155.8105,78.9342
155.8105,78.6440
155.8297,78.5776
155.8815,78.5319
155.9497,78.5209
156.0132,78.5481
156.0735,78.5977
156.2560,78.6952
156.4541,78.7553
156.6600,78.7756
156.8659,78.7553
157.0640,78.6952
157.2464,78.5977
157.4064,78.4664
157.5377,78.3064
157.6352,78.1240
157.6953,77.9259
157.7156,77.7200
157.6953,77.5141
157.6352,77.3160
157.5377,77.1335
157.4720,77.0536
157.4064,76.9736
157.2523,76.8471
157.2464,76.8423
157.1252,76.7775
157.0640,76.7448
157.0640,76.7448
157.0640,76.7448
156.9552,76.7118
156.8659,76.6847
156.6600,76.6644
156.4541,76.6847
156.2560,76.7448
156.2418,76.7524
156.1915,76.7668
156.1397,76.7591
156.0957,76.7307
154.8672,75.5022
154.8369,75.4528
154.8324,75.3951
154.8545,75.3416
154.8985,75.3040
154.9548,75.2905
155.5038,75.2905
155.5550,75.3016
155.5970,75.3327
155.6224,75.3785
155.6247,75.3859
155.6247,75.3859
155.6848,75.5840
155.7823,75.7664
155.8146,75.8058
155.9136,75.9264
155.9936,75.9920
156.0735,76.0577
156.2560,76.1552
156.4541,76.2153
156.6600,76.2356
156.8659,76.2153
157.0640,76.1552
157.2464,76.0577
157.4064,75.9264
157.5377,75.7664
157.6352,75.5840
157.6953,75.3859
157.7156,75.1800
157.6953,74.9741
157.6352,74.7760
157.5377,74.5935
157.4427,74.4778
157.4064,74.4336
157.3090,74.3536
157.2464,74.3023
157.0640,74.2048
156.9649,74.1747
156.8659,74.1447
156.6600,74.1244
156.4541,74.1447
156.2560,74.2048
156.0736,74.3023
155.9136,74.4336
155.7823,74.5936
155.7661,74.6240
155.7205,74.6719
155.6567,74.6895
155.3348,74.6895
155.2785,74.6760
155.2345,74.6384
155.2124,74.5849
155.2169,74.5272
155.2472,74.4778
155.6658,74.0592
156.0957,73.6293
156.1397,73.6009
156.1915,73.5932
156.2418,73.6076
156.2560,73.6152
156.4541,73.6753
156.6600,73.6956
156.8659,73.6753
157.0640,73.6152
157.2464,73.5177
157.4064,73.3864
157.5377,73.2264
157.6352,73.0440
157.6953,72.8459
157.7156,72.6400
157.6953,72.4341
157.6352,72.2360
157.5377,72.0536
157.4720,71.9736
157.4064,71.8936
157.3090,71.8136
157.2464,71.7623
157.0640,71.6648
156.9649,71.6347
156.8659,71.6047
156.6600,71.5844
156.4541,71.6047
156.2560,71.6648
156.0736,71.7623
155.9136,71.8936
155.7823,72.0536
155.6848,72.2360
155.6247,72.4341
155.6044,72.6400
155.6247,72.8459
155.6848,73.0440
155.6924,73.0582
155.7068,73.1085
155.6991,73.1603
155.6707,73.2043
154.7218,74.1532
154.6816,74.1801
154.6342,74.1895
153.9633,74.1895
153.9273,74.1842
153.8944,74.1686
153.8832,74.1611
153.8433,74.1532
153.8247,74.1495
153.8247,74.1495
152.9353,74.1495
152.9353,74.1495
152.9167,74.1532
152.8937,74.1578
152.8394,74.1564
152.7908,74.1320
152.7574,74.0892
152.7455,74.0361
152.7455,73.3203
152.7320,73.2526
152.7350,73.1924
152.7472,73.1721
152.7446,73.1707
152.7606,73.1393
152.8147,73.0331
152.8358,72.9000
152.8147,72.7669
152.7535,72.6468
152.7535,72.6468
152.6582,72.5515
152.5381,72.4903
152.4050,72.4692
152.2719,72.4903
152.1518,72.5515
152.0565,72.6468
151.9953,72.7669
151.9742,72.9000
151.9953,73.0331
152.0654,73.1707
152.0628,73.1721
152.0750,73.1924
152.0779,73.2526
152.0645,73.3203
152.0645,74.1405
152.0479,74.2025
152.0025,74.2479
151.9405,74.2645
151.3695,74.2645
151.3075,74.2479
151.2621,74.2025
151.2455,74.1405
151.2455,73.3203
151.2436,73.3105
151.2339,73.2618
151.2264,73.2506
151.2108,73.2177
151.2055,73.1817
151.2055,73.0992
151.2096,73.0700
151.2091,73.0647
151.2161,73.0108
151.2454,72.9650
151.2916,72.9362
151.4120,72.8941
151.4740,72.8483
151.5182,72.8157
151.5966,72.7095
151.5966,72.7095
151.5966,72.7095
151.6402,72.5848
151.6430,72.5553
151.6430,71.9747
151.6402,71.9452
151.5966,71.8205
151.5966,71.8205
151.5966,71.8205
151.5182,71.7143
151.4120,71.6359
151.3982,71.6311
151.2873,71.5923
151.2873,71.5923
151.2873,71.5923
151.2578,71.5895
151.2578,71.5895
150.5522,71.5895
150.5522,71.5895
150.5227,71.5923
150.3980,71.6359
150.2918,71.7143
150.2134,71.8205
150.1698,71.9452
150.1670,71.9747
150.1670,72.5553
150.1712,72.5999
150.1687,72.6002
150.1719,72.6328
150.1503,72.6873
150.1060,72.7257
150.0491,72.7395
148.7092,72.7395
148.6924,72.7368
148.6493,72.7387
148.6359,72.7394
148.6302,72.7395
148.6112,72.7395
148.5967,72.7412
148.5700,72.7424
148.5637,72.7452
148.5364,72.7537
148.5296,72.7549
148.5069,72.7690
148.4917,72.7770
148.4672,72.7878
148.4623,72.7927
148.4399,72.8104
148.4340,72.8141
148.4180,72.8354
148.4067,72.8483
144.5243,76.7307
144.4803,76.7591
144.4285,76.7668
144.3782,76.7524
144.3640,76.7448
144.3640,76.7448
144.3640,76.7448
144.2552,76.7118
144.1659,76.6847
143.9600,76.6644
143.7541,76.6847
143.5560,76.7448
143.3736,76.8423
143.2136,76.9736
143.0823,77.1336
142.9848,77.3160
142.9247,77.5141
142.9044,77.7200
142.1605,77.7200
142.1605,72.6400
142.9044,72.6400
142.9247,72.8459
142.9521,72.9362
142.9848,73.0440
143.0823,73.2264
143.1336,73.2890
143.2136,73.3864
143.2936,73.4520
143.3735,73.5177
143.5560,73.6152
143.7541,73.6753
143.9600,73.6956
144.1659,73.6753
144.3640,73.6152
144.5464,73.5177
144.7064,73.3864
144.8377,73.2264
144.9352,73.0440
144.9953,72.8459
145.0156,72.6400
144.9953,72.4341
144.9352,72.2360
144.8377,72.0536
144.7720,71.9736
144.7064,71.8936
144.6090,71.8136
144.5464,71.7623
144.3640,71.6648
144.2649,71.6347
144.1659,71.6047
143.9600,71.5844
143.7541,71.6047
143.5560,71.6648
143.3736,71.7623
143.2136,71.8936
143.0823,72.0536
142.9848,72.2360
142.9247,72.4341
142.9044,72.6400
142.1605,72.6400
142.1605,70.9645
142.1771,70.9025
142.2225,70.8571
142.2845,70.8405
158.3355,70.8405
Z" /> 
</g>
</g>
</g>
<g style="fill:#FFFFFF; fill-opacity:1.0000; 
stroke:#FFFFFF; stroke-width:0.0000; stroke-opacity:1; 
stroke-linecap:round; stroke-linejoin:round;">
<circle cx="150.9050" cy="78.0700" r="0.1250" /> 
</g>
<g style="fill:#FFFFFF; fill-opacity:1.0000; 
stroke:#FFFFFF; stroke-width:0.0212; stroke-opacity:1; 
stroke-linecap:round; stroke-linejoin:round;">
</g>
<g style="fill:#FFFFFF; fill-opacity:1.0000; 
stroke:#FFFFFF; stroke-width:0.0000; stroke-opacity:1; 
stroke-linecap:round; stroke-linejoin:round;">
<circle cx="149.1800" cy="71.3600" r="0.1250" /> 
</g>
<g style="fill:#FFFFFF; fill-opacity:1.0000; 
stroke:#FFFFFF; stroke-width:0.0212; stroke-opacity:1; 
stroke-linecap:round; stroke-linejoin:round;">
</g>
<g style="fill:#FFFFFF; fill-opacity:1.0000; 
stroke:#FFFFFF; stroke-width:0.0000; stroke-opacity:1; 
stroke-linecap:round; stroke-linejoin:round;">
<circle cx="146.5075" cy="82.4900" r="0.1250" /> 
</g>
<g style="fill:#FFFFFF; fill-opacity:1.0000; 
stroke:#FFFFFF; stroke-width:0.0212; stroke-opacity:1; 
stroke-linecap:round; stroke-linejoin:round;">
</g>
<g style="fill:#FFFFFF; fill-opacity:1.0000; 
stroke:#FFFFFF; stroke-width:0.0000; stroke-opacity:1; 
stroke-linecap:round; stroke-linejoin:round;">
<circle cx="149.8700" cy="78.1800" r="0.1250" /> 
</g>
<g style="fill:#FFFFFF; fill-opacity:1.0000; 
stroke:#FFFFFF; stroke-width:0.0212; stroke-opacity:1; 
stroke-linecap:round; stroke-linejoin:round;">
</g>
<g style="fill:#FFFFFF; fill-opacity:1.0000; 
stroke:#FFFFFF; stroke-width:0.0000; stroke-opacity:1; 
stroke-linecap:round; stroke-linejoin:round;">
<circle cx="144.8700" cy="85.9700" r="0.1250" /> 
</g>
<g style="fill:#FFFFFF; fill-opacity:1.0000; 
stroke:#FFFFFF; stroke-width:0.0212; stroke-opacity:1; 
stroke-linecap:round; stroke-linejoin:round;">
</g>
<g style="fill:#FFFFFF; fill-opacity:1.0000; 
stroke:#FFFFFF; stroke-width:0.0000; stroke-opacity:1; 
stroke-linecap:round; stroke-linejoin:round;">
<circle cx="151.4700" cy="81.5400" r="0.1250" /> 
</g>
<g style="fill:#FFFFFF; fill-opacity:1.0000; 
stroke:#FFFFFF; stroke-width:0.0212; stroke-opacity:1; 
stroke-linecap:round; stroke-linejoin:round;">
</g>
<g style="fill:#FFFFFF; fill-opacity:1.0000; 
stroke:#FFFFFF; stroke-width:0.0000; stroke-opacity:1; 
stroke-linecap:round; stroke-linejoin:round;">
<circle cx="148.2325" cy="84.2900" r="0.1250" /> 
</g>
<g style="fill:#FFFFFF; fill-opacity:1.0000; 
stroke:#FFFFFF; stroke-width:0.0212; stroke-opacity:1; 
stroke-linecap:round; stroke-linejoin:round;">
</g>
<g style="fill:#FFFFFF; fill-opacity:1.0000; 
stroke:#FFFFFF; stroke-width:0.0000; stroke-opacity:1; 
stroke-linecap:round; stroke-linejoin:round;">
<circle cx="149.1774" cy="83.0031" r="0.1250" /> 
</g>
<g style="fill:#FFFFFF; fill-opacity:1.0000; 
stroke:#FFFFFF; stroke-width:0.0212; stroke-opacity:1; 
stroke-linecap:round; stroke-linejoin:round;">
</g>
<g style="fill:#FFFFFF; fill-opacity:1.0000; 
stroke:#FFFFFF; stroke-width:0.0000; stroke-opacity:1; 
stroke-linecap:round; stroke-linejoin:round;">
<circle cx="149.0700" cy="74.4900" r="0.1250" /> 
</g>
<g style="fill:#FFFFFF; fill-opacity:1.0000; 
stroke:#FFFFFF; stroke-width:0.0212; stroke-opacity:1; 
stroke-linecap:round; stroke-linejoin:round;">
</g>
<g style="fill:#FFFFFF; fill-opacity:1.0000; 
stroke:#FFFFFF; stroke-width:0.0000; stroke-opacity:1; 
stroke-linecap:round; stroke-linejoin:round;">
<circle cx="152.4050" cy="72.9000" r="0.1250" /> 
</g>
<g style="fill:#FFFFFF; fill-opacity:1.0000; 
stroke:#FFFFFF; stroke-width:0.0212; stroke-opacity:1; 
stroke-linecap:round; stroke-linejoin:round;">
</g>
<g style="fill:#FFFFFF; fill-opacity:1.0000; 
stroke:#FFFFFF; stroke-width:0.0000; stroke-opacity:1; 
stroke-linecap:round; stroke-linejoin:round;">
<circle cx="143.9600" cy="77.7200" r="0.5000" /> 
</g>
<g style="fill:#FFFFFF; fill-opacity:1.0000; 
stroke:#FFFFFF; stroke-width:0.0212; stroke-opacity:1; 
stroke-linecap:round; stroke-linejoin:round;">
</g>
<g style="fill:#FFFFFF; fill-opacity:1.0000; 
stroke:#FFFFFF; stroke-width:0.0000; stroke-opacity:1; 
stroke-linecap:round; stroke-linejoin:round;">
<circle cx="143.9600" cy="75.1800" r="0.5000" /> 
</g>
<g style="fill:#FFFFFF; fill-opacity:1.0000; 
stroke:#FFFFFF; stroke-width:0.0212; stroke-opacity:1; 
stroke-linecap:round; stroke-linejoin:round;">
</g>
<g style="fill:#FFFFFF; fill-opacity:1.0000; 
stroke:#FFFFFF; stroke-width:0.0000; stroke-opacity:1; 
stroke-linecap:round; stroke-linejoin:round;">
<circle cx="143.9600" cy="72.6400" r="0.5000" /> 
</g>
<g style="fill:#FFFFFF; fill-opacity:1.0000; 
stroke:#FFFFFF; stroke-width:0.0212; stroke-opacity:1; 
stroke-linecap:round; stroke-linejoin:round;">
</g>
<g style="fill:#FFFFFF; fill-opacity:1.0000; 
stroke:#FFFFFF; stroke-width:0.0000; stroke-opacity:1; 
stroke-linecap:round; stroke-linejoin:round;">
<circle cx="156.6600" cy="80.2600" r="0.5000" /> 
</g>
<g style="fill:#FFFFFF; fill-opacity:1.0000; 
stroke:#FFFFFF; stroke-width:0.0212; stroke-opacity:1; 
stroke-linecap:round; stroke-linejoin:round;">
</g>
<g style="fill:#FFFFFF; fill-opacity:1.0000; 
stroke:#FFFFFF; stroke-width:0.0000; stroke-opacity:1; 
stroke-linecap:round; stroke-linejoin:round;">
<circle cx="156.6600" cy="77.7200" r="0.5000" /> 
</g>
<g style="fill:#FFFFFF; fill-opacity:1.0000; 
stroke:#FFFFFF; stroke-width:0.0212; stroke-opacity:1; 
stroke-linecap:round; stroke-linejoin:round;">
</g>
<g style="fill:#FFFFFF; fill-opacity:1.0000; 
stroke:#FFFFFF; stroke-width:0.0000; stroke-opacity:1; 
stroke-linecap:round; stroke-linejoin:round;">
<circle cx="156.6600" cy="75.1800" r="0.5000" /> 
</g>
<g style="fill:#FFFFFF; fill-opacity:1.0000; 
stroke:#FFFFFF; stroke-width:0.0212; stroke-opacity:1; 
stroke-linecap:round; stroke-linejoin:round;">
</g>
<g style="fill:#FFFFFF; fill-opacity:1.0000; 
stroke:#FFFFFF; stroke-width:0.0000; stroke-opacity:1; 
stroke-linecap:round; stroke-linejoin:round;">
<circle cx="156.6600" cy="72.6400" r="0.5000" /> 
</g>
<g style="fill:#FFFFFF; fill-opacity:1.0000; 
stroke:#FFFFFF; stroke-width:0.0212; stroke-opacity:1; 
stroke-linecap:round; stroke-linejoin:round;">
</g>
<g style="fill:#000000; fill-opacity:1.0000; 
stroke:#000000; stroke-width:0.0212; stroke-opacity:1; 
stroke-linecap:round; stroke-linejoin:round;">
</g> 
</svg>
