M48
; DRILL file {KiCad 7.0.1} date Mon Apr 17 09:26:53 2023
; FORMAT={-:-/ absolute / inch / decimal}
; #@! TF.CreationDate,2023-04-17T09:26:53+12:00
; #@! TF.GenerationSoftware,Kicad,Pcbnew,7.0.1
; #@! TF.FileFunction,Plated,1,2,PTH
FMAT,2
INCH
; #@! TA.AperFunction,Plated,PTH,ViaDrill
T1C0.0098
; #@! TA.AperFunction,Plated,PTH,ComponentDrill
T2C0.0394
%
G90
G05
T1
X5.3417Y-3.2059
X5.3732Y-2.7409
X5.4026Y-3.0425
X5.4026Y-3.3031
X5.4402Y-3.3787
X5.4508Y-2.9925
X5.4742Y-3.0161
X5.4772Y-2.9437
X5.4911Y-3.3323
X5.5035Y-3.452
X5.5039Y-3.3827
X5.5344Y-3.0
X5.5665Y-3.4744
X5.5787Y-3.3933
X5.5846Y-3.2902
X5.5945Y-3.0402
X5.6124Y-2.8898
X5.6238Y-3.3265
X5.624Y-3.4744
X5.6374Y-3.3937
X5.652Y-3.135
X5.652Y-3.173
X5.652Y-3.211
X5.6632Y-3.015
X5.6772Y-2.8823
X5.6783Y-3.285
X5.6783Y-3.3244
X5.6906Y-3.135
X5.6906Y-3.173
X5.6906Y-3.211
X5.7291Y-3.135
X5.7291Y-3.173
X5.7291Y-3.211
X5.7382Y-2.8504
X5.7677Y-3.135
X5.7677Y-3.173
X5.7677Y-3.211
X5.787Y-2.6606
X5.8028Y-2.7445
X5.8169Y-3.0772
X5.8169Y-3.3035
X5.8185Y-2.8291
X5.8193Y-3.6028
X5.8346Y-2.9126
X5.835Y-3.5189
X5.8504Y-2.9965
X5.8508Y-3.4346
X5.8661Y-3.0811
X5.8669Y-3.3508
X5.8831Y-3.2677
X5.8933Y-3.1244
X5.8933Y-3.2059
T2
X5.2183Y-2.3656
X5.2183Y-2.4656
X5.2183Y-2.5656
X5.2183Y-2.6656
X5.2183Y-2.7656
X5.2183Y-2.8656
X5.2183Y-2.9656
X5.2183Y-3.0656
X5.2183Y-3.1656
X5.2183Y-3.2656
X5.2183Y-3.3656
X5.2183Y-3.4656
X5.2183Y-3.5656
X5.2183Y-3.6656
X6.0171Y-2.3652
X6.0171Y-2.4652
X6.0171Y-2.5652
X6.0171Y-2.6652
X6.0171Y-2.7652
X6.0171Y-2.8652
X6.0171Y-2.9652
X6.0171Y-3.0652
X6.0171Y-3.1652
X6.0171Y-3.2652
X6.0171Y-3.3652
X6.0171Y-3.4652
X6.0171Y-3.5652
X6.0171Y-3.6652
X6.0171Y-3.7652
X6.0171Y-3.8652
X6.0171Y-3.9652
X6.0171Y-4.0652
X6.0171Y-4.1652
X6.0171Y-4.2652
T0
M30
